%TF.GenerationSoftware,KiCad,Pcbnew,9.0.4*%
%TF.CreationDate,2025-11-25T18:28:02+01:00*%
%TF.ProjectId,M2_mosaicG5,4d325f6d-6f73-4616-9963-47352e6b6963,01*%
%TF.SameCoordinates,Original*%
%TF.FileFunction,Copper,L2,Inr*%
%TF.FilePolarity,Positive*%
%FSLAX45Y45*%
G04 Gerber Fmt 4.5, Leading zero omitted, Abs format (unit mm)*
G04 Created by KiCad (PCBNEW 9.0.4) date 2025-11-25 18:28:02*
%MOMM*%
%LPD*%
G01*
G04 APERTURE LIST*
%ADD10C,0.100000*%
%ADD11C,0.150000*%
%ADD12C,0.300000*%
%ADD13C,0.400000*%
%TA.AperFunction,ViaPad*%
%ADD14C,0.500000*%
%TD*%
%TA.AperFunction,Profile*%
%ADD15C,0.100000*%
%TD*%
G04 APERTURE END LIST*
D10*
D11*
X29998900Y-25300220D02*
X40798900Y-25300220D01*
X40798900Y-28500220D01*
X29998900Y-28500220D01*
X29998900Y-25300220D01*
D10*
D11*
X1000000Y-1000000D02*
X40998900Y-1000000D01*
X40998900Y-28700220D01*
X1000000Y-28700220D01*
X1000000Y-1000000D01*
D10*
D11*
X1200000Y-1200000D02*
X40798900Y-1200000D01*
X40798900Y-28500220D01*
X1200000Y-28500220D01*
X1200000Y-1200000D01*
D10*
D11*
X6000000Y-1200000D02*
X6000000Y-1000000D01*
D10*
D11*
X11000000Y-1200000D02*
X11000000Y-1000000D01*
D10*
D11*
X16000000Y-1200000D02*
X16000000Y-1000000D01*
D10*
D11*
X21000000Y-1200000D02*
X21000000Y-1000000D01*
D10*
D11*
X26000000Y-1200000D02*
X26000000Y-1000000D01*
D10*
D11*
X31000000Y-1200000D02*
X31000000Y-1000000D01*
D10*
D11*
X36000000Y-1200000D02*
X36000000Y-1000000D01*
D10*
D11*
X3608916Y-1159360D02*
X3534630Y-1159360D01*
X3571773Y-1159360D02*
X3571773Y-1029360D01*
X3571773Y-1029360D02*
X3559392Y-1047932D01*
X3559392Y-1047932D02*
X3547011Y-1060313D01*
X3547011Y-1060313D02*
X3534630Y-1066503D01*
D10*
D11*
X8534630Y-1041741D02*
X8540821Y-1035551D01*
X8540821Y-1035551D02*
X8553202Y-1029360D01*
X8553202Y-1029360D02*
X8584154Y-1029360D01*
X8584154Y-1029360D02*
X8596535Y-1035551D01*
X8596535Y-1035551D02*
X8602726Y-1041741D01*
X8602726Y-1041741D02*
X8608916Y-1054122D01*
X8608916Y-1054122D02*
X8608916Y-1066503D01*
X8608916Y-1066503D02*
X8602726Y-1085075D01*
X8602726Y-1085075D02*
X8528440Y-1159360D01*
X8528440Y-1159360D02*
X8608916Y-1159360D01*
D10*
D11*
X13528440Y-1029360D02*
X13608916Y-1029360D01*
X13608916Y-1029360D02*
X13565583Y-1078884D01*
X13565583Y-1078884D02*
X13584154Y-1078884D01*
X13584154Y-1078884D02*
X13596535Y-1085075D01*
X13596535Y-1085075D02*
X13602725Y-1091265D01*
X13602725Y-1091265D02*
X13608916Y-1103646D01*
X13608916Y-1103646D02*
X13608916Y-1134599D01*
X13608916Y-1134599D02*
X13602725Y-1146980D01*
X13602725Y-1146980D02*
X13596535Y-1153170D01*
X13596535Y-1153170D02*
X13584154Y-1159360D01*
X13584154Y-1159360D02*
X13547011Y-1159360D01*
X13547011Y-1159360D02*
X13534630Y-1153170D01*
X13534630Y-1153170D02*
X13528440Y-1146980D01*
D10*
D11*
X18596535Y-1072694D02*
X18596535Y-1159360D01*
X18565583Y-1023170D02*
X18534630Y-1116027D01*
X18534630Y-1116027D02*
X18615106Y-1116027D01*
D10*
D11*
X23602725Y-1029360D02*
X23540821Y-1029360D01*
X23540821Y-1029360D02*
X23534630Y-1091265D01*
X23534630Y-1091265D02*
X23540821Y-1085075D01*
X23540821Y-1085075D02*
X23553202Y-1078884D01*
X23553202Y-1078884D02*
X23584154Y-1078884D01*
X23584154Y-1078884D02*
X23596535Y-1085075D01*
X23596535Y-1085075D02*
X23602725Y-1091265D01*
X23602725Y-1091265D02*
X23608916Y-1103646D01*
X23608916Y-1103646D02*
X23608916Y-1134599D01*
X23608916Y-1134599D02*
X23602725Y-1146980D01*
X23602725Y-1146980D02*
X23596535Y-1153170D01*
X23596535Y-1153170D02*
X23584154Y-1159360D01*
X23584154Y-1159360D02*
X23553202Y-1159360D01*
X23553202Y-1159360D02*
X23540821Y-1153170D01*
X23540821Y-1153170D02*
X23534630Y-1146980D01*
D10*
D11*
X28596535Y-1029360D02*
X28571773Y-1029360D01*
X28571773Y-1029360D02*
X28559392Y-1035551D01*
X28559392Y-1035551D02*
X28553202Y-1041741D01*
X28553202Y-1041741D02*
X28540821Y-1060313D01*
X28540821Y-1060313D02*
X28534630Y-1085075D01*
X28534630Y-1085075D02*
X28534630Y-1134599D01*
X28534630Y-1134599D02*
X28540821Y-1146980D01*
X28540821Y-1146980D02*
X28547011Y-1153170D01*
X28547011Y-1153170D02*
X28559392Y-1159360D01*
X28559392Y-1159360D02*
X28584154Y-1159360D01*
X28584154Y-1159360D02*
X28596535Y-1153170D01*
X28596535Y-1153170D02*
X28602725Y-1146980D01*
X28602725Y-1146980D02*
X28608916Y-1134599D01*
X28608916Y-1134599D02*
X28608916Y-1103646D01*
X28608916Y-1103646D02*
X28602725Y-1091265D01*
X28602725Y-1091265D02*
X28596535Y-1085075D01*
X28596535Y-1085075D02*
X28584154Y-1078884D01*
X28584154Y-1078884D02*
X28559392Y-1078884D01*
X28559392Y-1078884D02*
X28547011Y-1085075D01*
X28547011Y-1085075D02*
X28540821Y-1091265D01*
X28540821Y-1091265D02*
X28534630Y-1103646D01*
D10*
D11*
X33528440Y-1029360D02*
X33615106Y-1029360D01*
X33615106Y-1029360D02*
X33559392Y-1159360D01*
D10*
D11*
X38559392Y-1085075D02*
X38547011Y-1078884D01*
X38547011Y-1078884D02*
X38540821Y-1072694D01*
X38540821Y-1072694D02*
X38534630Y-1060313D01*
X38534630Y-1060313D02*
X38534630Y-1054122D01*
X38534630Y-1054122D02*
X38540821Y-1041741D01*
X38540821Y-1041741D02*
X38547011Y-1035551D01*
X38547011Y-1035551D02*
X38559392Y-1029360D01*
X38559392Y-1029360D02*
X38584154Y-1029360D01*
X38584154Y-1029360D02*
X38596535Y-1035551D01*
X38596535Y-1035551D02*
X38602726Y-1041741D01*
X38602726Y-1041741D02*
X38608916Y-1054122D01*
X38608916Y-1054122D02*
X38608916Y-1060313D01*
X38608916Y-1060313D02*
X38602726Y-1072694D01*
X38602726Y-1072694D02*
X38596535Y-1078884D01*
X38596535Y-1078884D02*
X38584154Y-1085075D01*
X38584154Y-1085075D02*
X38559392Y-1085075D01*
X38559392Y-1085075D02*
X38547011Y-1091265D01*
X38547011Y-1091265D02*
X38540821Y-1097456D01*
X38540821Y-1097456D02*
X38534630Y-1109837D01*
X38534630Y-1109837D02*
X38534630Y-1134599D01*
X38534630Y-1134599D02*
X38540821Y-1146980D01*
X38540821Y-1146980D02*
X38547011Y-1153170D01*
X38547011Y-1153170D02*
X38559392Y-1159360D01*
X38559392Y-1159360D02*
X38584154Y-1159360D01*
X38584154Y-1159360D02*
X38596535Y-1153170D01*
X38596535Y-1153170D02*
X38602726Y-1146980D01*
X38602726Y-1146980D02*
X38608916Y-1134599D01*
X38608916Y-1134599D02*
X38608916Y-1109837D01*
X38608916Y-1109837D02*
X38602726Y-1097456D01*
X38602726Y-1097456D02*
X38596535Y-1091265D01*
X38596535Y-1091265D02*
X38584154Y-1085075D01*
D10*
D11*
X6000000Y-28500220D02*
X6000000Y-28700220D01*
D10*
D11*
X11000000Y-28500220D02*
X11000000Y-28700220D01*
D10*
D11*
X16000000Y-28500220D02*
X16000000Y-28700220D01*
D10*
D11*
X21000000Y-28500220D02*
X21000000Y-28700220D01*
D10*
D11*
X26000000Y-28500220D02*
X26000000Y-28700220D01*
D10*
D11*
X31000000Y-28500220D02*
X31000000Y-28700220D01*
D10*
D11*
X36000000Y-28500220D02*
X36000000Y-28700220D01*
D10*
D11*
X3608916Y-28659580D02*
X3534630Y-28659580D01*
X3571773Y-28659580D02*
X3571773Y-28529580D01*
X3571773Y-28529580D02*
X3559392Y-28548152D01*
X3559392Y-28548152D02*
X3547011Y-28560533D01*
X3547011Y-28560533D02*
X3534630Y-28566723D01*
D10*
D11*
X8534630Y-28541961D02*
X8540821Y-28535771D01*
X8540821Y-28535771D02*
X8553202Y-28529580D01*
X8553202Y-28529580D02*
X8584154Y-28529580D01*
X8584154Y-28529580D02*
X8596535Y-28535771D01*
X8596535Y-28535771D02*
X8602726Y-28541961D01*
X8602726Y-28541961D02*
X8608916Y-28554342D01*
X8608916Y-28554342D02*
X8608916Y-28566723D01*
X8608916Y-28566723D02*
X8602726Y-28585295D01*
X8602726Y-28585295D02*
X8528440Y-28659580D01*
X8528440Y-28659580D02*
X8608916Y-28659580D01*
D10*
D11*
X13528440Y-28529580D02*
X13608916Y-28529580D01*
X13608916Y-28529580D02*
X13565583Y-28579104D01*
X13565583Y-28579104D02*
X13584154Y-28579104D01*
X13584154Y-28579104D02*
X13596535Y-28585295D01*
X13596535Y-28585295D02*
X13602725Y-28591485D01*
X13602725Y-28591485D02*
X13608916Y-28603866D01*
X13608916Y-28603866D02*
X13608916Y-28634818D01*
X13608916Y-28634818D02*
X13602725Y-28647199D01*
X13602725Y-28647199D02*
X13596535Y-28653390D01*
X13596535Y-28653390D02*
X13584154Y-28659580D01*
X13584154Y-28659580D02*
X13547011Y-28659580D01*
X13547011Y-28659580D02*
X13534630Y-28653390D01*
X13534630Y-28653390D02*
X13528440Y-28647199D01*
D10*
D11*
X18596535Y-28572914D02*
X18596535Y-28659580D01*
X18565583Y-28523390D02*
X18534630Y-28616247D01*
X18534630Y-28616247D02*
X18615106Y-28616247D01*
D10*
D11*
X23602725Y-28529580D02*
X23540821Y-28529580D01*
X23540821Y-28529580D02*
X23534630Y-28591485D01*
X23534630Y-28591485D02*
X23540821Y-28585295D01*
X23540821Y-28585295D02*
X23553202Y-28579104D01*
X23553202Y-28579104D02*
X23584154Y-28579104D01*
X23584154Y-28579104D02*
X23596535Y-28585295D01*
X23596535Y-28585295D02*
X23602725Y-28591485D01*
X23602725Y-28591485D02*
X23608916Y-28603866D01*
X23608916Y-28603866D02*
X23608916Y-28634818D01*
X23608916Y-28634818D02*
X23602725Y-28647199D01*
X23602725Y-28647199D02*
X23596535Y-28653390D01*
X23596535Y-28653390D02*
X23584154Y-28659580D01*
X23584154Y-28659580D02*
X23553202Y-28659580D01*
X23553202Y-28659580D02*
X23540821Y-28653390D01*
X23540821Y-28653390D02*
X23534630Y-28647199D01*
D10*
D11*
X28596535Y-28529580D02*
X28571773Y-28529580D01*
X28571773Y-28529580D02*
X28559392Y-28535771D01*
X28559392Y-28535771D02*
X28553202Y-28541961D01*
X28553202Y-28541961D02*
X28540821Y-28560533D01*
X28540821Y-28560533D02*
X28534630Y-28585295D01*
X28534630Y-28585295D02*
X28534630Y-28634818D01*
X28534630Y-28634818D02*
X28540821Y-28647199D01*
X28540821Y-28647199D02*
X28547011Y-28653390D01*
X28547011Y-28653390D02*
X28559392Y-28659580D01*
X28559392Y-28659580D02*
X28584154Y-28659580D01*
X28584154Y-28659580D02*
X28596535Y-28653390D01*
X28596535Y-28653390D02*
X28602725Y-28647199D01*
X28602725Y-28647199D02*
X28608916Y-28634818D01*
X28608916Y-28634818D02*
X28608916Y-28603866D01*
X28608916Y-28603866D02*
X28602725Y-28591485D01*
X28602725Y-28591485D02*
X28596535Y-28585295D01*
X28596535Y-28585295D02*
X28584154Y-28579104D01*
X28584154Y-28579104D02*
X28559392Y-28579104D01*
X28559392Y-28579104D02*
X28547011Y-28585295D01*
X28547011Y-28585295D02*
X28540821Y-28591485D01*
X28540821Y-28591485D02*
X28534630Y-28603866D01*
D10*
D11*
X33528440Y-28529580D02*
X33615106Y-28529580D01*
X33615106Y-28529580D02*
X33559392Y-28659580D01*
D10*
D11*
X38559392Y-28585295D02*
X38547011Y-28579104D01*
X38547011Y-28579104D02*
X38540821Y-28572914D01*
X38540821Y-28572914D02*
X38534630Y-28560533D01*
X38534630Y-28560533D02*
X38534630Y-28554342D01*
X38534630Y-28554342D02*
X38540821Y-28541961D01*
X38540821Y-28541961D02*
X38547011Y-28535771D01*
X38547011Y-28535771D02*
X38559392Y-28529580D01*
X38559392Y-28529580D02*
X38584154Y-28529580D01*
X38584154Y-28529580D02*
X38596535Y-28535771D01*
X38596535Y-28535771D02*
X38602726Y-28541961D01*
X38602726Y-28541961D02*
X38608916Y-28554342D01*
X38608916Y-28554342D02*
X38608916Y-28560533D01*
X38608916Y-28560533D02*
X38602726Y-28572914D01*
X38602726Y-28572914D02*
X38596535Y-28579104D01*
X38596535Y-28579104D02*
X38584154Y-28585295D01*
X38584154Y-28585295D02*
X38559392Y-28585295D01*
X38559392Y-28585295D02*
X38547011Y-28591485D01*
X38547011Y-28591485D02*
X38540821Y-28597676D01*
X38540821Y-28597676D02*
X38534630Y-28610057D01*
X38534630Y-28610057D02*
X38534630Y-28634818D01*
X38534630Y-28634818D02*
X38540821Y-28647199D01*
X38540821Y-28647199D02*
X38547011Y-28653390D01*
X38547011Y-28653390D02*
X38559392Y-28659580D01*
X38559392Y-28659580D02*
X38584154Y-28659580D01*
X38584154Y-28659580D02*
X38596535Y-28653390D01*
X38596535Y-28653390D02*
X38602726Y-28647199D01*
X38602726Y-28647199D02*
X38608916Y-28634818D01*
X38608916Y-28634818D02*
X38608916Y-28610057D01*
X38608916Y-28610057D02*
X38602726Y-28597676D01*
X38602726Y-28597676D02*
X38596535Y-28591485D01*
X38596535Y-28591485D02*
X38584154Y-28585295D01*
D10*
D11*
X1000000Y-6000000D02*
X1200000Y-6000000D01*
D10*
D11*
X1000000Y-11000000D02*
X1200000Y-11000000D01*
D10*
D11*
X1000000Y-16000000D02*
X1200000Y-16000000D01*
D10*
D11*
X1000000Y-21000000D02*
X1200000Y-21000000D01*
D10*
D11*
X1000000Y-26000000D02*
X1200000Y-26000000D01*
D10*
D11*
X1069048Y-3522218D02*
X1130952Y-3522218D01*
X1056667Y-3559360D02*
X1100000Y-3429360D01*
X1100000Y-3429360D02*
X1143333Y-3559360D01*
D10*
D11*
X1109286Y-8491265D02*
X1127857Y-8497456D01*
X1127857Y-8497456D02*
X1134048Y-8503646D01*
X1134048Y-8503646D02*
X1140238Y-8516027D01*
X1140238Y-8516027D02*
X1140238Y-8534599D01*
X1140238Y-8534599D02*
X1134048Y-8546980D01*
X1134048Y-8546980D02*
X1127857Y-8553170D01*
X1127857Y-8553170D02*
X1115476Y-8559360D01*
X1115476Y-8559360D02*
X1065952Y-8559360D01*
X1065952Y-8559360D02*
X1065952Y-8429360D01*
X1065952Y-8429360D02*
X1109286Y-8429360D01*
X1109286Y-8429360D02*
X1121667Y-8435551D01*
X1121667Y-8435551D02*
X1127857Y-8441741D01*
X1127857Y-8441741D02*
X1134048Y-8454122D01*
X1134048Y-8454122D02*
X1134048Y-8466503D01*
X1134048Y-8466503D02*
X1127857Y-8478884D01*
X1127857Y-8478884D02*
X1121667Y-8485075D01*
X1121667Y-8485075D02*
X1109286Y-8491265D01*
X1109286Y-8491265D02*
X1065952Y-8491265D01*
D10*
D11*
X1140238Y-13546979D02*
X1134048Y-13553170D01*
X1134048Y-13553170D02*
X1115476Y-13559360D01*
X1115476Y-13559360D02*
X1103095Y-13559360D01*
X1103095Y-13559360D02*
X1084524Y-13553170D01*
X1084524Y-13553170D02*
X1072143Y-13540789D01*
X1072143Y-13540789D02*
X1065952Y-13528408D01*
X1065952Y-13528408D02*
X1059762Y-13503646D01*
X1059762Y-13503646D02*
X1059762Y-13485075D01*
X1059762Y-13485075D02*
X1065952Y-13460313D01*
X1065952Y-13460313D02*
X1072143Y-13447932D01*
X1072143Y-13447932D02*
X1084524Y-13435551D01*
X1084524Y-13435551D02*
X1103095Y-13429360D01*
X1103095Y-13429360D02*
X1115476Y-13429360D01*
X1115476Y-13429360D02*
X1134048Y-13435551D01*
X1134048Y-13435551D02*
X1140238Y-13441741D01*
D10*
D11*
X1065952Y-18559360D02*
X1065952Y-18429360D01*
X1065952Y-18429360D02*
X1096905Y-18429360D01*
X1096905Y-18429360D02*
X1115476Y-18435551D01*
X1115476Y-18435551D02*
X1127857Y-18447932D01*
X1127857Y-18447932D02*
X1134048Y-18460313D01*
X1134048Y-18460313D02*
X1140238Y-18485075D01*
X1140238Y-18485075D02*
X1140238Y-18503646D01*
X1140238Y-18503646D02*
X1134048Y-18528408D01*
X1134048Y-18528408D02*
X1127857Y-18540789D01*
X1127857Y-18540789D02*
X1115476Y-18553170D01*
X1115476Y-18553170D02*
X1096905Y-18559360D01*
X1096905Y-18559360D02*
X1065952Y-18559360D01*
D10*
D11*
X1072143Y-23491265D02*
X1115476Y-23491265D01*
X1134048Y-23559360D02*
X1072143Y-23559360D01*
X1072143Y-23559360D02*
X1072143Y-23429360D01*
X1072143Y-23429360D02*
X1134048Y-23429360D01*
D10*
D11*
X1118571Y-28491265D02*
X1075238Y-28491265D01*
X1075238Y-28559360D02*
X1075238Y-28429360D01*
X1075238Y-28429360D02*
X1137143Y-28429360D01*
D10*
D11*
X40998900Y-6000000D02*
X40798900Y-6000000D01*
D10*
D11*
X40998900Y-11000000D02*
X40798900Y-11000000D01*
D10*
D11*
X40998900Y-16000000D02*
X40798900Y-16000000D01*
D10*
D11*
X40998900Y-21000000D02*
X40798900Y-21000000D01*
D10*
D11*
X40998900Y-26000000D02*
X40798900Y-26000000D01*
D10*
D11*
X40867948Y-3522218D02*
X40929852Y-3522218D01*
X40855567Y-3559360D02*
X40898900Y-3429360D01*
X40898900Y-3429360D02*
X40942233Y-3559360D01*
D10*
D11*
X40908186Y-8491265D02*
X40926757Y-8497456D01*
X40926757Y-8497456D02*
X40932948Y-8503646D01*
X40932948Y-8503646D02*
X40939138Y-8516027D01*
X40939138Y-8516027D02*
X40939138Y-8534599D01*
X40939138Y-8534599D02*
X40932948Y-8546980D01*
X40932948Y-8546980D02*
X40926757Y-8553170D01*
X40926757Y-8553170D02*
X40914376Y-8559360D01*
X40914376Y-8559360D02*
X40864852Y-8559360D01*
X40864852Y-8559360D02*
X40864852Y-8429360D01*
X40864852Y-8429360D02*
X40908186Y-8429360D01*
X40908186Y-8429360D02*
X40920567Y-8435551D01*
X40920567Y-8435551D02*
X40926757Y-8441741D01*
X40926757Y-8441741D02*
X40932948Y-8454122D01*
X40932948Y-8454122D02*
X40932948Y-8466503D01*
X40932948Y-8466503D02*
X40926757Y-8478884D01*
X40926757Y-8478884D02*
X40920567Y-8485075D01*
X40920567Y-8485075D02*
X40908186Y-8491265D01*
X40908186Y-8491265D02*
X40864852Y-8491265D01*
D10*
D11*
X40939138Y-13546979D02*
X40932948Y-13553170D01*
X40932948Y-13553170D02*
X40914376Y-13559360D01*
X40914376Y-13559360D02*
X40901995Y-13559360D01*
X40901995Y-13559360D02*
X40883424Y-13553170D01*
X40883424Y-13553170D02*
X40871043Y-13540789D01*
X40871043Y-13540789D02*
X40864852Y-13528408D01*
X40864852Y-13528408D02*
X40858662Y-13503646D01*
X40858662Y-13503646D02*
X40858662Y-13485075D01*
X40858662Y-13485075D02*
X40864852Y-13460313D01*
X40864852Y-13460313D02*
X40871043Y-13447932D01*
X40871043Y-13447932D02*
X40883424Y-13435551D01*
X40883424Y-13435551D02*
X40901995Y-13429360D01*
X40901995Y-13429360D02*
X40914376Y-13429360D01*
X40914376Y-13429360D02*
X40932948Y-13435551D01*
X40932948Y-13435551D02*
X40939138Y-13441741D01*
D10*
D11*
X40864852Y-18559360D02*
X40864852Y-18429360D01*
X40864852Y-18429360D02*
X40895805Y-18429360D01*
X40895805Y-18429360D02*
X40914376Y-18435551D01*
X40914376Y-18435551D02*
X40926757Y-18447932D01*
X40926757Y-18447932D02*
X40932948Y-18460313D01*
X40932948Y-18460313D02*
X40939138Y-18485075D01*
X40939138Y-18485075D02*
X40939138Y-18503646D01*
X40939138Y-18503646D02*
X40932948Y-18528408D01*
X40932948Y-18528408D02*
X40926757Y-18540789D01*
X40926757Y-18540789D02*
X40914376Y-18553170D01*
X40914376Y-18553170D02*
X40895805Y-18559360D01*
X40895805Y-18559360D02*
X40864852Y-18559360D01*
D10*
D11*
X40871043Y-23491265D02*
X40914376Y-23491265D01*
X40932948Y-23559360D02*
X40871043Y-23559360D01*
X40871043Y-23559360D02*
X40871043Y-23429360D01*
X40871043Y-23429360D02*
X40932948Y-23429360D01*
D10*
D11*
X40917471Y-28491265D02*
X40874138Y-28491265D01*
X40874138Y-28559360D02*
X40874138Y-28429360D01*
X40874138Y-28429360D02*
X40936043Y-28429360D01*
D10*
D11*
X32344483Y-28078833D02*
X32344483Y-27928833D01*
X32344483Y-27928833D02*
X32380197Y-27928833D01*
X32380197Y-27928833D02*
X32401625Y-27935976D01*
X32401625Y-27935976D02*
X32415911Y-27950261D01*
X32415911Y-27950261D02*
X32423054Y-27964547D01*
X32423054Y-27964547D02*
X32430197Y-27993118D01*
X32430197Y-27993118D02*
X32430197Y-28014547D01*
X32430197Y-28014547D02*
X32423054Y-28043118D01*
X32423054Y-28043118D02*
X32415911Y-28057404D01*
X32415911Y-28057404D02*
X32401625Y-28071690D01*
X32401625Y-28071690D02*
X32380197Y-28078833D01*
X32380197Y-28078833D02*
X32344483Y-28078833D01*
X32558768Y-28078833D02*
X32558768Y-28000261D01*
X32558768Y-28000261D02*
X32551625Y-27985976D01*
X32551625Y-27985976D02*
X32537340Y-27978833D01*
X32537340Y-27978833D02*
X32508768Y-27978833D01*
X32508768Y-27978833D02*
X32494483Y-27985976D01*
X32558768Y-28071690D02*
X32544483Y-28078833D01*
X32544483Y-28078833D02*
X32508768Y-28078833D01*
X32508768Y-28078833D02*
X32494483Y-28071690D01*
X32494483Y-28071690D02*
X32487340Y-28057404D01*
X32487340Y-28057404D02*
X32487340Y-28043118D01*
X32487340Y-28043118D02*
X32494483Y-28028833D01*
X32494483Y-28028833D02*
X32508768Y-28021690D01*
X32508768Y-28021690D02*
X32544483Y-28021690D01*
X32544483Y-28021690D02*
X32558768Y-28014547D01*
X32608768Y-27978833D02*
X32665911Y-27978833D01*
X32630197Y-27928833D02*
X32630197Y-28057404D01*
X32630197Y-28057404D02*
X32637340Y-28071690D01*
X32637340Y-28071690D02*
X32651625Y-28078833D01*
X32651625Y-28078833D02*
X32665911Y-28078833D01*
X32773054Y-28071690D02*
X32758768Y-28078833D01*
X32758768Y-28078833D02*
X32730197Y-28078833D01*
X32730197Y-28078833D02*
X32715911Y-28071690D01*
X32715911Y-28071690D02*
X32708768Y-28057404D01*
X32708768Y-28057404D02*
X32708768Y-28000261D01*
X32708768Y-28000261D02*
X32715911Y-27985976D01*
X32715911Y-27985976D02*
X32730197Y-27978833D01*
X32730197Y-27978833D02*
X32758768Y-27978833D01*
X32758768Y-27978833D02*
X32773054Y-27985976D01*
X32773054Y-27985976D02*
X32780197Y-28000261D01*
X32780197Y-28000261D02*
X32780197Y-28014547D01*
X32780197Y-28014547D02*
X32708768Y-28028833D01*
X32844483Y-28064547D02*
X32851625Y-28071690D01*
X32851625Y-28071690D02*
X32844483Y-28078833D01*
X32844483Y-28078833D02*
X32837340Y-28071690D01*
X32837340Y-28071690D02*
X32844483Y-28064547D01*
X32844483Y-28064547D02*
X32844483Y-28078833D01*
X32844483Y-27985976D02*
X32851625Y-27993118D01*
X32851625Y-27993118D02*
X32844483Y-28000261D01*
X32844483Y-28000261D02*
X32837340Y-27993118D01*
X32837340Y-27993118D02*
X32844483Y-27985976D01*
X32844483Y-27985976D02*
X32844483Y-28000261D01*
D10*
D11*
X29998900Y-28150220D02*
X40798900Y-28150220D01*
D10*
D11*
X30144483Y-28358833D02*
X30144483Y-28208833D01*
X30230197Y-28358833D02*
X30165911Y-28273118D01*
X30230197Y-28208833D02*
X30144483Y-28294547D01*
X30294483Y-28358833D02*
X30294483Y-28258833D01*
X30294483Y-28208833D02*
X30287340Y-28215976D01*
X30287340Y-28215976D02*
X30294483Y-28223118D01*
X30294483Y-28223118D02*
X30301625Y-28215976D01*
X30301625Y-28215976D02*
X30294483Y-28208833D01*
X30294483Y-28208833D02*
X30294483Y-28223118D01*
X30451625Y-28344547D02*
X30444483Y-28351690D01*
X30444483Y-28351690D02*
X30423054Y-28358833D01*
X30423054Y-28358833D02*
X30408768Y-28358833D01*
X30408768Y-28358833D02*
X30387340Y-28351690D01*
X30387340Y-28351690D02*
X30373054Y-28337404D01*
X30373054Y-28337404D02*
X30365911Y-28323118D01*
X30365911Y-28323118D02*
X30358768Y-28294547D01*
X30358768Y-28294547D02*
X30358768Y-28273118D01*
X30358768Y-28273118D02*
X30365911Y-28244547D01*
X30365911Y-28244547D02*
X30373054Y-28230261D01*
X30373054Y-28230261D02*
X30387340Y-28215976D01*
X30387340Y-28215976D02*
X30408768Y-28208833D01*
X30408768Y-28208833D02*
X30423054Y-28208833D01*
X30423054Y-28208833D02*
X30444483Y-28215976D01*
X30444483Y-28215976D02*
X30451625Y-28223118D01*
X30580197Y-28358833D02*
X30580197Y-28280261D01*
X30580197Y-28280261D02*
X30573054Y-28265976D01*
X30573054Y-28265976D02*
X30558768Y-28258833D01*
X30558768Y-28258833D02*
X30530197Y-28258833D01*
X30530197Y-28258833D02*
X30515911Y-28265976D01*
X30580197Y-28351690D02*
X30565911Y-28358833D01*
X30565911Y-28358833D02*
X30530197Y-28358833D01*
X30530197Y-28358833D02*
X30515911Y-28351690D01*
X30515911Y-28351690D02*
X30508768Y-28337404D01*
X30508768Y-28337404D02*
X30508768Y-28323118D01*
X30508768Y-28323118D02*
X30515911Y-28308833D01*
X30515911Y-28308833D02*
X30530197Y-28301690D01*
X30530197Y-28301690D02*
X30565911Y-28301690D01*
X30565911Y-28301690D02*
X30580197Y-28294547D01*
X30715911Y-28358833D02*
X30715911Y-28208833D01*
X30715911Y-28351690D02*
X30701625Y-28358833D01*
X30701625Y-28358833D02*
X30673054Y-28358833D01*
X30673054Y-28358833D02*
X30658768Y-28351690D01*
X30658768Y-28351690D02*
X30651625Y-28344547D01*
X30651625Y-28344547D02*
X30644483Y-28330261D01*
X30644483Y-28330261D02*
X30644483Y-28287404D01*
X30644483Y-28287404D02*
X30651625Y-28273118D01*
X30651625Y-28273118D02*
X30658768Y-28265976D01*
X30658768Y-28265976D02*
X30673054Y-28258833D01*
X30673054Y-28258833D02*
X30701625Y-28258833D01*
X30701625Y-28258833D02*
X30715911Y-28265976D01*
X30901625Y-28280261D02*
X30951625Y-28280261D01*
X30973054Y-28358833D02*
X30901625Y-28358833D01*
X30901625Y-28358833D02*
X30901625Y-28208833D01*
X30901625Y-28208833D02*
X30973054Y-28208833D01*
X31037340Y-28344547D02*
X31044483Y-28351690D01*
X31044483Y-28351690D02*
X31037340Y-28358833D01*
X31037340Y-28358833D02*
X31030197Y-28351690D01*
X31030197Y-28351690D02*
X31037340Y-28344547D01*
X31037340Y-28344547D02*
X31037340Y-28358833D01*
X31108768Y-28358833D02*
X31108768Y-28208833D01*
X31108768Y-28208833D02*
X31144483Y-28208833D01*
X31144483Y-28208833D02*
X31165911Y-28215976D01*
X31165911Y-28215976D02*
X31180197Y-28230261D01*
X31180197Y-28230261D02*
X31187340Y-28244547D01*
X31187340Y-28244547D02*
X31194483Y-28273118D01*
X31194483Y-28273118D02*
X31194483Y-28294547D01*
X31194483Y-28294547D02*
X31187340Y-28323118D01*
X31187340Y-28323118D02*
X31180197Y-28337404D01*
X31180197Y-28337404D02*
X31165911Y-28351690D01*
X31165911Y-28351690D02*
X31144483Y-28358833D01*
X31144483Y-28358833D02*
X31108768Y-28358833D01*
X31258768Y-28344547D02*
X31265911Y-28351690D01*
X31265911Y-28351690D02*
X31258768Y-28358833D01*
X31258768Y-28358833D02*
X31251626Y-28351690D01*
X31251626Y-28351690D02*
X31258768Y-28344547D01*
X31258768Y-28344547D02*
X31258768Y-28358833D01*
X31323054Y-28315976D02*
X31394483Y-28315976D01*
X31308768Y-28358833D02*
X31358768Y-28208833D01*
X31358768Y-28208833D02*
X31408768Y-28358833D01*
X31458768Y-28344547D02*
X31465911Y-28351690D01*
X31465911Y-28351690D02*
X31458768Y-28358833D01*
X31458768Y-28358833D02*
X31451626Y-28351690D01*
X31451626Y-28351690D02*
X31458768Y-28344547D01*
X31458768Y-28344547D02*
X31458768Y-28358833D01*
X31651626Y-28358833D02*
X31680197Y-28358833D01*
X31680197Y-28358833D02*
X31694483Y-28351690D01*
X31694483Y-28351690D02*
X31701626Y-28344547D01*
X31701626Y-28344547D02*
X31715911Y-28323118D01*
X31715911Y-28323118D02*
X31723054Y-28294547D01*
X31723054Y-28294547D02*
X31723054Y-28237404D01*
X31723054Y-28237404D02*
X31715911Y-28223118D01*
X31715911Y-28223118D02*
X31708768Y-28215976D01*
X31708768Y-28215976D02*
X31694483Y-28208833D01*
X31694483Y-28208833D02*
X31665911Y-28208833D01*
X31665911Y-28208833D02*
X31651626Y-28215976D01*
X31651626Y-28215976D02*
X31644483Y-28223118D01*
X31644483Y-28223118D02*
X31637340Y-28237404D01*
X31637340Y-28237404D02*
X31637340Y-28273118D01*
X31637340Y-28273118D02*
X31644483Y-28287404D01*
X31644483Y-28287404D02*
X31651626Y-28294547D01*
X31651626Y-28294547D02*
X31665911Y-28301690D01*
X31665911Y-28301690D02*
X31694483Y-28301690D01*
X31694483Y-28301690D02*
X31708768Y-28294547D01*
X31708768Y-28294547D02*
X31715911Y-28287404D01*
X31715911Y-28287404D02*
X31723054Y-28273118D01*
X31787340Y-28344547D02*
X31794483Y-28351690D01*
X31794483Y-28351690D02*
X31787340Y-28358833D01*
X31787340Y-28358833D02*
X31780197Y-28351690D01*
X31780197Y-28351690D02*
X31787340Y-28344547D01*
X31787340Y-28344547D02*
X31787340Y-28358833D01*
X31887340Y-28208833D02*
X31901626Y-28208833D01*
X31901626Y-28208833D02*
X31915911Y-28215976D01*
X31915911Y-28215976D02*
X31923054Y-28223118D01*
X31923054Y-28223118D02*
X31930197Y-28237404D01*
X31930197Y-28237404D02*
X31937340Y-28265976D01*
X31937340Y-28265976D02*
X31937340Y-28301690D01*
X31937340Y-28301690D02*
X31930197Y-28330261D01*
X31930197Y-28330261D02*
X31923054Y-28344547D01*
X31923054Y-28344547D02*
X31915911Y-28351690D01*
X31915911Y-28351690D02*
X31901626Y-28358833D01*
X31901626Y-28358833D02*
X31887340Y-28358833D01*
X31887340Y-28358833D02*
X31873054Y-28351690D01*
X31873054Y-28351690D02*
X31865911Y-28344547D01*
X31865911Y-28344547D02*
X31858768Y-28330261D01*
X31858768Y-28330261D02*
X31851626Y-28301690D01*
X31851626Y-28301690D02*
X31851626Y-28265976D01*
X31851626Y-28265976D02*
X31858768Y-28237404D01*
X31858768Y-28237404D02*
X31865911Y-28223118D01*
X31865911Y-28223118D02*
X31873054Y-28215976D01*
X31873054Y-28215976D02*
X31887340Y-28208833D01*
X32001625Y-28344547D02*
X32008768Y-28351690D01*
X32008768Y-28351690D02*
X32001625Y-28358833D01*
X32001625Y-28358833D02*
X31994483Y-28351690D01*
X31994483Y-28351690D02*
X32001625Y-28344547D01*
X32001625Y-28344547D02*
X32001625Y-28358833D01*
X32137340Y-28258833D02*
X32137340Y-28358833D01*
X32101626Y-28201690D02*
X32065911Y-28308833D01*
X32065911Y-28308833D02*
X32158768Y-28308833D01*
D10*
D11*
X29998900Y-27850220D02*
X40798900Y-27850220D01*
D10*
D12*
X38740065Y-28078053D02*
X38690065Y-28006624D01*
X38654351Y-28078053D02*
X38654351Y-27928053D01*
X38654351Y-27928053D02*
X38711494Y-27928053D01*
X38711494Y-27928053D02*
X38725780Y-27935196D01*
X38725780Y-27935196D02*
X38732923Y-27942338D01*
X38732923Y-27942338D02*
X38740065Y-27956624D01*
X38740065Y-27956624D02*
X38740065Y-27978053D01*
X38740065Y-27978053D02*
X38732923Y-27992338D01*
X38732923Y-27992338D02*
X38725780Y-27999481D01*
X38725780Y-27999481D02*
X38711494Y-28006624D01*
X38711494Y-28006624D02*
X38654351Y-28006624D01*
X38861494Y-28070910D02*
X38847208Y-28078053D01*
X38847208Y-28078053D02*
X38818637Y-28078053D01*
X38818637Y-28078053D02*
X38804351Y-28070910D01*
X38804351Y-28070910D02*
X38797208Y-28056624D01*
X38797208Y-28056624D02*
X38797208Y-27999481D01*
X38797208Y-27999481D02*
X38804351Y-27985196D01*
X38804351Y-27985196D02*
X38818637Y-27978053D01*
X38818637Y-27978053D02*
X38847208Y-27978053D01*
X38847208Y-27978053D02*
X38861494Y-27985196D01*
X38861494Y-27985196D02*
X38868637Y-27999481D01*
X38868637Y-27999481D02*
X38868637Y-28013767D01*
X38868637Y-28013767D02*
X38797208Y-28028053D01*
X38918637Y-27978053D02*
X38954351Y-28078053D01*
X38954351Y-28078053D02*
X38990065Y-27978053D01*
X39047208Y-28063767D02*
X39054351Y-28070910D01*
X39054351Y-28070910D02*
X39047208Y-28078053D01*
X39047208Y-28078053D02*
X39040065Y-28070910D01*
X39040065Y-28070910D02*
X39047208Y-28063767D01*
X39047208Y-28063767D02*
X39047208Y-28078053D01*
X39047208Y-27985196D02*
X39054351Y-27992338D01*
X39054351Y-27992338D02*
X39047208Y-27999481D01*
X39047208Y-27999481D02*
X39040065Y-27992338D01*
X39040065Y-27992338D02*
X39047208Y-27985196D01*
X39047208Y-27985196D02*
X39047208Y-27999481D01*
X39261494Y-27928053D02*
X39275780Y-27928053D01*
X39275780Y-27928053D02*
X39290065Y-27935196D01*
X39290065Y-27935196D02*
X39297208Y-27942338D01*
X39297208Y-27942338D02*
X39304351Y-27956624D01*
X39304351Y-27956624D02*
X39311494Y-27985196D01*
X39311494Y-27985196D02*
X39311494Y-28020910D01*
X39311494Y-28020910D02*
X39304351Y-28049481D01*
X39304351Y-28049481D02*
X39297208Y-28063767D01*
X39297208Y-28063767D02*
X39290065Y-28070910D01*
X39290065Y-28070910D02*
X39275780Y-28078053D01*
X39275780Y-28078053D02*
X39261494Y-28078053D01*
X39261494Y-28078053D02*
X39247208Y-28070910D01*
X39247208Y-28070910D02*
X39240065Y-28063767D01*
X39240065Y-28063767D02*
X39232922Y-28049481D01*
X39232922Y-28049481D02*
X39225780Y-28020910D01*
X39225780Y-28020910D02*
X39225780Y-27985196D01*
X39225780Y-27985196D02*
X39232922Y-27956624D01*
X39232922Y-27956624D02*
X39240065Y-27942338D01*
X39240065Y-27942338D02*
X39247208Y-27935196D01*
X39247208Y-27935196D02*
X39261494Y-27928053D01*
X39454351Y-28078053D02*
X39368637Y-28078053D01*
X39411494Y-28078053D02*
X39411494Y-27928053D01*
X39411494Y-27928053D02*
X39397208Y-27949481D01*
X39397208Y-27949481D02*
X39382922Y-27963767D01*
X39382922Y-27963767D02*
X39368637Y-27970910D01*
D10*
D11*
X30137340Y-28071690D02*
X30158768Y-28078833D01*
X30158768Y-28078833D02*
X30194483Y-28078833D01*
X30194483Y-28078833D02*
X30208768Y-28071690D01*
X30208768Y-28071690D02*
X30215911Y-28064547D01*
X30215911Y-28064547D02*
X30223054Y-28050261D01*
X30223054Y-28050261D02*
X30223054Y-28035976D01*
X30223054Y-28035976D02*
X30215911Y-28021690D01*
X30215911Y-28021690D02*
X30208768Y-28014547D01*
X30208768Y-28014547D02*
X30194483Y-28007404D01*
X30194483Y-28007404D02*
X30165911Y-28000261D01*
X30165911Y-28000261D02*
X30151625Y-27993118D01*
X30151625Y-27993118D02*
X30144483Y-27985976D01*
X30144483Y-27985976D02*
X30137340Y-27971690D01*
X30137340Y-27971690D02*
X30137340Y-27957404D01*
X30137340Y-27957404D02*
X30144483Y-27943118D01*
X30144483Y-27943118D02*
X30151625Y-27935976D01*
X30151625Y-27935976D02*
X30165911Y-27928833D01*
X30165911Y-27928833D02*
X30201625Y-27928833D01*
X30201625Y-27928833D02*
X30223054Y-27935976D01*
X30287340Y-28078833D02*
X30287340Y-27978833D01*
X30287340Y-27928833D02*
X30280197Y-27935976D01*
X30280197Y-27935976D02*
X30287340Y-27943118D01*
X30287340Y-27943118D02*
X30294483Y-27935976D01*
X30294483Y-27935976D02*
X30287340Y-27928833D01*
X30287340Y-27928833D02*
X30287340Y-27943118D01*
X30344483Y-27978833D02*
X30423054Y-27978833D01*
X30423054Y-27978833D02*
X30344483Y-28078833D01*
X30344483Y-28078833D02*
X30423054Y-28078833D01*
X30537340Y-28071690D02*
X30523054Y-28078833D01*
X30523054Y-28078833D02*
X30494483Y-28078833D01*
X30494483Y-28078833D02*
X30480197Y-28071690D01*
X30480197Y-28071690D02*
X30473054Y-28057404D01*
X30473054Y-28057404D02*
X30473054Y-28000261D01*
X30473054Y-28000261D02*
X30480197Y-27985976D01*
X30480197Y-27985976D02*
X30494483Y-27978833D01*
X30494483Y-27978833D02*
X30523054Y-27978833D01*
X30523054Y-27978833D02*
X30537340Y-27985976D01*
X30537340Y-27985976D02*
X30544483Y-28000261D01*
X30544483Y-28000261D02*
X30544483Y-28014547D01*
X30544483Y-28014547D02*
X30473054Y-28028833D01*
X30608768Y-28064547D02*
X30615911Y-28071690D01*
X30615911Y-28071690D02*
X30608768Y-28078833D01*
X30608768Y-28078833D02*
X30601625Y-28071690D01*
X30601625Y-28071690D02*
X30608768Y-28064547D01*
X30608768Y-28064547D02*
X30608768Y-28078833D01*
X30608768Y-27985976D02*
X30615911Y-27993118D01*
X30615911Y-27993118D02*
X30608768Y-28000261D01*
X30608768Y-28000261D02*
X30601625Y-27993118D01*
X30601625Y-27993118D02*
X30608768Y-27985976D01*
X30608768Y-27985976D02*
X30608768Y-28000261D01*
X30787340Y-28035976D02*
X30858768Y-28035976D01*
X30773054Y-28078833D02*
X30823054Y-27928833D01*
X30823054Y-27928833D02*
X30873054Y-28078833D01*
X30908768Y-27928833D02*
X31001625Y-27928833D01*
X31001625Y-27928833D02*
X30951625Y-27985976D01*
X30951625Y-27985976D02*
X30973054Y-27985976D01*
X30973054Y-27985976D02*
X30987340Y-27993118D01*
X30987340Y-27993118D02*
X30994483Y-28000261D01*
X30994483Y-28000261D02*
X31001625Y-28014547D01*
X31001625Y-28014547D02*
X31001625Y-28050261D01*
X31001625Y-28050261D02*
X30994483Y-28064547D01*
X30994483Y-28064547D02*
X30987340Y-28071690D01*
X30987340Y-28071690D02*
X30973054Y-28078833D01*
X30973054Y-28078833D02*
X30930197Y-28078833D01*
X30930197Y-28078833D02*
X30915911Y-28071690D01*
X30915911Y-28071690D02*
X30908768Y-28064547D01*
D10*
D11*
X38644483Y-28358833D02*
X38644483Y-28208833D01*
X38780197Y-28358833D02*
X38780197Y-28208833D01*
X38780197Y-28351690D02*
X38765911Y-28358833D01*
X38765911Y-28358833D02*
X38737340Y-28358833D01*
X38737340Y-28358833D02*
X38723054Y-28351690D01*
X38723054Y-28351690D02*
X38715911Y-28344547D01*
X38715911Y-28344547D02*
X38708768Y-28330261D01*
X38708768Y-28330261D02*
X38708768Y-28287404D01*
X38708768Y-28287404D02*
X38715911Y-28273118D01*
X38715911Y-28273118D02*
X38723054Y-28265976D01*
X38723054Y-28265976D02*
X38737340Y-28258833D01*
X38737340Y-28258833D02*
X38765911Y-28258833D01*
X38765911Y-28258833D02*
X38780197Y-28265976D01*
X38851626Y-28344547D02*
X38858768Y-28351690D01*
X38858768Y-28351690D02*
X38851626Y-28358833D01*
X38851626Y-28358833D02*
X38844483Y-28351690D01*
X38844483Y-28351690D02*
X38851626Y-28344547D01*
X38851626Y-28344547D02*
X38851626Y-28358833D01*
X38851626Y-28265976D02*
X38858768Y-28273118D01*
X38858768Y-28273118D02*
X38851626Y-28280261D01*
X38851626Y-28280261D02*
X38844483Y-28273118D01*
X38844483Y-28273118D02*
X38851626Y-28265976D01*
X38851626Y-28265976D02*
X38851626Y-28280261D01*
X39144483Y-28201690D02*
X39015911Y-28394547D01*
X39273054Y-28358833D02*
X39187340Y-28358833D01*
X39230197Y-28358833D02*
X39230197Y-28208833D01*
X39230197Y-28208833D02*
X39215911Y-28230261D01*
X39215911Y-28230261D02*
X39201626Y-28244547D01*
X39201626Y-28244547D02*
X39187340Y-28251690D01*
D10*
D11*
X29998900Y-27450220D02*
X40798900Y-27450220D01*
D10*
D13*
X30168073Y-27520664D02*
X30282358Y-27520664D01*
X30200216Y-27720664D02*
X30225216Y-27520664D01*
X30324025Y-27720664D02*
X30340692Y-27587330D01*
X30349025Y-27520664D02*
X30338311Y-27530188D01*
X30338311Y-27530188D02*
X30346644Y-27539711D01*
X30346644Y-27539711D02*
X30357359Y-27530188D01*
X30357359Y-27530188D02*
X30349025Y-27520664D01*
X30349025Y-27520664D02*
X30346644Y-27539711D01*
X30407359Y-27587330D02*
X30483549Y-27587330D01*
X30444263Y-27520664D02*
X30422835Y-27692092D01*
X30422835Y-27692092D02*
X30429978Y-27711140D01*
X30429978Y-27711140D02*
X30447835Y-27720664D01*
X30447835Y-27720664D02*
X30466882Y-27720664D01*
X30562120Y-27720664D02*
X30544263Y-27711140D01*
X30544263Y-27711140D02*
X30537120Y-27692092D01*
X30537120Y-27692092D02*
X30558549Y-27520664D01*
X30715692Y-27711140D02*
X30695454Y-27720664D01*
X30695454Y-27720664D02*
X30657358Y-27720664D01*
X30657358Y-27720664D02*
X30639501Y-27711140D01*
X30639501Y-27711140D02*
X30632358Y-27692092D01*
X30632358Y-27692092D02*
X30641882Y-27615902D01*
X30641882Y-27615902D02*
X30653787Y-27596854D01*
X30653787Y-27596854D02*
X30674025Y-27587330D01*
X30674025Y-27587330D02*
X30712120Y-27587330D01*
X30712120Y-27587330D02*
X30729978Y-27596854D01*
X30729978Y-27596854D02*
X30737120Y-27615902D01*
X30737120Y-27615902D02*
X30734739Y-27634949D01*
X30734739Y-27634949D02*
X30637120Y-27653997D01*
X30812120Y-27701616D02*
X30820454Y-27711140D01*
X30820454Y-27711140D02*
X30809739Y-27720664D01*
X30809739Y-27720664D02*
X30801406Y-27711140D01*
X30801406Y-27711140D02*
X30812120Y-27701616D01*
X30812120Y-27701616D02*
X30809739Y-27720664D01*
X30825216Y-27596854D02*
X30833549Y-27606378D01*
X30833549Y-27606378D02*
X30822835Y-27615902D01*
X30822835Y-27615902D02*
X30814501Y-27606378D01*
X30814501Y-27606378D02*
X30825216Y-27596854D01*
X30825216Y-27596854D02*
X30822835Y-27615902D01*
X31057359Y-27720664D02*
X31082359Y-27520664D01*
X31082359Y-27520664D02*
X31131168Y-27663521D01*
X31131168Y-27663521D02*
X31215692Y-27520664D01*
X31215692Y-27520664D02*
X31190692Y-27720664D01*
X31288311Y-27701616D02*
X31296644Y-27711140D01*
X31296644Y-27711140D02*
X31285930Y-27720664D01*
X31285930Y-27720664D02*
X31277597Y-27711140D01*
X31277597Y-27711140D02*
X31288311Y-27701616D01*
X31288311Y-27701616D02*
X31285930Y-27720664D01*
X31394263Y-27539711D02*
X31404978Y-27530188D01*
X31404978Y-27530188D02*
X31425216Y-27520664D01*
X31425216Y-27520664D02*
X31472835Y-27520664D01*
X31472835Y-27520664D02*
X31490692Y-27530188D01*
X31490692Y-27530188D02*
X31499025Y-27539711D01*
X31499025Y-27539711D02*
X31506168Y-27558759D01*
X31506168Y-27558759D02*
X31503787Y-27577807D01*
X31503787Y-27577807D02*
X31490692Y-27606378D01*
X31490692Y-27606378D02*
X31362120Y-27720664D01*
X31362120Y-27720664D02*
X31485930Y-27720664D01*
X31521644Y-27739711D02*
X31674025Y-27739711D01*
X31724025Y-27720664D02*
X31740692Y-27587330D01*
X31738311Y-27606378D02*
X31749025Y-27596854D01*
X31749025Y-27596854D02*
X31769263Y-27587330D01*
X31769263Y-27587330D02*
X31797835Y-27587330D01*
X31797835Y-27587330D02*
X31815692Y-27596854D01*
X31815692Y-27596854D02*
X31822835Y-27615902D01*
X31822835Y-27615902D02*
X31809740Y-27720664D01*
X31822835Y-27615902D02*
X31834740Y-27596854D01*
X31834740Y-27596854D02*
X31854978Y-27587330D01*
X31854978Y-27587330D02*
X31883549Y-27587330D01*
X31883549Y-27587330D02*
X31901406Y-27596854D01*
X31901406Y-27596854D02*
X31908549Y-27615902D01*
X31908549Y-27615902D02*
X31895454Y-27720664D01*
X32019263Y-27720664D02*
X32001406Y-27711140D01*
X32001406Y-27711140D02*
X31993073Y-27701616D01*
X31993073Y-27701616D02*
X31985930Y-27682568D01*
X31985930Y-27682568D02*
X31993073Y-27625426D01*
X31993073Y-27625426D02*
X32004978Y-27606378D01*
X32004978Y-27606378D02*
X32015692Y-27596854D01*
X32015692Y-27596854D02*
X32035930Y-27587330D01*
X32035930Y-27587330D02*
X32064501Y-27587330D01*
X32064501Y-27587330D02*
X32082359Y-27596854D01*
X32082359Y-27596854D02*
X32090692Y-27606378D01*
X32090692Y-27606378D02*
X32097835Y-27625426D01*
X32097835Y-27625426D02*
X32090692Y-27682568D01*
X32090692Y-27682568D02*
X32078787Y-27701616D01*
X32078787Y-27701616D02*
X32068073Y-27711140D01*
X32068073Y-27711140D02*
X32047835Y-27720664D01*
X32047835Y-27720664D02*
X32019263Y-27720664D01*
X32163311Y-27711140D02*
X32181168Y-27720664D01*
X32181168Y-27720664D02*
X32219263Y-27720664D01*
X32219263Y-27720664D02*
X32239502Y-27711140D01*
X32239502Y-27711140D02*
X32251406Y-27692092D01*
X32251406Y-27692092D02*
X32252597Y-27682568D01*
X32252597Y-27682568D02*
X32245454Y-27663521D01*
X32245454Y-27663521D02*
X32227597Y-27653997D01*
X32227597Y-27653997D02*
X32199025Y-27653997D01*
X32199025Y-27653997D02*
X32181168Y-27644473D01*
X32181168Y-27644473D02*
X32174025Y-27625426D01*
X32174025Y-27625426D02*
X32175216Y-27615902D01*
X32175216Y-27615902D02*
X32187121Y-27596854D01*
X32187121Y-27596854D02*
X32207359Y-27587330D01*
X32207359Y-27587330D02*
X32235930Y-27587330D01*
X32235930Y-27587330D02*
X32253787Y-27596854D01*
X32419263Y-27720664D02*
X32432359Y-27615902D01*
X32432359Y-27615902D02*
X32425216Y-27596854D01*
X32425216Y-27596854D02*
X32407359Y-27587330D01*
X32407359Y-27587330D02*
X32369263Y-27587330D01*
X32369263Y-27587330D02*
X32349025Y-27596854D01*
X32420454Y-27711140D02*
X32400216Y-27720664D01*
X32400216Y-27720664D02*
X32352597Y-27720664D01*
X32352597Y-27720664D02*
X32334740Y-27711140D01*
X32334740Y-27711140D02*
X32327597Y-27692092D01*
X32327597Y-27692092D02*
X32329978Y-27673045D01*
X32329978Y-27673045D02*
X32341883Y-27653997D01*
X32341883Y-27653997D02*
X32362121Y-27644473D01*
X32362121Y-27644473D02*
X32409740Y-27644473D01*
X32409740Y-27644473D02*
X32429978Y-27634949D01*
X32514502Y-27720664D02*
X32531168Y-27587330D01*
X32539502Y-27520664D02*
X32528787Y-27530188D01*
X32528787Y-27530188D02*
X32537121Y-27539711D01*
X32537121Y-27539711D02*
X32547835Y-27530188D01*
X32547835Y-27530188D02*
X32539502Y-27520664D01*
X32539502Y-27520664D02*
X32537121Y-27539711D01*
X32696644Y-27711140D02*
X32676406Y-27720664D01*
X32676406Y-27720664D02*
X32638311Y-27720664D01*
X32638311Y-27720664D02*
X32620454Y-27711140D01*
X32620454Y-27711140D02*
X32612121Y-27701616D01*
X32612121Y-27701616D02*
X32604978Y-27682568D01*
X32604978Y-27682568D02*
X32612121Y-27625426D01*
X32612121Y-27625426D02*
X32624025Y-27606378D01*
X32624025Y-27606378D02*
X32634740Y-27596854D01*
X32634740Y-27596854D02*
X32654978Y-27587330D01*
X32654978Y-27587330D02*
X32693073Y-27587330D01*
X32693073Y-27587330D02*
X32710930Y-27596854D01*
X33062121Y-27530188D02*
X33044264Y-27520664D01*
X33044264Y-27520664D02*
X33015692Y-27520664D01*
X33015692Y-27520664D02*
X32985930Y-27530188D01*
X32985930Y-27530188D02*
X32964502Y-27549235D01*
X32964502Y-27549235D02*
X32952597Y-27568283D01*
X32952597Y-27568283D02*
X32938311Y-27606378D01*
X32938311Y-27606378D02*
X32934740Y-27634949D01*
X32934740Y-27634949D02*
X32939502Y-27673045D01*
X32939502Y-27673045D02*
X32946645Y-27692092D01*
X32946645Y-27692092D02*
X32963311Y-27711140D01*
X32963311Y-27711140D02*
X32990692Y-27720664D01*
X32990692Y-27720664D02*
X33009740Y-27720664D01*
X33009740Y-27720664D02*
X33039502Y-27711140D01*
X33039502Y-27711140D02*
X33050216Y-27701616D01*
X33050216Y-27701616D02*
X33058549Y-27634949D01*
X33058549Y-27634949D02*
X33020454Y-27634949D01*
X33253787Y-27520664D02*
X33158549Y-27520664D01*
X33158549Y-27520664D02*
X33137121Y-27615902D01*
X33137121Y-27615902D02*
X33147835Y-27606378D01*
X33147835Y-27606378D02*
X33168073Y-27596854D01*
X33168073Y-27596854D02*
X33215692Y-27596854D01*
X33215692Y-27596854D02*
X33233549Y-27606378D01*
X33233549Y-27606378D02*
X33241883Y-27615902D01*
X33241883Y-27615902D02*
X33249025Y-27634949D01*
X33249025Y-27634949D02*
X33243073Y-27682568D01*
X33243073Y-27682568D02*
X33231168Y-27701616D01*
X33231168Y-27701616D02*
X33220454Y-27711140D01*
X33220454Y-27711140D02*
X33200216Y-27720664D01*
X33200216Y-27720664D02*
X33152597Y-27720664D01*
X33152597Y-27720664D02*
X33134740Y-27711140D01*
X33134740Y-27711140D02*
X33126406Y-27701616D01*
X33333549Y-27644473D02*
X33485930Y-27644473D01*
X33568073Y-27520664D02*
X33682359Y-27520664D01*
X33600216Y-27720664D02*
X33625216Y-27520664D01*
D10*
D11*
X30194483Y-27260261D02*
X30144483Y-27260261D01*
X30144483Y-27338833D02*
X30144483Y-27188833D01*
X30144483Y-27188833D02*
X30215911Y-27188833D01*
X30273054Y-27338833D02*
X30273054Y-27238833D01*
X30273054Y-27188833D02*
X30265911Y-27195976D01*
X30265911Y-27195976D02*
X30273054Y-27203118D01*
X30273054Y-27203118D02*
X30280197Y-27195976D01*
X30280197Y-27195976D02*
X30273054Y-27188833D01*
X30273054Y-27188833D02*
X30273054Y-27203118D01*
X30365911Y-27338833D02*
X30351625Y-27331690D01*
X30351625Y-27331690D02*
X30344483Y-27317404D01*
X30344483Y-27317404D02*
X30344483Y-27188833D01*
X30480197Y-27331690D02*
X30465911Y-27338833D01*
X30465911Y-27338833D02*
X30437340Y-27338833D01*
X30437340Y-27338833D02*
X30423054Y-27331690D01*
X30423054Y-27331690D02*
X30415911Y-27317404D01*
X30415911Y-27317404D02*
X30415911Y-27260261D01*
X30415911Y-27260261D02*
X30423054Y-27245976D01*
X30423054Y-27245976D02*
X30437340Y-27238833D01*
X30437340Y-27238833D02*
X30465911Y-27238833D01*
X30465911Y-27238833D02*
X30480197Y-27245976D01*
X30480197Y-27245976D02*
X30487340Y-27260261D01*
X30487340Y-27260261D02*
X30487340Y-27274547D01*
X30487340Y-27274547D02*
X30415911Y-27288833D01*
X30551625Y-27324547D02*
X30558768Y-27331690D01*
X30558768Y-27331690D02*
X30551625Y-27338833D01*
X30551625Y-27338833D02*
X30544483Y-27331690D01*
X30544483Y-27331690D02*
X30551625Y-27324547D01*
X30551625Y-27324547D02*
X30551625Y-27338833D01*
X30551625Y-27245976D02*
X30558768Y-27253118D01*
X30558768Y-27253118D02*
X30551625Y-27260261D01*
X30551625Y-27260261D02*
X30544483Y-27253118D01*
X30544483Y-27253118D02*
X30551625Y-27245976D01*
X30551625Y-27245976D02*
X30551625Y-27260261D01*
X30737340Y-27338833D02*
X30737340Y-27188833D01*
X30737340Y-27188833D02*
X30787340Y-27295976D01*
X30787340Y-27295976D02*
X30837340Y-27188833D01*
X30837340Y-27188833D02*
X30837340Y-27338833D01*
X30901625Y-27203118D02*
X30908768Y-27195976D01*
X30908768Y-27195976D02*
X30923054Y-27188833D01*
X30923054Y-27188833D02*
X30958768Y-27188833D01*
X30958768Y-27188833D02*
X30973054Y-27195976D01*
X30973054Y-27195976D02*
X30980197Y-27203118D01*
X30980197Y-27203118D02*
X30987340Y-27217404D01*
X30987340Y-27217404D02*
X30987340Y-27231690D01*
X30987340Y-27231690D02*
X30980197Y-27253118D01*
X30980197Y-27253118D02*
X30894483Y-27338833D01*
X30894483Y-27338833D02*
X30987340Y-27338833D01*
X31015911Y-27353118D02*
X31130197Y-27353118D01*
X31165911Y-27338833D02*
X31165911Y-27238833D01*
X31165911Y-27253118D02*
X31173054Y-27245976D01*
X31173054Y-27245976D02*
X31187340Y-27238833D01*
X31187340Y-27238833D02*
X31208768Y-27238833D01*
X31208768Y-27238833D02*
X31223054Y-27245976D01*
X31223054Y-27245976D02*
X31230197Y-27260261D01*
X31230197Y-27260261D02*
X31230197Y-27338833D01*
X31230197Y-27260261D02*
X31237340Y-27245976D01*
X31237340Y-27245976D02*
X31251625Y-27238833D01*
X31251625Y-27238833D02*
X31273054Y-27238833D01*
X31273054Y-27238833D02*
X31287340Y-27245976D01*
X31287340Y-27245976D02*
X31294483Y-27260261D01*
X31294483Y-27260261D02*
X31294483Y-27338833D01*
X31387340Y-27338833D02*
X31373054Y-27331690D01*
X31373054Y-27331690D02*
X31365911Y-27324547D01*
X31365911Y-27324547D02*
X31358768Y-27310261D01*
X31358768Y-27310261D02*
X31358768Y-27267404D01*
X31358768Y-27267404D02*
X31365911Y-27253118D01*
X31365911Y-27253118D02*
X31373054Y-27245976D01*
X31373054Y-27245976D02*
X31387340Y-27238833D01*
X31387340Y-27238833D02*
X31408768Y-27238833D01*
X31408768Y-27238833D02*
X31423054Y-27245976D01*
X31423054Y-27245976D02*
X31430197Y-27253118D01*
X31430197Y-27253118D02*
X31437340Y-27267404D01*
X31437340Y-27267404D02*
X31437340Y-27310261D01*
X31437340Y-27310261D02*
X31430197Y-27324547D01*
X31430197Y-27324547D02*
X31423054Y-27331690D01*
X31423054Y-27331690D02*
X31408768Y-27338833D01*
X31408768Y-27338833D02*
X31387340Y-27338833D01*
X31494483Y-27331690D02*
X31508768Y-27338833D01*
X31508768Y-27338833D02*
X31537340Y-27338833D01*
X31537340Y-27338833D02*
X31551625Y-27331690D01*
X31551625Y-27331690D02*
X31558768Y-27317404D01*
X31558768Y-27317404D02*
X31558768Y-27310261D01*
X31558768Y-27310261D02*
X31551625Y-27295976D01*
X31551625Y-27295976D02*
X31537340Y-27288833D01*
X31537340Y-27288833D02*
X31515911Y-27288833D01*
X31515911Y-27288833D02*
X31501625Y-27281690D01*
X31501625Y-27281690D02*
X31494483Y-27267404D01*
X31494483Y-27267404D02*
X31494483Y-27260261D01*
X31494483Y-27260261D02*
X31501625Y-27245976D01*
X31501625Y-27245976D02*
X31515911Y-27238833D01*
X31515911Y-27238833D02*
X31537340Y-27238833D01*
X31537340Y-27238833D02*
X31551625Y-27245976D01*
X31687340Y-27338833D02*
X31687340Y-27260261D01*
X31687340Y-27260261D02*
X31680197Y-27245976D01*
X31680197Y-27245976D02*
X31665911Y-27238833D01*
X31665911Y-27238833D02*
X31637340Y-27238833D01*
X31637340Y-27238833D02*
X31623054Y-27245976D01*
X31687340Y-27331690D02*
X31673054Y-27338833D01*
X31673054Y-27338833D02*
X31637340Y-27338833D01*
X31637340Y-27338833D02*
X31623054Y-27331690D01*
X31623054Y-27331690D02*
X31615911Y-27317404D01*
X31615911Y-27317404D02*
X31615911Y-27303118D01*
X31615911Y-27303118D02*
X31623054Y-27288833D01*
X31623054Y-27288833D02*
X31637340Y-27281690D01*
X31637340Y-27281690D02*
X31673054Y-27281690D01*
X31673054Y-27281690D02*
X31687340Y-27274547D01*
X31758768Y-27338833D02*
X31758768Y-27238833D01*
X31758768Y-27188833D02*
X31751625Y-27195976D01*
X31751625Y-27195976D02*
X31758768Y-27203118D01*
X31758768Y-27203118D02*
X31765911Y-27195976D01*
X31765911Y-27195976D02*
X31758768Y-27188833D01*
X31758768Y-27188833D02*
X31758768Y-27203118D01*
X31894483Y-27331690D02*
X31880197Y-27338833D01*
X31880197Y-27338833D02*
X31851625Y-27338833D01*
X31851625Y-27338833D02*
X31837340Y-27331690D01*
X31837340Y-27331690D02*
X31830197Y-27324547D01*
X31830197Y-27324547D02*
X31823054Y-27310261D01*
X31823054Y-27310261D02*
X31823054Y-27267404D01*
X31823054Y-27267404D02*
X31830197Y-27253118D01*
X31830197Y-27253118D02*
X31837340Y-27245976D01*
X31837340Y-27245976D02*
X31851625Y-27238833D01*
X31851625Y-27238833D02*
X31880197Y-27238833D01*
X31880197Y-27238833D02*
X31894483Y-27245976D01*
X32037340Y-27195976D02*
X32023054Y-27188833D01*
X32023054Y-27188833D02*
X32001625Y-27188833D01*
X32001625Y-27188833D02*
X31980197Y-27195976D01*
X31980197Y-27195976D02*
X31965911Y-27210261D01*
X31965911Y-27210261D02*
X31958768Y-27224547D01*
X31958768Y-27224547D02*
X31951625Y-27253118D01*
X31951625Y-27253118D02*
X31951625Y-27274547D01*
X31951625Y-27274547D02*
X31958768Y-27303118D01*
X31958768Y-27303118D02*
X31965911Y-27317404D01*
X31965911Y-27317404D02*
X31980197Y-27331690D01*
X31980197Y-27331690D02*
X32001625Y-27338833D01*
X32001625Y-27338833D02*
X32015911Y-27338833D01*
X32015911Y-27338833D02*
X32037340Y-27331690D01*
X32037340Y-27331690D02*
X32044483Y-27324547D01*
X32044483Y-27324547D02*
X32044483Y-27274547D01*
X32044483Y-27274547D02*
X32015911Y-27274547D01*
X32180197Y-27188833D02*
X32108768Y-27188833D01*
X32108768Y-27188833D02*
X32101625Y-27260261D01*
X32101625Y-27260261D02*
X32108768Y-27253118D01*
X32108768Y-27253118D02*
X32123054Y-27245976D01*
X32123054Y-27245976D02*
X32158768Y-27245976D01*
X32158768Y-27245976D02*
X32173054Y-27253118D01*
X32173054Y-27253118D02*
X32180197Y-27260261D01*
X32180197Y-27260261D02*
X32187340Y-27274547D01*
X32187340Y-27274547D02*
X32187340Y-27310261D01*
X32187340Y-27310261D02*
X32180197Y-27324547D01*
X32180197Y-27324547D02*
X32173054Y-27331690D01*
X32173054Y-27331690D02*
X32158768Y-27338833D01*
X32158768Y-27338833D02*
X32123054Y-27338833D01*
X32123054Y-27338833D02*
X32108768Y-27331690D01*
X32108768Y-27331690D02*
X32101625Y-27324547D01*
X32251625Y-27324547D02*
X32258768Y-27331690D01*
X32258768Y-27331690D02*
X32251625Y-27338833D01*
X32251625Y-27338833D02*
X32244483Y-27331690D01*
X32244483Y-27331690D02*
X32251625Y-27324547D01*
X32251625Y-27324547D02*
X32251625Y-27338833D01*
X32323054Y-27338833D02*
X32323054Y-27188833D01*
X32337340Y-27281690D02*
X32380197Y-27338833D01*
X32380197Y-27238833D02*
X32323054Y-27295976D01*
X32444483Y-27338833D02*
X32444483Y-27238833D01*
X32444483Y-27188833D02*
X32437340Y-27195976D01*
X32437340Y-27195976D02*
X32444483Y-27203118D01*
X32444483Y-27203118D02*
X32451625Y-27195976D01*
X32451625Y-27195976D02*
X32444483Y-27188833D01*
X32444483Y-27188833D02*
X32444483Y-27203118D01*
X32580197Y-27331690D02*
X32565911Y-27338833D01*
X32565911Y-27338833D02*
X32537340Y-27338833D01*
X32537340Y-27338833D02*
X32523054Y-27331690D01*
X32523054Y-27331690D02*
X32515911Y-27324547D01*
X32515911Y-27324547D02*
X32508768Y-27310261D01*
X32508768Y-27310261D02*
X32508768Y-27267404D01*
X32508768Y-27267404D02*
X32515911Y-27253118D01*
X32515911Y-27253118D02*
X32523054Y-27245976D01*
X32523054Y-27245976D02*
X32537340Y-27238833D01*
X32537340Y-27238833D02*
X32565911Y-27238833D01*
X32565911Y-27238833D02*
X32580197Y-27245976D01*
X32708768Y-27338833D02*
X32708768Y-27260261D01*
X32708768Y-27260261D02*
X32701625Y-27245976D01*
X32701625Y-27245976D02*
X32687340Y-27238833D01*
X32687340Y-27238833D02*
X32658768Y-27238833D01*
X32658768Y-27238833D02*
X32644483Y-27245976D01*
X32708768Y-27331690D02*
X32694483Y-27338833D01*
X32694483Y-27338833D02*
X32658768Y-27338833D01*
X32658768Y-27338833D02*
X32644483Y-27331690D01*
X32644483Y-27331690D02*
X32637340Y-27317404D01*
X32637340Y-27317404D02*
X32637340Y-27303118D01*
X32637340Y-27303118D02*
X32644483Y-27288833D01*
X32644483Y-27288833D02*
X32658768Y-27281690D01*
X32658768Y-27281690D02*
X32694483Y-27281690D01*
X32694483Y-27281690D02*
X32708768Y-27274547D01*
X32844483Y-27338833D02*
X32844483Y-27188833D01*
X32844483Y-27331690D02*
X32830197Y-27338833D01*
X32830197Y-27338833D02*
X32801625Y-27338833D01*
X32801625Y-27338833D02*
X32787340Y-27331690D01*
X32787340Y-27331690D02*
X32780197Y-27324547D01*
X32780197Y-27324547D02*
X32773054Y-27310261D01*
X32773054Y-27310261D02*
X32773054Y-27267404D01*
X32773054Y-27267404D02*
X32780197Y-27253118D01*
X32780197Y-27253118D02*
X32787340Y-27245976D01*
X32787340Y-27245976D02*
X32801625Y-27238833D01*
X32801625Y-27238833D02*
X32830197Y-27238833D01*
X32830197Y-27238833D02*
X32844483Y-27245976D01*
X32880197Y-27353118D02*
X32994483Y-27353118D01*
X33030197Y-27238833D02*
X33030197Y-27388833D01*
X33030197Y-27245976D02*
X33044483Y-27238833D01*
X33044483Y-27238833D02*
X33073054Y-27238833D01*
X33073054Y-27238833D02*
X33087340Y-27245976D01*
X33087340Y-27245976D02*
X33094483Y-27253118D01*
X33094483Y-27253118D02*
X33101625Y-27267404D01*
X33101625Y-27267404D02*
X33101625Y-27310261D01*
X33101625Y-27310261D02*
X33094483Y-27324547D01*
X33094483Y-27324547D02*
X33087340Y-27331690D01*
X33087340Y-27331690D02*
X33073054Y-27338833D01*
X33073054Y-27338833D02*
X33044483Y-27338833D01*
X33044483Y-27338833D02*
X33030197Y-27331690D01*
X33230197Y-27331690D02*
X33215911Y-27338833D01*
X33215911Y-27338833D02*
X33187340Y-27338833D01*
X33187340Y-27338833D02*
X33173054Y-27331690D01*
X33173054Y-27331690D02*
X33165911Y-27324547D01*
X33165911Y-27324547D02*
X33158768Y-27310261D01*
X33158768Y-27310261D02*
X33158768Y-27267404D01*
X33158768Y-27267404D02*
X33165911Y-27253118D01*
X33165911Y-27253118D02*
X33173054Y-27245976D01*
X33173054Y-27245976D02*
X33187340Y-27238833D01*
X33187340Y-27238833D02*
X33215911Y-27238833D01*
X33215911Y-27238833D02*
X33230197Y-27245976D01*
X33294483Y-27338833D02*
X33294483Y-27188833D01*
X33294483Y-27245976D02*
X33308768Y-27238833D01*
X33308768Y-27238833D02*
X33337340Y-27238833D01*
X33337340Y-27238833D02*
X33351625Y-27245976D01*
X33351625Y-27245976D02*
X33358768Y-27253118D01*
X33358768Y-27253118D02*
X33365911Y-27267404D01*
X33365911Y-27267404D02*
X33365911Y-27310261D01*
X33365911Y-27310261D02*
X33358768Y-27324547D01*
X33358768Y-27324547D02*
X33351625Y-27331690D01*
X33351625Y-27331690D02*
X33337340Y-27338833D01*
X33337340Y-27338833D02*
X33308768Y-27338833D01*
X33308768Y-27338833D02*
X33294483Y-27331690D01*
D10*
D11*
X29998900Y-26850220D02*
X40798900Y-26850220D01*
D10*
D11*
X30137340Y-27061690D02*
X30158768Y-27068833D01*
X30158768Y-27068833D02*
X30194483Y-27068833D01*
X30194483Y-27068833D02*
X30208768Y-27061690D01*
X30208768Y-27061690D02*
X30215911Y-27054547D01*
X30215911Y-27054547D02*
X30223054Y-27040261D01*
X30223054Y-27040261D02*
X30223054Y-27025976D01*
X30223054Y-27025976D02*
X30215911Y-27011690D01*
X30215911Y-27011690D02*
X30208768Y-27004547D01*
X30208768Y-27004547D02*
X30194483Y-26997404D01*
X30194483Y-26997404D02*
X30165911Y-26990261D01*
X30165911Y-26990261D02*
X30151625Y-26983118D01*
X30151625Y-26983118D02*
X30144483Y-26975976D01*
X30144483Y-26975976D02*
X30137340Y-26961690D01*
X30137340Y-26961690D02*
X30137340Y-26947404D01*
X30137340Y-26947404D02*
X30144483Y-26933118D01*
X30144483Y-26933118D02*
X30151625Y-26925976D01*
X30151625Y-26925976D02*
X30165911Y-26918833D01*
X30165911Y-26918833D02*
X30201625Y-26918833D01*
X30201625Y-26918833D02*
X30223054Y-26925976D01*
X30287340Y-27068833D02*
X30287340Y-26918833D01*
X30351625Y-27068833D02*
X30351625Y-26990261D01*
X30351625Y-26990261D02*
X30344483Y-26975976D01*
X30344483Y-26975976D02*
X30330197Y-26968833D01*
X30330197Y-26968833D02*
X30308768Y-26968833D01*
X30308768Y-26968833D02*
X30294483Y-26975976D01*
X30294483Y-26975976D02*
X30287340Y-26983118D01*
X30480197Y-27061690D02*
X30465911Y-27068833D01*
X30465911Y-27068833D02*
X30437340Y-27068833D01*
X30437340Y-27068833D02*
X30423054Y-27061690D01*
X30423054Y-27061690D02*
X30415911Y-27047404D01*
X30415911Y-27047404D02*
X30415911Y-26990261D01*
X30415911Y-26990261D02*
X30423054Y-26975976D01*
X30423054Y-26975976D02*
X30437340Y-26968833D01*
X30437340Y-26968833D02*
X30465911Y-26968833D01*
X30465911Y-26968833D02*
X30480197Y-26975976D01*
X30480197Y-26975976D02*
X30487340Y-26990261D01*
X30487340Y-26990261D02*
X30487340Y-27004547D01*
X30487340Y-27004547D02*
X30415911Y-27018833D01*
X30608768Y-27061690D02*
X30594483Y-27068833D01*
X30594483Y-27068833D02*
X30565911Y-27068833D01*
X30565911Y-27068833D02*
X30551625Y-27061690D01*
X30551625Y-27061690D02*
X30544483Y-27047404D01*
X30544483Y-27047404D02*
X30544483Y-26990261D01*
X30544483Y-26990261D02*
X30551625Y-26975976D01*
X30551625Y-26975976D02*
X30565911Y-26968833D01*
X30565911Y-26968833D02*
X30594483Y-26968833D01*
X30594483Y-26968833D02*
X30608768Y-26975976D01*
X30608768Y-26975976D02*
X30615911Y-26990261D01*
X30615911Y-26990261D02*
X30615911Y-27004547D01*
X30615911Y-27004547D02*
X30544483Y-27018833D01*
X30658768Y-26968833D02*
X30715911Y-26968833D01*
X30680197Y-26918833D02*
X30680197Y-27047404D01*
X30680197Y-27047404D02*
X30687340Y-27061690D01*
X30687340Y-27061690D02*
X30701625Y-27068833D01*
X30701625Y-27068833D02*
X30715911Y-27068833D01*
X30765911Y-27054547D02*
X30773054Y-27061690D01*
X30773054Y-27061690D02*
X30765911Y-27068833D01*
X30765911Y-27068833D02*
X30758768Y-27061690D01*
X30758768Y-27061690D02*
X30765911Y-27054547D01*
X30765911Y-27054547D02*
X30765911Y-27068833D01*
X30765911Y-26975976D02*
X30773054Y-26983118D01*
X30773054Y-26983118D02*
X30765911Y-26990261D01*
X30765911Y-26990261D02*
X30758768Y-26983118D01*
X30758768Y-26983118D02*
X30765911Y-26975976D01*
X30765911Y-26975976D02*
X30765911Y-26990261D01*
D10*
D12*
X30147208Y-26760910D02*
X30168637Y-26768053D01*
X30168637Y-26768053D02*
X30204351Y-26768053D01*
X30204351Y-26768053D02*
X30218637Y-26760910D01*
X30218637Y-26760910D02*
X30225780Y-26753767D01*
X30225780Y-26753767D02*
X30232922Y-26739481D01*
X30232922Y-26739481D02*
X30232922Y-26725196D01*
X30232922Y-26725196D02*
X30225780Y-26710910D01*
X30225780Y-26710910D02*
X30218637Y-26703767D01*
X30218637Y-26703767D02*
X30204351Y-26696624D01*
X30204351Y-26696624D02*
X30175780Y-26689481D01*
X30175780Y-26689481D02*
X30161494Y-26682338D01*
X30161494Y-26682338D02*
X30154351Y-26675196D01*
X30154351Y-26675196D02*
X30147208Y-26660910D01*
X30147208Y-26660910D02*
X30147208Y-26646624D01*
X30147208Y-26646624D02*
X30154351Y-26632338D01*
X30154351Y-26632338D02*
X30161494Y-26625196D01*
X30161494Y-26625196D02*
X30175780Y-26618053D01*
X30175780Y-26618053D02*
X30211494Y-26618053D01*
X30211494Y-26618053D02*
X30232922Y-26625196D01*
X30354351Y-26760910D02*
X30340065Y-26768053D01*
X30340065Y-26768053D02*
X30311494Y-26768053D01*
X30311494Y-26768053D02*
X30297208Y-26760910D01*
X30297208Y-26760910D02*
X30290065Y-26746624D01*
X30290065Y-26746624D02*
X30290065Y-26689481D01*
X30290065Y-26689481D02*
X30297208Y-26675196D01*
X30297208Y-26675196D02*
X30311494Y-26668053D01*
X30311494Y-26668053D02*
X30340065Y-26668053D01*
X30340065Y-26668053D02*
X30354351Y-26675196D01*
X30354351Y-26675196D02*
X30361494Y-26689481D01*
X30361494Y-26689481D02*
X30361494Y-26703767D01*
X30361494Y-26703767D02*
X30290065Y-26718053D01*
X30425779Y-26668053D02*
X30425779Y-26818053D01*
X30425779Y-26675196D02*
X30440065Y-26668053D01*
X30440065Y-26668053D02*
X30468637Y-26668053D01*
X30468637Y-26668053D02*
X30482922Y-26675196D01*
X30482922Y-26675196D02*
X30490065Y-26682338D01*
X30490065Y-26682338D02*
X30497208Y-26696624D01*
X30497208Y-26696624D02*
X30497208Y-26739481D01*
X30497208Y-26739481D02*
X30490065Y-26753767D01*
X30490065Y-26753767D02*
X30482922Y-26760910D01*
X30482922Y-26760910D02*
X30468637Y-26768053D01*
X30468637Y-26768053D02*
X30440065Y-26768053D01*
X30440065Y-26768053D02*
X30425779Y-26760910D01*
X30540065Y-26668053D02*
X30597208Y-26668053D01*
X30561494Y-26618053D02*
X30561494Y-26746624D01*
X30561494Y-26746624D02*
X30568637Y-26760910D01*
X30568637Y-26760910D02*
X30582922Y-26768053D01*
X30582922Y-26768053D02*
X30597208Y-26768053D01*
X30704351Y-26760910D02*
X30690065Y-26768053D01*
X30690065Y-26768053D02*
X30661494Y-26768053D01*
X30661494Y-26768053D02*
X30647208Y-26760910D01*
X30647208Y-26760910D02*
X30640065Y-26746624D01*
X30640065Y-26746624D02*
X30640065Y-26689481D01*
X30640065Y-26689481D02*
X30647208Y-26675196D01*
X30647208Y-26675196D02*
X30661494Y-26668053D01*
X30661494Y-26668053D02*
X30690065Y-26668053D01*
X30690065Y-26668053D02*
X30704351Y-26675196D01*
X30704351Y-26675196D02*
X30711494Y-26689481D01*
X30711494Y-26689481D02*
X30711494Y-26703767D01*
X30711494Y-26703767D02*
X30640065Y-26718053D01*
X30775779Y-26668053D02*
X30775779Y-26768053D01*
X30775779Y-26682338D02*
X30782922Y-26675196D01*
X30782922Y-26675196D02*
X30797208Y-26668053D01*
X30797208Y-26668053D02*
X30818637Y-26668053D01*
X30818637Y-26668053D02*
X30832922Y-26675196D01*
X30832922Y-26675196D02*
X30840065Y-26689481D01*
X30840065Y-26689481D02*
X30840065Y-26768053D01*
X30890065Y-26668053D02*
X30947208Y-26668053D01*
X30911494Y-26618053D02*
X30911494Y-26746624D01*
X30911494Y-26746624D02*
X30918637Y-26760910D01*
X30918637Y-26760910D02*
X30932922Y-26768053D01*
X30932922Y-26768053D02*
X30947208Y-26768053D01*
X30997208Y-26768053D02*
X30997208Y-26668053D01*
X30997208Y-26696624D02*
X31004351Y-26682338D01*
X31004351Y-26682338D02*
X31011494Y-26675196D01*
X31011494Y-26675196D02*
X31025780Y-26668053D01*
X31025780Y-26668053D02*
X31040065Y-26668053D01*
X31090065Y-26768053D02*
X31090065Y-26668053D01*
X31090065Y-26618053D02*
X31082922Y-26625196D01*
X31082922Y-26625196D02*
X31090065Y-26632338D01*
X31090065Y-26632338D02*
X31097208Y-26625196D01*
X31097208Y-26625196D02*
X31090065Y-26618053D01*
X31090065Y-26618053D02*
X31090065Y-26632338D01*
X31182922Y-26768053D02*
X31168637Y-26760910D01*
X31168637Y-26760910D02*
X31161494Y-26753767D01*
X31161494Y-26753767D02*
X31154351Y-26739481D01*
X31154351Y-26739481D02*
X31154351Y-26696624D01*
X31154351Y-26696624D02*
X31161494Y-26682338D01*
X31161494Y-26682338D02*
X31168637Y-26675196D01*
X31168637Y-26675196D02*
X31182922Y-26668053D01*
X31182922Y-26668053D02*
X31204351Y-26668053D01*
X31204351Y-26668053D02*
X31218637Y-26675196D01*
X31218637Y-26675196D02*
X31225780Y-26682338D01*
X31225780Y-26682338D02*
X31232922Y-26696624D01*
X31232922Y-26696624D02*
X31232922Y-26739481D01*
X31232922Y-26739481D02*
X31225780Y-26753767D01*
X31225780Y-26753767D02*
X31218637Y-26760910D01*
X31218637Y-26760910D02*
X31204351Y-26768053D01*
X31204351Y-26768053D02*
X31182922Y-26768053D01*
D10*
D11*
X31998900Y-27850220D02*
X31998900Y-28150220D01*
D10*
D11*
X38398900Y-27850220D02*
X38398900Y-28500220D01*
D14*
%TO.N,VREF_O*%
X9245000Y-10663000D03*
%TO.N,GND*%
X8650000Y-11728000D03*
X9470000Y-13515000D03*
X10095000Y-12585000D03*
X9002500Y-11527500D03*
X10015000Y-13797500D03*
X9895000Y-11210000D03*
X8942500Y-13282500D03*
X8447500Y-12051000D03*
X8447000Y-10492000D03*
X8926000Y-10492000D03*
X9271000Y-11456000D03*
X9818000Y-12785000D03*
X9065000Y-11974000D03*
X10126000Y-13620000D03*
X9613750Y-13857500D03*
X9994000Y-10825000D03*
X8622500Y-11292500D03*
X9710000Y-13857500D03*
X10095000Y-12331000D03*
X9145000Y-10762500D03*
X9690000Y-11882000D03*
X9635000Y-12977000D03*
X9590000Y-12390000D03*
X9590000Y-11882000D03*
X9065000Y-12355000D03*
X10095000Y-12839000D03*
X9690000Y-12390000D03*
X9490000Y-12390000D03*
X9532500Y-11210000D03*
X10095000Y-11950000D03*
X9490000Y-12517000D03*
X10255000Y-13797500D03*
X8541000Y-10345000D03*
X9027000Y-12783000D03*
X9067500Y-13857500D03*
X10510000Y-11272500D03*
X10095000Y-12204000D03*
X9590000Y-12263000D03*
X9590000Y-12136000D03*
X10510000Y-10256500D03*
X9002500Y-11285000D03*
X9511000Y-13337000D03*
X8790000Y-10722500D03*
X9340000Y-13707500D03*
X10010000Y-13620000D03*
X10515000Y-13075000D03*
X9065000Y-11847000D03*
X9002500Y-11406250D03*
X9330000Y-10654000D03*
X9340000Y-10764000D03*
X9735000Y-12977000D03*
X9145000Y-10892500D03*
X9023000Y-12555000D03*
X10095000Y-11823000D03*
X8447500Y-12559000D03*
X9572000Y-10737000D03*
X10148000Y-10459000D03*
X9295000Y-13437500D03*
X9490000Y-12009000D03*
X9306786Y-10251719D03*
X8647500Y-11435000D03*
X9822500Y-11460000D03*
X10510000Y-11780500D03*
X9690000Y-11755000D03*
X8720000Y-10089000D03*
X9470000Y-13430000D03*
X9242000Y-13337000D03*
X9590000Y-12009000D03*
X9490000Y-12136000D03*
X10036000Y-10554000D03*
X8750000Y-11292500D03*
X10510000Y-12034500D03*
X9488000Y-10308000D03*
X9535000Y-12977000D03*
X9150000Y-13612500D03*
X9535000Y-13615000D03*
X9490000Y-12263000D03*
X9003000Y-11646000D03*
X9175000Y-13857500D03*
X9065000Y-12228000D03*
X8974000Y-10089000D03*
X10102500Y-11505000D03*
X9956000Y-12840000D03*
X9490000Y-11882000D03*
X9690000Y-12517000D03*
X9590000Y-11755000D03*
X9690000Y-12263000D03*
X9690000Y-12009000D03*
X9667686Y-10247017D03*
X8750000Y-10842500D03*
X10510000Y-10510500D03*
X9672000Y-10737000D03*
X9302500Y-13567500D03*
X10515000Y-12665000D03*
X10092500Y-11232500D03*
X10095000Y-12077000D03*
X9490000Y-11755000D03*
X10031000Y-10093000D03*
X8447500Y-12305000D03*
X9037500Y-13472500D03*
X9818000Y-12912000D03*
X9171000Y-11456000D03*
X8622500Y-10992500D03*
X8622500Y-10842500D03*
X9755000Y-13617500D03*
X8650000Y-11855000D03*
X8688000Y-10306000D03*
X10095000Y-12458000D03*
X10510000Y-10764500D03*
X8447500Y-12813000D03*
X9342500Y-13857500D03*
X8447500Y-13321000D03*
X8447500Y-10256500D03*
X8833000Y-10639000D03*
X8447500Y-13575000D03*
X8957500Y-13857500D03*
X8747500Y-11510000D03*
X8833000Y-10345000D03*
X9956000Y-12967000D03*
X8650000Y-11601000D03*
X8541000Y-10640000D03*
X10095000Y-12712000D03*
X8750000Y-11142500D03*
X8622500Y-11142500D03*
X9690000Y-12136000D03*
X8447500Y-13067000D03*
X9517500Y-13857500D03*
X9371000Y-11456000D03*
X10250262Y-10093000D03*
X8750000Y-10992500D03*
X9193262Y-10089000D03*
X10095000Y-12966000D03*
X8939000Y-13629000D03*
X10265000Y-10554000D03*
X9065000Y-12101000D03*
X10510000Y-11526500D03*
X9777000Y-10093000D03*
X10510000Y-11018500D03*
X9235000Y-11210000D03*
X9590000Y-12517000D03*
X8579000Y-10722500D03*
%TO.N,+3.3V*%
X8550000Y-13725000D03*
X8550000Y-13630000D03*
X10474000Y-13013000D03*
X10180000Y-10935000D03*
X8710000Y-13775000D03*
X9070000Y-10416000D03*
X10180000Y-10860000D03*
X8717500Y-12850000D03*
X8889000Y-10920000D03*
X8630000Y-13775000D03*
X10468000Y-12339000D03*
X10265000Y-10860000D03*
%TO.N,D+*%
X9066000Y-12631000D03*
X9435000Y-13324000D03*
%TO.N,VBAT*%
X10365000Y-13795000D03*
%TO.N,SDA*%
X10311000Y-13320000D03*
X10454000Y-12609000D03*
%TO.N,PPS_OUT1*%
X10101000Y-11339000D03*
%TO.N,Net-(J2-LED#1{slash}ACTIVITY)*%
X10067000Y-13570000D03*
%TO.N,SCL*%
X10352000Y-13610000D03*
X10001000Y-13515000D03*
X10461000Y-12729000D03*
%TO.N,LED1*%
X9175000Y-11350000D03*
X9592500Y-13312500D03*
%TO.N,D-*%
X9066000Y-12699000D03*
X9327000Y-13324000D03*
%TO.N,Net-(U5-A)*%
X9520000Y-10802000D03*
X9201000Y-10381000D03*
%TO.N,UART_RX*%
X8556000Y-12171000D03*
%TO.N,UART_TX*%
X8527500Y-12361000D03*
%TO.N,Net-(J2-SMB_DATA)*%
X9753000Y-13347000D03*
%TO.N,PPS_OUT2*%
X10360000Y-11092000D03*
%TO.N,PPS_IN*%
X10112000Y-11685000D03*
%TO.N,~{NRST_IN}*%
X8712000Y-12011000D03*
X9055000Y-13767500D03*
%TO.N,Ref_CLK_SEL*%
X9495000Y-10919000D03*
X9663000Y-10926000D03*
%TO.N,VREF_O*%
X9893000Y-10659000D03*
%TO.N,REF_O*%
X9775000Y-10972000D03*
X9889000Y-10741000D03*
%TO.N,CLK_10M_OUT*%
X9442770Y-10781400D03*
%TO.N,Net-(U5-B2)*%
X9080000Y-13367500D03*
X9813000Y-10912000D03*
%TO.N,Net-(J2-SMB_CLK)*%
X9756000Y-13472000D03*
%TD*%
%TA.AperFunction,Conductor*%
%TO.N,GND*%
G36*
X9279767Y-10034124D02*
G01*
X9284343Y-10039404D01*
X9285348Y-10042867D01*
X9285492Y-10043921D01*
X9285493Y-10043922D01*
X9293061Y-10070933D01*
X9304236Y-10096662D01*
X9318811Y-10120630D01*
X9318812Y-10120630D01*
X9318812Y-10120630D01*
X9336515Y-10142390D01*
X9357016Y-10161537D01*
X9379933Y-10177713D01*
X9379933Y-10177713D01*
X9379933Y-10177714D01*
X9404840Y-10190619D01*
X9431272Y-10200013D01*
X9431272Y-10200013D01*
X9431273Y-10200013D01*
X9449254Y-10203750D01*
X9458736Y-10205720D01*
X9458737Y-10205720D01*
X9460528Y-10205843D01*
X9486723Y-10207635D01*
X9514709Y-10205720D01*
X9529423Y-10202663D01*
X9542173Y-10200013D01*
X9542173Y-10200013D01*
X9542174Y-10200013D01*
X9568606Y-10190619D01*
X9593512Y-10177714D01*
X9616430Y-10161537D01*
X9636931Y-10142390D01*
X9654634Y-10120630D01*
X9669209Y-10096662D01*
X9680385Y-10070933D01*
X9687953Y-10043922D01*
X9688098Y-10042867D01*
X9690961Y-10036494D01*
X9696815Y-10032680D01*
X9700383Y-10032155D01*
X10535745Y-10032155D01*
X10537685Y-10032308D01*
X10540947Y-10032825D01*
X10544637Y-10034024D01*
X10546699Y-10035075D01*
X10549837Y-10037355D01*
X10551475Y-10038992D01*
X10553755Y-10042130D01*
X10554806Y-10044193D01*
X10556005Y-10047882D01*
X10556520Y-10051133D01*
X10556673Y-10053073D01*
X10556673Y-13759655D01*
X10556419Y-13760521D01*
X10556548Y-13761413D01*
X10555450Y-13763821D01*
X10554704Y-13766359D01*
X10554023Y-13766950D01*
X10553649Y-13767770D01*
X10551423Y-13769202D01*
X10549424Y-13770935D01*
X10548376Y-13771163D01*
X10547773Y-13771551D01*
X10544293Y-13772052D01*
X10544280Y-13772055D01*
X10532767Y-13772055D01*
X10532742Y-13772062D01*
X10531918Y-13772062D01*
X10531917Y-13772062D01*
X10531911Y-13772062D01*
X10528840Y-13772062D01*
X10513376Y-13775137D01*
X10513376Y-13775138D01*
X10498808Y-13781170D01*
X10498808Y-13781171D01*
X10485698Y-13789929D01*
X10485698Y-13789929D01*
X10474547Y-13801078D01*
X10465786Y-13814188D01*
X10459751Y-13828754D01*
X10459751Y-13828754D01*
X10456674Y-13844218D01*
X10456674Y-13844219D01*
X10456673Y-13847492D01*
X10456673Y-13848148D01*
X10456673Y-13848149D01*
X10456673Y-13852102D01*
X10456673Y-13852104D01*
X10456672Y-13857857D01*
X10456673Y-13857864D01*
X10456673Y-13888600D01*
X10454704Y-13895304D01*
X10449424Y-13899879D01*
X10444273Y-13901000D01*
X10145785Y-13901000D01*
X10139081Y-13899031D01*
X10134506Y-13893751D01*
X10133623Y-13891019D01*
X10133384Y-13889817D01*
X10131837Y-13886080D01*
X10126591Y-13873416D01*
X10126590Y-13873414D01*
X10116728Y-13858654D01*
X10116727Y-13858654D01*
X10104175Y-13846101D01*
X10104174Y-13846101D01*
X10089414Y-13836238D01*
X10089412Y-13836237D01*
X10073012Y-13829444D01*
X10073011Y-13829444D01*
X10055600Y-13825980D01*
X10055599Y-13825980D01*
X10037846Y-13825980D01*
X10037846Y-13825980D01*
X10020435Y-13829444D01*
X10020434Y-13829444D01*
X10004033Y-13836237D01*
X10004032Y-13836238D01*
X9989271Y-13846101D01*
X9989271Y-13846101D01*
X9976718Y-13858654D01*
X9976718Y-13858654D01*
X9966855Y-13873414D01*
X9966855Y-13873416D01*
X9960061Y-13889816D01*
X9960061Y-13889817D01*
X9959822Y-13891019D01*
X9956584Y-13897210D01*
X9950513Y-13900667D01*
X9947660Y-13901000D01*
X8529391Y-13901000D01*
X8528537Y-13900749D01*
X8527657Y-13900878D01*
X8525236Y-13899780D01*
X8522687Y-13899031D01*
X8522104Y-13898359D01*
X8521294Y-13897992D01*
X8519851Y-13895759D01*
X8518111Y-13893751D01*
X8517885Y-13892716D01*
X8517502Y-13892123D01*
X8516991Y-13888631D01*
X8516938Y-13867645D01*
X8516938Y-13867640D01*
X8516937Y-13867026D01*
X8516938Y-13867021D01*
X8516937Y-13867022D01*
X8516924Y-13861877D01*
X8516903Y-13853022D01*
X8513409Y-13835661D01*
X8512018Y-13832321D01*
X8506600Y-13819313D01*
X8506600Y-13819313D01*
X8506600Y-13819312D01*
X8496738Y-13804603D01*
X8496737Y-13804603D01*
X8496737Y-13804603D01*
X8484199Y-13792097D01*
X8484199Y-13792097D01*
X8474377Y-13785547D01*
X8469465Y-13782272D01*
X8459867Y-13778303D01*
X8453100Y-13775505D01*
X8435730Y-13772054D01*
X8429174Y-13772055D01*
X8422470Y-13770087D01*
X8417894Y-13764807D01*
X8416773Y-13759655D01*
X8416773Y-13624727D01*
X8509950Y-13624727D01*
X8509950Y-13635273D01*
X8512679Y-13645459D01*
X8517952Y-13654591D01*
X8525409Y-13662048D01*
X8533572Y-13666761D01*
X8538394Y-13671818D01*
X8539716Y-13678679D01*
X8537119Y-13685165D01*
X8533572Y-13688239D01*
X8525409Y-13692952D01*
X8517952Y-13700408D01*
X8512679Y-13709541D01*
X8512679Y-13709541D01*
X8509950Y-13719727D01*
X8509950Y-13730273D01*
X8509969Y-13730342D01*
X8512679Y-13740459D01*
X8512679Y-13740459D01*
X8513989Y-13742728D01*
X8517952Y-13749591D01*
X8525409Y-13757048D01*
X8534541Y-13762321D01*
X8544727Y-13765050D01*
X8544728Y-13765050D01*
X8555273Y-13765050D01*
X8555273Y-13765050D01*
X8565459Y-13762321D01*
X8571350Y-13758919D01*
X8578140Y-13757272D01*
X8584743Y-13759557D01*
X8589062Y-13765049D01*
X8589950Y-13769658D01*
X8589950Y-13769727D01*
X8589950Y-13780273D01*
X8592679Y-13790459D01*
X8597952Y-13799591D01*
X8605409Y-13807048D01*
X8614541Y-13812321D01*
X8624727Y-13815050D01*
X8624728Y-13815050D01*
X8635273Y-13815050D01*
X8635273Y-13815050D01*
X8645459Y-13812321D01*
X8654591Y-13807048D01*
X8661232Y-13800407D01*
X8667364Y-13797059D01*
X8674333Y-13797557D01*
X8678768Y-13800407D01*
X8685409Y-13807048D01*
X8694541Y-13812321D01*
X8704727Y-13815050D01*
X8704728Y-13815050D01*
X8715273Y-13815050D01*
X8715273Y-13815050D01*
X8725459Y-13812321D01*
X8734591Y-13807048D01*
X8742048Y-13799591D01*
X8747321Y-13790459D01*
X8750050Y-13780273D01*
X8750050Y-13769727D01*
X8748040Y-13762227D01*
X9014950Y-13762227D01*
X9014950Y-13772773D01*
X9017679Y-13782959D01*
X9022952Y-13792091D01*
X9030409Y-13799548D01*
X9039541Y-13804821D01*
X9049727Y-13807550D01*
X9049728Y-13807550D01*
X9060273Y-13807550D01*
X9060273Y-13807550D01*
X9070459Y-13804821D01*
X9079591Y-13799548D01*
X9087048Y-13792091D01*
X9088413Y-13789727D01*
X10324950Y-13789727D01*
X10324950Y-13800273D01*
X10327679Y-13810459D01*
X10332952Y-13819591D01*
X10340409Y-13827048D01*
X10349541Y-13832321D01*
X10359727Y-13835050D01*
X10359728Y-13835050D01*
X10370273Y-13835050D01*
X10370273Y-13835050D01*
X10380459Y-13832321D01*
X10389591Y-13827048D01*
X10397048Y-13819591D01*
X10402321Y-13810459D01*
X10405050Y-13800273D01*
X10405050Y-13789727D01*
X10402321Y-13779541D01*
X10397048Y-13770409D01*
X10389591Y-13762952D01*
X10380459Y-13757679D01*
X10370273Y-13754950D01*
X10359727Y-13754950D01*
X10349541Y-13757679D01*
X10349541Y-13757679D01*
X10340409Y-13762952D01*
X10332952Y-13770408D01*
X10327679Y-13779541D01*
X10327679Y-13779541D01*
X10324950Y-13789727D01*
X9088413Y-13789727D01*
X9092321Y-13782959D01*
X9095050Y-13772773D01*
X9095050Y-13762227D01*
X9092321Y-13752041D01*
X9087048Y-13742909D01*
X9079591Y-13735452D01*
X9072906Y-13731592D01*
X9070459Y-13730179D01*
X9070459Y-13730179D01*
X9070459Y-13730179D01*
X9060273Y-13727450D01*
X9049727Y-13727450D01*
X9039541Y-13730179D01*
X9039541Y-13730179D01*
X9030409Y-13735452D01*
X9022952Y-13742908D01*
X9017679Y-13752041D01*
X9017679Y-13752041D01*
X9014950Y-13762227D01*
X8748040Y-13762227D01*
X8747321Y-13759541D01*
X8742048Y-13750409D01*
X8734591Y-13742952D01*
X8725459Y-13737679D01*
X8715273Y-13734950D01*
X8704727Y-13734950D01*
X8694541Y-13737679D01*
X8694541Y-13737679D01*
X8685409Y-13742952D01*
X8678768Y-13749593D01*
X8672636Y-13752941D01*
X8665667Y-13752443D01*
X8661232Y-13749593D01*
X8654591Y-13742952D01*
X8654591Y-13742952D01*
X8645459Y-13737679D01*
X8635273Y-13734950D01*
X8624727Y-13734950D01*
X8614541Y-13737679D01*
X8614541Y-13737679D01*
X8608650Y-13741081D01*
X8601860Y-13742728D01*
X8595257Y-13740443D01*
X8590938Y-13734950D01*
X8590050Y-13730342D01*
X8590050Y-13719727D01*
X8590050Y-13719727D01*
X8587321Y-13709541D01*
X8582048Y-13700409D01*
X8574591Y-13692952D01*
X8566427Y-13688238D01*
X8561606Y-13683182D01*
X8560284Y-13676321D01*
X8562880Y-13669835D01*
X8566427Y-13666761D01*
X8574591Y-13662048D01*
X8582048Y-13654591D01*
X8587321Y-13645459D01*
X8590050Y-13635273D01*
X8590050Y-13624727D01*
X8587321Y-13614541D01*
X8582048Y-13605409D01*
X8574591Y-13597952D01*
X8565459Y-13592679D01*
X8555273Y-13589950D01*
X8544727Y-13589950D01*
X8534541Y-13592679D01*
X8534541Y-13592679D01*
X8525409Y-13597952D01*
X8517952Y-13605408D01*
X8512679Y-13614541D01*
X8512679Y-13614541D01*
X8509950Y-13624727D01*
X8416773Y-13624727D01*
X8416773Y-13466727D01*
X9715950Y-13466727D01*
X9715950Y-13477273D01*
X9718679Y-13487459D01*
X9723952Y-13496591D01*
X9731409Y-13504048D01*
X9740541Y-13509321D01*
X9750727Y-13512050D01*
X9750728Y-13512050D01*
X9761273Y-13512050D01*
X9761273Y-13512050D01*
X9769941Y-13509727D01*
X9960950Y-13509727D01*
X9960950Y-13520273D01*
X9963679Y-13530459D01*
X9968952Y-13539591D01*
X9976409Y-13547048D01*
X9985541Y-13552321D01*
X9995727Y-13555050D01*
X9995728Y-13555050D01*
X10006273Y-13555050D01*
X10006273Y-13555050D01*
X10011341Y-13553692D01*
X10018326Y-13553858D01*
X10024112Y-13557775D01*
X10026862Y-13564197D01*
X10026950Y-13565669D01*
X10026950Y-13575273D01*
X10029679Y-13585459D01*
X10034952Y-13594591D01*
X10042409Y-13602048D01*
X10051541Y-13607321D01*
X10061727Y-13610050D01*
X10061728Y-13610050D01*
X10072273Y-13610050D01*
X10072273Y-13610050D01*
X10082459Y-13607321D01*
X10086950Y-13604727D01*
X10311950Y-13604727D01*
X10311950Y-13615273D01*
X10314679Y-13625459D01*
X10319952Y-13634591D01*
X10327409Y-13642048D01*
X10336541Y-13647321D01*
X10346727Y-13650050D01*
X10346728Y-13650050D01*
X10357273Y-13650050D01*
X10357273Y-13650050D01*
X10367459Y-13647321D01*
X10376591Y-13642048D01*
X10384048Y-13634591D01*
X10389321Y-13625459D01*
X10392050Y-13615273D01*
X10392050Y-13604727D01*
X10389321Y-13594541D01*
X10384048Y-13585409D01*
X10376591Y-13577952D01*
X10367459Y-13572679D01*
X10357273Y-13569950D01*
X10346727Y-13569950D01*
X10336541Y-13572679D01*
X10336541Y-13572680D01*
X10327409Y-13577952D01*
X10319952Y-13585409D01*
X10314679Y-13594541D01*
X10314679Y-13594541D01*
X10311950Y-13604727D01*
X10086950Y-13604727D01*
X10091591Y-13602048D01*
X10099048Y-13594591D01*
X10104321Y-13585459D01*
X10107050Y-13575273D01*
X10107050Y-13564727D01*
X10104321Y-13554541D01*
X10099048Y-13545409D01*
X10091591Y-13537952D01*
X10082459Y-13532679D01*
X10072273Y-13529950D01*
X10061727Y-13529950D01*
X10061727Y-13529950D01*
X10056659Y-13531308D01*
X10049674Y-13531141D01*
X10043888Y-13527225D01*
X10041138Y-13520802D01*
X10041050Y-13519330D01*
X10041050Y-13509727D01*
X10041050Y-13509727D01*
X10038321Y-13499541D01*
X10033048Y-13490409D01*
X10025591Y-13482952D01*
X10016459Y-13477679D01*
X10006273Y-13474950D01*
X9995727Y-13474950D01*
X9985541Y-13477679D01*
X9985541Y-13477679D01*
X9976409Y-13482952D01*
X9968952Y-13490408D01*
X9963679Y-13499541D01*
X9963679Y-13499541D01*
X9960950Y-13509727D01*
X9769941Y-13509727D01*
X9771459Y-13509321D01*
X9780591Y-13504048D01*
X9788048Y-13496591D01*
X9793321Y-13487459D01*
X9796050Y-13477273D01*
X9796050Y-13466727D01*
X9793321Y-13456541D01*
X9788048Y-13447409D01*
X9780591Y-13439952D01*
X9771459Y-13434679D01*
X9761273Y-13431950D01*
X9750727Y-13431950D01*
X9740541Y-13434679D01*
X9740541Y-13434679D01*
X9731409Y-13439952D01*
X9723952Y-13447408D01*
X9718679Y-13456541D01*
X9718679Y-13456541D01*
X9715950Y-13466727D01*
X8416773Y-13466727D01*
X8416773Y-13362227D01*
X9039950Y-13362227D01*
X9039950Y-13372773D01*
X9042679Y-13382959D01*
X9047952Y-13392091D01*
X9055409Y-13399548D01*
X9064541Y-13404821D01*
X9074727Y-13407550D01*
X9074728Y-13407550D01*
X9085273Y-13407550D01*
X9085273Y-13407550D01*
X9095459Y-13404821D01*
X9104591Y-13399548D01*
X9112048Y-13392091D01*
X9117321Y-13382959D01*
X9120050Y-13372773D01*
X9120050Y-13362227D01*
X9117321Y-13352041D01*
X9112048Y-13342909D01*
X9104591Y-13335452D01*
X9095459Y-13330179D01*
X9085273Y-13327450D01*
X9074727Y-13327450D01*
X9064541Y-13330179D01*
X9064541Y-13330179D01*
X9055409Y-13335452D01*
X9047952Y-13342908D01*
X9042679Y-13352041D01*
X9042679Y-13352041D01*
X9039950Y-13362227D01*
X8416773Y-13362227D01*
X8416773Y-13318069D01*
X9281950Y-13318069D01*
X9281950Y-13329931D01*
X9285020Y-13341389D01*
X9290951Y-13351661D01*
X9299339Y-13360049D01*
X9309611Y-13365980D01*
X9321069Y-13369050D01*
X9321069Y-13369050D01*
X9332931Y-13369050D01*
X9332931Y-13369050D01*
X9344389Y-13365980D01*
X9354661Y-13360049D01*
X9363049Y-13351661D01*
X9368980Y-13341389D01*
X9369023Y-13341229D01*
X9369095Y-13341110D01*
X9369291Y-13340638D01*
X9369364Y-13340669D01*
X9372659Y-13335263D01*
X9378943Y-13332210D01*
X9385881Y-13333040D01*
X9391269Y-13337488D01*
X9392708Y-13340639D01*
X9392709Y-13340638D01*
X9392727Y-13340680D01*
X9392977Y-13341229D01*
X9393020Y-13341389D01*
X9393020Y-13341389D01*
X9396336Y-13347132D01*
X9398951Y-13351661D01*
X9407339Y-13360049D01*
X9417611Y-13365980D01*
X9429069Y-13369050D01*
X9429069Y-13369050D01*
X9440931Y-13369050D01*
X9440931Y-13369050D01*
X9452389Y-13365980D01*
X9462661Y-13360049D01*
X9471049Y-13351661D01*
X9476980Y-13341389D01*
X9480050Y-13329931D01*
X9480050Y-13318069D01*
X9477802Y-13309679D01*
X9477787Y-13309625D01*
X9477787Y-13309624D01*
X9477145Y-13307227D01*
X9552450Y-13307227D01*
X9552450Y-13317773D01*
X9555179Y-13327959D01*
X9560452Y-13337091D01*
X9567909Y-13344548D01*
X9577041Y-13349821D01*
X9587227Y-13352550D01*
X9587228Y-13352550D01*
X9597773Y-13352550D01*
X9597773Y-13352550D01*
X9607959Y-13349821D01*
X9617091Y-13344548D01*
X9619912Y-13341727D01*
X9712950Y-13341727D01*
X9712950Y-13352273D01*
X9715679Y-13362459D01*
X9720952Y-13371591D01*
X9728409Y-13379048D01*
X9737541Y-13384321D01*
X9747727Y-13387050D01*
X9747728Y-13387050D01*
X9758273Y-13387050D01*
X9758273Y-13387050D01*
X9768459Y-13384321D01*
X9777591Y-13379048D01*
X9785048Y-13371591D01*
X9790321Y-13362459D01*
X9793050Y-13352273D01*
X9793050Y-13341727D01*
X9790321Y-13331541D01*
X9785048Y-13322409D01*
X9777591Y-13314952D01*
X9777202Y-13314727D01*
X10270950Y-13314727D01*
X10270950Y-13325273D01*
X10273679Y-13335459D01*
X10278952Y-13344591D01*
X10286409Y-13352048D01*
X10295541Y-13357321D01*
X10305727Y-13360050D01*
X10305728Y-13360050D01*
X10316273Y-13360050D01*
X10316273Y-13360050D01*
X10326459Y-13357321D01*
X10335591Y-13352048D01*
X10343048Y-13344591D01*
X10348321Y-13335459D01*
X10351050Y-13325273D01*
X10351050Y-13314727D01*
X10348321Y-13304541D01*
X10343048Y-13295409D01*
X10335591Y-13287952D01*
X10326459Y-13282679D01*
X10316273Y-13279950D01*
X10305727Y-13279950D01*
X10295541Y-13282679D01*
X10295541Y-13282679D01*
X10286409Y-13287952D01*
X10278952Y-13295408D01*
X10273679Y-13304541D01*
X10273679Y-13304541D01*
X10270950Y-13314727D01*
X9777202Y-13314727D01*
X9768459Y-13309679D01*
X9758273Y-13306950D01*
X9747727Y-13306950D01*
X9737541Y-13309679D01*
X9737541Y-13309679D01*
X9728409Y-13314952D01*
X9720952Y-13322408D01*
X9715679Y-13331541D01*
X9715679Y-13331541D01*
X9712950Y-13341727D01*
X9619912Y-13341727D01*
X9624548Y-13337091D01*
X9629821Y-13327959D01*
X9632550Y-13317773D01*
X9632550Y-13307227D01*
X9629821Y-13297041D01*
X9624548Y-13287909D01*
X9617091Y-13280452D01*
X9607959Y-13275179D01*
X9597773Y-13272450D01*
X9587227Y-13272450D01*
X9577041Y-13275179D01*
X9577041Y-13275179D01*
X9567909Y-13280452D01*
X9560452Y-13287908D01*
X9555179Y-13297041D01*
X9555179Y-13297041D01*
X9552450Y-13307227D01*
X9477145Y-13307227D01*
X9476980Y-13306611D01*
X9471049Y-13296339D01*
X9462661Y-13287951D01*
X9452389Y-13282020D01*
X9440931Y-13278950D01*
X9429069Y-13278950D01*
X9417611Y-13282020D01*
X9417611Y-13282020D01*
X9417611Y-13282020D01*
X9407339Y-13287951D01*
X9407338Y-13287951D01*
X9398951Y-13296338D01*
X9398951Y-13296339D01*
X9394216Y-13304541D01*
X9393020Y-13306611D01*
X9392977Y-13306771D01*
X9392905Y-13306890D01*
X9392709Y-13307362D01*
X9392636Y-13307331D01*
X9389341Y-13312737D01*
X9383056Y-13315789D01*
X9376119Y-13314960D01*
X9370731Y-13310511D01*
X9369292Y-13307361D01*
X9369291Y-13307362D01*
X9369273Y-13307320D01*
X9369023Y-13306771D01*
X9368980Y-13306611D01*
X9363049Y-13296339D01*
X9354661Y-13287951D01*
X9344389Y-13282020D01*
X9332931Y-13278950D01*
X9321069Y-13278950D01*
X9309611Y-13282020D01*
X9309611Y-13282020D01*
X9309611Y-13282020D01*
X9299339Y-13287951D01*
X9299338Y-13287951D01*
X9290951Y-13296338D01*
X9290951Y-13296339D01*
X9286216Y-13304541D01*
X9285020Y-13306611D01*
X9281950Y-13318069D01*
X8416773Y-13318069D01*
X8416773Y-13007727D01*
X10433950Y-13007727D01*
X10433950Y-13018273D01*
X10436679Y-13028459D01*
X10441952Y-13037591D01*
X10449409Y-13045048D01*
X10458541Y-13050321D01*
X10468727Y-13053050D01*
X10468728Y-13053050D01*
X10479273Y-13053050D01*
X10479273Y-13053050D01*
X10489459Y-13050321D01*
X10498591Y-13045048D01*
X10506048Y-13037591D01*
X10511321Y-13028459D01*
X10514050Y-13018273D01*
X10514050Y-13007727D01*
X10511321Y-12997541D01*
X10506048Y-12988409D01*
X10498591Y-12980952D01*
X10489459Y-12975679D01*
X10479273Y-12972950D01*
X10468727Y-12972950D01*
X10458541Y-12975679D01*
X10458541Y-12975679D01*
X10449409Y-12980952D01*
X10441952Y-12988408D01*
X10436679Y-12997541D01*
X10436679Y-12997541D01*
X10433950Y-13007727D01*
X8416773Y-13007727D01*
X8416773Y-12844727D01*
X8677450Y-12844727D01*
X8677450Y-12855273D01*
X8680179Y-12865459D01*
X8685452Y-12874591D01*
X8692909Y-12882048D01*
X8702041Y-12887321D01*
X8712227Y-12890050D01*
X8712228Y-12890050D01*
X8722773Y-12890050D01*
X8722773Y-12890050D01*
X8732959Y-12887321D01*
X8742091Y-12882048D01*
X8749548Y-12874591D01*
X8754821Y-12865459D01*
X8757550Y-12855273D01*
X8757550Y-12844727D01*
X8754821Y-12834541D01*
X8749548Y-12825409D01*
X8742091Y-12817952D01*
X8732959Y-12812679D01*
X8722773Y-12809950D01*
X8712227Y-12809950D01*
X8702041Y-12812679D01*
X8702041Y-12812679D01*
X8692909Y-12817952D01*
X8685452Y-12825408D01*
X8680179Y-12834541D01*
X8680179Y-12834541D01*
X8677450Y-12844727D01*
X8416773Y-12844727D01*
X8416773Y-12625069D01*
X9020950Y-12625069D01*
X9020950Y-12636931D01*
X9023466Y-12646320D01*
X9024020Y-12648389D01*
X9030031Y-12658800D01*
X9031678Y-12665590D01*
X9030031Y-12671200D01*
X9024020Y-12681611D01*
X9024020Y-12681611D01*
X9020950Y-12693069D01*
X9020950Y-12704931D01*
X9024020Y-12716389D01*
X9029951Y-12726661D01*
X9038339Y-12735049D01*
X9048611Y-12740980D01*
X9060069Y-12744050D01*
X9060069Y-12744050D01*
X9071931Y-12744050D01*
X9071931Y-12744050D01*
X9083389Y-12740980D01*
X9093661Y-12735049D01*
X9102049Y-12726661D01*
X9103743Y-12723727D01*
X10420950Y-12723727D01*
X10420950Y-12734272D01*
X10423679Y-12744458D01*
X10428952Y-12753591D01*
X10436409Y-12761048D01*
X10445541Y-12766320D01*
X10455727Y-12769050D01*
X10455728Y-12769050D01*
X10466273Y-12769050D01*
X10466273Y-12769050D01*
X10476459Y-12766320D01*
X10485591Y-12761048D01*
X10493048Y-12753591D01*
X10498321Y-12744458D01*
X10501050Y-12734272D01*
X10501050Y-12723727D01*
X10498321Y-12713541D01*
X10493048Y-12704408D01*
X10485591Y-12696952D01*
X10476459Y-12691679D01*
X10466273Y-12688950D01*
X10455727Y-12688950D01*
X10445541Y-12691679D01*
X10445541Y-12691679D01*
X10436409Y-12696952D01*
X10428952Y-12704408D01*
X10423679Y-12713541D01*
X10423679Y-12713541D01*
X10420950Y-12723727D01*
X9103743Y-12723727D01*
X9107980Y-12716389D01*
X9111050Y-12704931D01*
X9111050Y-12693069D01*
X9107980Y-12681611D01*
X9102049Y-12671339D01*
X9102049Y-12671338D01*
X9101969Y-12671200D01*
X9100322Y-12664410D01*
X9101969Y-12658800D01*
X9102049Y-12658661D01*
X9102049Y-12658661D01*
X9107980Y-12648389D01*
X9111050Y-12636931D01*
X9111050Y-12625069D01*
X9107980Y-12613611D01*
X9107980Y-12613611D01*
X9105384Y-12609114D01*
X9105384Y-12609114D01*
X9102273Y-12603727D01*
X10413950Y-12603727D01*
X10413950Y-12614272D01*
X10416679Y-12624458D01*
X10421952Y-12633591D01*
X10429409Y-12641048D01*
X10438541Y-12646320D01*
X10448727Y-12649050D01*
X10448728Y-12649050D01*
X10459273Y-12649050D01*
X10459273Y-12649050D01*
X10469459Y-12646320D01*
X10478591Y-12641048D01*
X10486048Y-12633591D01*
X10491321Y-12624458D01*
X10494050Y-12614272D01*
X10494050Y-12603727D01*
X10491321Y-12593541D01*
X10486048Y-12584408D01*
X10478591Y-12576952D01*
X10469459Y-12571679D01*
X10459273Y-12568950D01*
X10448727Y-12568950D01*
X10438541Y-12571679D01*
X10438541Y-12571679D01*
X10429409Y-12576952D01*
X10421952Y-12584408D01*
X10416679Y-12593541D01*
X10416679Y-12593541D01*
X10413950Y-12603727D01*
X9102273Y-12603727D01*
X9102049Y-12603339D01*
X9102049Y-12603339D01*
X9102049Y-12603339D01*
X9093661Y-12594951D01*
X9083389Y-12589020D01*
X9071931Y-12585950D01*
X9060069Y-12585950D01*
X9048611Y-12589020D01*
X9048611Y-12589020D01*
X9048611Y-12589020D01*
X9038339Y-12594951D01*
X9038338Y-12594951D01*
X9029951Y-12603338D01*
X9029951Y-12603339D01*
X9024020Y-12613611D01*
X9020950Y-12625069D01*
X8416773Y-12625069D01*
X8416773Y-12355727D01*
X8487450Y-12355727D01*
X8487450Y-12366273D01*
X8490179Y-12376459D01*
X8495452Y-12385591D01*
X8502909Y-12393048D01*
X8512041Y-12398321D01*
X8522227Y-12401050D01*
X8522228Y-12401050D01*
X8532773Y-12401050D01*
X8532773Y-12401050D01*
X8542959Y-12398321D01*
X8552091Y-12393048D01*
X8559548Y-12385591D01*
X8564821Y-12376459D01*
X8567550Y-12366273D01*
X8567550Y-12355727D01*
X8564821Y-12345541D01*
X8559548Y-12336409D01*
X8556867Y-12333727D01*
X10427950Y-12333727D01*
X10427950Y-12344273D01*
X10430679Y-12354459D01*
X10435952Y-12363591D01*
X10443409Y-12371048D01*
X10452541Y-12376321D01*
X10462727Y-12379050D01*
X10462728Y-12379050D01*
X10473273Y-12379050D01*
X10473273Y-12379050D01*
X10483459Y-12376321D01*
X10492591Y-12371048D01*
X10500048Y-12363591D01*
X10505321Y-12354459D01*
X10508050Y-12344273D01*
X10508050Y-12333727D01*
X10505321Y-12323541D01*
X10500048Y-12314409D01*
X10492591Y-12306952D01*
X10483459Y-12301679D01*
X10473273Y-12298950D01*
X10462727Y-12298950D01*
X10452541Y-12301679D01*
X10452541Y-12301679D01*
X10443409Y-12306952D01*
X10435952Y-12314408D01*
X10430679Y-12323541D01*
X10430679Y-12323541D01*
X10427950Y-12333727D01*
X8556867Y-12333727D01*
X8552091Y-12328952D01*
X8542959Y-12323679D01*
X8532773Y-12320950D01*
X8522227Y-12320950D01*
X8512041Y-12323679D01*
X8512041Y-12323679D01*
X8502909Y-12328952D01*
X8495452Y-12336408D01*
X8490179Y-12345541D01*
X8490179Y-12345541D01*
X8487450Y-12355727D01*
X8416773Y-12355727D01*
X8416773Y-12165727D01*
X8515950Y-12165727D01*
X8515950Y-12176273D01*
X8518679Y-12186459D01*
X8523952Y-12195591D01*
X8531409Y-12203048D01*
X8540541Y-12208321D01*
X8550727Y-12211050D01*
X8550728Y-12211050D01*
X8561273Y-12211050D01*
X8561273Y-12211050D01*
X8571459Y-12208321D01*
X8580591Y-12203048D01*
X8588048Y-12195591D01*
X8593321Y-12186459D01*
X8596050Y-12176273D01*
X8596050Y-12165727D01*
X8593321Y-12155541D01*
X8588048Y-12146409D01*
X8580591Y-12138952D01*
X8571459Y-12133679D01*
X8561273Y-12130950D01*
X8550727Y-12130950D01*
X8540541Y-12133679D01*
X8540541Y-12133679D01*
X8531409Y-12138952D01*
X8523952Y-12146408D01*
X8518679Y-12155541D01*
X8518679Y-12155541D01*
X8515950Y-12165727D01*
X8416773Y-12165727D01*
X8416773Y-12005727D01*
X8671950Y-12005727D01*
X8671950Y-12016273D01*
X8674679Y-12026459D01*
X8679952Y-12035591D01*
X8687409Y-12043048D01*
X8696541Y-12048321D01*
X8706727Y-12051050D01*
X8706728Y-12051050D01*
X8717273Y-12051050D01*
X8717273Y-12051050D01*
X8727459Y-12048321D01*
X8736591Y-12043048D01*
X8744048Y-12035591D01*
X8749321Y-12026459D01*
X8752050Y-12016273D01*
X8752050Y-12005727D01*
X8749321Y-11995541D01*
X8744048Y-11986409D01*
X8736591Y-11978952D01*
X8727459Y-11973679D01*
X8717273Y-11970950D01*
X8706727Y-11970950D01*
X8696541Y-11973679D01*
X8696541Y-11973679D01*
X8687409Y-11978952D01*
X8679952Y-11986408D01*
X8674679Y-11995541D01*
X8674679Y-11995541D01*
X8671950Y-12005727D01*
X8416773Y-12005727D01*
X8416773Y-11679727D01*
X10071950Y-11679727D01*
X10071950Y-11690273D01*
X10074679Y-11700459D01*
X10079952Y-11709591D01*
X10087409Y-11717048D01*
X10096541Y-11722321D01*
X10106727Y-11725050D01*
X10106728Y-11725050D01*
X10117273Y-11725050D01*
X10117273Y-11725050D01*
X10127459Y-11722321D01*
X10136591Y-11717048D01*
X10144048Y-11709591D01*
X10149321Y-11700459D01*
X10152050Y-11690273D01*
X10152050Y-11679727D01*
X10149321Y-11669541D01*
X10144048Y-11660409D01*
X10136591Y-11652952D01*
X10127459Y-11647679D01*
X10117273Y-11644950D01*
X10106727Y-11644950D01*
X10096541Y-11647679D01*
X10096541Y-11647679D01*
X10087409Y-11652952D01*
X10079952Y-11660408D01*
X10074679Y-11669541D01*
X10074679Y-11669541D01*
X10071950Y-11679727D01*
X8416773Y-11679727D01*
X8416773Y-11344727D01*
X9134950Y-11344727D01*
X9134950Y-11355273D01*
X9137679Y-11365459D01*
X9142952Y-11374591D01*
X9150409Y-11382048D01*
X9159541Y-11387321D01*
X9169727Y-11390050D01*
X9169728Y-11390050D01*
X9180273Y-11390050D01*
X9180273Y-11390050D01*
X9190459Y-11387321D01*
X9199591Y-11382048D01*
X9207048Y-11374591D01*
X9212321Y-11365459D01*
X9215050Y-11355273D01*
X9215050Y-11344727D01*
X9212321Y-11334541D01*
X9211851Y-11333727D01*
X10060950Y-11333727D01*
X10060950Y-11344273D01*
X10063679Y-11354459D01*
X10068952Y-11363591D01*
X10076409Y-11371048D01*
X10085541Y-11376321D01*
X10095727Y-11379050D01*
X10095728Y-11379050D01*
X10106273Y-11379050D01*
X10106273Y-11379050D01*
X10116459Y-11376321D01*
X10125591Y-11371048D01*
X10133048Y-11363591D01*
X10138321Y-11354459D01*
X10141050Y-11344273D01*
X10141050Y-11333727D01*
X10138321Y-11323541D01*
X10133048Y-11314409D01*
X10125591Y-11306952D01*
X10116459Y-11301679D01*
X10106273Y-11298950D01*
X10095727Y-11298950D01*
X10085541Y-11301679D01*
X10085541Y-11301679D01*
X10076409Y-11306952D01*
X10068952Y-11314408D01*
X10063679Y-11323541D01*
X10063679Y-11323541D01*
X10060950Y-11333727D01*
X9211851Y-11333727D01*
X9207048Y-11325409D01*
X9199591Y-11317952D01*
X9190459Y-11312679D01*
X9180273Y-11309950D01*
X9169727Y-11309950D01*
X9159541Y-11312679D01*
X9159541Y-11312679D01*
X9150409Y-11317952D01*
X9142952Y-11325408D01*
X9137679Y-11334541D01*
X9137679Y-11334541D01*
X9134950Y-11344727D01*
X8416773Y-11344727D01*
X8416773Y-11086727D01*
X10319950Y-11086727D01*
X10319950Y-11097273D01*
X10322679Y-11107459D01*
X10327952Y-11116591D01*
X10335409Y-11124048D01*
X10344541Y-11129321D01*
X10354727Y-11132050D01*
X10354728Y-11132050D01*
X10365273Y-11132050D01*
X10365273Y-11132050D01*
X10375459Y-11129321D01*
X10384591Y-11124048D01*
X10392048Y-11116591D01*
X10397321Y-11107459D01*
X10400050Y-11097273D01*
X10400050Y-11086727D01*
X10397321Y-11076541D01*
X10392048Y-11067409D01*
X10384591Y-11059952D01*
X10375459Y-11054679D01*
X10365273Y-11051950D01*
X10354727Y-11051950D01*
X10344541Y-11054679D01*
X10344541Y-11054679D01*
X10335409Y-11059952D01*
X10327952Y-11067409D01*
X10322679Y-11076541D01*
X10322679Y-11076541D01*
X10319950Y-11086727D01*
X8416773Y-11086727D01*
X8416773Y-10966728D01*
X9734950Y-10966728D01*
X9734950Y-10977273D01*
X9737679Y-10987459D01*
X9742952Y-10996592D01*
X9750409Y-11004048D01*
X9759541Y-11009321D01*
X9769727Y-11012050D01*
X9769727Y-11012050D01*
X9780272Y-11012050D01*
X9780273Y-11012050D01*
X9790459Y-11009321D01*
X9799591Y-11004048D01*
X9807048Y-10996592D01*
X9812321Y-10987459D01*
X9815050Y-10977273D01*
X9815050Y-10966728D01*
X9814806Y-10965816D01*
X9814972Y-10958831D01*
X9818888Y-10953045D01*
X9823574Y-10950630D01*
X9828459Y-10949321D01*
X9837591Y-10944048D01*
X9845048Y-10936591D01*
X9850321Y-10927459D01*
X9853050Y-10917273D01*
X9853050Y-10906727D01*
X9850321Y-10896541D01*
X9845048Y-10887409D01*
X9837591Y-10879952D01*
X9828459Y-10874679D01*
X9818273Y-10871950D01*
X9807727Y-10871950D01*
X9797541Y-10874679D01*
X9797541Y-10874679D01*
X9788409Y-10879952D01*
X9780952Y-10887409D01*
X9775679Y-10896541D01*
X9775679Y-10896541D01*
X9772950Y-10906727D01*
X9772950Y-10917273D01*
X9773194Y-10918184D01*
X9773028Y-10925169D01*
X9769111Y-10930955D01*
X9764426Y-10933371D01*
X9759541Y-10934680D01*
X9759541Y-10934680D01*
X9759541Y-10934680D01*
X9750408Y-10939952D01*
X9742952Y-10947409D01*
X9737679Y-10956541D01*
X9737679Y-10956542D01*
X9734950Y-10966728D01*
X8416773Y-10966728D01*
X8416773Y-10914727D01*
X8848950Y-10914727D01*
X8848950Y-10925273D01*
X8851679Y-10935459D01*
X8856952Y-10944591D01*
X8864409Y-10952048D01*
X8873541Y-10957321D01*
X8883727Y-10960050D01*
X8883728Y-10960050D01*
X8894273Y-10960050D01*
X8894273Y-10960050D01*
X8904459Y-10957321D01*
X8913591Y-10952048D01*
X8921048Y-10944591D01*
X8926321Y-10935459D01*
X8929050Y-10925273D01*
X8929050Y-10914727D01*
X8928782Y-10913727D01*
X9454950Y-10913727D01*
X9454950Y-10924273D01*
X9457679Y-10934459D01*
X9462952Y-10943591D01*
X9470409Y-10951048D01*
X9479541Y-10956321D01*
X9489727Y-10959050D01*
X9489728Y-10959050D01*
X9500273Y-10959050D01*
X9500273Y-10959050D01*
X9510459Y-10956321D01*
X9519591Y-10951048D01*
X9527048Y-10943591D01*
X9532321Y-10934459D01*
X9535050Y-10924273D01*
X9535050Y-10920727D01*
X9622950Y-10920727D01*
X9622950Y-10931273D01*
X9625679Y-10941459D01*
X9630952Y-10950591D01*
X9638409Y-10958048D01*
X9647541Y-10963321D01*
X9657727Y-10966050D01*
X9657728Y-10966050D01*
X9668273Y-10966050D01*
X9668273Y-10966050D01*
X9678459Y-10963321D01*
X9687591Y-10958048D01*
X9695048Y-10950591D01*
X9700321Y-10941459D01*
X9703050Y-10931273D01*
X9703050Y-10920727D01*
X9700321Y-10910541D01*
X9695048Y-10901409D01*
X9687591Y-10893952D01*
X9680219Y-10889696D01*
X9678459Y-10888679D01*
X9678459Y-10888679D01*
X9678459Y-10888679D01*
X9668273Y-10885950D01*
X9657727Y-10885950D01*
X9647541Y-10888679D01*
X9647541Y-10888679D01*
X9638409Y-10893952D01*
X9630952Y-10901409D01*
X9625679Y-10910541D01*
X9625679Y-10910541D01*
X9622950Y-10920727D01*
X9535050Y-10920727D01*
X9535050Y-10913727D01*
X9532321Y-10903541D01*
X9527048Y-10894409D01*
X9519591Y-10886952D01*
X9510459Y-10881679D01*
X9500273Y-10878950D01*
X9489727Y-10878950D01*
X9479541Y-10881679D01*
X9479541Y-10881679D01*
X9470409Y-10886952D01*
X9462952Y-10894409D01*
X9457679Y-10903541D01*
X9457679Y-10903541D01*
X9454950Y-10913727D01*
X8928782Y-10913727D01*
X8926321Y-10904541D01*
X8921048Y-10895409D01*
X8913591Y-10887952D01*
X8904459Y-10882679D01*
X8894273Y-10879950D01*
X8883727Y-10879950D01*
X8873541Y-10882679D01*
X8873541Y-10882679D01*
X8864409Y-10887952D01*
X8856952Y-10895409D01*
X8851679Y-10904541D01*
X8851679Y-10904541D01*
X8848950Y-10914727D01*
X8416773Y-10914727D01*
X8416773Y-10854727D01*
X10139950Y-10854727D01*
X10139950Y-10865273D01*
X10142679Y-10875459D01*
X10147952Y-10884591D01*
X10147952Y-10884591D01*
X10152093Y-10888732D01*
X10155441Y-10894864D01*
X10154943Y-10901833D01*
X10152093Y-10906268D01*
X10147952Y-10910409D01*
X10142679Y-10919541D01*
X10142679Y-10919541D01*
X10139950Y-10929727D01*
X10139950Y-10940273D01*
X10142374Y-10949321D01*
X10142679Y-10950459D01*
X10142679Y-10950459D01*
X10142756Y-10950591D01*
X10147952Y-10959591D01*
X10155409Y-10967048D01*
X10164541Y-10972321D01*
X10174727Y-10975050D01*
X10174728Y-10975050D01*
X10185273Y-10975050D01*
X10185273Y-10975050D01*
X10195459Y-10972321D01*
X10204591Y-10967048D01*
X10212048Y-10959591D01*
X10217321Y-10950459D01*
X10220050Y-10940273D01*
X10220050Y-10929727D01*
X10217321Y-10919541D01*
X10212048Y-10910409D01*
X10207907Y-10906268D01*
X10207570Y-10905650D01*
X10206993Y-10905247D01*
X10205917Y-10902624D01*
X10204559Y-10900136D01*
X10204609Y-10899434D01*
X10204342Y-10898782D01*
X10204855Y-10895995D01*
X10205057Y-10893167D01*
X10205510Y-10892437D01*
X10205607Y-10891911D01*
X10207210Y-10889696D01*
X10207630Y-10889019D01*
X10207766Y-10888873D01*
X10212048Y-10884591D01*
X10212476Y-10883849D01*
X10213454Y-10882807D01*
X10215282Y-10881731D01*
X10216816Y-10880267D01*
X10218232Y-10879994D01*
X10219475Y-10879262D01*
X10221595Y-10879345D01*
X10223677Y-10878944D01*
X10225016Y-10879479D01*
X10226457Y-10879536D01*
X10228195Y-10880752D01*
X10230164Y-10881540D01*
X10231460Y-10883036D01*
X10232182Y-10883541D01*
X10232375Y-10884010D01*
X10232457Y-10883947D01*
X10232952Y-10884591D01*
X10232952Y-10884591D01*
X10240409Y-10892048D01*
X10249541Y-10897321D01*
X10259727Y-10900050D01*
X10259728Y-10900050D01*
X10270273Y-10900050D01*
X10270273Y-10900050D01*
X10280459Y-10897321D01*
X10289591Y-10892048D01*
X10297048Y-10884591D01*
X10302321Y-10875459D01*
X10305050Y-10865273D01*
X10305050Y-10854727D01*
X10302321Y-10844541D01*
X10297048Y-10835409D01*
X10289591Y-10827952D01*
X10280459Y-10822679D01*
X10270273Y-10819950D01*
X10259727Y-10819950D01*
X10249541Y-10822679D01*
X10249541Y-10822679D01*
X10240409Y-10827952D01*
X10232952Y-10835409D01*
X10232457Y-10836053D01*
X10232227Y-10835877D01*
X10228181Y-10839734D01*
X10221321Y-10841056D01*
X10214834Y-10838459D01*
X10212667Y-10835958D01*
X10212543Y-10836053D01*
X10212048Y-10835409D01*
X10204591Y-10827952D01*
X10204591Y-10827952D01*
X10195459Y-10822679D01*
X10185273Y-10819950D01*
X10174727Y-10819950D01*
X10164541Y-10822679D01*
X10164541Y-10822679D01*
X10155409Y-10827952D01*
X10147952Y-10835409D01*
X10142679Y-10844541D01*
X10142679Y-10844541D01*
X10139950Y-10854727D01*
X8416773Y-10854727D01*
X8416773Y-10776127D01*
X9402720Y-10776127D01*
X9402720Y-10786673D01*
X9405414Y-10796728D01*
X9405449Y-10796859D01*
X9405449Y-10796859D01*
X9406862Y-10799306D01*
X9410722Y-10805991D01*
X9418178Y-10813448D01*
X9427311Y-10818721D01*
X9437497Y-10821450D01*
X9437497Y-10821450D01*
X9448042Y-10821450D01*
X9448042Y-10821450D01*
X9458228Y-10818721D01*
X9466375Y-10814018D01*
X9473164Y-10812370D01*
X9479767Y-10814656D01*
X9483313Y-10818556D01*
X9487952Y-10826591D01*
X9495409Y-10834048D01*
X9504541Y-10839321D01*
X9514727Y-10842050D01*
X9514728Y-10842050D01*
X9525272Y-10842050D01*
X9525273Y-10842050D01*
X9535459Y-10839321D01*
X9544591Y-10834048D01*
X9552048Y-10826591D01*
X9557321Y-10817459D01*
X9560050Y-10807273D01*
X9560050Y-10796727D01*
X9557321Y-10786541D01*
X9552048Y-10777409D01*
X9544591Y-10769952D01*
X9535459Y-10764679D01*
X9525273Y-10761950D01*
X9514727Y-10761950D01*
X9504541Y-10764679D01*
X9504541Y-10764679D01*
X9496395Y-10769382D01*
X9489605Y-10771030D01*
X9483003Y-10768744D01*
X9479457Y-10764844D01*
X9479362Y-10764679D01*
X9474818Y-10756809D01*
X9467361Y-10749352D01*
X9458228Y-10744079D01*
X9448042Y-10741350D01*
X9437497Y-10741350D01*
X9427311Y-10744079D01*
X9427311Y-10744079D01*
X9418178Y-10749352D01*
X9410722Y-10756809D01*
X9405449Y-10765941D01*
X9405449Y-10765941D01*
X9402720Y-10776127D01*
X8416773Y-10776127D01*
X8416773Y-10735727D01*
X9848950Y-10735727D01*
X9848950Y-10746273D01*
X9851679Y-10756459D01*
X9851679Y-10756459D01*
X9851881Y-10756809D01*
X9856952Y-10765591D01*
X9864409Y-10773048D01*
X9873541Y-10778321D01*
X9883727Y-10781050D01*
X9883728Y-10781050D01*
X9894273Y-10781050D01*
X9894273Y-10781050D01*
X9904459Y-10778321D01*
X9913591Y-10773048D01*
X9921048Y-10765591D01*
X9926321Y-10756459D01*
X9929050Y-10746273D01*
X9929050Y-10735727D01*
X9926321Y-10725541D01*
X9921048Y-10716409D01*
X9915132Y-10710492D01*
X9911783Y-10704360D01*
X9912281Y-10697391D01*
X9916469Y-10691797D01*
X9917509Y-10691111D01*
X9917591Y-10691048D01*
X9917591Y-10691048D01*
X9925048Y-10683591D01*
X9930321Y-10674459D01*
X9933050Y-10664273D01*
X9933050Y-10653727D01*
X9930321Y-10643541D01*
X9925048Y-10634409D01*
X9917591Y-10626952D01*
X9908459Y-10621679D01*
X9898273Y-10618950D01*
X9887727Y-10618950D01*
X9877541Y-10621679D01*
X9877541Y-10621679D01*
X9868409Y-10626952D01*
X9860952Y-10634409D01*
X9855679Y-10643541D01*
X9855679Y-10643541D01*
X9852950Y-10653727D01*
X9852950Y-10664273D01*
X9854022Y-10668273D01*
X9855679Y-10674459D01*
X9855679Y-10674459D01*
X9860952Y-10683591D01*
X9866868Y-10689508D01*
X9870217Y-10695640D01*
X9869719Y-10702609D01*
X9865531Y-10708203D01*
X9864491Y-10708889D01*
X9864409Y-10708952D01*
X9856952Y-10716409D01*
X9851679Y-10725541D01*
X9851679Y-10725541D01*
X9848950Y-10735727D01*
X8416773Y-10735727D01*
X8416773Y-10657727D01*
X9204950Y-10657727D01*
X9204950Y-10668273D01*
X9207679Y-10678459D01*
X9212952Y-10687591D01*
X9220409Y-10695048D01*
X9229541Y-10700321D01*
X9239727Y-10703050D01*
X9239728Y-10703050D01*
X9250273Y-10703050D01*
X9250273Y-10703050D01*
X9260459Y-10700321D01*
X9269591Y-10695048D01*
X9277048Y-10687591D01*
X9282321Y-10678459D01*
X9285050Y-10668273D01*
X9285050Y-10657727D01*
X9282321Y-10647541D01*
X9277048Y-10638409D01*
X9269591Y-10630952D01*
X9260459Y-10625679D01*
X9250273Y-10622950D01*
X9239727Y-10622950D01*
X9229541Y-10625679D01*
X9229541Y-10625679D01*
X9220409Y-10630952D01*
X9212952Y-10638409D01*
X9207679Y-10647541D01*
X9207679Y-10647541D01*
X9204950Y-10657727D01*
X8416773Y-10657727D01*
X8416773Y-10591000D01*
X8592261Y-10591000D01*
X8781261Y-10591000D01*
X8781261Y-10410727D01*
X9029950Y-10410727D01*
X9029950Y-10421273D01*
X9032679Y-10431459D01*
X9037952Y-10440591D01*
X9045409Y-10448048D01*
X9054541Y-10453321D01*
X9064727Y-10456050D01*
X9064728Y-10456050D01*
X9075273Y-10456050D01*
X9075273Y-10456050D01*
X9085459Y-10453321D01*
X9094591Y-10448048D01*
X9102048Y-10440591D01*
X9107321Y-10431459D01*
X9110050Y-10421273D01*
X9110050Y-10410727D01*
X9107321Y-10400541D01*
X9102048Y-10391409D01*
X9094591Y-10383952D01*
X9085459Y-10378679D01*
X9075273Y-10375950D01*
X9064727Y-10375950D01*
X9054541Y-10378679D01*
X9054541Y-10378679D01*
X9045409Y-10383952D01*
X9037952Y-10391409D01*
X9032679Y-10400541D01*
X9032679Y-10400541D01*
X9029950Y-10410727D01*
X8781261Y-10410727D01*
X8781261Y-10378000D01*
X8592261Y-10378000D01*
X8592261Y-10591000D01*
X8416773Y-10591000D01*
X8416773Y-10375727D01*
X9160950Y-10375727D01*
X9160950Y-10386273D01*
X9163679Y-10396459D01*
X9168952Y-10405591D01*
X9176409Y-10413048D01*
X9185541Y-10418321D01*
X9195727Y-10421050D01*
X9195728Y-10421050D01*
X9206273Y-10421050D01*
X9206273Y-10421050D01*
X9216459Y-10418321D01*
X9225591Y-10413048D01*
X9233048Y-10405591D01*
X9238321Y-10396459D01*
X9241050Y-10386273D01*
X9241050Y-10375727D01*
X9238321Y-10365541D01*
X9233048Y-10356409D01*
X9225591Y-10348952D01*
X9216459Y-10343679D01*
X9206273Y-10340950D01*
X9195727Y-10340950D01*
X9185541Y-10343679D01*
X9185541Y-10343679D01*
X9176409Y-10348952D01*
X9168952Y-10356409D01*
X9163679Y-10365541D01*
X9163679Y-10365541D01*
X9160950Y-10375727D01*
X8416773Y-10375727D01*
X8416773Y-10053085D01*
X8416926Y-10051144D01*
X8417442Y-10047884D01*
X8418641Y-10044195D01*
X8419692Y-10042134D01*
X8421972Y-10038996D01*
X8423608Y-10037360D01*
X8426746Y-10035080D01*
X8428808Y-10034030D01*
X8432497Y-10032832D01*
X8435804Y-10032308D01*
X8437743Y-10032155D01*
X8441481Y-10032156D01*
X8441481Y-10032156D01*
X8442477Y-10032156D01*
X8442482Y-10032155D01*
X9273063Y-10032155D01*
X9279767Y-10034124D01*
G37*
%TD.AperFunction*%
%TD*%
D15*
X10566723Y-13802105D02*
X10536723Y-13802105D01*
X8487729Y-14202105D02*
X8486873Y-13861954D01*
X10536723Y-10002105D02*
X9661723Y-10002105D01*
X10486723Y-13852105D02*
G75*
G02*
X10536723Y-13802113I49997J-5D01*
G01*
X8386723Y-13802105D02*
X8426874Y-13802105D01*
X9986723Y-13916105D02*
X9986723Y-14202105D01*
X8436723Y-10002105D02*
X9311723Y-10002105D01*
X10536723Y-10002105D02*
G75*
G02*
X10586725Y-10052105I-3J-50005D01*
G01*
X8426874Y-13802105D02*
G75*
G02*
X8486874Y-13861954I-4J-60005D01*
G01*
X10106723Y-14202105D02*
X10106798Y-13916105D01*
X8386723Y-13802105D02*
X8386723Y-10052105D01*
X10586723Y-10052105D02*
X10586723Y-13782105D01*
X10586723Y-13782105D02*
G75*
G02*
X10566723Y-13802113I-20003J-5D01*
G01*
X9986723Y-14202105D02*
X8487729Y-14202105D01*
X9661723Y-10002105D02*
G75*
G02*
X9311723Y-10002105I-175000J0D01*
G01*
X8386723Y-10052105D02*
G75*
G02*
X8436723Y-10002113I49997J-5D01*
G01*
X10486723Y-13852105D02*
X10486723Y-14202105D01*
X9986648Y-13916105D02*
G75*
G02*
X10106798Y-13916105I60075J0D01*
G01*
X10106723Y-14202105D02*
X10486723Y-14202105D01*
M02*
