%TF.GenerationSoftware,KiCad,Pcbnew,9.0.4*%
%TF.CreationDate,2025-11-25T18:28:02+01:00*%
%TF.ProjectId,M2_mosaicG5,4d325f6d-6f73-4616-9963-47352e6b6963,01*%
%TF.SameCoordinates,Original*%
%TF.FileFunction,Copper,L4,Bot*%
%TF.FilePolarity,Positive*%
%FSLAX45Y45*%
G04 Gerber Fmt 4.5, Leading zero omitted, Abs format (unit mm)*
G04 Created by KiCad (PCBNEW 9.0.4) date 2025-11-25 18:28:02*
%MOMM*%
%LPD*%
G01*
G04 APERTURE LIST*
%ADD10C,0.100000*%
%ADD11C,0.150000*%
%ADD12C,0.300000*%
%ADD13C,0.400000*%
%TA.AperFunction,NonConductor*%
%ADD14C,0.150000*%
%TD*%
%TA.AperFunction,ConnectorPad*%
%ADD15R,0.350000X1.950000*%
%TD*%
%TA.AperFunction,SMDPad,CuDef*%
%ADD16C,0.500000*%
%TD*%
%TA.AperFunction,ViaPad*%
%ADD17C,0.500000*%
%TD*%
%TA.AperFunction,Conductor*%
%ADD18C,0.150000*%
%TD*%
%TA.AperFunction,Conductor*%
%ADD19C,0.300000*%
%TD*%
%TA.AperFunction,Conductor*%
%ADD20C,0.180000*%
%TD*%
%TA.AperFunction,Profile*%
%ADD21C,0.100000*%
%TD*%
G04 APERTURE END LIST*
D10*
D11*
X29998900Y-25300220D02*
X40798900Y-25300220D01*
X40798900Y-28500220D01*
X29998900Y-28500220D01*
X29998900Y-25300220D01*
D10*
D11*
X1000000Y-1000000D02*
X40998900Y-1000000D01*
X40998900Y-28700220D01*
X1000000Y-28700220D01*
X1000000Y-1000000D01*
D10*
D11*
X1200000Y-1200000D02*
X40798900Y-1200000D01*
X40798900Y-28500220D01*
X1200000Y-28500220D01*
X1200000Y-1200000D01*
D10*
D11*
X6000000Y-1200000D02*
X6000000Y-1000000D01*
D10*
D11*
X11000000Y-1200000D02*
X11000000Y-1000000D01*
D10*
D11*
X16000000Y-1200000D02*
X16000000Y-1000000D01*
D10*
D11*
X21000000Y-1200000D02*
X21000000Y-1000000D01*
D10*
D11*
X26000000Y-1200000D02*
X26000000Y-1000000D01*
D10*
D11*
X31000000Y-1200000D02*
X31000000Y-1000000D01*
D10*
D11*
X36000000Y-1200000D02*
X36000000Y-1000000D01*
D10*
D11*
X3608916Y-1159360D02*
X3534630Y-1159360D01*
X3571773Y-1159360D02*
X3571773Y-1029360D01*
X3571773Y-1029360D02*
X3559392Y-1047932D01*
X3559392Y-1047932D02*
X3547011Y-1060313D01*
X3547011Y-1060313D02*
X3534630Y-1066503D01*
D10*
D11*
X8534630Y-1041741D02*
X8540821Y-1035551D01*
X8540821Y-1035551D02*
X8553202Y-1029360D01*
X8553202Y-1029360D02*
X8584154Y-1029360D01*
X8584154Y-1029360D02*
X8596535Y-1035551D01*
X8596535Y-1035551D02*
X8602726Y-1041741D01*
X8602726Y-1041741D02*
X8608916Y-1054122D01*
X8608916Y-1054122D02*
X8608916Y-1066503D01*
X8608916Y-1066503D02*
X8602726Y-1085075D01*
X8602726Y-1085075D02*
X8528440Y-1159360D01*
X8528440Y-1159360D02*
X8608916Y-1159360D01*
D10*
D11*
X13528440Y-1029360D02*
X13608916Y-1029360D01*
X13608916Y-1029360D02*
X13565583Y-1078884D01*
X13565583Y-1078884D02*
X13584154Y-1078884D01*
X13584154Y-1078884D02*
X13596535Y-1085075D01*
X13596535Y-1085075D02*
X13602725Y-1091265D01*
X13602725Y-1091265D02*
X13608916Y-1103646D01*
X13608916Y-1103646D02*
X13608916Y-1134599D01*
X13608916Y-1134599D02*
X13602725Y-1146980D01*
X13602725Y-1146980D02*
X13596535Y-1153170D01*
X13596535Y-1153170D02*
X13584154Y-1159360D01*
X13584154Y-1159360D02*
X13547011Y-1159360D01*
X13547011Y-1159360D02*
X13534630Y-1153170D01*
X13534630Y-1153170D02*
X13528440Y-1146980D01*
D10*
D11*
X18596535Y-1072694D02*
X18596535Y-1159360D01*
X18565583Y-1023170D02*
X18534630Y-1116027D01*
X18534630Y-1116027D02*
X18615106Y-1116027D01*
D10*
D11*
X23602725Y-1029360D02*
X23540821Y-1029360D01*
X23540821Y-1029360D02*
X23534630Y-1091265D01*
X23534630Y-1091265D02*
X23540821Y-1085075D01*
X23540821Y-1085075D02*
X23553202Y-1078884D01*
X23553202Y-1078884D02*
X23584154Y-1078884D01*
X23584154Y-1078884D02*
X23596535Y-1085075D01*
X23596535Y-1085075D02*
X23602725Y-1091265D01*
X23602725Y-1091265D02*
X23608916Y-1103646D01*
X23608916Y-1103646D02*
X23608916Y-1134599D01*
X23608916Y-1134599D02*
X23602725Y-1146980D01*
X23602725Y-1146980D02*
X23596535Y-1153170D01*
X23596535Y-1153170D02*
X23584154Y-1159360D01*
X23584154Y-1159360D02*
X23553202Y-1159360D01*
X23553202Y-1159360D02*
X23540821Y-1153170D01*
X23540821Y-1153170D02*
X23534630Y-1146980D01*
D10*
D11*
X28596535Y-1029360D02*
X28571773Y-1029360D01*
X28571773Y-1029360D02*
X28559392Y-1035551D01*
X28559392Y-1035551D02*
X28553202Y-1041741D01*
X28553202Y-1041741D02*
X28540821Y-1060313D01*
X28540821Y-1060313D02*
X28534630Y-1085075D01*
X28534630Y-1085075D02*
X28534630Y-1134599D01*
X28534630Y-1134599D02*
X28540821Y-1146980D01*
X28540821Y-1146980D02*
X28547011Y-1153170D01*
X28547011Y-1153170D02*
X28559392Y-1159360D01*
X28559392Y-1159360D02*
X28584154Y-1159360D01*
X28584154Y-1159360D02*
X28596535Y-1153170D01*
X28596535Y-1153170D02*
X28602725Y-1146980D01*
X28602725Y-1146980D02*
X28608916Y-1134599D01*
X28608916Y-1134599D02*
X28608916Y-1103646D01*
X28608916Y-1103646D02*
X28602725Y-1091265D01*
X28602725Y-1091265D02*
X28596535Y-1085075D01*
X28596535Y-1085075D02*
X28584154Y-1078884D01*
X28584154Y-1078884D02*
X28559392Y-1078884D01*
X28559392Y-1078884D02*
X28547011Y-1085075D01*
X28547011Y-1085075D02*
X28540821Y-1091265D01*
X28540821Y-1091265D02*
X28534630Y-1103646D01*
D10*
D11*
X33528440Y-1029360D02*
X33615106Y-1029360D01*
X33615106Y-1029360D02*
X33559392Y-1159360D01*
D10*
D11*
X38559392Y-1085075D02*
X38547011Y-1078884D01*
X38547011Y-1078884D02*
X38540821Y-1072694D01*
X38540821Y-1072694D02*
X38534630Y-1060313D01*
X38534630Y-1060313D02*
X38534630Y-1054122D01*
X38534630Y-1054122D02*
X38540821Y-1041741D01*
X38540821Y-1041741D02*
X38547011Y-1035551D01*
X38547011Y-1035551D02*
X38559392Y-1029360D01*
X38559392Y-1029360D02*
X38584154Y-1029360D01*
X38584154Y-1029360D02*
X38596535Y-1035551D01*
X38596535Y-1035551D02*
X38602726Y-1041741D01*
X38602726Y-1041741D02*
X38608916Y-1054122D01*
X38608916Y-1054122D02*
X38608916Y-1060313D01*
X38608916Y-1060313D02*
X38602726Y-1072694D01*
X38602726Y-1072694D02*
X38596535Y-1078884D01*
X38596535Y-1078884D02*
X38584154Y-1085075D01*
X38584154Y-1085075D02*
X38559392Y-1085075D01*
X38559392Y-1085075D02*
X38547011Y-1091265D01*
X38547011Y-1091265D02*
X38540821Y-1097456D01*
X38540821Y-1097456D02*
X38534630Y-1109837D01*
X38534630Y-1109837D02*
X38534630Y-1134599D01*
X38534630Y-1134599D02*
X38540821Y-1146980D01*
X38540821Y-1146980D02*
X38547011Y-1153170D01*
X38547011Y-1153170D02*
X38559392Y-1159360D01*
X38559392Y-1159360D02*
X38584154Y-1159360D01*
X38584154Y-1159360D02*
X38596535Y-1153170D01*
X38596535Y-1153170D02*
X38602726Y-1146980D01*
X38602726Y-1146980D02*
X38608916Y-1134599D01*
X38608916Y-1134599D02*
X38608916Y-1109837D01*
X38608916Y-1109837D02*
X38602726Y-1097456D01*
X38602726Y-1097456D02*
X38596535Y-1091265D01*
X38596535Y-1091265D02*
X38584154Y-1085075D01*
D10*
D11*
X6000000Y-28500220D02*
X6000000Y-28700220D01*
D10*
D11*
X11000000Y-28500220D02*
X11000000Y-28700220D01*
D10*
D11*
X16000000Y-28500220D02*
X16000000Y-28700220D01*
D10*
D11*
X21000000Y-28500220D02*
X21000000Y-28700220D01*
D10*
D11*
X26000000Y-28500220D02*
X26000000Y-28700220D01*
D10*
D11*
X31000000Y-28500220D02*
X31000000Y-28700220D01*
D10*
D11*
X36000000Y-28500220D02*
X36000000Y-28700220D01*
D10*
D11*
X3608916Y-28659580D02*
X3534630Y-28659580D01*
X3571773Y-28659580D02*
X3571773Y-28529580D01*
X3571773Y-28529580D02*
X3559392Y-28548152D01*
X3559392Y-28548152D02*
X3547011Y-28560533D01*
X3547011Y-28560533D02*
X3534630Y-28566723D01*
D10*
D11*
X8534630Y-28541961D02*
X8540821Y-28535771D01*
X8540821Y-28535771D02*
X8553202Y-28529580D01*
X8553202Y-28529580D02*
X8584154Y-28529580D01*
X8584154Y-28529580D02*
X8596535Y-28535771D01*
X8596535Y-28535771D02*
X8602726Y-28541961D01*
X8602726Y-28541961D02*
X8608916Y-28554342D01*
X8608916Y-28554342D02*
X8608916Y-28566723D01*
X8608916Y-28566723D02*
X8602726Y-28585295D01*
X8602726Y-28585295D02*
X8528440Y-28659580D01*
X8528440Y-28659580D02*
X8608916Y-28659580D01*
D10*
D11*
X13528440Y-28529580D02*
X13608916Y-28529580D01*
X13608916Y-28529580D02*
X13565583Y-28579104D01*
X13565583Y-28579104D02*
X13584154Y-28579104D01*
X13584154Y-28579104D02*
X13596535Y-28585295D01*
X13596535Y-28585295D02*
X13602725Y-28591485D01*
X13602725Y-28591485D02*
X13608916Y-28603866D01*
X13608916Y-28603866D02*
X13608916Y-28634818D01*
X13608916Y-28634818D02*
X13602725Y-28647199D01*
X13602725Y-28647199D02*
X13596535Y-28653390D01*
X13596535Y-28653390D02*
X13584154Y-28659580D01*
X13584154Y-28659580D02*
X13547011Y-28659580D01*
X13547011Y-28659580D02*
X13534630Y-28653390D01*
X13534630Y-28653390D02*
X13528440Y-28647199D01*
D10*
D11*
X18596535Y-28572914D02*
X18596535Y-28659580D01*
X18565583Y-28523390D02*
X18534630Y-28616247D01*
X18534630Y-28616247D02*
X18615106Y-28616247D01*
D10*
D11*
X23602725Y-28529580D02*
X23540821Y-28529580D01*
X23540821Y-28529580D02*
X23534630Y-28591485D01*
X23534630Y-28591485D02*
X23540821Y-28585295D01*
X23540821Y-28585295D02*
X23553202Y-28579104D01*
X23553202Y-28579104D02*
X23584154Y-28579104D01*
X23584154Y-28579104D02*
X23596535Y-28585295D01*
X23596535Y-28585295D02*
X23602725Y-28591485D01*
X23602725Y-28591485D02*
X23608916Y-28603866D01*
X23608916Y-28603866D02*
X23608916Y-28634818D01*
X23608916Y-28634818D02*
X23602725Y-28647199D01*
X23602725Y-28647199D02*
X23596535Y-28653390D01*
X23596535Y-28653390D02*
X23584154Y-28659580D01*
X23584154Y-28659580D02*
X23553202Y-28659580D01*
X23553202Y-28659580D02*
X23540821Y-28653390D01*
X23540821Y-28653390D02*
X23534630Y-28647199D01*
D10*
D11*
X28596535Y-28529580D02*
X28571773Y-28529580D01*
X28571773Y-28529580D02*
X28559392Y-28535771D01*
X28559392Y-28535771D02*
X28553202Y-28541961D01*
X28553202Y-28541961D02*
X28540821Y-28560533D01*
X28540821Y-28560533D02*
X28534630Y-28585295D01*
X28534630Y-28585295D02*
X28534630Y-28634818D01*
X28534630Y-28634818D02*
X28540821Y-28647199D01*
X28540821Y-28647199D02*
X28547011Y-28653390D01*
X28547011Y-28653390D02*
X28559392Y-28659580D01*
X28559392Y-28659580D02*
X28584154Y-28659580D01*
X28584154Y-28659580D02*
X28596535Y-28653390D01*
X28596535Y-28653390D02*
X28602725Y-28647199D01*
X28602725Y-28647199D02*
X28608916Y-28634818D01*
X28608916Y-28634818D02*
X28608916Y-28603866D01*
X28608916Y-28603866D02*
X28602725Y-28591485D01*
X28602725Y-28591485D02*
X28596535Y-28585295D01*
X28596535Y-28585295D02*
X28584154Y-28579104D01*
X28584154Y-28579104D02*
X28559392Y-28579104D01*
X28559392Y-28579104D02*
X28547011Y-28585295D01*
X28547011Y-28585295D02*
X28540821Y-28591485D01*
X28540821Y-28591485D02*
X28534630Y-28603866D01*
D10*
D11*
X33528440Y-28529580D02*
X33615106Y-28529580D01*
X33615106Y-28529580D02*
X33559392Y-28659580D01*
D10*
D11*
X38559392Y-28585295D02*
X38547011Y-28579104D01*
X38547011Y-28579104D02*
X38540821Y-28572914D01*
X38540821Y-28572914D02*
X38534630Y-28560533D01*
X38534630Y-28560533D02*
X38534630Y-28554342D01*
X38534630Y-28554342D02*
X38540821Y-28541961D01*
X38540821Y-28541961D02*
X38547011Y-28535771D01*
X38547011Y-28535771D02*
X38559392Y-28529580D01*
X38559392Y-28529580D02*
X38584154Y-28529580D01*
X38584154Y-28529580D02*
X38596535Y-28535771D01*
X38596535Y-28535771D02*
X38602726Y-28541961D01*
X38602726Y-28541961D02*
X38608916Y-28554342D01*
X38608916Y-28554342D02*
X38608916Y-28560533D01*
X38608916Y-28560533D02*
X38602726Y-28572914D01*
X38602726Y-28572914D02*
X38596535Y-28579104D01*
X38596535Y-28579104D02*
X38584154Y-28585295D01*
X38584154Y-28585295D02*
X38559392Y-28585295D01*
X38559392Y-28585295D02*
X38547011Y-28591485D01*
X38547011Y-28591485D02*
X38540821Y-28597676D01*
X38540821Y-28597676D02*
X38534630Y-28610057D01*
X38534630Y-28610057D02*
X38534630Y-28634818D01*
X38534630Y-28634818D02*
X38540821Y-28647199D01*
X38540821Y-28647199D02*
X38547011Y-28653390D01*
X38547011Y-28653390D02*
X38559392Y-28659580D01*
X38559392Y-28659580D02*
X38584154Y-28659580D01*
X38584154Y-28659580D02*
X38596535Y-28653390D01*
X38596535Y-28653390D02*
X38602726Y-28647199D01*
X38602726Y-28647199D02*
X38608916Y-28634818D01*
X38608916Y-28634818D02*
X38608916Y-28610057D01*
X38608916Y-28610057D02*
X38602726Y-28597676D01*
X38602726Y-28597676D02*
X38596535Y-28591485D01*
X38596535Y-28591485D02*
X38584154Y-28585295D01*
D10*
D11*
X1000000Y-6000000D02*
X1200000Y-6000000D01*
D10*
D11*
X1000000Y-11000000D02*
X1200000Y-11000000D01*
D10*
D11*
X1000000Y-16000000D02*
X1200000Y-16000000D01*
D10*
D11*
X1000000Y-21000000D02*
X1200000Y-21000000D01*
D10*
D11*
X1000000Y-26000000D02*
X1200000Y-26000000D01*
D10*
D11*
X1069048Y-3522218D02*
X1130952Y-3522218D01*
X1056667Y-3559360D02*
X1100000Y-3429360D01*
X1100000Y-3429360D02*
X1143333Y-3559360D01*
D10*
D11*
X1109286Y-8491265D02*
X1127857Y-8497456D01*
X1127857Y-8497456D02*
X1134048Y-8503646D01*
X1134048Y-8503646D02*
X1140238Y-8516027D01*
X1140238Y-8516027D02*
X1140238Y-8534599D01*
X1140238Y-8534599D02*
X1134048Y-8546980D01*
X1134048Y-8546980D02*
X1127857Y-8553170D01*
X1127857Y-8553170D02*
X1115476Y-8559360D01*
X1115476Y-8559360D02*
X1065952Y-8559360D01*
X1065952Y-8559360D02*
X1065952Y-8429360D01*
X1065952Y-8429360D02*
X1109286Y-8429360D01*
X1109286Y-8429360D02*
X1121667Y-8435551D01*
X1121667Y-8435551D02*
X1127857Y-8441741D01*
X1127857Y-8441741D02*
X1134048Y-8454122D01*
X1134048Y-8454122D02*
X1134048Y-8466503D01*
X1134048Y-8466503D02*
X1127857Y-8478884D01*
X1127857Y-8478884D02*
X1121667Y-8485075D01*
X1121667Y-8485075D02*
X1109286Y-8491265D01*
X1109286Y-8491265D02*
X1065952Y-8491265D01*
D10*
D11*
X1140238Y-13546979D02*
X1134048Y-13553170D01*
X1134048Y-13553170D02*
X1115476Y-13559360D01*
X1115476Y-13559360D02*
X1103095Y-13559360D01*
X1103095Y-13559360D02*
X1084524Y-13553170D01*
X1084524Y-13553170D02*
X1072143Y-13540789D01*
X1072143Y-13540789D02*
X1065952Y-13528408D01*
X1065952Y-13528408D02*
X1059762Y-13503646D01*
X1059762Y-13503646D02*
X1059762Y-13485075D01*
X1059762Y-13485075D02*
X1065952Y-13460313D01*
X1065952Y-13460313D02*
X1072143Y-13447932D01*
X1072143Y-13447932D02*
X1084524Y-13435551D01*
X1084524Y-13435551D02*
X1103095Y-13429360D01*
X1103095Y-13429360D02*
X1115476Y-13429360D01*
X1115476Y-13429360D02*
X1134048Y-13435551D01*
X1134048Y-13435551D02*
X1140238Y-13441741D01*
D10*
D11*
X1065952Y-18559360D02*
X1065952Y-18429360D01*
X1065952Y-18429360D02*
X1096905Y-18429360D01*
X1096905Y-18429360D02*
X1115476Y-18435551D01*
X1115476Y-18435551D02*
X1127857Y-18447932D01*
X1127857Y-18447932D02*
X1134048Y-18460313D01*
X1134048Y-18460313D02*
X1140238Y-18485075D01*
X1140238Y-18485075D02*
X1140238Y-18503646D01*
X1140238Y-18503646D02*
X1134048Y-18528408D01*
X1134048Y-18528408D02*
X1127857Y-18540789D01*
X1127857Y-18540789D02*
X1115476Y-18553170D01*
X1115476Y-18553170D02*
X1096905Y-18559360D01*
X1096905Y-18559360D02*
X1065952Y-18559360D01*
D10*
D11*
X1072143Y-23491265D02*
X1115476Y-23491265D01*
X1134048Y-23559360D02*
X1072143Y-23559360D01*
X1072143Y-23559360D02*
X1072143Y-23429360D01*
X1072143Y-23429360D02*
X1134048Y-23429360D01*
D10*
D11*
X1118571Y-28491265D02*
X1075238Y-28491265D01*
X1075238Y-28559360D02*
X1075238Y-28429360D01*
X1075238Y-28429360D02*
X1137143Y-28429360D01*
D10*
D11*
X40998900Y-6000000D02*
X40798900Y-6000000D01*
D10*
D11*
X40998900Y-11000000D02*
X40798900Y-11000000D01*
D10*
D11*
X40998900Y-16000000D02*
X40798900Y-16000000D01*
D10*
D11*
X40998900Y-21000000D02*
X40798900Y-21000000D01*
D10*
D11*
X40998900Y-26000000D02*
X40798900Y-26000000D01*
D10*
D11*
X40867948Y-3522218D02*
X40929852Y-3522218D01*
X40855567Y-3559360D02*
X40898900Y-3429360D01*
X40898900Y-3429360D02*
X40942233Y-3559360D01*
D10*
D11*
X40908186Y-8491265D02*
X40926757Y-8497456D01*
X40926757Y-8497456D02*
X40932948Y-8503646D01*
X40932948Y-8503646D02*
X40939138Y-8516027D01*
X40939138Y-8516027D02*
X40939138Y-8534599D01*
X40939138Y-8534599D02*
X40932948Y-8546980D01*
X40932948Y-8546980D02*
X40926757Y-8553170D01*
X40926757Y-8553170D02*
X40914376Y-8559360D01*
X40914376Y-8559360D02*
X40864852Y-8559360D01*
X40864852Y-8559360D02*
X40864852Y-8429360D01*
X40864852Y-8429360D02*
X40908186Y-8429360D01*
X40908186Y-8429360D02*
X40920567Y-8435551D01*
X40920567Y-8435551D02*
X40926757Y-8441741D01*
X40926757Y-8441741D02*
X40932948Y-8454122D01*
X40932948Y-8454122D02*
X40932948Y-8466503D01*
X40932948Y-8466503D02*
X40926757Y-8478884D01*
X40926757Y-8478884D02*
X40920567Y-8485075D01*
X40920567Y-8485075D02*
X40908186Y-8491265D01*
X40908186Y-8491265D02*
X40864852Y-8491265D01*
D10*
D11*
X40939138Y-13546979D02*
X40932948Y-13553170D01*
X40932948Y-13553170D02*
X40914376Y-13559360D01*
X40914376Y-13559360D02*
X40901995Y-13559360D01*
X40901995Y-13559360D02*
X40883424Y-13553170D01*
X40883424Y-13553170D02*
X40871043Y-13540789D01*
X40871043Y-13540789D02*
X40864852Y-13528408D01*
X40864852Y-13528408D02*
X40858662Y-13503646D01*
X40858662Y-13503646D02*
X40858662Y-13485075D01*
X40858662Y-13485075D02*
X40864852Y-13460313D01*
X40864852Y-13460313D02*
X40871043Y-13447932D01*
X40871043Y-13447932D02*
X40883424Y-13435551D01*
X40883424Y-13435551D02*
X40901995Y-13429360D01*
X40901995Y-13429360D02*
X40914376Y-13429360D01*
X40914376Y-13429360D02*
X40932948Y-13435551D01*
X40932948Y-13435551D02*
X40939138Y-13441741D01*
D10*
D11*
X40864852Y-18559360D02*
X40864852Y-18429360D01*
X40864852Y-18429360D02*
X40895805Y-18429360D01*
X40895805Y-18429360D02*
X40914376Y-18435551D01*
X40914376Y-18435551D02*
X40926757Y-18447932D01*
X40926757Y-18447932D02*
X40932948Y-18460313D01*
X40932948Y-18460313D02*
X40939138Y-18485075D01*
X40939138Y-18485075D02*
X40939138Y-18503646D01*
X40939138Y-18503646D02*
X40932948Y-18528408D01*
X40932948Y-18528408D02*
X40926757Y-18540789D01*
X40926757Y-18540789D02*
X40914376Y-18553170D01*
X40914376Y-18553170D02*
X40895805Y-18559360D01*
X40895805Y-18559360D02*
X40864852Y-18559360D01*
D10*
D11*
X40871043Y-23491265D02*
X40914376Y-23491265D01*
X40932948Y-23559360D02*
X40871043Y-23559360D01*
X40871043Y-23559360D02*
X40871043Y-23429360D01*
X40871043Y-23429360D02*
X40932948Y-23429360D01*
D10*
D11*
X40917471Y-28491265D02*
X40874138Y-28491265D01*
X40874138Y-28559360D02*
X40874138Y-28429360D01*
X40874138Y-28429360D02*
X40936043Y-28429360D01*
D10*
D11*
X32344483Y-28078833D02*
X32344483Y-27928833D01*
X32344483Y-27928833D02*
X32380197Y-27928833D01*
X32380197Y-27928833D02*
X32401625Y-27935976D01*
X32401625Y-27935976D02*
X32415911Y-27950261D01*
X32415911Y-27950261D02*
X32423054Y-27964547D01*
X32423054Y-27964547D02*
X32430197Y-27993118D01*
X32430197Y-27993118D02*
X32430197Y-28014547D01*
X32430197Y-28014547D02*
X32423054Y-28043118D01*
X32423054Y-28043118D02*
X32415911Y-28057404D01*
X32415911Y-28057404D02*
X32401625Y-28071690D01*
X32401625Y-28071690D02*
X32380197Y-28078833D01*
X32380197Y-28078833D02*
X32344483Y-28078833D01*
X32558768Y-28078833D02*
X32558768Y-28000261D01*
X32558768Y-28000261D02*
X32551625Y-27985976D01*
X32551625Y-27985976D02*
X32537340Y-27978833D01*
X32537340Y-27978833D02*
X32508768Y-27978833D01*
X32508768Y-27978833D02*
X32494483Y-27985976D01*
X32558768Y-28071690D02*
X32544483Y-28078833D01*
X32544483Y-28078833D02*
X32508768Y-28078833D01*
X32508768Y-28078833D02*
X32494483Y-28071690D01*
X32494483Y-28071690D02*
X32487340Y-28057404D01*
X32487340Y-28057404D02*
X32487340Y-28043118D01*
X32487340Y-28043118D02*
X32494483Y-28028833D01*
X32494483Y-28028833D02*
X32508768Y-28021690D01*
X32508768Y-28021690D02*
X32544483Y-28021690D01*
X32544483Y-28021690D02*
X32558768Y-28014547D01*
X32608768Y-27978833D02*
X32665911Y-27978833D01*
X32630197Y-27928833D02*
X32630197Y-28057404D01*
X32630197Y-28057404D02*
X32637340Y-28071690D01*
X32637340Y-28071690D02*
X32651625Y-28078833D01*
X32651625Y-28078833D02*
X32665911Y-28078833D01*
X32773054Y-28071690D02*
X32758768Y-28078833D01*
X32758768Y-28078833D02*
X32730197Y-28078833D01*
X32730197Y-28078833D02*
X32715911Y-28071690D01*
X32715911Y-28071690D02*
X32708768Y-28057404D01*
X32708768Y-28057404D02*
X32708768Y-28000261D01*
X32708768Y-28000261D02*
X32715911Y-27985976D01*
X32715911Y-27985976D02*
X32730197Y-27978833D01*
X32730197Y-27978833D02*
X32758768Y-27978833D01*
X32758768Y-27978833D02*
X32773054Y-27985976D01*
X32773054Y-27985976D02*
X32780197Y-28000261D01*
X32780197Y-28000261D02*
X32780197Y-28014547D01*
X32780197Y-28014547D02*
X32708768Y-28028833D01*
X32844483Y-28064547D02*
X32851625Y-28071690D01*
X32851625Y-28071690D02*
X32844483Y-28078833D01*
X32844483Y-28078833D02*
X32837340Y-28071690D01*
X32837340Y-28071690D02*
X32844483Y-28064547D01*
X32844483Y-28064547D02*
X32844483Y-28078833D01*
X32844483Y-27985976D02*
X32851625Y-27993118D01*
X32851625Y-27993118D02*
X32844483Y-28000261D01*
X32844483Y-28000261D02*
X32837340Y-27993118D01*
X32837340Y-27993118D02*
X32844483Y-27985976D01*
X32844483Y-27985976D02*
X32844483Y-28000261D01*
D10*
D11*
X29998900Y-28150220D02*
X40798900Y-28150220D01*
D10*
D11*
X30144483Y-28358833D02*
X30144483Y-28208833D01*
X30230197Y-28358833D02*
X30165911Y-28273118D01*
X30230197Y-28208833D02*
X30144483Y-28294547D01*
X30294483Y-28358833D02*
X30294483Y-28258833D01*
X30294483Y-28208833D02*
X30287340Y-28215976D01*
X30287340Y-28215976D02*
X30294483Y-28223118D01*
X30294483Y-28223118D02*
X30301625Y-28215976D01*
X30301625Y-28215976D02*
X30294483Y-28208833D01*
X30294483Y-28208833D02*
X30294483Y-28223118D01*
X30451625Y-28344547D02*
X30444483Y-28351690D01*
X30444483Y-28351690D02*
X30423054Y-28358833D01*
X30423054Y-28358833D02*
X30408768Y-28358833D01*
X30408768Y-28358833D02*
X30387340Y-28351690D01*
X30387340Y-28351690D02*
X30373054Y-28337404D01*
X30373054Y-28337404D02*
X30365911Y-28323118D01*
X30365911Y-28323118D02*
X30358768Y-28294547D01*
X30358768Y-28294547D02*
X30358768Y-28273118D01*
X30358768Y-28273118D02*
X30365911Y-28244547D01*
X30365911Y-28244547D02*
X30373054Y-28230261D01*
X30373054Y-28230261D02*
X30387340Y-28215976D01*
X30387340Y-28215976D02*
X30408768Y-28208833D01*
X30408768Y-28208833D02*
X30423054Y-28208833D01*
X30423054Y-28208833D02*
X30444483Y-28215976D01*
X30444483Y-28215976D02*
X30451625Y-28223118D01*
X30580197Y-28358833D02*
X30580197Y-28280261D01*
X30580197Y-28280261D02*
X30573054Y-28265976D01*
X30573054Y-28265976D02*
X30558768Y-28258833D01*
X30558768Y-28258833D02*
X30530197Y-28258833D01*
X30530197Y-28258833D02*
X30515911Y-28265976D01*
X30580197Y-28351690D02*
X30565911Y-28358833D01*
X30565911Y-28358833D02*
X30530197Y-28358833D01*
X30530197Y-28358833D02*
X30515911Y-28351690D01*
X30515911Y-28351690D02*
X30508768Y-28337404D01*
X30508768Y-28337404D02*
X30508768Y-28323118D01*
X30508768Y-28323118D02*
X30515911Y-28308833D01*
X30515911Y-28308833D02*
X30530197Y-28301690D01*
X30530197Y-28301690D02*
X30565911Y-28301690D01*
X30565911Y-28301690D02*
X30580197Y-28294547D01*
X30715911Y-28358833D02*
X30715911Y-28208833D01*
X30715911Y-28351690D02*
X30701625Y-28358833D01*
X30701625Y-28358833D02*
X30673054Y-28358833D01*
X30673054Y-28358833D02*
X30658768Y-28351690D01*
X30658768Y-28351690D02*
X30651625Y-28344547D01*
X30651625Y-28344547D02*
X30644483Y-28330261D01*
X30644483Y-28330261D02*
X30644483Y-28287404D01*
X30644483Y-28287404D02*
X30651625Y-28273118D01*
X30651625Y-28273118D02*
X30658768Y-28265976D01*
X30658768Y-28265976D02*
X30673054Y-28258833D01*
X30673054Y-28258833D02*
X30701625Y-28258833D01*
X30701625Y-28258833D02*
X30715911Y-28265976D01*
X30901625Y-28280261D02*
X30951625Y-28280261D01*
X30973054Y-28358833D02*
X30901625Y-28358833D01*
X30901625Y-28358833D02*
X30901625Y-28208833D01*
X30901625Y-28208833D02*
X30973054Y-28208833D01*
X31037340Y-28344547D02*
X31044483Y-28351690D01*
X31044483Y-28351690D02*
X31037340Y-28358833D01*
X31037340Y-28358833D02*
X31030197Y-28351690D01*
X31030197Y-28351690D02*
X31037340Y-28344547D01*
X31037340Y-28344547D02*
X31037340Y-28358833D01*
X31108768Y-28358833D02*
X31108768Y-28208833D01*
X31108768Y-28208833D02*
X31144483Y-28208833D01*
X31144483Y-28208833D02*
X31165911Y-28215976D01*
X31165911Y-28215976D02*
X31180197Y-28230261D01*
X31180197Y-28230261D02*
X31187340Y-28244547D01*
X31187340Y-28244547D02*
X31194483Y-28273118D01*
X31194483Y-28273118D02*
X31194483Y-28294547D01*
X31194483Y-28294547D02*
X31187340Y-28323118D01*
X31187340Y-28323118D02*
X31180197Y-28337404D01*
X31180197Y-28337404D02*
X31165911Y-28351690D01*
X31165911Y-28351690D02*
X31144483Y-28358833D01*
X31144483Y-28358833D02*
X31108768Y-28358833D01*
X31258768Y-28344547D02*
X31265911Y-28351690D01*
X31265911Y-28351690D02*
X31258768Y-28358833D01*
X31258768Y-28358833D02*
X31251626Y-28351690D01*
X31251626Y-28351690D02*
X31258768Y-28344547D01*
X31258768Y-28344547D02*
X31258768Y-28358833D01*
X31323054Y-28315976D02*
X31394483Y-28315976D01*
X31308768Y-28358833D02*
X31358768Y-28208833D01*
X31358768Y-28208833D02*
X31408768Y-28358833D01*
X31458768Y-28344547D02*
X31465911Y-28351690D01*
X31465911Y-28351690D02*
X31458768Y-28358833D01*
X31458768Y-28358833D02*
X31451626Y-28351690D01*
X31451626Y-28351690D02*
X31458768Y-28344547D01*
X31458768Y-28344547D02*
X31458768Y-28358833D01*
X31651626Y-28358833D02*
X31680197Y-28358833D01*
X31680197Y-28358833D02*
X31694483Y-28351690D01*
X31694483Y-28351690D02*
X31701626Y-28344547D01*
X31701626Y-28344547D02*
X31715911Y-28323118D01*
X31715911Y-28323118D02*
X31723054Y-28294547D01*
X31723054Y-28294547D02*
X31723054Y-28237404D01*
X31723054Y-28237404D02*
X31715911Y-28223118D01*
X31715911Y-28223118D02*
X31708768Y-28215976D01*
X31708768Y-28215976D02*
X31694483Y-28208833D01*
X31694483Y-28208833D02*
X31665911Y-28208833D01*
X31665911Y-28208833D02*
X31651626Y-28215976D01*
X31651626Y-28215976D02*
X31644483Y-28223118D01*
X31644483Y-28223118D02*
X31637340Y-28237404D01*
X31637340Y-28237404D02*
X31637340Y-28273118D01*
X31637340Y-28273118D02*
X31644483Y-28287404D01*
X31644483Y-28287404D02*
X31651626Y-28294547D01*
X31651626Y-28294547D02*
X31665911Y-28301690D01*
X31665911Y-28301690D02*
X31694483Y-28301690D01*
X31694483Y-28301690D02*
X31708768Y-28294547D01*
X31708768Y-28294547D02*
X31715911Y-28287404D01*
X31715911Y-28287404D02*
X31723054Y-28273118D01*
X31787340Y-28344547D02*
X31794483Y-28351690D01*
X31794483Y-28351690D02*
X31787340Y-28358833D01*
X31787340Y-28358833D02*
X31780197Y-28351690D01*
X31780197Y-28351690D02*
X31787340Y-28344547D01*
X31787340Y-28344547D02*
X31787340Y-28358833D01*
X31887340Y-28208833D02*
X31901626Y-28208833D01*
X31901626Y-28208833D02*
X31915911Y-28215976D01*
X31915911Y-28215976D02*
X31923054Y-28223118D01*
X31923054Y-28223118D02*
X31930197Y-28237404D01*
X31930197Y-28237404D02*
X31937340Y-28265976D01*
X31937340Y-28265976D02*
X31937340Y-28301690D01*
X31937340Y-28301690D02*
X31930197Y-28330261D01*
X31930197Y-28330261D02*
X31923054Y-28344547D01*
X31923054Y-28344547D02*
X31915911Y-28351690D01*
X31915911Y-28351690D02*
X31901626Y-28358833D01*
X31901626Y-28358833D02*
X31887340Y-28358833D01*
X31887340Y-28358833D02*
X31873054Y-28351690D01*
X31873054Y-28351690D02*
X31865911Y-28344547D01*
X31865911Y-28344547D02*
X31858768Y-28330261D01*
X31858768Y-28330261D02*
X31851626Y-28301690D01*
X31851626Y-28301690D02*
X31851626Y-28265976D01*
X31851626Y-28265976D02*
X31858768Y-28237404D01*
X31858768Y-28237404D02*
X31865911Y-28223118D01*
X31865911Y-28223118D02*
X31873054Y-28215976D01*
X31873054Y-28215976D02*
X31887340Y-28208833D01*
X32001625Y-28344547D02*
X32008768Y-28351690D01*
X32008768Y-28351690D02*
X32001625Y-28358833D01*
X32001625Y-28358833D02*
X31994483Y-28351690D01*
X31994483Y-28351690D02*
X32001625Y-28344547D01*
X32001625Y-28344547D02*
X32001625Y-28358833D01*
X32137340Y-28258833D02*
X32137340Y-28358833D01*
X32101626Y-28201690D02*
X32065911Y-28308833D01*
X32065911Y-28308833D02*
X32158768Y-28308833D01*
D10*
D11*
X29998900Y-27850220D02*
X40798900Y-27850220D01*
D10*
D12*
X38740065Y-28078053D02*
X38690065Y-28006624D01*
X38654351Y-28078053D02*
X38654351Y-27928053D01*
X38654351Y-27928053D02*
X38711494Y-27928053D01*
X38711494Y-27928053D02*
X38725780Y-27935196D01*
X38725780Y-27935196D02*
X38732923Y-27942338D01*
X38732923Y-27942338D02*
X38740065Y-27956624D01*
X38740065Y-27956624D02*
X38740065Y-27978053D01*
X38740065Y-27978053D02*
X38732923Y-27992338D01*
X38732923Y-27992338D02*
X38725780Y-27999481D01*
X38725780Y-27999481D02*
X38711494Y-28006624D01*
X38711494Y-28006624D02*
X38654351Y-28006624D01*
X38861494Y-28070910D02*
X38847208Y-28078053D01*
X38847208Y-28078053D02*
X38818637Y-28078053D01*
X38818637Y-28078053D02*
X38804351Y-28070910D01*
X38804351Y-28070910D02*
X38797208Y-28056624D01*
X38797208Y-28056624D02*
X38797208Y-27999481D01*
X38797208Y-27999481D02*
X38804351Y-27985196D01*
X38804351Y-27985196D02*
X38818637Y-27978053D01*
X38818637Y-27978053D02*
X38847208Y-27978053D01*
X38847208Y-27978053D02*
X38861494Y-27985196D01*
X38861494Y-27985196D02*
X38868637Y-27999481D01*
X38868637Y-27999481D02*
X38868637Y-28013767D01*
X38868637Y-28013767D02*
X38797208Y-28028053D01*
X38918637Y-27978053D02*
X38954351Y-28078053D01*
X38954351Y-28078053D02*
X38990065Y-27978053D01*
X39047208Y-28063767D02*
X39054351Y-28070910D01*
X39054351Y-28070910D02*
X39047208Y-28078053D01*
X39047208Y-28078053D02*
X39040065Y-28070910D01*
X39040065Y-28070910D02*
X39047208Y-28063767D01*
X39047208Y-28063767D02*
X39047208Y-28078053D01*
X39047208Y-27985196D02*
X39054351Y-27992338D01*
X39054351Y-27992338D02*
X39047208Y-27999481D01*
X39047208Y-27999481D02*
X39040065Y-27992338D01*
X39040065Y-27992338D02*
X39047208Y-27985196D01*
X39047208Y-27985196D02*
X39047208Y-27999481D01*
X39261494Y-27928053D02*
X39275780Y-27928053D01*
X39275780Y-27928053D02*
X39290065Y-27935196D01*
X39290065Y-27935196D02*
X39297208Y-27942338D01*
X39297208Y-27942338D02*
X39304351Y-27956624D01*
X39304351Y-27956624D02*
X39311494Y-27985196D01*
X39311494Y-27985196D02*
X39311494Y-28020910D01*
X39311494Y-28020910D02*
X39304351Y-28049481D01*
X39304351Y-28049481D02*
X39297208Y-28063767D01*
X39297208Y-28063767D02*
X39290065Y-28070910D01*
X39290065Y-28070910D02*
X39275780Y-28078053D01*
X39275780Y-28078053D02*
X39261494Y-28078053D01*
X39261494Y-28078053D02*
X39247208Y-28070910D01*
X39247208Y-28070910D02*
X39240065Y-28063767D01*
X39240065Y-28063767D02*
X39232922Y-28049481D01*
X39232922Y-28049481D02*
X39225780Y-28020910D01*
X39225780Y-28020910D02*
X39225780Y-27985196D01*
X39225780Y-27985196D02*
X39232922Y-27956624D01*
X39232922Y-27956624D02*
X39240065Y-27942338D01*
X39240065Y-27942338D02*
X39247208Y-27935196D01*
X39247208Y-27935196D02*
X39261494Y-27928053D01*
X39454351Y-28078053D02*
X39368637Y-28078053D01*
X39411494Y-28078053D02*
X39411494Y-27928053D01*
X39411494Y-27928053D02*
X39397208Y-27949481D01*
X39397208Y-27949481D02*
X39382922Y-27963767D01*
X39382922Y-27963767D02*
X39368637Y-27970910D01*
D10*
D11*
X30137340Y-28071690D02*
X30158768Y-28078833D01*
X30158768Y-28078833D02*
X30194483Y-28078833D01*
X30194483Y-28078833D02*
X30208768Y-28071690D01*
X30208768Y-28071690D02*
X30215911Y-28064547D01*
X30215911Y-28064547D02*
X30223054Y-28050261D01*
X30223054Y-28050261D02*
X30223054Y-28035976D01*
X30223054Y-28035976D02*
X30215911Y-28021690D01*
X30215911Y-28021690D02*
X30208768Y-28014547D01*
X30208768Y-28014547D02*
X30194483Y-28007404D01*
X30194483Y-28007404D02*
X30165911Y-28000261D01*
X30165911Y-28000261D02*
X30151625Y-27993118D01*
X30151625Y-27993118D02*
X30144483Y-27985976D01*
X30144483Y-27985976D02*
X30137340Y-27971690D01*
X30137340Y-27971690D02*
X30137340Y-27957404D01*
X30137340Y-27957404D02*
X30144483Y-27943118D01*
X30144483Y-27943118D02*
X30151625Y-27935976D01*
X30151625Y-27935976D02*
X30165911Y-27928833D01*
X30165911Y-27928833D02*
X30201625Y-27928833D01*
X30201625Y-27928833D02*
X30223054Y-27935976D01*
X30287340Y-28078833D02*
X30287340Y-27978833D01*
X30287340Y-27928833D02*
X30280197Y-27935976D01*
X30280197Y-27935976D02*
X30287340Y-27943118D01*
X30287340Y-27943118D02*
X30294483Y-27935976D01*
X30294483Y-27935976D02*
X30287340Y-27928833D01*
X30287340Y-27928833D02*
X30287340Y-27943118D01*
X30344483Y-27978833D02*
X30423054Y-27978833D01*
X30423054Y-27978833D02*
X30344483Y-28078833D01*
X30344483Y-28078833D02*
X30423054Y-28078833D01*
X30537340Y-28071690D02*
X30523054Y-28078833D01*
X30523054Y-28078833D02*
X30494483Y-28078833D01*
X30494483Y-28078833D02*
X30480197Y-28071690D01*
X30480197Y-28071690D02*
X30473054Y-28057404D01*
X30473054Y-28057404D02*
X30473054Y-28000261D01*
X30473054Y-28000261D02*
X30480197Y-27985976D01*
X30480197Y-27985976D02*
X30494483Y-27978833D01*
X30494483Y-27978833D02*
X30523054Y-27978833D01*
X30523054Y-27978833D02*
X30537340Y-27985976D01*
X30537340Y-27985976D02*
X30544483Y-28000261D01*
X30544483Y-28000261D02*
X30544483Y-28014547D01*
X30544483Y-28014547D02*
X30473054Y-28028833D01*
X30608768Y-28064547D02*
X30615911Y-28071690D01*
X30615911Y-28071690D02*
X30608768Y-28078833D01*
X30608768Y-28078833D02*
X30601625Y-28071690D01*
X30601625Y-28071690D02*
X30608768Y-28064547D01*
X30608768Y-28064547D02*
X30608768Y-28078833D01*
X30608768Y-27985976D02*
X30615911Y-27993118D01*
X30615911Y-27993118D02*
X30608768Y-28000261D01*
X30608768Y-28000261D02*
X30601625Y-27993118D01*
X30601625Y-27993118D02*
X30608768Y-27985976D01*
X30608768Y-27985976D02*
X30608768Y-28000261D01*
X30787340Y-28035976D02*
X30858768Y-28035976D01*
X30773054Y-28078833D02*
X30823054Y-27928833D01*
X30823054Y-27928833D02*
X30873054Y-28078833D01*
X30908768Y-27928833D02*
X31001625Y-27928833D01*
X31001625Y-27928833D02*
X30951625Y-27985976D01*
X30951625Y-27985976D02*
X30973054Y-27985976D01*
X30973054Y-27985976D02*
X30987340Y-27993118D01*
X30987340Y-27993118D02*
X30994483Y-28000261D01*
X30994483Y-28000261D02*
X31001625Y-28014547D01*
X31001625Y-28014547D02*
X31001625Y-28050261D01*
X31001625Y-28050261D02*
X30994483Y-28064547D01*
X30994483Y-28064547D02*
X30987340Y-28071690D01*
X30987340Y-28071690D02*
X30973054Y-28078833D01*
X30973054Y-28078833D02*
X30930197Y-28078833D01*
X30930197Y-28078833D02*
X30915911Y-28071690D01*
X30915911Y-28071690D02*
X30908768Y-28064547D01*
D10*
D11*
X38644483Y-28358833D02*
X38644483Y-28208833D01*
X38780197Y-28358833D02*
X38780197Y-28208833D01*
X38780197Y-28351690D02*
X38765911Y-28358833D01*
X38765911Y-28358833D02*
X38737340Y-28358833D01*
X38737340Y-28358833D02*
X38723054Y-28351690D01*
X38723054Y-28351690D02*
X38715911Y-28344547D01*
X38715911Y-28344547D02*
X38708768Y-28330261D01*
X38708768Y-28330261D02*
X38708768Y-28287404D01*
X38708768Y-28287404D02*
X38715911Y-28273118D01*
X38715911Y-28273118D02*
X38723054Y-28265976D01*
X38723054Y-28265976D02*
X38737340Y-28258833D01*
X38737340Y-28258833D02*
X38765911Y-28258833D01*
X38765911Y-28258833D02*
X38780197Y-28265976D01*
X38851626Y-28344547D02*
X38858768Y-28351690D01*
X38858768Y-28351690D02*
X38851626Y-28358833D01*
X38851626Y-28358833D02*
X38844483Y-28351690D01*
X38844483Y-28351690D02*
X38851626Y-28344547D01*
X38851626Y-28344547D02*
X38851626Y-28358833D01*
X38851626Y-28265976D02*
X38858768Y-28273118D01*
X38858768Y-28273118D02*
X38851626Y-28280261D01*
X38851626Y-28280261D02*
X38844483Y-28273118D01*
X38844483Y-28273118D02*
X38851626Y-28265976D01*
X38851626Y-28265976D02*
X38851626Y-28280261D01*
X39144483Y-28201690D02*
X39015911Y-28394547D01*
X39273054Y-28358833D02*
X39187340Y-28358833D01*
X39230197Y-28358833D02*
X39230197Y-28208833D01*
X39230197Y-28208833D02*
X39215911Y-28230261D01*
X39215911Y-28230261D02*
X39201626Y-28244547D01*
X39201626Y-28244547D02*
X39187340Y-28251690D01*
D10*
D11*
X29998900Y-27450220D02*
X40798900Y-27450220D01*
D10*
D13*
X30168073Y-27520664D02*
X30282358Y-27520664D01*
X30200216Y-27720664D02*
X30225216Y-27520664D01*
X30324025Y-27720664D02*
X30340692Y-27587330D01*
X30349025Y-27520664D02*
X30338311Y-27530188D01*
X30338311Y-27530188D02*
X30346644Y-27539711D01*
X30346644Y-27539711D02*
X30357359Y-27530188D01*
X30357359Y-27530188D02*
X30349025Y-27520664D01*
X30349025Y-27520664D02*
X30346644Y-27539711D01*
X30407359Y-27587330D02*
X30483549Y-27587330D01*
X30444263Y-27520664D02*
X30422835Y-27692092D01*
X30422835Y-27692092D02*
X30429978Y-27711140D01*
X30429978Y-27711140D02*
X30447835Y-27720664D01*
X30447835Y-27720664D02*
X30466882Y-27720664D01*
X30562120Y-27720664D02*
X30544263Y-27711140D01*
X30544263Y-27711140D02*
X30537120Y-27692092D01*
X30537120Y-27692092D02*
X30558549Y-27520664D01*
X30715692Y-27711140D02*
X30695454Y-27720664D01*
X30695454Y-27720664D02*
X30657358Y-27720664D01*
X30657358Y-27720664D02*
X30639501Y-27711140D01*
X30639501Y-27711140D02*
X30632358Y-27692092D01*
X30632358Y-27692092D02*
X30641882Y-27615902D01*
X30641882Y-27615902D02*
X30653787Y-27596854D01*
X30653787Y-27596854D02*
X30674025Y-27587330D01*
X30674025Y-27587330D02*
X30712120Y-27587330D01*
X30712120Y-27587330D02*
X30729978Y-27596854D01*
X30729978Y-27596854D02*
X30737120Y-27615902D01*
X30737120Y-27615902D02*
X30734739Y-27634949D01*
X30734739Y-27634949D02*
X30637120Y-27653997D01*
X30812120Y-27701616D02*
X30820454Y-27711140D01*
X30820454Y-27711140D02*
X30809739Y-27720664D01*
X30809739Y-27720664D02*
X30801406Y-27711140D01*
X30801406Y-27711140D02*
X30812120Y-27701616D01*
X30812120Y-27701616D02*
X30809739Y-27720664D01*
X30825216Y-27596854D02*
X30833549Y-27606378D01*
X30833549Y-27606378D02*
X30822835Y-27615902D01*
X30822835Y-27615902D02*
X30814501Y-27606378D01*
X30814501Y-27606378D02*
X30825216Y-27596854D01*
X30825216Y-27596854D02*
X30822835Y-27615902D01*
X31057359Y-27720664D02*
X31082359Y-27520664D01*
X31082359Y-27520664D02*
X31131168Y-27663521D01*
X31131168Y-27663521D02*
X31215692Y-27520664D01*
X31215692Y-27520664D02*
X31190692Y-27720664D01*
X31288311Y-27701616D02*
X31296644Y-27711140D01*
X31296644Y-27711140D02*
X31285930Y-27720664D01*
X31285930Y-27720664D02*
X31277597Y-27711140D01*
X31277597Y-27711140D02*
X31288311Y-27701616D01*
X31288311Y-27701616D02*
X31285930Y-27720664D01*
X31394263Y-27539711D02*
X31404978Y-27530188D01*
X31404978Y-27530188D02*
X31425216Y-27520664D01*
X31425216Y-27520664D02*
X31472835Y-27520664D01*
X31472835Y-27520664D02*
X31490692Y-27530188D01*
X31490692Y-27530188D02*
X31499025Y-27539711D01*
X31499025Y-27539711D02*
X31506168Y-27558759D01*
X31506168Y-27558759D02*
X31503787Y-27577807D01*
X31503787Y-27577807D02*
X31490692Y-27606378D01*
X31490692Y-27606378D02*
X31362120Y-27720664D01*
X31362120Y-27720664D02*
X31485930Y-27720664D01*
X31521644Y-27739711D02*
X31674025Y-27739711D01*
X31724025Y-27720664D02*
X31740692Y-27587330D01*
X31738311Y-27606378D02*
X31749025Y-27596854D01*
X31749025Y-27596854D02*
X31769263Y-27587330D01*
X31769263Y-27587330D02*
X31797835Y-27587330D01*
X31797835Y-27587330D02*
X31815692Y-27596854D01*
X31815692Y-27596854D02*
X31822835Y-27615902D01*
X31822835Y-27615902D02*
X31809740Y-27720664D01*
X31822835Y-27615902D02*
X31834740Y-27596854D01*
X31834740Y-27596854D02*
X31854978Y-27587330D01*
X31854978Y-27587330D02*
X31883549Y-27587330D01*
X31883549Y-27587330D02*
X31901406Y-27596854D01*
X31901406Y-27596854D02*
X31908549Y-27615902D01*
X31908549Y-27615902D02*
X31895454Y-27720664D01*
X32019263Y-27720664D02*
X32001406Y-27711140D01*
X32001406Y-27711140D02*
X31993073Y-27701616D01*
X31993073Y-27701616D02*
X31985930Y-27682568D01*
X31985930Y-27682568D02*
X31993073Y-27625426D01*
X31993073Y-27625426D02*
X32004978Y-27606378D01*
X32004978Y-27606378D02*
X32015692Y-27596854D01*
X32015692Y-27596854D02*
X32035930Y-27587330D01*
X32035930Y-27587330D02*
X32064501Y-27587330D01*
X32064501Y-27587330D02*
X32082359Y-27596854D01*
X32082359Y-27596854D02*
X32090692Y-27606378D01*
X32090692Y-27606378D02*
X32097835Y-27625426D01*
X32097835Y-27625426D02*
X32090692Y-27682568D01*
X32090692Y-27682568D02*
X32078787Y-27701616D01*
X32078787Y-27701616D02*
X32068073Y-27711140D01*
X32068073Y-27711140D02*
X32047835Y-27720664D01*
X32047835Y-27720664D02*
X32019263Y-27720664D01*
X32163311Y-27711140D02*
X32181168Y-27720664D01*
X32181168Y-27720664D02*
X32219263Y-27720664D01*
X32219263Y-27720664D02*
X32239502Y-27711140D01*
X32239502Y-27711140D02*
X32251406Y-27692092D01*
X32251406Y-27692092D02*
X32252597Y-27682568D01*
X32252597Y-27682568D02*
X32245454Y-27663521D01*
X32245454Y-27663521D02*
X32227597Y-27653997D01*
X32227597Y-27653997D02*
X32199025Y-27653997D01*
X32199025Y-27653997D02*
X32181168Y-27644473D01*
X32181168Y-27644473D02*
X32174025Y-27625426D01*
X32174025Y-27625426D02*
X32175216Y-27615902D01*
X32175216Y-27615902D02*
X32187121Y-27596854D01*
X32187121Y-27596854D02*
X32207359Y-27587330D01*
X32207359Y-27587330D02*
X32235930Y-27587330D01*
X32235930Y-27587330D02*
X32253787Y-27596854D01*
X32419263Y-27720664D02*
X32432359Y-27615902D01*
X32432359Y-27615902D02*
X32425216Y-27596854D01*
X32425216Y-27596854D02*
X32407359Y-27587330D01*
X32407359Y-27587330D02*
X32369263Y-27587330D01*
X32369263Y-27587330D02*
X32349025Y-27596854D01*
X32420454Y-27711140D02*
X32400216Y-27720664D01*
X32400216Y-27720664D02*
X32352597Y-27720664D01*
X32352597Y-27720664D02*
X32334740Y-27711140D01*
X32334740Y-27711140D02*
X32327597Y-27692092D01*
X32327597Y-27692092D02*
X32329978Y-27673045D01*
X32329978Y-27673045D02*
X32341883Y-27653997D01*
X32341883Y-27653997D02*
X32362121Y-27644473D01*
X32362121Y-27644473D02*
X32409740Y-27644473D01*
X32409740Y-27644473D02*
X32429978Y-27634949D01*
X32514502Y-27720664D02*
X32531168Y-27587330D01*
X32539502Y-27520664D02*
X32528787Y-27530188D01*
X32528787Y-27530188D02*
X32537121Y-27539711D01*
X32537121Y-27539711D02*
X32547835Y-27530188D01*
X32547835Y-27530188D02*
X32539502Y-27520664D01*
X32539502Y-27520664D02*
X32537121Y-27539711D01*
X32696644Y-27711140D02*
X32676406Y-27720664D01*
X32676406Y-27720664D02*
X32638311Y-27720664D01*
X32638311Y-27720664D02*
X32620454Y-27711140D01*
X32620454Y-27711140D02*
X32612121Y-27701616D01*
X32612121Y-27701616D02*
X32604978Y-27682568D01*
X32604978Y-27682568D02*
X32612121Y-27625426D01*
X32612121Y-27625426D02*
X32624025Y-27606378D01*
X32624025Y-27606378D02*
X32634740Y-27596854D01*
X32634740Y-27596854D02*
X32654978Y-27587330D01*
X32654978Y-27587330D02*
X32693073Y-27587330D01*
X32693073Y-27587330D02*
X32710930Y-27596854D01*
X33062121Y-27530188D02*
X33044264Y-27520664D01*
X33044264Y-27520664D02*
X33015692Y-27520664D01*
X33015692Y-27520664D02*
X32985930Y-27530188D01*
X32985930Y-27530188D02*
X32964502Y-27549235D01*
X32964502Y-27549235D02*
X32952597Y-27568283D01*
X32952597Y-27568283D02*
X32938311Y-27606378D01*
X32938311Y-27606378D02*
X32934740Y-27634949D01*
X32934740Y-27634949D02*
X32939502Y-27673045D01*
X32939502Y-27673045D02*
X32946645Y-27692092D01*
X32946645Y-27692092D02*
X32963311Y-27711140D01*
X32963311Y-27711140D02*
X32990692Y-27720664D01*
X32990692Y-27720664D02*
X33009740Y-27720664D01*
X33009740Y-27720664D02*
X33039502Y-27711140D01*
X33039502Y-27711140D02*
X33050216Y-27701616D01*
X33050216Y-27701616D02*
X33058549Y-27634949D01*
X33058549Y-27634949D02*
X33020454Y-27634949D01*
X33253787Y-27520664D02*
X33158549Y-27520664D01*
X33158549Y-27520664D02*
X33137121Y-27615902D01*
X33137121Y-27615902D02*
X33147835Y-27606378D01*
X33147835Y-27606378D02*
X33168073Y-27596854D01*
X33168073Y-27596854D02*
X33215692Y-27596854D01*
X33215692Y-27596854D02*
X33233549Y-27606378D01*
X33233549Y-27606378D02*
X33241883Y-27615902D01*
X33241883Y-27615902D02*
X33249025Y-27634949D01*
X33249025Y-27634949D02*
X33243073Y-27682568D01*
X33243073Y-27682568D02*
X33231168Y-27701616D01*
X33231168Y-27701616D02*
X33220454Y-27711140D01*
X33220454Y-27711140D02*
X33200216Y-27720664D01*
X33200216Y-27720664D02*
X33152597Y-27720664D01*
X33152597Y-27720664D02*
X33134740Y-27711140D01*
X33134740Y-27711140D02*
X33126406Y-27701616D01*
X33333549Y-27644473D02*
X33485930Y-27644473D01*
X33568073Y-27520664D02*
X33682359Y-27520664D01*
X33600216Y-27720664D02*
X33625216Y-27520664D01*
D10*
D11*
X30194483Y-27260261D02*
X30144483Y-27260261D01*
X30144483Y-27338833D02*
X30144483Y-27188833D01*
X30144483Y-27188833D02*
X30215911Y-27188833D01*
X30273054Y-27338833D02*
X30273054Y-27238833D01*
X30273054Y-27188833D02*
X30265911Y-27195976D01*
X30265911Y-27195976D02*
X30273054Y-27203118D01*
X30273054Y-27203118D02*
X30280197Y-27195976D01*
X30280197Y-27195976D02*
X30273054Y-27188833D01*
X30273054Y-27188833D02*
X30273054Y-27203118D01*
X30365911Y-27338833D02*
X30351625Y-27331690D01*
X30351625Y-27331690D02*
X30344483Y-27317404D01*
X30344483Y-27317404D02*
X30344483Y-27188833D01*
X30480197Y-27331690D02*
X30465911Y-27338833D01*
X30465911Y-27338833D02*
X30437340Y-27338833D01*
X30437340Y-27338833D02*
X30423054Y-27331690D01*
X30423054Y-27331690D02*
X30415911Y-27317404D01*
X30415911Y-27317404D02*
X30415911Y-27260261D01*
X30415911Y-27260261D02*
X30423054Y-27245976D01*
X30423054Y-27245976D02*
X30437340Y-27238833D01*
X30437340Y-27238833D02*
X30465911Y-27238833D01*
X30465911Y-27238833D02*
X30480197Y-27245976D01*
X30480197Y-27245976D02*
X30487340Y-27260261D01*
X30487340Y-27260261D02*
X30487340Y-27274547D01*
X30487340Y-27274547D02*
X30415911Y-27288833D01*
X30551625Y-27324547D02*
X30558768Y-27331690D01*
X30558768Y-27331690D02*
X30551625Y-27338833D01*
X30551625Y-27338833D02*
X30544483Y-27331690D01*
X30544483Y-27331690D02*
X30551625Y-27324547D01*
X30551625Y-27324547D02*
X30551625Y-27338833D01*
X30551625Y-27245976D02*
X30558768Y-27253118D01*
X30558768Y-27253118D02*
X30551625Y-27260261D01*
X30551625Y-27260261D02*
X30544483Y-27253118D01*
X30544483Y-27253118D02*
X30551625Y-27245976D01*
X30551625Y-27245976D02*
X30551625Y-27260261D01*
X30737340Y-27338833D02*
X30737340Y-27188833D01*
X30737340Y-27188833D02*
X30787340Y-27295976D01*
X30787340Y-27295976D02*
X30837340Y-27188833D01*
X30837340Y-27188833D02*
X30837340Y-27338833D01*
X30901625Y-27203118D02*
X30908768Y-27195976D01*
X30908768Y-27195976D02*
X30923054Y-27188833D01*
X30923054Y-27188833D02*
X30958768Y-27188833D01*
X30958768Y-27188833D02*
X30973054Y-27195976D01*
X30973054Y-27195976D02*
X30980197Y-27203118D01*
X30980197Y-27203118D02*
X30987340Y-27217404D01*
X30987340Y-27217404D02*
X30987340Y-27231690D01*
X30987340Y-27231690D02*
X30980197Y-27253118D01*
X30980197Y-27253118D02*
X30894483Y-27338833D01*
X30894483Y-27338833D02*
X30987340Y-27338833D01*
X31015911Y-27353118D02*
X31130197Y-27353118D01*
X31165911Y-27338833D02*
X31165911Y-27238833D01*
X31165911Y-27253118D02*
X31173054Y-27245976D01*
X31173054Y-27245976D02*
X31187340Y-27238833D01*
X31187340Y-27238833D02*
X31208768Y-27238833D01*
X31208768Y-27238833D02*
X31223054Y-27245976D01*
X31223054Y-27245976D02*
X31230197Y-27260261D01*
X31230197Y-27260261D02*
X31230197Y-27338833D01*
X31230197Y-27260261D02*
X31237340Y-27245976D01*
X31237340Y-27245976D02*
X31251625Y-27238833D01*
X31251625Y-27238833D02*
X31273054Y-27238833D01*
X31273054Y-27238833D02*
X31287340Y-27245976D01*
X31287340Y-27245976D02*
X31294483Y-27260261D01*
X31294483Y-27260261D02*
X31294483Y-27338833D01*
X31387340Y-27338833D02*
X31373054Y-27331690D01*
X31373054Y-27331690D02*
X31365911Y-27324547D01*
X31365911Y-27324547D02*
X31358768Y-27310261D01*
X31358768Y-27310261D02*
X31358768Y-27267404D01*
X31358768Y-27267404D02*
X31365911Y-27253118D01*
X31365911Y-27253118D02*
X31373054Y-27245976D01*
X31373054Y-27245976D02*
X31387340Y-27238833D01*
X31387340Y-27238833D02*
X31408768Y-27238833D01*
X31408768Y-27238833D02*
X31423054Y-27245976D01*
X31423054Y-27245976D02*
X31430197Y-27253118D01*
X31430197Y-27253118D02*
X31437340Y-27267404D01*
X31437340Y-27267404D02*
X31437340Y-27310261D01*
X31437340Y-27310261D02*
X31430197Y-27324547D01*
X31430197Y-27324547D02*
X31423054Y-27331690D01*
X31423054Y-27331690D02*
X31408768Y-27338833D01*
X31408768Y-27338833D02*
X31387340Y-27338833D01*
X31494483Y-27331690D02*
X31508768Y-27338833D01*
X31508768Y-27338833D02*
X31537340Y-27338833D01*
X31537340Y-27338833D02*
X31551625Y-27331690D01*
X31551625Y-27331690D02*
X31558768Y-27317404D01*
X31558768Y-27317404D02*
X31558768Y-27310261D01*
X31558768Y-27310261D02*
X31551625Y-27295976D01*
X31551625Y-27295976D02*
X31537340Y-27288833D01*
X31537340Y-27288833D02*
X31515911Y-27288833D01*
X31515911Y-27288833D02*
X31501625Y-27281690D01*
X31501625Y-27281690D02*
X31494483Y-27267404D01*
X31494483Y-27267404D02*
X31494483Y-27260261D01*
X31494483Y-27260261D02*
X31501625Y-27245976D01*
X31501625Y-27245976D02*
X31515911Y-27238833D01*
X31515911Y-27238833D02*
X31537340Y-27238833D01*
X31537340Y-27238833D02*
X31551625Y-27245976D01*
X31687340Y-27338833D02*
X31687340Y-27260261D01*
X31687340Y-27260261D02*
X31680197Y-27245976D01*
X31680197Y-27245976D02*
X31665911Y-27238833D01*
X31665911Y-27238833D02*
X31637340Y-27238833D01*
X31637340Y-27238833D02*
X31623054Y-27245976D01*
X31687340Y-27331690D02*
X31673054Y-27338833D01*
X31673054Y-27338833D02*
X31637340Y-27338833D01*
X31637340Y-27338833D02*
X31623054Y-27331690D01*
X31623054Y-27331690D02*
X31615911Y-27317404D01*
X31615911Y-27317404D02*
X31615911Y-27303118D01*
X31615911Y-27303118D02*
X31623054Y-27288833D01*
X31623054Y-27288833D02*
X31637340Y-27281690D01*
X31637340Y-27281690D02*
X31673054Y-27281690D01*
X31673054Y-27281690D02*
X31687340Y-27274547D01*
X31758768Y-27338833D02*
X31758768Y-27238833D01*
X31758768Y-27188833D02*
X31751625Y-27195976D01*
X31751625Y-27195976D02*
X31758768Y-27203118D01*
X31758768Y-27203118D02*
X31765911Y-27195976D01*
X31765911Y-27195976D02*
X31758768Y-27188833D01*
X31758768Y-27188833D02*
X31758768Y-27203118D01*
X31894483Y-27331690D02*
X31880197Y-27338833D01*
X31880197Y-27338833D02*
X31851625Y-27338833D01*
X31851625Y-27338833D02*
X31837340Y-27331690D01*
X31837340Y-27331690D02*
X31830197Y-27324547D01*
X31830197Y-27324547D02*
X31823054Y-27310261D01*
X31823054Y-27310261D02*
X31823054Y-27267404D01*
X31823054Y-27267404D02*
X31830197Y-27253118D01*
X31830197Y-27253118D02*
X31837340Y-27245976D01*
X31837340Y-27245976D02*
X31851625Y-27238833D01*
X31851625Y-27238833D02*
X31880197Y-27238833D01*
X31880197Y-27238833D02*
X31894483Y-27245976D01*
X32037340Y-27195976D02*
X32023054Y-27188833D01*
X32023054Y-27188833D02*
X32001625Y-27188833D01*
X32001625Y-27188833D02*
X31980197Y-27195976D01*
X31980197Y-27195976D02*
X31965911Y-27210261D01*
X31965911Y-27210261D02*
X31958768Y-27224547D01*
X31958768Y-27224547D02*
X31951625Y-27253118D01*
X31951625Y-27253118D02*
X31951625Y-27274547D01*
X31951625Y-27274547D02*
X31958768Y-27303118D01*
X31958768Y-27303118D02*
X31965911Y-27317404D01*
X31965911Y-27317404D02*
X31980197Y-27331690D01*
X31980197Y-27331690D02*
X32001625Y-27338833D01*
X32001625Y-27338833D02*
X32015911Y-27338833D01*
X32015911Y-27338833D02*
X32037340Y-27331690D01*
X32037340Y-27331690D02*
X32044483Y-27324547D01*
X32044483Y-27324547D02*
X32044483Y-27274547D01*
X32044483Y-27274547D02*
X32015911Y-27274547D01*
X32180197Y-27188833D02*
X32108768Y-27188833D01*
X32108768Y-27188833D02*
X32101625Y-27260261D01*
X32101625Y-27260261D02*
X32108768Y-27253118D01*
X32108768Y-27253118D02*
X32123054Y-27245976D01*
X32123054Y-27245976D02*
X32158768Y-27245976D01*
X32158768Y-27245976D02*
X32173054Y-27253118D01*
X32173054Y-27253118D02*
X32180197Y-27260261D01*
X32180197Y-27260261D02*
X32187340Y-27274547D01*
X32187340Y-27274547D02*
X32187340Y-27310261D01*
X32187340Y-27310261D02*
X32180197Y-27324547D01*
X32180197Y-27324547D02*
X32173054Y-27331690D01*
X32173054Y-27331690D02*
X32158768Y-27338833D01*
X32158768Y-27338833D02*
X32123054Y-27338833D01*
X32123054Y-27338833D02*
X32108768Y-27331690D01*
X32108768Y-27331690D02*
X32101625Y-27324547D01*
X32251625Y-27324547D02*
X32258768Y-27331690D01*
X32258768Y-27331690D02*
X32251625Y-27338833D01*
X32251625Y-27338833D02*
X32244483Y-27331690D01*
X32244483Y-27331690D02*
X32251625Y-27324547D01*
X32251625Y-27324547D02*
X32251625Y-27338833D01*
X32323054Y-27338833D02*
X32323054Y-27188833D01*
X32337340Y-27281690D02*
X32380197Y-27338833D01*
X32380197Y-27238833D02*
X32323054Y-27295976D01*
X32444483Y-27338833D02*
X32444483Y-27238833D01*
X32444483Y-27188833D02*
X32437340Y-27195976D01*
X32437340Y-27195976D02*
X32444483Y-27203118D01*
X32444483Y-27203118D02*
X32451625Y-27195976D01*
X32451625Y-27195976D02*
X32444483Y-27188833D01*
X32444483Y-27188833D02*
X32444483Y-27203118D01*
X32580197Y-27331690D02*
X32565911Y-27338833D01*
X32565911Y-27338833D02*
X32537340Y-27338833D01*
X32537340Y-27338833D02*
X32523054Y-27331690D01*
X32523054Y-27331690D02*
X32515911Y-27324547D01*
X32515911Y-27324547D02*
X32508768Y-27310261D01*
X32508768Y-27310261D02*
X32508768Y-27267404D01*
X32508768Y-27267404D02*
X32515911Y-27253118D01*
X32515911Y-27253118D02*
X32523054Y-27245976D01*
X32523054Y-27245976D02*
X32537340Y-27238833D01*
X32537340Y-27238833D02*
X32565911Y-27238833D01*
X32565911Y-27238833D02*
X32580197Y-27245976D01*
X32708768Y-27338833D02*
X32708768Y-27260261D01*
X32708768Y-27260261D02*
X32701625Y-27245976D01*
X32701625Y-27245976D02*
X32687340Y-27238833D01*
X32687340Y-27238833D02*
X32658768Y-27238833D01*
X32658768Y-27238833D02*
X32644483Y-27245976D01*
X32708768Y-27331690D02*
X32694483Y-27338833D01*
X32694483Y-27338833D02*
X32658768Y-27338833D01*
X32658768Y-27338833D02*
X32644483Y-27331690D01*
X32644483Y-27331690D02*
X32637340Y-27317404D01*
X32637340Y-27317404D02*
X32637340Y-27303118D01*
X32637340Y-27303118D02*
X32644483Y-27288833D01*
X32644483Y-27288833D02*
X32658768Y-27281690D01*
X32658768Y-27281690D02*
X32694483Y-27281690D01*
X32694483Y-27281690D02*
X32708768Y-27274547D01*
X32844483Y-27338833D02*
X32844483Y-27188833D01*
X32844483Y-27331690D02*
X32830197Y-27338833D01*
X32830197Y-27338833D02*
X32801625Y-27338833D01*
X32801625Y-27338833D02*
X32787340Y-27331690D01*
X32787340Y-27331690D02*
X32780197Y-27324547D01*
X32780197Y-27324547D02*
X32773054Y-27310261D01*
X32773054Y-27310261D02*
X32773054Y-27267404D01*
X32773054Y-27267404D02*
X32780197Y-27253118D01*
X32780197Y-27253118D02*
X32787340Y-27245976D01*
X32787340Y-27245976D02*
X32801625Y-27238833D01*
X32801625Y-27238833D02*
X32830197Y-27238833D01*
X32830197Y-27238833D02*
X32844483Y-27245976D01*
X32880197Y-27353118D02*
X32994483Y-27353118D01*
X33030197Y-27238833D02*
X33030197Y-27388833D01*
X33030197Y-27245976D02*
X33044483Y-27238833D01*
X33044483Y-27238833D02*
X33073054Y-27238833D01*
X33073054Y-27238833D02*
X33087340Y-27245976D01*
X33087340Y-27245976D02*
X33094483Y-27253118D01*
X33094483Y-27253118D02*
X33101625Y-27267404D01*
X33101625Y-27267404D02*
X33101625Y-27310261D01*
X33101625Y-27310261D02*
X33094483Y-27324547D01*
X33094483Y-27324547D02*
X33087340Y-27331690D01*
X33087340Y-27331690D02*
X33073054Y-27338833D01*
X33073054Y-27338833D02*
X33044483Y-27338833D01*
X33044483Y-27338833D02*
X33030197Y-27331690D01*
X33230197Y-27331690D02*
X33215911Y-27338833D01*
X33215911Y-27338833D02*
X33187340Y-27338833D01*
X33187340Y-27338833D02*
X33173054Y-27331690D01*
X33173054Y-27331690D02*
X33165911Y-27324547D01*
X33165911Y-27324547D02*
X33158768Y-27310261D01*
X33158768Y-27310261D02*
X33158768Y-27267404D01*
X33158768Y-27267404D02*
X33165911Y-27253118D01*
X33165911Y-27253118D02*
X33173054Y-27245976D01*
X33173054Y-27245976D02*
X33187340Y-27238833D01*
X33187340Y-27238833D02*
X33215911Y-27238833D01*
X33215911Y-27238833D02*
X33230197Y-27245976D01*
X33294483Y-27338833D02*
X33294483Y-27188833D01*
X33294483Y-27245976D02*
X33308768Y-27238833D01*
X33308768Y-27238833D02*
X33337340Y-27238833D01*
X33337340Y-27238833D02*
X33351625Y-27245976D01*
X33351625Y-27245976D02*
X33358768Y-27253118D01*
X33358768Y-27253118D02*
X33365911Y-27267404D01*
X33365911Y-27267404D02*
X33365911Y-27310261D01*
X33365911Y-27310261D02*
X33358768Y-27324547D01*
X33358768Y-27324547D02*
X33351625Y-27331690D01*
X33351625Y-27331690D02*
X33337340Y-27338833D01*
X33337340Y-27338833D02*
X33308768Y-27338833D01*
X33308768Y-27338833D02*
X33294483Y-27331690D01*
D10*
D11*
X29998900Y-26850220D02*
X40798900Y-26850220D01*
D10*
D11*
X30137340Y-27061690D02*
X30158768Y-27068833D01*
X30158768Y-27068833D02*
X30194483Y-27068833D01*
X30194483Y-27068833D02*
X30208768Y-27061690D01*
X30208768Y-27061690D02*
X30215911Y-27054547D01*
X30215911Y-27054547D02*
X30223054Y-27040261D01*
X30223054Y-27040261D02*
X30223054Y-27025976D01*
X30223054Y-27025976D02*
X30215911Y-27011690D01*
X30215911Y-27011690D02*
X30208768Y-27004547D01*
X30208768Y-27004547D02*
X30194483Y-26997404D01*
X30194483Y-26997404D02*
X30165911Y-26990261D01*
X30165911Y-26990261D02*
X30151625Y-26983118D01*
X30151625Y-26983118D02*
X30144483Y-26975976D01*
X30144483Y-26975976D02*
X30137340Y-26961690D01*
X30137340Y-26961690D02*
X30137340Y-26947404D01*
X30137340Y-26947404D02*
X30144483Y-26933118D01*
X30144483Y-26933118D02*
X30151625Y-26925976D01*
X30151625Y-26925976D02*
X30165911Y-26918833D01*
X30165911Y-26918833D02*
X30201625Y-26918833D01*
X30201625Y-26918833D02*
X30223054Y-26925976D01*
X30287340Y-27068833D02*
X30287340Y-26918833D01*
X30351625Y-27068833D02*
X30351625Y-26990261D01*
X30351625Y-26990261D02*
X30344483Y-26975976D01*
X30344483Y-26975976D02*
X30330197Y-26968833D01*
X30330197Y-26968833D02*
X30308768Y-26968833D01*
X30308768Y-26968833D02*
X30294483Y-26975976D01*
X30294483Y-26975976D02*
X30287340Y-26983118D01*
X30480197Y-27061690D02*
X30465911Y-27068833D01*
X30465911Y-27068833D02*
X30437340Y-27068833D01*
X30437340Y-27068833D02*
X30423054Y-27061690D01*
X30423054Y-27061690D02*
X30415911Y-27047404D01*
X30415911Y-27047404D02*
X30415911Y-26990261D01*
X30415911Y-26990261D02*
X30423054Y-26975976D01*
X30423054Y-26975976D02*
X30437340Y-26968833D01*
X30437340Y-26968833D02*
X30465911Y-26968833D01*
X30465911Y-26968833D02*
X30480197Y-26975976D01*
X30480197Y-26975976D02*
X30487340Y-26990261D01*
X30487340Y-26990261D02*
X30487340Y-27004547D01*
X30487340Y-27004547D02*
X30415911Y-27018833D01*
X30608768Y-27061690D02*
X30594483Y-27068833D01*
X30594483Y-27068833D02*
X30565911Y-27068833D01*
X30565911Y-27068833D02*
X30551625Y-27061690D01*
X30551625Y-27061690D02*
X30544483Y-27047404D01*
X30544483Y-27047404D02*
X30544483Y-26990261D01*
X30544483Y-26990261D02*
X30551625Y-26975976D01*
X30551625Y-26975976D02*
X30565911Y-26968833D01*
X30565911Y-26968833D02*
X30594483Y-26968833D01*
X30594483Y-26968833D02*
X30608768Y-26975976D01*
X30608768Y-26975976D02*
X30615911Y-26990261D01*
X30615911Y-26990261D02*
X30615911Y-27004547D01*
X30615911Y-27004547D02*
X30544483Y-27018833D01*
X30658768Y-26968833D02*
X30715911Y-26968833D01*
X30680197Y-26918833D02*
X30680197Y-27047404D01*
X30680197Y-27047404D02*
X30687340Y-27061690D01*
X30687340Y-27061690D02*
X30701625Y-27068833D01*
X30701625Y-27068833D02*
X30715911Y-27068833D01*
X30765911Y-27054547D02*
X30773054Y-27061690D01*
X30773054Y-27061690D02*
X30765911Y-27068833D01*
X30765911Y-27068833D02*
X30758768Y-27061690D01*
X30758768Y-27061690D02*
X30765911Y-27054547D01*
X30765911Y-27054547D02*
X30765911Y-27068833D01*
X30765911Y-26975976D02*
X30773054Y-26983118D01*
X30773054Y-26983118D02*
X30765911Y-26990261D01*
X30765911Y-26990261D02*
X30758768Y-26983118D01*
X30758768Y-26983118D02*
X30765911Y-26975976D01*
X30765911Y-26975976D02*
X30765911Y-26990261D01*
D10*
D12*
X30147208Y-26760910D02*
X30168637Y-26768053D01*
X30168637Y-26768053D02*
X30204351Y-26768053D01*
X30204351Y-26768053D02*
X30218637Y-26760910D01*
X30218637Y-26760910D02*
X30225780Y-26753767D01*
X30225780Y-26753767D02*
X30232922Y-26739481D01*
X30232922Y-26739481D02*
X30232922Y-26725196D01*
X30232922Y-26725196D02*
X30225780Y-26710910D01*
X30225780Y-26710910D02*
X30218637Y-26703767D01*
X30218637Y-26703767D02*
X30204351Y-26696624D01*
X30204351Y-26696624D02*
X30175780Y-26689481D01*
X30175780Y-26689481D02*
X30161494Y-26682338D01*
X30161494Y-26682338D02*
X30154351Y-26675196D01*
X30154351Y-26675196D02*
X30147208Y-26660910D01*
X30147208Y-26660910D02*
X30147208Y-26646624D01*
X30147208Y-26646624D02*
X30154351Y-26632338D01*
X30154351Y-26632338D02*
X30161494Y-26625196D01*
X30161494Y-26625196D02*
X30175780Y-26618053D01*
X30175780Y-26618053D02*
X30211494Y-26618053D01*
X30211494Y-26618053D02*
X30232922Y-26625196D01*
X30354351Y-26760910D02*
X30340065Y-26768053D01*
X30340065Y-26768053D02*
X30311494Y-26768053D01*
X30311494Y-26768053D02*
X30297208Y-26760910D01*
X30297208Y-26760910D02*
X30290065Y-26746624D01*
X30290065Y-26746624D02*
X30290065Y-26689481D01*
X30290065Y-26689481D02*
X30297208Y-26675196D01*
X30297208Y-26675196D02*
X30311494Y-26668053D01*
X30311494Y-26668053D02*
X30340065Y-26668053D01*
X30340065Y-26668053D02*
X30354351Y-26675196D01*
X30354351Y-26675196D02*
X30361494Y-26689481D01*
X30361494Y-26689481D02*
X30361494Y-26703767D01*
X30361494Y-26703767D02*
X30290065Y-26718053D01*
X30425779Y-26668053D02*
X30425779Y-26818053D01*
X30425779Y-26675196D02*
X30440065Y-26668053D01*
X30440065Y-26668053D02*
X30468637Y-26668053D01*
X30468637Y-26668053D02*
X30482922Y-26675196D01*
X30482922Y-26675196D02*
X30490065Y-26682338D01*
X30490065Y-26682338D02*
X30497208Y-26696624D01*
X30497208Y-26696624D02*
X30497208Y-26739481D01*
X30497208Y-26739481D02*
X30490065Y-26753767D01*
X30490065Y-26753767D02*
X30482922Y-26760910D01*
X30482922Y-26760910D02*
X30468637Y-26768053D01*
X30468637Y-26768053D02*
X30440065Y-26768053D01*
X30440065Y-26768053D02*
X30425779Y-26760910D01*
X30540065Y-26668053D02*
X30597208Y-26668053D01*
X30561494Y-26618053D02*
X30561494Y-26746624D01*
X30561494Y-26746624D02*
X30568637Y-26760910D01*
X30568637Y-26760910D02*
X30582922Y-26768053D01*
X30582922Y-26768053D02*
X30597208Y-26768053D01*
X30704351Y-26760910D02*
X30690065Y-26768053D01*
X30690065Y-26768053D02*
X30661494Y-26768053D01*
X30661494Y-26768053D02*
X30647208Y-26760910D01*
X30647208Y-26760910D02*
X30640065Y-26746624D01*
X30640065Y-26746624D02*
X30640065Y-26689481D01*
X30640065Y-26689481D02*
X30647208Y-26675196D01*
X30647208Y-26675196D02*
X30661494Y-26668053D01*
X30661494Y-26668053D02*
X30690065Y-26668053D01*
X30690065Y-26668053D02*
X30704351Y-26675196D01*
X30704351Y-26675196D02*
X30711494Y-26689481D01*
X30711494Y-26689481D02*
X30711494Y-26703767D01*
X30711494Y-26703767D02*
X30640065Y-26718053D01*
X30775779Y-26668053D02*
X30775779Y-26768053D01*
X30775779Y-26682338D02*
X30782922Y-26675196D01*
X30782922Y-26675196D02*
X30797208Y-26668053D01*
X30797208Y-26668053D02*
X30818637Y-26668053D01*
X30818637Y-26668053D02*
X30832922Y-26675196D01*
X30832922Y-26675196D02*
X30840065Y-26689481D01*
X30840065Y-26689481D02*
X30840065Y-26768053D01*
X30890065Y-26668053D02*
X30947208Y-26668053D01*
X30911494Y-26618053D02*
X30911494Y-26746624D01*
X30911494Y-26746624D02*
X30918637Y-26760910D01*
X30918637Y-26760910D02*
X30932922Y-26768053D01*
X30932922Y-26768053D02*
X30947208Y-26768053D01*
X30997208Y-26768053D02*
X30997208Y-26668053D01*
X30997208Y-26696624D02*
X31004351Y-26682338D01*
X31004351Y-26682338D02*
X31011494Y-26675196D01*
X31011494Y-26675196D02*
X31025780Y-26668053D01*
X31025780Y-26668053D02*
X31040065Y-26668053D01*
X31090065Y-26768053D02*
X31090065Y-26668053D01*
X31090065Y-26618053D02*
X31082922Y-26625196D01*
X31082922Y-26625196D02*
X31090065Y-26632338D01*
X31090065Y-26632338D02*
X31097208Y-26625196D01*
X31097208Y-26625196D02*
X31090065Y-26618053D01*
X31090065Y-26618053D02*
X31090065Y-26632338D01*
X31182922Y-26768053D02*
X31168637Y-26760910D01*
X31168637Y-26760910D02*
X31161494Y-26753767D01*
X31161494Y-26753767D02*
X31154351Y-26739481D01*
X31154351Y-26739481D02*
X31154351Y-26696624D01*
X31154351Y-26696624D02*
X31161494Y-26682338D01*
X31161494Y-26682338D02*
X31168637Y-26675196D01*
X31168637Y-26675196D02*
X31182922Y-26668053D01*
X31182922Y-26668053D02*
X31204351Y-26668053D01*
X31204351Y-26668053D02*
X31218637Y-26675196D01*
X31218637Y-26675196D02*
X31225780Y-26682338D01*
X31225780Y-26682338D02*
X31232922Y-26696624D01*
X31232922Y-26696624D02*
X31232922Y-26739481D01*
X31232922Y-26739481D02*
X31225780Y-26753767D01*
X31225780Y-26753767D02*
X31218637Y-26760910D01*
X31218637Y-26760910D02*
X31204351Y-26768053D01*
X31204351Y-26768053D02*
X31182922Y-26768053D01*
D10*
D11*
X31998900Y-27850220D02*
X31998900Y-28150220D01*
D10*
D11*
X38398900Y-27850220D02*
X38398900Y-28500220D01*
D14*
X8510756Y-10705726D02*
X8510756Y-10730726D01*
X8550041Y-10741440D02*
X8550041Y-10705726D01*
X8550041Y-10705726D02*
X8475041Y-10705726D01*
X8475041Y-10705726D02*
X8475041Y-10741440D01*
X8475041Y-10766440D02*
X8550041Y-10816440D01*
X8475041Y-10816440D02*
X8550041Y-10766440D01*
X8475041Y-10834297D02*
X8475041Y-10877154D01*
X8550041Y-10855726D02*
X8475041Y-10855726D01*
X8521470Y-10902154D02*
X8521470Y-10959297D01*
X8475041Y-11009297D02*
X8475041Y-11016440D01*
X8475041Y-11016440D02*
X8478613Y-11023583D01*
X8478613Y-11023583D02*
X8482184Y-11027154D01*
X8482184Y-11027154D02*
X8489327Y-11030726D01*
X8489327Y-11030726D02*
X8503613Y-11034297D01*
X8503613Y-11034297D02*
X8521470Y-11034297D01*
X8521470Y-11034297D02*
X8535756Y-11030726D01*
X8535756Y-11030726D02*
X8542899Y-11027154D01*
X8542899Y-11027154D02*
X8546470Y-11023583D01*
X8546470Y-11023583D02*
X8550041Y-11016440D01*
X8550041Y-11016440D02*
X8550041Y-11009297D01*
X8550041Y-11009297D02*
X8546470Y-11002154D01*
X8546470Y-11002154D02*
X8542899Y-10998583D01*
X8542899Y-10998583D02*
X8535756Y-10995011D01*
X8535756Y-10995011D02*
X8521470Y-10991440D01*
X8521470Y-10991440D02*
X8503613Y-10991440D01*
X8503613Y-10991440D02*
X8489327Y-10995011D01*
X8489327Y-10995011D02*
X8482184Y-10998583D01*
X8482184Y-10998583D02*
X8478613Y-11002154D01*
X8478613Y-11002154D02*
X8475041Y-11009297D01*
X8475041Y-11080726D02*
X8475041Y-11087868D01*
X8475041Y-11087868D02*
X8478613Y-11095011D01*
X8478613Y-11095011D02*
X8482184Y-11098583D01*
X8482184Y-11098583D02*
X8489327Y-11102154D01*
X8489327Y-11102154D02*
X8503613Y-11105726D01*
X8503613Y-11105726D02*
X8521470Y-11105726D01*
X8521470Y-11105726D02*
X8535756Y-11102154D01*
X8535756Y-11102154D02*
X8542899Y-11098583D01*
X8542899Y-11098583D02*
X8546470Y-11095011D01*
X8546470Y-11095011D02*
X8550041Y-11087868D01*
X8550041Y-11087868D02*
X8550041Y-11080726D01*
X8550041Y-11080726D02*
X8546470Y-11073583D01*
X8546470Y-11073583D02*
X8542899Y-11070011D01*
X8542899Y-11070011D02*
X8535756Y-11066440D01*
X8535756Y-11066440D02*
X8521470Y-11062868D01*
X8521470Y-11062868D02*
X8503613Y-11062868D01*
X8503613Y-11062868D02*
X8489327Y-11066440D01*
X8489327Y-11066440D02*
X8482184Y-11070011D01*
X8482184Y-11070011D02*
X8478613Y-11073583D01*
X8478613Y-11073583D02*
X8475041Y-11080726D01*
X8475041Y-11170011D02*
X8475041Y-11155726D01*
X8475041Y-11155726D02*
X8478613Y-11148583D01*
X8478613Y-11148583D02*
X8482184Y-11145011D01*
X8482184Y-11145011D02*
X8492899Y-11137868D01*
X8492899Y-11137868D02*
X8507184Y-11134297D01*
X8507184Y-11134297D02*
X8535756Y-11134297D01*
X8535756Y-11134297D02*
X8542899Y-11137868D01*
X8542899Y-11137868D02*
X8546470Y-11141440D01*
X8546470Y-11141440D02*
X8550041Y-11148583D01*
X8550041Y-11148583D02*
X8550041Y-11162868D01*
X8550041Y-11162868D02*
X8546470Y-11170011D01*
X8546470Y-11170011D02*
X8542899Y-11173583D01*
X8542899Y-11173583D02*
X8535756Y-11177154D01*
X8535756Y-11177154D02*
X8517899Y-11177154D01*
X8517899Y-11177154D02*
X8510756Y-11173583D01*
X8510756Y-11173583D02*
X8507184Y-11170011D01*
X8507184Y-11170011D02*
X8503613Y-11162868D01*
X8503613Y-11162868D02*
X8503613Y-11148583D01*
X8503613Y-11148583D02*
X8507184Y-11141440D01*
X8507184Y-11141440D02*
X8510756Y-11137868D01*
X8510756Y-11137868D02*
X8517899Y-11134297D01*
X8475041Y-11223583D02*
X8475041Y-11230726D01*
X8475041Y-11230726D02*
X8478613Y-11237868D01*
X8478613Y-11237868D02*
X8482184Y-11241440D01*
X8482184Y-11241440D02*
X8489327Y-11245011D01*
X8489327Y-11245011D02*
X8503613Y-11248583D01*
X8503613Y-11248583D02*
X8521470Y-11248583D01*
X8521470Y-11248583D02*
X8535756Y-11245011D01*
X8535756Y-11245011D02*
X8542899Y-11241440D01*
X8542899Y-11241440D02*
X8546470Y-11237868D01*
X8546470Y-11237868D02*
X8550041Y-11230726D01*
X8550041Y-11230726D02*
X8550041Y-11223583D01*
X8550041Y-11223583D02*
X8546470Y-11216440D01*
X8546470Y-11216440D02*
X8542899Y-11212868D01*
X8542899Y-11212868D02*
X8535756Y-11209297D01*
X8535756Y-11209297D02*
X8521470Y-11205726D01*
X8521470Y-11205726D02*
X8503613Y-11205726D01*
X8503613Y-11205726D02*
X8489327Y-11209297D01*
X8489327Y-11209297D02*
X8482184Y-11212868D01*
X8482184Y-11212868D02*
X8478613Y-11216440D01*
X8478613Y-11216440D02*
X8475041Y-11223583D01*
X8521470Y-11280726D02*
X8521470Y-11337868D01*
X8550041Y-11412868D02*
X8550041Y-11370011D01*
X8550041Y-11391440D02*
X8475041Y-11391440D01*
X8475041Y-11391440D02*
X8485756Y-11384297D01*
X8485756Y-11384297D02*
X8492899Y-11377154D01*
X8492899Y-11377154D02*
X8496470Y-11370011D01*
X8475041Y-11459297D02*
X8475041Y-11466440D01*
X8475041Y-11466440D02*
X8478613Y-11473583D01*
X8478613Y-11473583D02*
X8482184Y-11477154D01*
X8482184Y-11477154D02*
X8489327Y-11480726D01*
X8489327Y-11480726D02*
X8503613Y-11484297D01*
X8503613Y-11484297D02*
X8521470Y-11484297D01*
X8521470Y-11484297D02*
X8535756Y-11480726D01*
X8535756Y-11480726D02*
X8542899Y-11477154D01*
X8542899Y-11477154D02*
X8546470Y-11473583D01*
X8546470Y-11473583D02*
X8550041Y-11466440D01*
X8550041Y-11466440D02*
X8550041Y-11459297D01*
X8550041Y-11459297D02*
X8546470Y-11452154D01*
X8546470Y-11452154D02*
X8542899Y-11448583D01*
X8542899Y-11448583D02*
X8535756Y-11445011D01*
X8535756Y-11445011D02*
X8521470Y-11441440D01*
X8521470Y-11441440D02*
X8503613Y-11441440D01*
X8503613Y-11441440D02*
X8489327Y-11445011D01*
X8489327Y-11445011D02*
X8482184Y-11448583D01*
X8482184Y-11448583D02*
X8478613Y-11452154D01*
X8478613Y-11452154D02*
X8475041Y-11459297D01*
X8475041Y-11530726D02*
X8475041Y-11537868D01*
X8475041Y-11537868D02*
X8478613Y-11545011D01*
X8478613Y-11545011D02*
X8482184Y-11548583D01*
X8482184Y-11548583D02*
X8489327Y-11552154D01*
X8489327Y-11552154D02*
X8503613Y-11555726D01*
X8503613Y-11555726D02*
X8521470Y-11555726D01*
X8521470Y-11555726D02*
X8535756Y-11552154D01*
X8535756Y-11552154D02*
X8542899Y-11548583D01*
X8542899Y-11548583D02*
X8546470Y-11545011D01*
X8546470Y-11545011D02*
X8550041Y-11537868D01*
X8550041Y-11537868D02*
X8550041Y-11530726D01*
X8550041Y-11530726D02*
X8546470Y-11523583D01*
X8546470Y-11523583D02*
X8542899Y-11520011D01*
X8542899Y-11520011D02*
X8535756Y-11516440D01*
X8535756Y-11516440D02*
X8521470Y-11512868D01*
X8521470Y-11512868D02*
X8503613Y-11512868D01*
X8503613Y-11512868D02*
X8489327Y-11516440D01*
X8489327Y-11516440D02*
X8482184Y-11520011D01*
X8482184Y-11520011D02*
X8478613Y-11523583D01*
X8478613Y-11523583D02*
X8475041Y-11530726D01*
X8550041Y-11627154D02*
X8550041Y-11584297D01*
X8550041Y-11605726D02*
X8475041Y-11605726D01*
X8475041Y-11605726D02*
X8485756Y-11598583D01*
X8485756Y-11598583D02*
X8492899Y-11591440D01*
X8492899Y-11591440D02*
X8496470Y-11584297D01*
X8521470Y-11659297D02*
X8521470Y-11716440D01*
X8528613Y-11748583D02*
X8528613Y-11784297D01*
X8550041Y-11741440D02*
X8475041Y-11766440D01*
X8475041Y-11766440D02*
X8550041Y-11791440D01*
X8528613Y-11812868D02*
X8528613Y-11848583D01*
X8550041Y-11805726D02*
X8475041Y-11830726D01*
X8475041Y-11830726D02*
X8550041Y-11855726D01*
X8475041Y-11895011D02*
X8475041Y-11902154D01*
X8475041Y-11902154D02*
X8478613Y-11909297D01*
X8478613Y-11909297D02*
X8482184Y-11912868D01*
X8482184Y-11912868D02*
X8489327Y-11916440D01*
X8489327Y-11916440D02*
X8503613Y-11920011D01*
X8503613Y-11920011D02*
X8521470Y-11920011D01*
X8521470Y-11920011D02*
X8535756Y-11916440D01*
X8535756Y-11916440D02*
X8542899Y-11912868D01*
X8542899Y-11912868D02*
X8546470Y-11909297D01*
X8546470Y-11909297D02*
X8550041Y-11902154D01*
X8550041Y-11902154D02*
X8550041Y-11895011D01*
X8550041Y-11895011D02*
X8546470Y-11887868D01*
X8546470Y-11887868D02*
X8542899Y-11884297D01*
X8542899Y-11884297D02*
X8535756Y-11880726D01*
X8535756Y-11880726D02*
X8521470Y-11877154D01*
X8521470Y-11877154D02*
X8503613Y-11877154D01*
X8503613Y-11877154D02*
X8489327Y-11880726D01*
X8489327Y-11880726D02*
X8482184Y-11884297D01*
X8482184Y-11884297D02*
X8478613Y-11887868D01*
X8478613Y-11887868D02*
X8475041Y-11895011D01*
X8550041Y-11991440D02*
X8550041Y-11948583D01*
X8550041Y-11970011D02*
X8475041Y-11970011D01*
X8475041Y-11970011D02*
X8485756Y-11962868D01*
X8485756Y-11962868D02*
X8492899Y-11955726D01*
X8492899Y-11955726D02*
X8496470Y-11948583D01*
D15*
%TO.P,J2,2,3.3V/VBAT*%
%TO.N,VBAT*%
X10390723Y-14050105D03*
%TO.P,J2,4,3.3V/VBAT*%
X10340723Y-14050105D03*
%TO.P,J2,6,FULL_CARD_POWR_OFF#*%
%TO.N,unconnected-(J2-FULL_CARD_POWR_OFF#-Pad6)*%
X10290723Y-14050105D03*
%TO.P,J2,8,W_DISABLE1#*%
%TO.N,unconnected-(J2-W_DISABLE1#-Pad8)*%
X10240723Y-14050105D03*
%TO.P,J2,10,LED#1/ACTIVITY*%
%TO.N,Net-(J2-LED#1{slash}ACTIVITY)*%
X10190723Y-14050105D03*
%TO.P,J2,20,PPS_OUT2*%
%TO.N,PPS_OUT2*%
X9940723Y-14050105D03*
%TO.P,J2,22,Module_Ref_CLK_SEL*%
%TO.N,Ref_CLK_SEL*%
X9890723Y-14050105D03*
%TO.P,J2,24,PPS_IN*%
%TO.N,PPS_IN*%
X9840723Y-14050105D03*
%TO.P,J2,26,MSCL*%
%TO.N,unconnected-(J2-MSCL-Pad26)*%
X9790723Y-14050105D03*
%TO.P,J2,28,LED#2_CLK_In_Stat*%
%TO.N,unconnected-(J2-LED#2_CLK_In_Stat-Pad28)*%
X9740723Y-14050105D03*
%TO.P,J2,30,NC*%
%TO.N,unconnected-(J2-NC-Pad30)*%
X9690723Y-14050105D03*
%TO.P,J2,32,NC*%
%TO.N,unconnected-(J2-NC-Pad32)*%
X9640723Y-14050105D03*
%TO.P,J2,34,NC*%
%TO.N,unconnected-(J2-NC-Pad34)*%
X9590723Y-14050105D03*
%TO.P,J2,36,NC*%
%TO.N,unconnected-(J2-NC-Pad36)*%
X9540723Y-14050105D03*
%TO.P,J2,38,NC*%
%TO.N,unconnected-(J2-NC-Pad38)*%
X9490723Y-14050105D03*
%TO.P,J2,40,SMB_CLK*%
%TO.N,Net-(J2-SMB_CLK)*%
X9440723Y-14050105D03*
%TO.P,J2,42,SMB_DATA*%
%TO.N,Net-(J2-SMB_DATA)*%
X9390723Y-14050105D03*
%TO.P,J2,44,IRQ*%
%TO.N,unconnected-(J2-IRQ-Pad44)*%
X9340723Y-14050105D03*
%TO.P,J2,46,PPS_OUT1*%
%TO.N,PPS_OUT1*%
X9290723Y-14050105D03*
%TO.P,J2,48,CLK_OUT*%
%TO.N,CLK_10M_OUT*%
X9240723Y-14050105D03*
%TO.P,J2,50,PERST#*%
%TO.N,unconnected-(J2-PERST#-Pad50)*%
X9190723Y-14050105D03*
%TO.P,J2,52,CLKREQ#*%
%TO.N,unconnected-(J2-CLKREQ#-Pad52)*%
X9140723Y-14050105D03*
%TO.P,J2,54,PEWAKE#*%
%TO.N,unconnected-(J2-PEWAKE#-Pad54)*%
X9090723Y-14050105D03*
%TO.P,J2,56,NC*%
%TO.N,unconnected-(J2-NC-Pad56)*%
X9040723Y-14050105D03*
%TO.P,J2,58,NC*%
%TO.N,unconnected-(J2-NC-Pad58)*%
X8990723Y-14050105D03*
%TO.P,J2,60,MSDA*%
%TO.N,unconnected-(J2-MSDA-Pad60)*%
X8940723Y-14050105D03*
%TO.P,J2,62,UART_RX*%
%TO.N,UART_RX*%
X8890723Y-14050105D03*
%TO.P,J2,64,UART_TX*%
%TO.N,UART_TX*%
X8840723Y-14050105D03*
%TO.P,J2,66,NC*%
%TO.N,unconnected-(J2-NC-Pad66)*%
X8790723Y-14050105D03*
%TO.P,J2,68,SUSCLK*%
%TO.N,unconnected-(J2-SUSCLK-Pad68)*%
X8740723Y-14050105D03*
%TO.P,J2,70,3.3V*%
%TO.N,+3.3V*%
X8690723Y-14050105D03*
%TO.P,J2,72,3.3V*%
X8640723Y-14050105D03*
%TO.P,J2,74,3.3V*%
X8590723Y-14050105D03*
%TD*%
D16*
%TO.P,FID4,*%
%TO.N,*%
X8507000Y-10122000D03*
%TD*%
%TO.P,FID5,*%
%TO.N,*%
X10418000Y-10122000D03*
%TD*%
%TO.P,FID6,*%
%TO.N,*%
X10476000Y-13713000D03*
%TD*%
D17*
%TO.N,VREF_O*%
X9245000Y-10663000D03*
%TO.N,GND*%
X8650000Y-11728000D03*
X9470000Y-13515000D03*
X10095000Y-12585000D03*
X9002500Y-11527500D03*
X10015000Y-13797500D03*
X9895000Y-11210000D03*
X8942500Y-13282500D03*
X8447500Y-12051000D03*
X8447000Y-10492000D03*
X8926000Y-10492000D03*
X9271000Y-11456000D03*
X9818000Y-12785000D03*
X9065000Y-11974000D03*
X10126000Y-13620000D03*
X9613750Y-13857500D03*
X9994000Y-10825000D03*
X8622500Y-11292500D03*
X9710000Y-13857500D03*
X10095000Y-12331000D03*
X9145000Y-10762500D03*
X9690000Y-11882000D03*
X9635000Y-12977000D03*
X9590000Y-12390000D03*
X9590000Y-11882000D03*
X9065000Y-12355000D03*
X10095000Y-12839000D03*
X9690000Y-12390000D03*
X9490000Y-12390000D03*
X9532500Y-11210000D03*
X10095000Y-11950000D03*
X9490000Y-12517000D03*
X10255000Y-13797500D03*
X8541000Y-10345000D03*
X9027000Y-12783000D03*
X9067500Y-13857500D03*
X10510000Y-11272500D03*
X10095000Y-12204000D03*
X9590000Y-12263000D03*
X9590000Y-12136000D03*
X10510000Y-10256500D03*
X9002500Y-11285000D03*
X9511000Y-13337000D03*
X8790000Y-10722500D03*
X9340000Y-13707500D03*
X10010000Y-13620000D03*
X10515000Y-13075000D03*
X9065000Y-11847000D03*
X9002500Y-11406250D03*
X9330000Y-10654000D03*
X9340000Y-10764000D03*
X9735000Y-12977000D03*
X9145000Y-10892500D03*
X9023000Y-12555000D03*
X10095000Y-11823000D03*
X8447500Y-12559000D03*
X9572000Y-10737000D03*
X10148000Y-10459000D03*
X9295000Y-13437500D03*
X9490000Y-12009000D03*
X9306786Y-10251719D03*
X8647500Y-11435000D03*
X9822500Y-11460000D03*
X10510000Y-11780500D03*
X9690000Y-11755000D03*
X8720000Y-10089000D03*
X9470000Y-13430000D03*
X9242000Y-13337000D03*
X9590000Y-12009000D03*
X9490000Y-12136000D03*
X10036000Y-10554000D03*
X8750000Y-11292500D03*
X10510000Y-12034500D03*
X9488000Y-10308000D03*
X9535000Y-12977000D03*
X9150000Y-13612500D03*
X9535000Y-13615000D03*
X9490000Y-12263000D03*
X9003000Y-11646000D03*
X9175000Y-13857500D03*
X9065000Y-12228000D03*
X8974000Y-10089000D03*
X10102500Y-11505000D03*
X9956000Y-12840000D03*
X9490000Y-11882000D03*
X9690000Y-12517000D03*
X9590000Y-11755000D03*
X9690000Y-12263000D03*
X9690000Y-12009000D03*
X9667686Y-10247017D03*
X8750000Y-10842500D03*
X10510000Y-10510500D03*
X9672000Y-10737000D03*
X9302500Y-13567500D03*
X10515000Y-12665000D03*
X10092500Y-11232500D03*
X10095000Y-12077000D03*
X9490000Y-11755000D03*
X10031000Y-10093000D03*
X8447500Y-12305000D03*
X9037500Y-13472500D03*
X9818000Y-12912000D03*
X9171000Y-11456000D03*
X8622500Y-10992500D03*
X8622500Y-10842500D03*
X9755000Y-13617500D03*
X8650000Y-11855000D03*
X8688000Y-10306000D03*
X10095000Y-12458000D03*
X10510000Y-10764500D03*
X8447500Y-12813000D03*
X9342500Y-13857500D03*
X8447500Y-13321000D03*
X8447500Y-10256500D03*
X8833000Y-10639000D03*
X8447500Y-13575000D03*
X8957500Y-13857500D03*
X8747500Y-11510000D03*
X8833000Y-10345000D03*
X9956000Y-12967000D03*
X8650000Y-11601000D03*
X8541000Y-10640000D03*
X10095000Y-12712000D03*
X8750000Y-11142500D03*
X8622500Y-11142500D03*
X9690000Y-12136000D03*
X8447500Y-13067000D03*
X9517500Y-13857500D03*
X9371000Y-11456000D03*
X10250262Y-10093000D03*
X8750000Y-10992500D03*
X9193262Y-10089000D03*
X10095000Y-12966000D03*
X8939000Y-13629000D03*
X10265000Y-10554000D03*
X9065000Y-12101000D03*
X10510000Y-11526500D03*
X9777000Y-10093000D03*
X10510000Y-11018500D03*
X9235000Y-11210000D03*
X9590000Y-12517000D03*
X8579000Y-10722500D03*
%TO.N,+3.3V*%
X8550000Y-13725000D03*
X8550000Y-13630000D03*
X10474000Y-13013000D03*
X10180000Y-10935000D03*
X8710000Y-13775000D03*
X9070000Y-10416000D03*
X10180000Y-10860000D03*
X8717500Y-12850000D03*
X8889000Y-10920000D03*
X8630000Y-13775000D03*
X10468000Y-12339000D03*
X10265000Y-10860000D03*
%TO.N,D+*%
X9066000Y-12631000D03*
X9435000Y-13324000D03*
%TO.N,VBAT*%
X10365000Y-13795000D03*
%TO.N,SDA*%
X10311000Y-13320000D03*
X10454000Y-12609000D03*
%TO.N,PPS_OUT1*%
X10101000Y-11339000D03*
%TO.N,Net-(J2-LED#1{slash}ACTIVITY)*%
X10067000Y-13570000D03*
%TO.N,SCL*%
X10352000Y-13610000D03*
X10001000Y-13515000D03*
X10461000Y-12729000D03*
%TO.N,LED1*%
X9175000Y-11350000D03*
X9592500Y-13312500D03*
%TO.N,D-*%
X9066000Y-12699000D03*
X9327000Y-13324000D03*
%TO.N,Net-(U5-A)*%
X9520000Y-10802000D03*
X9201000Y-10381000D03*
%TO.N,UART_RX*%
X8556000Y-12171000D03*
%TO.N,UART_TX*%
X8527500Y-12361000D03*
%TO.N,Net-(J2-SMB_DATA)*%
X9753000Y-13347000D03*
%TO.N,PPS_OUT2*%
X10360000Y-11092000D03*
%TO.N,PPS_IN*%
X10112000Y-11685000D03*
%TO.N,~{NRST_IN}*%
X8712000Y-12011000D03*
X9055000Y-13767500D03*
%TO.N,Ref_CLK_SEL*%
X9495000Y-10919000D03*
X9663000Y-10926000D03*
%TO.N,VREF_O*%
X9893000Y-10659000D03*
%TO.N,REF_O*%
X9775000Y-10972000D03*
X9889000Y-10741000D03*
%TO.N,CLK_10M_OUT*%
X9442770Y-10781400D03*
%TO.N,Net-(U5-B2)*%
X9080000Y-13367500D03*
X9813000Y-10912000D03*
%TO.N,Net-(J2-SMB_CLK)*%
X9756000Y-13472000D03*
%TD*%
D18*
%TO.N,CLK_10M_OUT*%
X9412670Y-10811500D02*
X9442770Y-10781400D01*
X8823588Y-11118412D02*
X9130500Y-10811500D01*
X9130500Y-10811500D02*
X9412670Y-10811500D01*
X8823588Y-13354588D02*
X8823588Y-11118412D01*
X9240723Y-13771723D02*
X8823588Y-13354588D01*
X9240723Y-14050105D02*
X9240723Y-13771723D01*
%TO.N,Ref_CLK_SEL*%
X9662000Y-10925000D02*
X9663000Y-10926000D01*
X9501000Y-10925000D02*
X9662000Y-10925000D01*
X9495000Y-10919000D02*
X9501000Y-10925000D01*
%TO.N,Net-(U5-A)*%
X9142000Y-10457000D02*
X9201000Y-10398000D01*
X9142000Y-10669000D02*
X9142000Y-10457000D01*
X9188000Y-10715000D02*
X9142000Y-10669000D01*
X9495000Y-10715000D02*
X9188000Y-10715000D01*
X9520000Y-10740000D02*
X9495000Y-10715000D01*
X9201000Y-10398000D02*
X9201000Y-10381000D01*
X9520000Y-10802000D02*
X9520000Y-10740000D01*
D19*
%TO.N,+3.3V*%
X8590723Y-14050105D02*
X8590723Y-13765723D01*
X8590723Y-13765723D02*
X8550000Y-13725000D01*
X8690723Y-14050105D02*
X8690723Y-13794277D01*
X8640723Y-14050105D02*
X8640723Y-13785723D01*
X8690723Y-13794277D02*
X8710000Y-13775000D01*
X8640723Y-13785723D02*
X8630000Y-13775000D01*
D20*
%TO.N,D+*%
X9415000Y-13324000D02*
X9399000Y-13308000D01*
X9399000Y-12867544D02*
X9178456Y-12647000D01*
X9178456Y-12647000D02*
X9082000Y-12647000D01*
X9399000Y-13308000D02*
X9399000Y-12867544D01*
X9082000Y-12647000D02*
X9066000Y-12631000D01*
D19*
%TO.N,VBAT*%
X10390723Y-14050105D02*
X10390723Y-13820723D01*
X10340723Y-14050105D02*
X10340723Y-13820723D01*
X10390723Y-13820723D02*
X10365000Y-13795000D01*
X10340723Y-13820723D02*
X10365000Y-13796446D01*
X10365000Y-13796446D02*
X10365000Y-13795000D01*
D18*
%TO.N,SDA*%
X10311000Y-12752000D02*
X10311000Y-13320000D01*
X10454000Y-12609000D02*
X10311000Y-12752000D01*
%TO.N,PPS_OUT1*%
X10022000Y-11260000D02*
X9139000Y-11260000D01*
X10101000Y-11339000D02*
X10022000Y-11260000D01*
X9189000Y-13046500D02*
X9189000Y-13561500D01*
X9067500Y-11674500D02*
X8974000Y-11768000D01*
X9139000Y-11260000D02*
X9067500Y-11331500D01*
X8974000Y-12831500D02*
X9189000Y-13046500D01*
X9290723Y-13663223D02*
X9290723Y-14050105D01*
X9189000Y-13561500D02*
X9290723Y-13663223D01*
X9067500Y-11331500D02*
X9067500Y-11674500D01*
X8974000Y-11768000D02*
X8974000Y-12831500D01*
%TO.N,Net-(J2-LED#1{slash}ACTIVITY)*%
X10067000Y-13670000D02*
X10067000Y-13570000D01*
X10190723Y-13793723D02*
X10067000Y-13670000D01*
X10190723Y-14050105D02*
X10190723Y-13793723D01*
%TO.N,SCL*%
X10003000Y-13515000D02*
X10046000Y-13472000D01*
X10214000Y-13472000D02*
X10352000Y-13610000D01*
X10001000Y-13515000D02*
X10003000Y-13515000D01*
X10415000Y-13339000D02*
X10415000Y-12775000D01*
X10352000Y-13610000D02*
X10352000Y-13402000D01*
X10046000Y-13472000D02*
X10214000Y-13472000D01*
X10352000Y-13402000D02*
X10415000Y-13339000D01*
X10415000Y-12775000D02*
X10461000Y-12729000D01*
%TO.N,LED1*%
X9175000Y-11350000D02*
X9822500Y-11350000D01*
X9900000Y-11427500D02*
X9900000Y-13005000D01*
X9900000Y-13005000D02*
X9592500Y-13312500D01*
X9822500Y-11350000D02*
X9900000Y-11427500D01*
D20*
%TO.N,D-*%
X9218837Y-12809480D02*
X9225908Y-12816551D01*
X9226146Y-12773887D02*
X9218837Y-12781196D01*
X9254192Y-12816551D02*
X9261502Y-12809242D01*
X9082000Y-12683000D02*
X9163544Y-12683000D01*
X9289786Y-12809242D02*
X9363000Y-12882456D01*
X9363000Y-12882456D02*
X9363000Y-13308000D01*
X9066000Y-12699000D02*
X9082000Y-12683000D01*
X9163544Y-12683000D02*
X9226146Y-12745602D01*
X9363000Y-13308000D02*
X9347000Y-13324000D01*
X9261502Y-12809242D02*
G75*
G02*
X9289786Y-12809242I14142J-14142D01*
G01*
X9218837Y-12781196D02*
G75*
G03*
X9218835Y-12809482I14143J-14144D01*
G01*
X9225908Y-12816551D02*
G75*
G03*
X9254192Y-12816551I14142J14142D01*
G01*
X9226146Y-12745602D02*
G75*
G02*
X9226142Y-12773882I-14146J-14138D01*
G01*
D18*
%TO.N,UART_RX*%
X8575000Y-13290000D02*
X8575000Y-12190000D01*
X8890723Y-13605723D02*
X8575000Y-13290000D01*
X8890723Y-14050105D02*
X8890723Y-13605723D01*
X8575000Y-12190000D02*
X8556000Y-12171000D01*
%TO.N,UART_TX*%
X8545000Y-12361000D02*
X8527500Y-12361000D01*
X8840723Y-13970105D02*
X8840723Y-13605723D01*
X8840723Y-13605723D02*
X8545000Y-13310000D01*
X8545000Y-13310000D02*
X8545000Y-12361000D01*
%TO.N,Net-(J2-SMB_DATA)*%
X9390723Y-13669277D02*
X9390723Y-14050105D01*
X9713000Y-13347000D02*
X9390723Y-13669277D01*
X9746000Y-13347000D02*
X9713000Y-13347000D01*
%TO.N,PPS_OUT2*%
X9940723Y-14050105D02*
X9940723Y-13504277D01*
X10360000Y-12501000D02*
X10360000Y-11092000D01*
X10251000Y-13194000D02*
X10251000Y-12610000D01*
X9940723Y-13504277D02*
X10251000Y-13194000D01*
X10251000Y-12610000D02*
X10360000Y-12501000D01*
%TO.N,PPS_IN*%
X10017500Y-13104500D02*
X10017500Y-11779500D01*
X10017500Y-11779500D02*
X10112000Y-11685000D01*
X9840723Y-13281277D02*
X10017500Y-13104500D01*
X9840723Y-14050105D02*
X9840723Y-13281277D01*
%TO.N,~{NRST_IN}*%
X8712000Y-12011000D02*
X8712000Y-12215500D01*
X8648000Y-13269000D02*
X9055000Y-13676000D01*
X9055000Y-13676000D02*
X9055000Y-13767500D01*
X8648000Y-12279500D02*
X8648000Y-13269000D01*
X8712000Y-12215500D02*
X8648000Y-12279500D01*
%TO.N,Ref_CLK_SEL*%
X10214000Y-11272000D02*
X10093000Y-11151000D01*
X10093000Y-11151000D02*
X9787000Y-11151000D01*
X10214000Y-11799000D02*
X10214000Y-11272000D01*
X9890723Y-14050105D02*
X9890723Y-13384277D01*
X10163000Y-13112000D02*
X10163000Y-11850000D01*
X10163000Y-11850000D02*
X10214000Y-11799000D01*
X9778000Y-11151000D02*
X9787000Y-11151000D01*
X9769000Y-11151000D02*
X9663000Y-11045000D01*
X9787000Y-11151000D02*
X9769000Y-11151000D01*
X9890723Y-13384277D02*
X10163000Y-13112000D01*
X9663000Y-11045000D02*
X9663000Y-10926000D01*
%TO.N,REF_O*%
X9889000Y-10741000D02*
X9896000Y-10748000D01*
X9896000Y-10748000D02*
X9896000Y-10928000D01*
X9852000Y-10972000D02*
X9775000Y-10972000D01*
X9896000Y-10928000D02*
X9852000Y-10972000D01*
%TO.N,Net-(U5-B2)*%
X9080000Y-13110000D02*
X9080000Y-13367500D01*
X9258250Y-10864750D02*
X8900000Y-11223000D01*
X8900000Y-12930000D02*
X9080000Y-13110000D01*
X8900000Y-11223000D02*
X8900000Y-12930000D01*
X9765750Y-10864750D02*
X9258250Y-10864750D01*
X9813000Y-10912000D02*
X9765750Y-10864750D01*
%TO.N,Net-(J2-SMB_CLK)*%
X9756000Y-13516500D02*
X9756000Y-13472000D01*
X9440723Y-14050105D02*
X9440723Y-13831777D01*
X9440723Y-13831777D02*
X9756000Y-13516500D01*
%TO.N,VREF_O*%
X9245000Y-10663000D02*
X9310000Y-10598000D01*
X9832000Y-10598000D02*
X9893000Y-10659000D01*
X9310000Y-10598000D02*
X9832000Y-10598000D01*
%TD*%
%TA.AperFunction,Conductor*%
%TO.N,+3.3V*%
G36*
X8689068Y-13552968D02*
G01*
X8691132Y-13554632D01*
X8746368Y-13609868D01*
X8749717Y-13616000D01*
X8750000Y-13618636D01*
X8750000Y-13887600D01*
X8748032Y-13894304D01*
X8742751Y-13898879D01*
X8737600Y-13900000D01*
X8529388Y-13900000D01*
X8528534Y-13899749D01*
X8527654Y-13899878D01*
X8525234Y-13898780D01*
X8522684Y-13898031D01*
X8522102Y-13897359D01*
X8521291Y-13896992D01*
X8519849Y-13894759D01*
X8518109Y-13892751D01*
X8517882Y-13891716D01*
X8517499Y-13891123D01*
X8516988Y-13887631D01*
X8516938Y-13867645D01*
X8516938Y-13867640D01*
X8516937Y-13867026D01*
X8516938Y-13867021D01*
X8516937Y-13867022D01*
X8516924Y-13861877D01*
X8516903Y-13853022D01*
X8513409Y-13835661D01*
X8506600Y-13819312D01*
X8504323Y-13815916D01*
X8502101Y-13812602D01*
X8500002Y-13805938D01*
X8500000Y-13805697D01*
X8500000Y-13603011D01*
X8501969Y-13596307D01*
X8503632Y-13594243D01*
X8543243Y-13554632D01*
X8549375Y-13551283D01*
X8552011Y-13551000D01*
X8682364Y-13551000D01*
X8689068Y-13552968D01*
G37*
%TD.AperFunction*%
%TD*%
%TA.AperFunction,Conductor*%
%TO.N,GND*%
G36*
X9282655Y-10034323D02*
G01*
X9284754Y-10038548D01*
X9285492Y-10043921D01*
X9293061Y-10070933D01*
X9304237Y-10096662D01*
X9304237Y-10096663D01*
X9318811Y-10120629D01*
X9318812Y-10120631D01*
X9326358Y-10129906D01*
X9336515Y-10142390D01*
X9357016Y-10161537D01*
X9379933Y-10177714D01*
X9404840Y-10190619D01*
X9404840Y-10190619D01*
X9404840Y-10190619D01*
X9431271Y-10200013D01*
X9431271Y-10200013D01*
X9431272Y-10200013D01*
X9431272Y-10200013D01*
X9431273Y-10200013D01*
X9458735Y-10205720D01*
X9458736Y-10205720D01*
X9458737Y-10205720D01*
X9458737Y-10205720D01*
X9458737Y-10205720D01*
X9486722Y-10207635D01*
X9486723Y-10207635D01*
X9486724Y-10207635D01*
X9514708Y-10205720D01*
X9514709Y-10205720D01*
X9514709Y-10205720D01*
X9514710Y-10205720D01*
X9514710Y-10205720D01*
X9542173Y-10200013D01*
X9542173Y-10200013D01*
X9542174Y-10200013D01*
X9542175Y-10200013D01*
X9542175Y-10200013D01*
X9568605Y-10190619D01*
X9568605Y-10190619D01*
X9568606Y-10190619D01*
X9593512Y-10177714D01*
X9616430Y-10161537D01*
X9636931Y-10142390D01*
X9654634Y-10120630D01*
X9658609Y-10114094D01*
X10357950Y-10114094D01*
X10357950Y-10129906D01*
X10362042Y-10145178D01*
X10362042Y-10145178D01*
X10362042Y-10145178D01*
X10369948Y-10158872D01*
X10381128Y-10170052D01*
X10394822Y-10177958D01*
X10410094Y-10182050D01*
X10410094Y-10182050D01*
X10410094Y-10182050D01*
X10425906Y-10182050D01*
X10425906Y-10182050D01*
X10441178Y-10177958D01*
X10454872Y-10170052D01*
X10466052Y-10158872D01*
X10473958Y-10145178D01*
X10478050Y-10129906D01*
X10478050Y-10129906D01*
X10478050Y-10114094D01*
X10478050Y-10114094D01*
X10473958Y-10098822D01*
X10473958Y-10098822D01*
X10466052Y-10085128D01*
X10454872Y-10073948D01*
X10441178Y-10066042D01*
X10441178Y-10066042D01*
X10441178Y-10066042D01*
X10425906Y-10061950D01*
X10425906Y-10061950D01*
X10410094Y-10061950D01*
X10410094Y-10061950D01*
X10394822Y-10066042D01*
X10394821Y-10066042D01*
X10381128Y-10073948D01*
X10369948Y-10085128D01*
X10362042Y-10098821D01*
X10362042Y-10098822D01*
X10357950Y-10114094D01*
X9658609Y-10114094D01*
X9669209Y-10096662D01*
X9680385Y-10070933D01*
X9687953Y-10043922D01*
X9688692Y-10038548D01*
X9691551Y-10033659D01*
X9696023Y-10032155D01*
X10536139Y-10032155D01*
X10537297Y-10032247D01*
X10541729Y-10032949D01*
X10543931Y-10033664D01*
X10547405Y-10035435D01*
X10549277Y-10036795D01*
X10552035Y-10039552D01*
X10553395Y-10041424D01*
X10555166Y-10044898D01*
X10555881Y-10047100D01*
X10556047Y-10048148D01*
X10556582Y-10051521D01*
X10556673Y-10052679D01*
X10556673Y-13764655D01*
X10554505Y-13769888D01*
X10549273Y-13772055D01*
X10532767Y-13772055D01*
X10532740Y-13772062D01*
X10528841Y-13772062D01*
X10518845Y-13774050D01*
X10518644Y-13774079D01*
X10516082Y-13773422D01*
X10513486Y-13772906D01*
X10513366Y-13772726D01*
X10513157Y-13772673D01*
X10511810Y-13770397D01*
X10510340Y-13768196D01*
X10510382Y-13767985D01*
X10510272Y-13767799D01*
X10510928Y-13765237D01*
X10511445Y-13762641D01*
X10511649Y-13762423D01*
X10511678Y-13762313D01*
X10511846Y-13762213D01*
X10512572Y-13761438D01*
X10512529Y-13761395D01*
X10517427Y-13756497D01*
X10524052Y-13749872D01*
X10531958Y-13736178D01*
X10536050Y-13720906D01*
X10536050Y-13720906D01*
X10536050Y-13705094D01*
X10536050Y-13705094D01*
X10531958Y-13689822D01*
X10531958Y-13689822D01*
X10524052Y-13676128D01*
X10512872Y-13664948D01*
X10499178Y-13657042D01*
X10499178Y-13657042D01*
X10499178Y-13657042D01*
X10483906Y-13652950D01*
X10483906Y-13652950D01*
X10468094Y-13652950D01*
X10468094Y-13652950D01*
X10452822Y-13657042D01*
X10452822Y-13657042D01*
X10452822Y-13657042D01*
X10449886Y-13658737D01*
X10439128Y-13664948D01*
X10427948Y-13676128D01*
X10420042Y-13689821D01*
X10420042Y-13689822D01*
X10415950Y-13705094D01*
X10415950Y-13720906D01*
X10420042Y-13736178D01*
X10420042Y-13736178D01*
X10420042Y-13736178D01*
X10427948Y-13749872D01*
X10439128Y-13761052D01*
X10452822Y-13768958D01*
X10468094Y-13773050D01*
X10468094Y-13773050D01*
X10468094Y-13773050D01*
X10483906Y-13773050D01*
X10485779Y-13772548D01*
X10491395Y-13773287D01*
X10494842Y-13777780D01*
X10494103Y-13783396D01*
X10491805Y-13785849D01*
X10485697Y-13789929D01*
X10474547Y-13801078D01*
X10465786Y-13814188D01*
X10459751Y-13828754D01*
X10456673Y-13844219D01*
X10456673Y-13847756D01*
X10456673Y-13848148D01*
X10456673Y-13848149D01*
X10456673Y-13852102D01*
X10456673Y-13852103D01*
X10456672Y-13857454D01*
X10456673Y-13857462D01*
X10456673Y-13891705D01*
X10454505Y-13896938D01*
X10449273Y-13899105D01*
X10428173Y-13899105D01*
X10422940Y-13896938D01*
X10420773Y-13891705D01*
X10420773Y-13834548D01*
X10421162Y-13831632D01*
X10420779Y-13825620D01*
X10420773Y-13825556D01*
X10420773Y-13816767D01*
X10420773Y-13816766D01*
X10420773Y-13816766D01*
X10418725Y-13809124D01*
X10418725Y-13809124D01*
X10416241Y-13804821D01*
X10414769Y-13802272D01*
X10409174Y-13796677D01*
X10408687Y-13796190D01*
X10406962Y-13793478D01*
X10406920Y-13793361D01*
X10404630Y-13786306D01*
X10403755Y-13784626D01*
X10403588Y-13784165D01*
X10403592Y-13784061D01*
X10403397Y-13783559D01*
X10402321Y-13779542D01*
X10402321Y-13779541D01*
X10397048Y-13770409D01*
X10389591Y-13762952D01*
X10388312Y-13762213D01*
X10380459Y-13757679D01*
X10380458Y-13757679D01*
X10370273Y-13754950D01*
X10370273Y-13754950D01*
X10359727Y-13754950D01*
X10359727Y-13754950D01*
X10349542Y-13757679D01*
X10349541Y-13757679D01*
X10340409Y-13762952D01*
X10332952Y-13770409D01*
X10327679Y-13779541D01*
X10327679Y-13779541D01*
X10326541Y-13783791D01*
X10326374Y-13784328D01*
X10326170Y-13784910D01*
X10325345Y-13786405D01*
X10322503Y-13795347D01*
X10322466Y-13795452D01*
X10322285Y-13795653D01*
X10320717Y-13798232D01*
X10316677Y-13802271D01*
X10312721Y-13809124D01*
X10312721Y-13809124D01*
X10310673Y-13816766D01*
X10310673Y-13816767D01*
X10310673Y-13826586D01*
X10310284Y-13832648D01*
X10310261Y-13833144D01*
X10310258Y-13833218D01*
X10310673Y-13835493D01*
X10310673Y-13891705D01*
X10308505Y-13896938D01*
X10303273Y-13899105D01*
X10220673Y-13899105D01*
X10215440Y-13896938D01*
X10213273Y-13891705D01*
X10213273Y-13799070D01*
X10213273Y-13799069D01*
X10213273Y-13789237D01*
X10212100Y-13786405D01*
X10210692Y-13783006D01*
X10209840Y-13780949D01*
X10203496Y-13774606D01*
X10203496Y-13774606D01*
X10091717Y-13662827D01*
X10089550Y-13657594D01*
X10089550Y-13622406D01*
X10089799Y-13620503D01*
X10090088Y-13619416D01*
X10090088Y-13619416D01*
X10090088Y-13619415D01*
X10090371Y-13614995D01*
X10090537Y-13613839D01*
X10090782Y-13612752D01*
X10091411Y-13611015D01*
X10091444Y-13610950D01*
X10092671Y-13608547D01*
X10093741Y-13606452D01*
X10094271Y-13605570D01*
X10094467Y-13605291D01*
X10094948Y-13604605D01*
X10094948Y-13604604D01*
X10094951Y-13604601D01*
X10095175Y-13604272D01*
X10095176Y-13604270D01*
X10095179Y-13604265D01*
X10095212Y-13604215D01*
X10095422Y-13603890D01*
X10100463Y-13595848D01*
X10101359Y-13594205D01*
X10101479Y-13593951D01*
X10102173Y-13592210D01*
X10102259Y-13591949D01*
X10105872Y-13581004D01*
X10106135Y-13580123D01*
X10106135Y-13580121D01*
X10106171Y-13579987D01*
X10106197Y-13579196D01*
X10106445Y-13577530D01*
X10107050Y-13575273D01*
X10107050Y-13564727D01*
X10107050Y-13564727D01*
X10107050Y-13564727D01*
X10105889Y-13560393D01*
X10104321Y-13554541D01*
X10099048Y-13545409D01*
X10091591Y-13537952D01*
X10087672Y-13535689D01*
X10082459Y-13532679D01*
X10082458Y-13532679D01*
X10072273Y-13529950D01*
X10072273Y-13529950D01*
X10061727Y-13529950D01*
X10051078Y-13532803D01*
X10049091Y-13532542D01*
X10047099Y-13532761D01*
X10046378Y-13532184D01*
X10045463Y-13532064D01*
X10044243Y-13530473D01*
X10042679Y-13529220D01*
X10042636Y-13528379D01*
X10042015Y-13527571D01*
X10042057Y-13523591D01*
X10042179Y-13523170D01*
X10042379Y-13522700D01*
X10042769Y-13521682D01*
X10042822Y-13521528D01*
X10043137Y-13520495D01*
X10045232Y-13512665D01*
X10045254Y-13512589D01*
X10045256Y-13512586D01*
X10045291Y-13512466D01*
X10047459Y-13505457D01*
X10048195Y-13503818D01*
X10049058Y-13502389D01*
X10049813Y-13501355D01*
X10053322Y-13497329D01*
X10053533Y-13497087D01*
X10058606Y-13494567D01*
X10059111Y-13494550D01*
X10201594Y-13494550D01*
X10206827Y-13496717D01*
X10298998Y-13588888D01*
X10299566Y-13589527D01*
X10299899Y-13589947D01*
X10300731Y-13591383D01*
X10303785Y-13594854D01*
X10303904Y-13595004D01*
X10303919Y-13595058D01*
X10304358Y-13595645D01*
X10304486Y-13595848D01*
X10304953Y-13596586D01*
X10305737Y-13598259D01*
X10307083Y-13602416D01*
X10307316Y-13603135D01*
X10307564Y-13604131D01*
X10307769Y-13605294D01*
X10307843Y-13605685D01*
X10307854Y-13605740D01*
X10307854Y-13605743D01*
X10307938Y-13606128D01*
X10310061Y-13615384D01*
X10310587Y-13617178D01*
X10310588Y-13617178D01*
X10310588Y-13617179D01*
X10310683Y-13617443D01*
X10311424Y-13619166D01*
X10311425Y-13619168D01*
X10311425Y-13619168D01*
X10316732Y-13629706D01*
X10317169Y-13630514D01*
X10317237Y-13630631D01*
X10317237Y-13630631D01*
X10317779Y-13631211D01*
X10318781Y-13632564D01*
X10319952Y-13634591D01*
X10327409Y-13642048D01*
X10336541Y-13647321D01*
X10346727Y-13650050D01*
X10346727Y-13650050D01*
X10346727Y-13650050D01*
X10357273Y-13650050D01*
X10357273Y-13650050D01*
X10367459Y-13647321D01*
X10376591Y-13642048D01*
X10384048Y-13634591D01*
X10389321Y-13625459D01*
X10392050Y-13615273D01*
X10392050Y-13615273D01*
X10392050Y-13604727D01*
X10391807Y-13603820D01*
X10391570Y-13602936D01*
X10391332Y-13601478D01*
X10391238Y-13599954D01*
X10389696Y-13594114D01*
X10389389Y-13593096D01*
X10389338Y-13592945D01*
X10389338Y-13592943D01*
X10388962Y-13591949D01*
X10386724Y-13586579D01*
X10386179Y-13585412D01*
X10386090Y-13585239D01*
X10385453Y-13584125D01*
X10383904Y-13581658D01*
X10380589Y-13576376D01*
X10380474Y-13576188D01*
X10376792Y-13569897D01*
X10376039Y-13568103D01*
X10375713Y-13566908D01*
X10375475Y-13565522D01*
X10375415Y-13564727D01*
X10375088Y-13560392D01*
X10374785Y-13559222D01*
X10374550Y-13557371D01*
X10374550Y-13414406D01*
X10376717Y-13409173D01*
X10426733Y-13359158D01*
X10426733Y-13359157D01*
X10427774Y-13358117D01*
X10427774Y-13358117D01*
X10434117Y-13351774D01*
X10437110Y-13344548D01*
X10437550Y-13343485D01*
X10437550Y-13334514D01*
X10437550Y-13334514D01*
X10437550Y-13050954D01*
X10439717Y-13045722D01*
X10444950Y-13043554D01*
X10448931Y-13044905D01*
X10448989Y-13044805D01*
X10449409Y-13045048D01*
X10449409Y-13045048D01*
X10458541Y-13050321D01*
X10468727Y-13053050D01*
X10468727Y-13053050D01*
X10468727Y-13053050D01*
X10479273Y-13053050D01*
X10479273Y-13053050D01*
X10489459Y-13050321D01*
X10498591Y-13045048D01*
X10506048Y-13037591D01*
X10511321Y-13028459D01*
X10514050Y-13018273D01*
X10514050Y-13018273D01*
X10514050Y-13007727D01*
X10514050Y-13007727D01*
X10512117Y-13000514D01*
X10511321Y-12997541D01*
X10506048Y-12988409D01*
X10498591Y-12980952D01*
X10496162Y-12979549D01*
X10489459Y-12975679D01*
X10489458Y-12975679D01*
X10479273Y-12972950D01*
X10479273Y-12972950D01*
X10468727Y-12972950D01*
X10468727Y-12972950D01*
X10458542Y-12975679D01*
X10458541Y-12975679D01*
X10448989Y-12981194D01*
X10448912Y-12981062D01*
X10443983Y-12982382D01*
X10439078Y-12979549D01*
X10437550Y-12975046D01*
X10437550Y-12787405D01*
X10439716Y-12782174D01*
X10439887Y-12782003D01*
X10441410Y-12780832D01*
X10442383Y-12780268D01*
X10445710Y-12777341D01*
X10446644Y-12776642D01*
X10447587Y-12776046D01*
X10449259Y-12775262D01*
X10454135Y-12773683D01*
X10455131Y-12773435D01*
X10456292Y-12773231D01*
X10456681Y-12773158D01*
X10456740Y-12773146D01*
X10457132Y-12773061D01*
X10466384Y-12770939D01*
X10468182Y-12770411D01*
X10468446Y-12770315D01*
X10470166Y-12769575D01*
X10480706Y-12764268D01*
X10481514Y-12763830D01*
X10481634Y-12763761D01*
X10482213Y-12763220D01*
X10483566Y-12762217D01*
X10485591Y-12761048D01*
X10493048Y-12753591D01*
X10498321Y-12744458D01*
X10501050Y-12734273D01*
X10501050Y-12734273D01*
X10501050Y-12723727D01*
X10501050Y-12723727D01*
X10501027Y-12723641D01*
X10498321Y-12713541D01*
X10493048Y-12704408D01*
X10485591Y-12696952D01*
X10478866Y-12693069D01*
X10476459Y-12691679D01*
X10476458Y-12691679D01*
X10466273Y-12688950D01*
X10466273Y-12688950D01*
X10455727Y-12688950D01*
X10455727Y-12688950D01*
X10445542Y-12691679D01*
X10445541Y-12691679D01*
X10436409Y-12696952D01*
X10428952Y-12704408D01*
X10428025Y-12706014D01*
X10427162Y-12707213D01*
X10426151Y-12708357D01*
X10426151Y-12708358D01*
X10423134Y-12713541D01*
X10423111Y-12713580D01*
X10422606Y-12714520D01*
X10422536Y-12714662D01*
X10422098Y-12715629D01*
X10419886Y-12721005D01*
X10419446Y-12722215D01*
X10419388Y-12722397D01*
X10419049Y-12723642D01*
X10417009Y-12732561D01*
X10416954Y-12732784D01*
X10415112Y-12739825D01*
X10414376Y-12741627D01*
X10413761Y-12742703D01*
X10412950Y-12743851D01*
X10409596Y-12747753D01*
X10409596Y-12747753D01*
X10409596Y-12747754D01*
X10408983Y-12748794D01*
X10407840Y-12750269D01*
X10402227Y-12755883D01*
X10402227Y-12755883D01*
X10395883Y-12762226D01*
X10395248Y-12763760D01*
X10395247Y-12763761D01*
X10392450Y-12770514D01*
X10392450Y-12780346D01*
X10392450Y-12780347D01*
X10392450Y-13326594D01*
X10390283Y-13331827D01*
X10332883Y-13389226D01*
X10332502Y-13390147D01*
X10332502Y-13390147D01*
X10329450Y-13397514D01*
X10329450Y-13407347D01*
X10329450Y-13407347D01*
X10329450Y-13537694D01*
X10327283Y-13542927D01*
X10322050Y-13545094D01*
X10316817Y-13542927D01*
X10234158Y-13460267D01*
X10234158Y-13460267D01*
X10226774Y-13452883D01*
X10226773Y-13452883D01*
X10224346Y-13451877D01*
X10224346Y-13451877D01*
X10224346Y-13451877D01*
X10218485Y-13449450D01*
X10209514Y-13449450D01*
X10208653Y-13449450D01*
X10208652Y-13449450D01*
X10051347Y-13449450D01*
X10050486Y-13449450D01*
X10050486Y-13449450D01*
X10045306Y-13449450D01*
X10043138Y-13448552D01*
X10040073Y-13447282D01*
X10040073Y-13447282D01*
X10038419Y-13443289D01*
X10037906Y-13442050D01*
X10038652Y-13440247D01*
X10038804Y-13439882D01*
X10040073Y-13436817D01*
X10103717Y-13373173D01*
X10162163Y-13314727D01*
X10270950Y-13314727D01*
X10270950Y-13325273D01*
X10273679Y-13335458D01*
X10273680Y-13335459D01*
X10277299Y-13341727D01*
X10278952Y-13344591D01*
X10286409Y-13352048D01*
X10295541Y-13357321D01*
X10305727Y-13360050D01*
X10305727Y-13360050D01*
X10305727Y-13360050D01*
X10316273Y-13360050D01*
X10316273Y-13360050D01*
X10326459Y-13357321D01*
X10335591Y-13352048D01*
X10343048Y-13344591D01*
X10348321Y-13335459D01*
X10351050Y-13325273D01*
X10351050Y-13325273D01*
X10351050Y-13314727D01*
X10350595Y-13313031D01*
X10350570Y-13312936D01*
X10350332Y-13311478D01*
X10350290Y-13310805D01*
X10350238Y-13309954D01*
X10348696Y-13304113D01*
X10348389Y-13303096D01*
X10348338Y-13302944D01*
X10348338Y-13302943D01*
X10347962Y-13301949D01*
X10345724Y-13296579D01*
X10345179Y-13295411D01*
X10345090Y-13295239D01*
X10344453Y-13294124D01*
X10343054Y-13291896D01*
X10339589Y-13286376D01*
X10339474Y-13286187D01*
X10335792Y-13279897D01*
X10335039Y-13278103D01*
X10334713Y-13276907D01*
X10334475Y-13275521D01*
X10334321Y-13273485D01*
X10334088Y-13270392D01*
X10333785Y-13269222D01*
X10333550Y-13267371D01*
X10333550Y-12764405D01*
X10335717Y-12759173D01*
X10382840Y-12712050D01*
X10432889Y-12662001D01*
X10433527Y-12661433D01*
X10433946Y-12661101D01*
X10435383Y-12660268D01*
X10438855Y-12657214D01*
X10439004Y-12657096D01*
X10439058Y-12657080D01*
X10439644Y-12656642D01*
X10440587Y-12656046D01*
X10442259Y-12655262D01*
X10447135Y-12653683D01*
X10448131Y-12653435D01*
X10449292Y-12653231D01*
X10449681Y-12653158D01*
X10449740Y-12653146D01*
X10450132Y-12653061D01*
X10459384Y-12650939D01*
X10461182Y-12650411D01*
X10461446Y-12650315D01*
X10463166Y-12649575D01*
X10473706Y-12644268D01*
X10474514Y-12643830D01*
X10474634Y-12643761D01*
X10475213Y-12643220D01*
X10476566Y-12642217D01*
X10478591Y-12641048D01*
X10486048Y-12633591D01*
X10491321Y-12624458D01*
X10494050Y-12614273D01*
X10494050Y-12614273D01*
X10494050Y-12603727D01*
X10494050Y-12603727D01*
X10494027Y-12603641D01*
X10491321Y-12593541D01*
X10486048Y-12584408D01*
X10478591Y-12576952D01*
X10469459Y-12571679D01*
X10469458Y-12571679D01*
X10459273Y-12568950D01*
X10459273Y-12568950D01*
X10448727Y-12568950D01*
X10448727Y-12568950D01*
X10438542Y-12571679D01*
X10438541Y-12571679D01*
X10429409Y-12576952D01*
X10421952Y-12584408D01*
X10421025Y-12586014D01*
X10420162Y-12587213D01*
X10419151Y-12588357D01*
X10419151Y-12588358D01*
X10416134Y-12593541D01*
X10416111Y-12593580D01*
X10415606Y-12594520D01*
X10415536Y-12594662D01*
X10415098Y-12595629D01*
X10412886Y-12601005D01*
X10412446Y-12602215D01*
X10412388Y-12602397D01*
X10412049Y-12603642D01*
X10410009Y-12612561D01*
X10409954Y-12612784D01*
X10408112Y-12619825D01*
X10407376Y-12621627D01*
X10406761Y-12622703D01*
X10405950Y-12623851D01*
X10402596Y-12627753D01*
X10402596Y-12627753D01*
X10402596Y-12627753D01*
X10402596Y-12627753D01*
X10401983Y-12628793D01*
X10400840Y-12630269D01*
X10298462Y-12732647D01*
X10298461Y-12732648D01*
X10298227Y-12732883D01*
X10298226Y-12732883D01*
X10291883Y-12739226D01*
X10291241Y-12740775D01*
X10290810Y-12741818D01*
X10290810Y-12741818D01*
X10288450Y-12747514D01*
X10288450Y-12757346D01*
X10288450Y-12757347D01*
X10288450Y-13267593D01*
X10288201Y-13269497D01*
X10287912Y-13270583D01*
X10287912Y-13270584D01*
X10287629Y-13275006D01*
X10287463Y-13276161D01*
X10287221Y-13277232D01*
X10287218Y-13277247D01*
X10286590Y-13278984D01*
X10286414Y-13279329D01*
X10284258Y-13283549D01*
X10283729Y-13284429D01*
X10283048Y-13285402D01*
X10282844Y-13285699D01*
X10282813Y-13285746D01*
X10282584Y-13286101D01*
X10277537Y-13294153D01*
X10276639Y-13295797D01*
X10276520Y-13296051D01*
X10275829Y-13297786D01*
X10275828Y-13297787D01*
X10275828Y-13297788D01*
X10275827Y-13297790D01*
X10273474Y-13304917D01*
X10272127Y-13308997D01*
X10271864Y-13309881D01*
X10271829Y-13310012D01*
X10271829Y-13310013D01*
X10271803Y-13310805D01*
X10271555Y-13312470D01*
X10270950Y-13314727D01*
X10162163Y-13314727D01*
X10262733Y-13214158D01*
X10262733Y-13214157D01*
X10263774Y-13213117D01*
X10263774Y-13213117D01*
X10270117Y-13206774D01*
X10273550Y-13198485D01*
X10273550Y-12622406D01*
X10275717Y-12617173D01*
X10371733Y-12521158D01*
X10371733Y-12521157D01*
X10372774Y-12520117D01*
X10372774Y-12520117D01*
X10379117Y-12513774D01*
X10380539Y-12510340D01*
X10382550Y-12505485D01*
X10382550Y-12496514D01*
X10382550Y-12495919D01*
X10382550Y-12495917D01*
X10382550Y-12333727D01*
X10427950Y-12333727D01*
X10427950Y-12344273D01*
X10430679Y-12354458D01*
X10430680Y-12354459D01*
X10431412Y-12355727D01*
X10435952Y-12363591D01*
X10443409Y-12371048D01*
X10452541Y-12376321D01*
X10462727Y-12379050D01*
X10462727Y-12379050D01*
X10462727Y-12379050D01*
X10473273Y-12379050D01*
X10473273Y-12379050D01*
X10483459Y-12376321D01*
X10492591Y-12371048D01*
X10500048Y-12363591D01*
X10505321Y-12354459D01*
X10508050Y-12344273D01*
X10508050Y-12344273D01*
X10508050Y-12333727D01*
X10508050Y-12333727D01*
X10505321Y-12323542D01*
X10505321Y-12323541D01*
X10500048Y-12314409D01*
X10492591Y-12306952D01*
X10483459Y-12301679D01*
X10483458Y-12301679D01*
X10473273Y-12298950D01*
X10473273Y-12298950D01*
X10462727Y-12298950D01*
X10462727Y-12298950D01*
X10452542Y-12301679D01*
X10452541Y-12301679D01*
X10443409Y-12306952D01*
X10435952Y-12314409D01*
X10430680Y-12323541D01*
X10430679Y-12323542D01*
X10427950Y-12333727D01*
X10382550Y-12333727D01*
X10382550Y-11144406D01*
X10382599Y-11143553D01*
X10382661Y-11143021D01*
X10383088Y-11141416D01*
X10383383Y-11136804D01*
X10383405Y-11136614D01*
X10383433Y-11136564D01*
X10383537Y-11135839D01*
X10383782Y-11134753D01*
X10384411Y-11133015D01*
X10384444Y-11132950D01*
X10384989Y-11131883D01*
X10386741Y-11128452D01*
X10387271Y-11127570D01*
X10387951Y-11126601D01*
X10388175Y-11126272D01*
X10388176Y-11126270D01*
X10388179Y-11126265D01*
X10388212Y-11126215D01*
X10388422Y-11125890D01*
X10393463Y-11117848D01*
X10394359Y-11116205D01*
X10394479Y-11115951D01*
X10395173Y-11114210D01*
X10396876Y-11109051D01*
X10398872Y-11103004D01*
X10399135Y-11102123D01*
X10399135Y-11102121D01*
X10399171Y-11101987D01*
X10399197Y-11101196D01*
X10399445Y-11099530D01*
X10400050Y-11097273D01*
X10400050Y-11086727D01*
X10400050Y-11086727D01*
X10400050Y-11086727D01*
X10397321Y-11076542D01*
X10397321Y-11076541D01*
X10392048Y-11067409D01*
X10384591Y-11059952D01*
X10380818Y-11057773D01*
X10375459Y-11054680D01*
X10375458Y-11054679D01*
X10365273Y-11051950D01*
X10365273Y-11051950D01*
X10354727Y-11051950D01*
X10354727Y-11051950D01*
X10344542Y-11054679D01*
X10344541Y-11054680D01*
X10335409Y-11059952D01*
X10327952Y-11067409D01*
X10322680Y-11076541D01*
X10322679Y-11076542D01*
X10319950Y-11086727D01*
X10319950Y-11097273D01*
X10320430Y-11099063D01*
X10320668Y-11100521D01*
X10320762Y-11102045D01*
X10322305Y-11107887D01*
X10322610Y-11108901D01*
X10322660Y-11109051D01*
X10323038Y-11110052D01*
X10325276Y-11115421D01*
X10325819Y-11116585D01*
X10325909Y-11116758D01*
X10326547Y-11117874D01*
X10331411Y-11125624D01*
X10331530Y-11125820D01*
X10335207Y-11132102D01*
X10335961Y-11133897D01*
X10336286Y-11135092D01*
X10336525Y-11136479D01*
X10336912Y-11141608D01*
X10337215Y-11142777D01*
X10337450Y-11144629D01*
X10337450Y-12488594D01*
X10335283Y-12493827D01*
X10231883Y-12597226D01*
X10231883Y-12597226D01*
X10228450Y-12605514D01*
X10228450Y-12615347D01*
X10228450Y-12615347D01*
X10228450Y-13181594D01*
X10226283Y-13186827D01*
X9925905Y-13487204D01*
X9920673Y-13489371D01*
X9915440Y-13487204D01*
X9913273Y-13481971D01*
X9913273Y-13396683D01*
X9915440Y-13391450D01*
X10174733Y-13132158D01*
X10174733Y-13132157D01*
X10175774Y-13131117D01*
X10175774Y-13131117D01*
X10182117Y-13124774D01*
X10185224Y-13117274D01*
X10185550Y-13116485D01*
X10185550Y-13107514D01*
X10185550Y-13107514D01*
X10185550Y-11862406D01*
X10187717Y-11857173D01*
X10225733Y-11819158D01*
X10225733Y-11819157D01*
X10226774Y-11818117D01*
X10226774Y-11818117D01*
X10233117Y-11811774D01*
X10234123Y-11809346D01*
X10236550Y-11803485D01*
X10236550Y-11794514D01*
X10236550Y-11793919D01*
X10236550Y-11793917D01*
X10236550Y-11267514D01*
X10236550Y-11267514D01*
X10233117Y-11259227D01*
X10233117Y-11259226D01*
X10226774Y-11252883D01*
X10113158Y-11139267D01*
X10113158Y-11139267D01*
X10105774Y-11131883D01*
X10105774Y-11131883D01*
X10103346Y-11130877D01*
X10103346Y-11130877D01*
X10103346Y-11130877D01*
X10097486Y-11128450D01*
X10088515Y-11128450D01*
X10087653Y-11128450D01*
X10087653Y-11128450D01*
X9781406Y-11128450D01*
X9776173Y-11126283D01*
X9687717Y-11037827D01*
X9685550Y-11032594D01*
X9685550Y-10978406D01*
X9685599Y-10977553D01*
X9685661Y-10977021D01*
X9686088Y-10975416D01*
X9686383Y-10970804D01*
X9686405Y-10970614D01*
X9686433Y-10970564D01*
X9686537Y-10969839D01*
X9686782Y-10968753D01*
X9687411Y-10967015D01*
X9687444Y-10966950D01*
X9687877Y-10966102D01*
X9689741Y-10962452D01*
X9690271Y-10961570D01*
X9690951Y-10960601D01*
X9691175Y-10960272D01*
X9691176Y-10960270D01*
X9691179Y-10960265D01*
X9691212Y-10960215D01*
X9691422Y-10959890D01*
X9696463Y-10951848D01*
X9697359Y-10950205D01*
X9697479Y-10949951D01*
X9698173Y-10948210D01*
X9698190Y-10948158D01*
X9701872Y-10937004D01*
X9702135Y-10936123D01*
X9702135Y-10936121D01*
X9702171Y-10935987D01*
X9702197Y-10935196D01*
X9702445Y-10933530D01*
X9703050Y-10931273D01*
X9703050Y-10920727D01*
X9703050Y-10920727D01*
X9703050Y-10920727D01*
X9702951Y-10920358D01*
X9700321Y-10910541D01*
X9695048Y-10901409D01*
X9693572Y-10899933D01*
X9691405Y-10894700D01*
X9693572Y-10889467D01*
X9698805Y-10887300D01*
X9753344Y-10887300D01*
X9758577Y-10889467D01*
X9759998Y-10890888D01*
X9761167Y-10892410D01*
X9761731Y-10893383D01*
X9764659Y-10896710D01*
X9765358Y-10897645D01*
X9765835Y-10898400D01*
X9765953Y-10898586D01*
X9766737Y-10900259D01*
X9768316Y-10905135D01*
X9768564Y-10906131D01*
X9768769Y-10907294D01*
X9768840Y-10907673D01*
X9768843Y-10907687D01*
X9768854Y-10907743D01*
X9768938Y-10908128D01*
X9771061Y-10917383D01*
X9771587Y-10919178D01*
X9771588Y-10919178D01*
X9771588Y-10919179D01*
X9771683Y-10919443D01*
X9772424Y-10921166D01*
X9772798Y-10921909D01*
X9773216Y-10927557D01*
X9769517Y-10931846D01*
X9768104Y-10932385D01*
X9759542Y-10934679D01*
X9759541Y-10934680D01*
X9750408Y-10939952D01*
X9742952Y-10947409D01*
X9737679Y-10956541D01*
X9737679Y-10956542D01*
X9734950Y-10966727D01*
X9734950Y-10977273D01*
X9737679Y-10987458D01*
X9737679Y-10987459D01*
X9741773Y-10994550D01*
X9742952Y-10996592D01*
X9750409Y-11004048D01*
X9759541Y-11009321D01*
X9769727Y-11012050D01*
X9769727Y-11012050D01*
X9769727Y-11012050D01*
X9780273Y-11012050D01*
X9782064Y-11011570D01*
X9783522Y-11011332D01*
X9785046Y-11011238D01*
X9790886Y-11009696D01*
X9791558Y-11009494D01*
X9791901Y-11009390D01*
X9791951Y-11009373D01*
X9792052Y-11009339D01*
X9793053Y-11008962D01*
X9798420Y-11006724D01*
X9799585Y-11006180D01*
X9799757Y-11006092D01*
X9800874Y-11005453D01*
X9808626Y-11000587D01*
X9808818Y-11000471D01*
X9815103Y-10996793D01*
X9816897Y-10996039D01*
X9818092Y-10995714D01*
X9819479Y-10995475D01*
X9824608Y-10995088D01*
X9824608Y-10995088D01*
X9824609Y-10995088D01*
X9825777Y-10994786D01*
X9827629Y-10994550D01*
X9846652Y-10994550D01*
X9846653Y-10994550D01*
X9847514Y-10994550D01*
X9856485Y-10994550D01*
X9856485Y-10994550D01*
X9862346Y-10992123D01*
X9864773Y-10991117D01*
X9871117Y-10984774D01*
X9871117Y-10984774D01*
X9872157Y-10983733D01*
X9872158Y-10983733D01*
X9907733Y-10948158D01*
X9907733Y-10948158D01*
X9908774Y-10947117D01*
X9908774Y-10947117D01*
X9915117Y-10940774D01*
X9916752Y-10936827D01*
X9918550Y-10932485D01*
X9918550Y-10923515D01*
X9918550Y-10922919D01*
X9918550Y-10922917D01*
X9918550Y-10854727D01*
X10139950Y-10854727D01*
X10139950Y-10865273D01*
X10142679Y-10875458D01*
X10142680Y-10875459D01*
X10147952Y-10884591D01*
X10155628Y-10892267D01*
X10157796Y-10897500D01*
X10155628Y-10902733D01*
X10147952Y-10910409D01*
X10142680Y-10919541D01*
X10142679Y-10919542D01*
X10139950Y-10929727D01*
X10139950Y-10940273D01*
X10142679Y-10950458D01*
X10142680Y-10950459D01*
X10146064Y-10956320D01*
X10147952Y-10959591D01*
X10155409Y-10967048D01*
X10164541Y-10972321D01*
X10174727Y-10975050D01*
X10174727Y-10975050D01*
X10174727Y-10975050D01*
X10185273Y-10975050D01*
X10185273Y-10975050D01*
X10195459Y-10972321D01*
X10204591Y-10967048D01*
X10212048Y-10959591D01*
X10217321Y-10950459D01*
X10220050Y-10940273D01*
X10220050Y-10940273D01*
X10220050Y-10929727D01*
X10220050Y-10929727D01*
X10220035Y-10929673D01*
X10217321Y-10919541D01*
X10212048Y-10910409D01*
X10204591Y-10902952D01*
X10204372Y-10902733D01*
X10202205Y-10897500D01*
X10204372Y-10892267D01*
X10208009Y-10888630D01*
X10212048Y-10884591D01*
X10216091Y-10877588D01*
X10220585Y-10874140D01*
X10226200Y-10874879D01*
X10228909Y-10877588D01*
X10232952Y-10884591D01*
X10240409Y-10892048D01*
X10249541Y-10897321D01*
X10259727Y-10900050D01*
X10259727Y-10900050D01*
X10259727Y-10900050D01*
X10270273Y-10900050D01*
X10270273Y-10900050D01*
X10280459Y-10897321D01*
X10289591Y-10892048D01*
X10297048Y-10884591D01*
X10302321Y-10875459D01*
X10305050Y-10865273D01*
X10305050Y-10865273D01*
X10305050Y-10854727D01*
X10305050Y-10854727D01*
X10302321Y-10844542D01*
X10302321Y-10844541D01*
X10297048Y-10835409D01*
X10289591Y-10827952D01*
X10282249Y-10823713D01*
X10280459Y-10822680D01*
X10280458Y-10822679D01*
X10270273Y-10819950D01*
X10270273Y-10819950D01*
X10259727Y-10819950D01*
X10259727Y-10819950D01*
X10249542Y-10822679D01*
X10249541Y-10822680D01*
X10240409Y-10827952D01*
X10232952Y-10835409D01*
X10228909Y-10842412D01*
X10224415Y-10845860D01*
X10218800Y-10845121D01*
X10216091Y-10842412D01*
X10213350Y-10837664D01*
X10212048Y-10835409D01*
X10204591Y-10827952D01*
X10197249Y-10823713D01*
X10195459Y-10822680D01*
X10195458Y-10822679D01*
X10185273Y-10819950D01*
X10185273Y-10819950D01*
X10174727Y-10819950D01*
X10174727Y-10819950D01*
X10164542Y-10822679D01*
X10164541Y-10822680D01*
X10155409Y-10827952D01*
X10147952Y-10835409D01*
X10142680Y-10844541D01*
X10142679Y-10844542D01*
X10139950Y-10854727D01*
X9918550Y-10854727D01*
X9918550Y-10792324D01*
X9918579Y-10791676D01*
X9918629Y-10791099D01*
X9919086Y-10789266D01*
X9919434Y-10781949D01*
X9919447Y-10781802D01*
X9919464Y-10781769D01*
X9919533Y-10781154D01*
X9920228Y-10777246D01*
X9920502Y-10776179D01*
X9922685Y-10769712D01*
X9922718Y-10769616D01*
X9925375Y-10762159D01*
X9925605Y-10761463D01*
X9925637Y-10761356D01*
X9925839Y-10760631D01*
X9928299Y-10750864D01*
X9928386Y-10750500D01*
X9928398Y-10750447D01*
X9928412Y-10749517D01*
X9928663Y-10747715D01*
X9929050Y-10746273D01*
X9929050Y-10735727D01*
X9929050Y-10735727D01*
X9929050Y-10735727D01*
X9928619Y-10734117D01*
X9926321Y-10725541D01*
X9921048Y-10716409D01*
X9913591Y-10708952D01*
X9913591Y-10708952D01*
X9911186Y-10707563D01*
X9907738Y-10703070D01*
X9908477Y-10697455D01*
X9911186Y-10694746D01*
X9917591Y-10691048D01*
X9925048Y-10683591D01*
X9930321Y-10674459D01*
X9933050Y-10664273D01*
X9933050Y-10664273D01*
X9933050Y-10653727D01*
X9933050Y-10653727D01*
X9932754Y-10652624D01*
X9930321Y-10643541D01*
X9925048Y-10634409D01*
X9917591Y-10626952D01*
X9917591Y-10626952D01*
X9917591Y-10626952D01*
X9915985Y-10626025D01*
X9914786Y-10625162D01*
X9913642Y-10624151D01*
X9913642Y-10624151D01*
X9913642Y-10624151D01*
X9913641Y-10624151D01*
X9908422Y-10621112D01*
X9907481Y-10620607D01*
X9907338Y-10620536D01*
X9906371Y-10620099D01*
X9900993Y-10617886D01*
X9899780Y-10617445D01*
X9899595Y-10617386D01*
X9898359Y-10617049D01*
X9898359Y-10617049D01*
X9898358Y-10617049D01*
X9895405Y-10616373D01*
X9889441Y-10615009D01*
X9889218Y-10614955D01*
X9882174Y-10613112D01*
X9880373Y-10612376D01*
X9879297Y-10611761D01*
X9878148Y-10610950D01*
X9874247Y-10607596D01*
X9874247Y-10607596D01*
X9873206Y-10606982D01*
X9871730Y-10605840D01*
X9852158Y-10586267D01*
X9852158Y-10586267D01*
X9844774Y-10578883D01*
X9844774Y-10578883D01*
X9844773Y-10578883D01*
X9842346Y-10577877D01*
X9842346Y-10577877D01*
X9836486Y-10575450D01*
X9827515Y-10575450D01*
X9826653Y-10575450D01*
X9826653Y-10575450D01*
X9315348Y-10575450D01*
X9315347Y-10575450D01*
X9314486Y-10575450D01*
X9305515Y-10575450D01*
X9300659Y-10577461D01*
X9300660Y-10577461D01*
X9297227Y-10578883D01*
X9297227Y-10578883D01*
X9290883Y-10585227D01*
X9266112Y-10609998D01*
X9265473Y-10610566D01*
X9265053Y-10610899D01*
X9263617Y-10611731D01*
X9260147Y-10614784D01*
X9259996Y-10614904D01*
X9259941Y-10614919D01*
X9259355Y-10615358D01*
X9258414Y-10615953D01*
X9256741Y-10616737D01*
X9251865Y-10618316D01*
X9250868Y-10618564D01*
X9250688Y-10618596D01*
X9249706Y-10618769D01*
X9249315Y-10618843D01*
X9249313Y-10618843D01*
X9249259Y-10618854D01*
X9249258Y-10618854D01*
X9249254Y-10618855D01*
X9248874Y-10618937D01*
X9239616Y-10621061D01*
X9237822Y-10621588D01*
X9237819Y-10621588D01*
X9237556Y-10621683D01*
X9237556Y-10621683D01*
X9235833Y-10622424D01*
X9225293Y-10627732D01*
X9224477Y-10628174D01*
X9224360Y-10628242D01*
X9224360Y-10628242D01*
X9223782Y-10628783D01*
X9222428Y-10629786D01*
X9220409Y-10630952D01*
X9212952Y-10638409D01*
X9207680Y-10647541D01*
X9207679Y-10647542D01*
X9204950Y-10657727D01*
X9204950Y-10668273D01*
X9207679Y-10678458D01*
X9207680Y-10678459D01*
X9209349Y-10681350D01*
X9209601Y-10683265D01*
X9210340Y-10685050D01*
X9209957Y-10685974D01*
X9210088Y-10686965D01*
X9208912Y-10688498D01*
X9208173Y-10690283D01*
X9207249Y-10690665D01*
X9206640Y-10691459D01*
X9202940Y-10692450D01*
X9200406Y-10692450D01*
X9195173Y-10690283D01*
X9166717Y-10661827D01*
X9164550Y-10656594D01*
X9164550Y-10469406D01*
X9166717Y-10464173D01*
X9190741Y-10440150D01*
X9192077Y-10439091D01*
X9193316Y-10438324D01*
X9204720Y-10427682D01*
X9205523Y-10427031D01*
X9216020Y-10419681D01*
X9216177Y-10419575D01*
X9222487Y-10415405D01*
X9223171Y-10414727D01*
X9224679Y-10413575D01*
X9225591Y-10413048D01*
X9233048Y-10405591D01*
X9238321Y-10396459D01*
X9241050Y-10386273D01*
X9241050Y-10386273D01*
X9241050Y-10375727D01*
X9241050Y-10375727D01*
X9238321Y-10365542D01*
X9238321Y-10365541D01*
X9233048Y-10356409D01*
X9225591Y-10348952D01*
X9216459Y-10343680D01*
X9216458Y-10343679D01*
X9206273Y-10340950D01*
X9206273Y-10340950D01*
X9195727Y-10340950D01*
X9195727Y-10340950D01*
X9185542Y-10343679D01*
X9185541Y-10343680D01*
X9176409Y-10348952D01*
X9168952Y-10356409D01*
X9163680Y-10365541D01*
X9163679Y-10365542D01*
X9160950Y-10375727D01*
X9160923Y-10375931D01*
X9160899Y-10376241D01*
X9160900Y-10376241D01*
X9160333Y-10386487D01*
X9160332Y-10388200D01*
X9160332Y-10388202D01*
X9160346Y-10388454D01*
X9160346Y-10388456D01*
X9160535Y-10390164D01*
X9161830Y-10397915D01*
X9161868Y-10398133D01*
X9162131Y-10399590D01*
X9160946Y-10405101D01*
X9160797Y-10405318D01*
X9159770Y-10406604D01*
X9159192Y-10407650D01*
X9158987Y-10407948D01*
X9158826Y-10408052D01*
X9158124Y-10408986D01*
X9129227Y-10437883D01*
X9122883Y-10444226D01*
X9122883Y-10444227D01*
X9119450Y-10452514D01*
X9119450Y-10462347D01*
X9119450Y-10462348D01*
X9119450Y-10663917D01*
X9119450Y-10663919D01*
X9119450Y-10673486D01*
X9121107Y-10677485D01*
X9121107Y-10677485D01*
X9122883Y-10681774D01*
X9130267Y-10689158D01*
X9130267Y-10689158D01*
X9168461Y-10727351D01*
X9168461Y-10727352D01*
X9168883Y-10727774D01*
X9175226Y-10734117D01*
X9183515Y-10737550D01*
X9412115Y-10737550D01*
X9417348Y-10739717D01*
X9419515Y-10744950D01*
X9417348Y-10750183D01*
X9410721Y-10756809D01*
X9408619Y-10760451D01*
X9408464Y-10760719D01*
X9407167Y-10762588D01*
X9406499Y-10764121D01*
X9406290Y-10764484D01*
X9406289Y-10764486D01*
X9405449Y-10765941D01*
X9405449Y-10765942D01*
X9405176Y-10766959D01*
X9404814Y-10767995D01*
X9404029Y-10769800D01*
X9403264Y-10771995D01*
X9403263Y-10771997D01*
X9403173Y-10772333D01*
X9402744Y-10774621D01*
X9402743Y-10774622D01*
X9402049Y-10780868D01*
X9399316Y-10785829D01*
X9394694Y-10787450D01*
X9356690Y-10787450D01*
X9354428Y-10788387D01*
X9351596Y-10788950D01*
X9328404Y-10788950D01*
X9325572Y-10788387D01*
X9323310Y-10787450D01*
X9314339Y-10787450D01*
X9313478Y-10787450D01*
X9313477Y-10787450D01*
X9137348Y-10787450D01*
X9137347Y-10787450D01*
X9136486Y-10787450D01*
X9127515Y-10787450D01*
X9123130Y-10789266D01*
X9119226Y-10790883D01*
X9119226Y-10790883D01*
X8804471Y-11105639D01*
X8803907Y-11106999D01*
X8801038Y-11113927D01*
X8801038Y-11123759D01*
X8801038Y-11123760D01*
X8801038Y-13349505D01*
X8801038Y-13349506D01*
X8801038Y-13359073D01*
X8802875Y-13363510D01*
X8804470Y-13367361D01*
X8804471Y-13367361D01*
X8811855Y-13374745D01*
X8811855Y-13374745D01*
X9216005Y-13778896D01*
X9218173Y-13784128D01*
X9218173Y-13891705D01*
X9216005Y-13896938D01*
X9210773Y-13899105D01*
X8920673Y-13899105D01*
X8915440Y-13896938D01*
X8913273Y-13891705D01*
X8913273Y-13611070D01*
X8913273Y-13611069D01*
X8913273Y-13601237D01*
X8913273Y-13601237D01*
X8910589Y-13594757D01*
X8909840Y-13592949D01*
X8903496Y-13586606D01*
X8903496Y-13586606D01*
X8599717Y-13282827D01*
X8597550Y-13277594D01*
X8597550Y-12275014D01*
X8625450Y-12275014D01*
X8625450Y-12283985D01*
X8625450Y-12283986D01*
X8625450Y-12284847D01*
X8625450Y-13263917D01*
X8625450Y-13263919D01*
X8625450Y-13273485D01*
X8627712Y-13278946D01*
X8628883Y-13281773D01*
X8636267Y-13289158D01*
X8636267Y-13289158D01*
X9030283Y-13683173D01*
X9032450Y-13688406D01*
X9032450Y-13715093D01*
X9032401Y-13715947D01*
X9032339Y-13716479D01*
X9031912Y-13718084D01*
X9031617Y-13722696D01*
X9031595Y-13722887D01*
X9031567Y-13722937D01*
X9031463Y-13723661D01*
X9031294Y-13724408D01*
X9031218Y-13724747D01*
X9030590Y-13726485D01*
X9028258Y-13731049D01*
X9027729Y-13731929D01*
X9027048Y-13732902D01*
X9026844Y-13733199D01*
X9026813Y-13733246D01*
X9026584Y-13733601D01*
X9021537Y-13741653D01*
X9020639Y-13743297D01*
X9020520Y-13743551D01*
X9019829Y-13745286D01*
X9019828Y-13745289D01*
X9019827Y-13745290D01*
X9018076Y-13750594D01*
X9016127Y-13756497D01*
X9015864Y-13757381D01*
X9015829Y-13757512D01*
X9015829Y-13757513D01*
X9015803Y-13758305D01*
X9015555Y-13759970D01*
X9014950Y-13762227D01*
X9014950Y-13772773D01*
X9017679Y-13782958D01*
X9017680Y-13782959D01*
X9021304Y-13789237D01*
X9022952Y-13792091D01*
X9030409Y-13799548D01*
X9039541Y-13804821D01*
X9049727Y-13807550D01*
X9049727Y-13807550D01*
X9049727Y-13807550D01*
X9060273Y-13807550D01*
X9060273Y-13807550D01*
X9070459Y-13804821D01*
X9079591Y-13799548D01*
X9087048Y-13792091D01*
X9092321Y-13782959D01*
X9095050Y-13772773D01*
X9095050Y-13772773D01*
X9095050Y-13762227D01*
X9094839Y-13761438D01*
X9094570Y-13760436D01*
X9094332Y-13758978D01*
X9094238Y-13757454D01*
X9092696Y-13751613D01*
X9092389Y-13750596D01*
X9092338Y-13750444D01*
X9092338Y-13750443D01*
X9091962Y-13749449D01*
X9089724Y-13744079D01*
X9089179Y-13742911D01*
X9089090Y-13742739D01*
X9088453Y-13741624D01*
X9085034Y-13736178D01*
X9083589Y-13733876D01*
X9083474Y-13733687D01*
X9079792Y-13727397D01*
X9079039Y-13725603D01*
X9078713Y-13724407D01*
X9078475Y-13723021D01*
X9078315Y-13720906D01*
X9078088Y-13717892D01*
X9077785Y-13716722D01*
X9077550Y-13714871D01*
X9077550Y-13671514D01*
X9077550Y-13671514D01*
X9074117Y-13663227D01*
X9074117Y-13663226D01*
X9067352Y-13656461D01*
X9067351Y-13656461D01*
X8672717Y-13261827D01*
X8670550Y-13256594D01*
X8670550Y-12876397D01*
X8672717Y-12871165D01*
X8677950Y-12868997D01*
X8683183Y-12871165D01*
X8684359Y-12872697D01*
X8685452Y-12874591D01*
X8692909Y-12882048D01*
X8702041Y-12887321D01*
X8712227Y-12890050D01*
X8712227Y-12890050D01*
X8712227Y-12890050D01*
X8722773Y-12890050D01*
X8722773Y-12890050D01*
X8732959Y-12887321D01*
X8742091Y-12882048D01*
X8749548Y-12874591D01*
X8754821Y-12865459D01*
X8757550Y-12855273D01*
X8757550Y-12855273D01*
X8757550Y-12844727D01*
X8757550Y-12844727D01*
X8756728Y-12841659D01*
X8754821Y-12834541D01*
X8749548Y-12825409D01*
X8742091Y-12817952D01*
X8735711Y-12814268D01*
X8732959Y-12812679D01*
X8732958Y-12812679D01*
X8722773Y-12809950D01*
X8722773Y-12809950D01*
X8712227Y-12809950D01*
X8712227Y-12809950D01*
X8702042Y-12812679D01*
X8702041Y-12812679D01*
X8692909Y-12817952D01*
X8685452Y-12825408D01*
X8684359Y-12827303D01*
X8679865Y-12830750D01*
X8674250Y-12830011D01*
X8670802Y-12825518D01*
X8670550Y-12823602D01*
X8670550Y-12291906D01*
X8672717Y-12286673D01*
X8723733Y-12235658D01*
X8723733Y-12235657D01*
X8724774Y-12234617D01*
X8724774Y-12234617D01*
X8731117Y-12228274D01*
X8732539Y-12224840D01*
X8734550Y-12219985D01*
X8734550Y-12211014D01*
X8734550Y-12210419D01*
X8734550Y-12210417D01*
X8734550Y-12063406D01*
X8734599Y-12062553D01*
X8734661Y-12062021D01*
X8735088Y-12060416D01*
X8735383Y-12055803D01*
X8735405Y-12055614D01*
X8735433Y-12055564D01*
X8735537Y-12054839D01*
X8735782Y-12053752D01*
X8736411Y-12052015D01*
X8736444Y-12051950D01*
X8736877Y-12051102D01*
X8738741Y-12047452D01*
X8739271Y-12046570D01*
X8739951Y-12045601D01*
X8740175Y-12045272D01*
X8740176Y-12045270D01*
X8740179Y-12045265D01*
X8740212Y-12045215D01*
X8740422Y-12044890D01*
X8745463Y-12036848D01*
X8746359Y-12035205D01*
X8746479Y-12034951D01*
X8747173Y-12033210D01*
X8748876Y-12028051D01*
X8750872Y-12022004D01*
X8751135Y-12021123D01*
X8751135Y-12021121D01*
X8751171Y-12020987D01*
X8751197Y-12020196D01*
X8751445Y-12018530D01*
X8752050Y-12016273D01*
X8752050Y-12005727D01*
X8752050Y-12005727D01*
X8752050Y-12005727D01*
X8749321Y-11995542D01*
X8749321Y-11995541D01*
X8744048Y-11986409D01*
X8736591Y-11978952D01*
X8727459Y-11973679D01*
X8727458Y-11973679D01*
X8717273Y-11970950D01*
X8717273Y-11970950D01*
X8706727Y-11970950D01*
X8706727Y-11970950D01*
X8696542Y-11973679D01*
X8696541Y-11973679D01*
X8687409Y-11978952D01*
X8679952Y-11986409D01*
X8674680Y-11995541D01*
X8674679Y-11995542D01*
X8671950Y-12005727D01*
X8671950Y-12016273D01*
X8672430Y-12018063D01*
X8672668Y-12019521D01*
X8672762Y-12021045D01*
X8674305Y-12026887D01*
X8674610Y-12027901D01*
X8674660Y-12028051D01*
X8675038Y-12029052D01*
X8677276Y-12034421D01*
X8677819Y-12035585D01*
X8677909Y-12035758D01*
X8678547Y-12036874D01*
X8683411Y-12044624D01*
X8683530Y-12044820D01*
X8687207Y-12051102D01*
X8687961Y-12052897D01*
X8688286Y-12054092D01*
X8688525Y-12055479D01*
X8688912Y-12060608D01*
X8689215Y-12061777D01*
X8689450Y-12063629D01*
X8689450Y-12203094D01*
X8687283Y-12208327D01*
X8660992Y-12234617D01*
X8635227Y-12260383D01*
X8635226Y-12260383D01*
X8628883Y-12266726D01*
X8628883Y-12266726D01*
X8625450Y-12275014D01*
X8597550Y-12275014D01*
X8597550Y-12215078D01*
X8597735Y-12213435D01*
X8598075Y-12211939D01*
X8598075Y-12211938D01*
X8598494Y-12196679D01*
X8598499Y-12196485D01*
X8598499Y-12196465D01*
X8598500Y-12196393D01*
X8598630Y-12183865D01*
X8598595Y-12182653D01*
X8598583Y-12182472D01*
X8598454Y-12181268D01*
X8596083Y-12165082D01*
X8596028Y-12164734D01*
X8596019Y-12164679D01*
X8595402Y-12163119D01*
X8595135Y-12162313D01*
X8593321Y-12155541D01*
X8588048Y-12146409D01*
X8580591Y-12138952D01*
X8571459Y-12133679D01*
X8571458Y-12133679D01*
X8561273Y-12130950D01*
X8561273Y-12130950D01*
X8550727Y-12130950D01*
X8550727Y-12130950D01*
X8540542Y-12133679D01*
X8540541Y-12133679D01*
X8531409Y-12138952D01*
X8523952Y-12146409D01*
X8518680Y-12155541D01*
X8518679Y-12155542D01*
X8515950Y-12165727D01*
X8515950Y-12176273D01*
X8518679Y-12186458D01*
X8518679Y-12186458D01*
X8518679Y-12186459D01*
X8523952Y-12195591D01*
X8531409Y-12203048D01*
X8534043Y-12204569D01*
X8534842Y-12205102D01*
X8536443Y-12206328D01*
X8536443Y-12206328D01*
X8545017Y-12210546D01*
X8545904Y-12210948D01*
X8545983Y-12210981D01*
X8546038Y-12211004D01*
X8546943Y-12211348D01*
X8547464Y-12211528D01*
X8551703Y-12215284D01*
X8552450Y-12218523D01*
X8552450Y-12316579D01*
X8550283Y-12321811D01*
X8545050Y-12323979D01*
X8543135Y-12323726D01*
X8542959Y-12323679D01*
X8532773Y-12320950D01*
X8522227Y-12320950D01*
X8522227Y-12320950D01*
X8512042Y-12323679D01*
X8512041Y-12323679D01*
X8502909Y-12328952D01*
X8495452Y-12336409D01*
X8490180Y-12345541D01*
X8490179Y-12345542D01*
X8487450Y-12355727D01*
X8487450Y-12366273D01*
X8490179Y-12376458D01*
X8490180Y-12376459D01*
X8495452Y-12385591D01*
X8502909Y-12393048D01*
X8505324Y-12394443D01*
X8506200Y-12395036D01*
X8507737Y-12396244D01*
X8516721Y-12400811D01*
X8517392Y-12401133D01*
X8517393Y-12401133D01*
X8517395Y-12401134D01*
X8517490Y-12401177D01*
X8517492Y-12401177D01*
X8517493Y-12401178D01*
X8517925Y-12401360D01*
X8521904Y-12405389D01*
X8522450Y-12408179D01*
X8522450Y-13304917D01*
X8522450Y-13304919D01*
X8522450Y-13305514D01*
X8522450Y-13314485D01*
X8523377Y-13316722D01*
X8524503Y-13319442D01*
X8525883Y-13322773D01*
X8525883Y-13322774D01*
X8533267Y-13330158D01*
X8533267Y-13330158D01*
X8816005Y-13612896D01*
X8818173Y-13618128D01*
X8818173Y-13891705D01*
X8816005Y-13896938D01*
X8810773Y-13899105D01*
X8772436Y-13899105D01*
X8767203Y-13896938D01*
X8765036Y-13891705D01*
X8765111Y-13890652D01*
X8765550Y-13887601D01*
X8765550Y-13887600D01*
X8765550Y-13618636D01*
X8765461Y-13616974D01*
X8765178Y-13614338D01*
X8763870Y-13610163D01*
X8763365Y-13608549D01*
X8763364Y-13608547D01*
X8760016Y-13602416D01*
X8759314Y-13601478D01*
X8757364Y-13598873D01*
X8702127Y-13543636D01*
X8700889Y-13542524D01*
X8698825Y-13540860D01*
X8698825Y-13540860D01*
X8698824Y-13540860D01*
X8693449Y-13538048D01*
X8686745Y-13536080D01*
X8682364Y-13535450D01*
X8682364Y-13535450D01*
X8552011Y-13535450D01*
X8552009Y-13535450D01*
X8550350Y-13535539D01*
X8550348Y-13535539D01*
X8547713Y-13535822D01*
X8541924Y-13537635D01*
X8541923Y-13537636D01*
X8535791Y-13540984D01*
X8532247Y-13543637D01*
X8492635Y-13583249D01*
X8491525Y-13584485D01*
X8489860Y-13586550D01*
X8487048Y-13591926D01*
X8485080Y-13598630D01*
X8484450Y-13603011D01*
X8484450Y-13778435D01*
X8482283Y-13783668D01*
X8477050Y-13785835D01*
X8472945Y-13784592D01*
X8469466Y-13782272D01*
X8469465Y-13782272D01*
X8453100Y-13775505D01*
X8435730Y-13772054D01*
X8435730Y-13772054D01*
X8435728Y-13772054D01*
X8426876Y-13772055D01*
X8426875Y-13772055D01*
X8424173Y-13772055D01*
X8418940Y-13769888D01*
X8418632Y-13769143D01*
X8416773Y-13764655D01*
X8416773Y-12014490D01*
X8451854Y-12014490D01*
X8573229Y-12014490D01*
X8573229Y-10914727D01*
X8848950Y-10914727D01*
X8848950Y-10925273D01*
X8851679Y-10935458D01*
X8851680Y-10935459D01*
X8856638Y-10944048D01*
X8856952Y-10944591D01*
X8864409Y-10952048D01*
X8873541Y-10957321D01*
X8883727Y-10960050D01*
X8883727Y-10960050D01*
X8883727Y-10960050D01*
X8894273Y-10960050D01*
X8894273Y-10960050D01*
X8904459Y-10957321D01*
X8913591Y-10952048D01*
X8921048Y-10944591D01*
X8926321Y-10935459D01*
X8929050Y-10925273D01*
X8929050Y-10925273D01*
X8929050Y-10914727D01*
X8929050Y-10914727D01*
X8928782Y-10913727D01*
X8926321Y-10904541D01*
X8921048Y-10895409D01*
X8913591Y-10887952D01*
X8907770Y-10884591D01*
X8904459Y-10882680D01*
X8904458Y-10882679D01*
X8894273Y-10879950D01*
X8894273Y-10879950D01*
X8883727Y-10879950D01*
X8883727Y-10879950D01*
X8873542Y-10882679D01*
X8873541Y-10882680D01*
X8864409Y-10887952D01*
X8856952Y-10895409D01*
X8851680Y-10904541D01*
X8851679Y-10904542D01*
X8848950Y-10914727D01*
X8573229Y-10914727D01*
X8573229Y-10682676D01*
X8451854Y-10682676D01*
X8451854Y-12014490D01*
X8416773Y-12014490D01*
X8416773Y-10410727D01*
X9029950Y-10410727D01*
X9029950Y-10421273D01*
X9032679Y-10431458D01*
X9032679Y-10431459D01*
X9032679Y-10431459D01*
X9037952Y-10440591D01*
X9045409Y-10448048D01*
X9054541Y-10453321D01*
X9064727Y-10456050D01*
X9064727Y-10456050D01*
X9064727Y-10456050D01*
X9075273Y-10456050D01*
X9075273Y-10456050D01*
X9085459Y-10453321D01*
X9094591Y-10448048D01*
X9102048Y-10440591D01*
X9107321Y-10431459D01*
X9110050Y-10421273D01*
X9110050Y-10421273D01*
X9110050Y-10410727D01*
X9110050Y-10410727D01*
X9108542Y-10405101D01*
X9107321Y-10400541D01*
X9102048Y-10391409D01*
X9094591Y-10383952D01*
X9085459Y-10378680D01*
X9085458Y-10378679D01*
X9075273Y-10375950D01*
X9075273Y-10375950D01*
X9064727Y-10375950D01*
X9064727Y-10375950D01*
X9054542Y-10378679D01*
X9054541Y-10378680D01*
X9045409Y-10383952D01*
X9037952Y-10391409D01*
X9032680Y-10400541D01*
X9032679Y-10400542D01*
X9029950Y-10410727D01*
X8416773Y-10410727D01*
X8416773Y-10114094D01*
X8446950Y-10114094D01*
X8446950Y-10129906D01*
X8451042Y-10145178D01*
X8451042Y-10145178D01*
X8451042Y-10145178D01*
X8458948Y-10158872D01*
X8470128Y-10170052D01*
X8483822Y-10177958D01*
X8499094Y-10182050D01*
X8499094Y-10182050D01*
X8499094Y-10182050D01*
X8514906Y-10182050D01*
X8514906Y-10182050D01*
X8530178Y-10177958D01*
X8543872Y-10170052D01*
X8555052Y-10158872D01*
X8562958Y-10145178D01*
X8567050Y-10129906D01*
X8567050Y-10129906D01*
X8567050Y-10114094D01*
X8567050Y-10114094D01*
X8562958Y-10098822D01*
X8562958Y-10098822D01*
X8555052Y-10085128D01*
X8543872Y-10073948D01*
X8530178Y-10066042D01*
X8530178Y-10066042D01*
X8530178Y-10066042D01*
X8514906Y-10061950D01*
X8514906Y-10061950D01*
X8499094Y-10061950D01*
X8499094Y-10061950D01*
X8483822Y-10066042D01*
X8483821Y-10066042D01*
X8470128Y-10073948D01*
X8458948Y-10085128D01*
X8451042Y-10098821D01*
X8451042Y-10098822D01*
X8446950Y-10114094D01*
X8416773Y-10114094D01*
X8416773Y-10052691D01*
X8416864Y-10051533D01*
X8417566Y-10047102D01*
X8418282Y-10044900D01*
X8420051Y-10041428D01*
X8421412Y-10039556D01*
X8424168Y-10036800D01*
X8426040Y-10035440D01*
X8429513Y-10033670D01*
X8431714Y-10032956D01*
X8436194Y-10032246D01*
X8437350Y-10032155D01*
X8441481Y-10032156D01*
X8441481Y-10032156D01*
X8442075Y-10032156D01*
X8442079Y-10032155D01*
X9277423Y-10032155D01*
X9282655Y-10034323D01*
G37*
%TD.AperFunction*%
%TA.AperFunction,Conductor*%
G36*
X9245927Y-10834717D02*
G01*
X9248094Y-10839950D01*
X9245927Y-10845183D01*
X8880883Y-11210226D01*
X8880883Y-11210226D01*
X8877450Y-11218514D01*
X8877450Y-11228347D01*
X8877450Y-11228347D01*
X8877450Y-12924917D01*
X8877450Y-12924919D01*
X8877450Y-12934486D01*
X8879877Y-12940346D01*
X8880883Y-12942773D01*
X8880883Y-12942774D01*
X8888267Y-12950158D01*
X8888267Y-12950158D01*
X9055283Y-13117173D01*
X9057450Y-13122406D01*
X9057450Y-13315093D01*
X9057401Y-13315947D01*
X9057339Y-13316479D01*
X9056912Y-13318084D01*
X9056617Y-13322696D01*
X9056595Y-13322887D01*
X9056567Y-13322937D01*
X9056463Y-13323661D01*
X9056294Y-13324408D01*
X9056218Y-13324747D01*
X9055590Y-13326485D01*
X9053258Y-13331049D01*
X9052729Y-13331929D01*
X9052048Y-13332902D01*
X9051844Y-13333199D01*
X9051813Y-13333246D01*
X9051584Y-13333601D01*
X9046537Y-13341653D01*
X9045639Y-13343297D01*
X9045520Y-13343551D01*
X9044829Y-13345286D01*
X9044828Y-13345289D01*
X9044827Y-13345290D01*
X9043076Y-13350594D01*
X9041127Y-13356497D01*
X9040864Y-13357381D01*
X9040829Y-13357512D01*
X9040829Y-13357513D01*
X9040803Y-13358305D01*
X9040555Y-13359970D01*
X9039950Y-13362227D01*
X9039950Y-13372773D01*
X9042679Y-13382958D01*
X9042680Y-13382959D01*
X9046298Y-13389226D01*
X9047952Y-13392091D01*
X9055409Y-13399548D01*
X9064541Y-13404821D01*
X9074727Y-13407550D01*
X9074727Y-13407550D01*
X9074727Y-13407550D01*
X9085273Y-13407550D01*
X9085273Y-13407550D01*
X9095459Y-13404821D01*
X9104591Y-13399548D01*
X9112048Y-13392091D01*
X9117321Y-13382959D01*
X9120050Y-13372773D01*
X9120050Y-13372773D01*
X9120050Y-13362227D01*
X9119981Y-13361971D01*
X9119570Y-13360436D01*
X9119332Y-13358978D01*
X9119290Y-13358305D01*
X9119238Y-13357454D01*
X9117696Y-13351613D01*
X9117389Y-13350596D01*
X9117338Y-13350444D01*
X9117338Y-13350443D01*
X9116962Y-13349449D01*
X9114724Y-13344079D01*
X9114179Y-13342911D01*
X9114090Y-13342739D01*
X9113453Y-13341624D01*
X9111565Y-13338617D01*
X9108589Y-13333876D01*
X9108474Y-13333687D01*
X9104792Y-13327397D01*
X9104039Y-13325603D01*
X9103713Y-13324407D01*
X9103475Y-13323021D01*
X9103456Y-13322773D01*
X9103088Y-13317892D01*
X9102785Y-13316722D01*
X9102550Y-13314871D01*
X9102550Y-13105514D01*
X9102550Y-13105514D01*
X9099117Y-13097227D01*
X9099117Y-13097226D01*
X8924717Y-12922827D01*
X8922550Y-12917594D01*
X8922550Y-11235406D01*
X8924717Y-11230173D01*
X9265423Y-10889467D01*
X9270656Y-10887300D01*
X9454239Y-10887300D01*
X9459472Y-10889467D01*
X9461639Y-10894700D01*
X9460648Y-10898400D01*
X9457680Y-10903541D01*
X9457679Y-10903542D01*
X9454950Y-10913727D01*
X9454950Y-10924273D01*
X9457679Y-10934458D01*
X9457680Y-10934459D01*
X9460851Y-10939952D01*
X9462952Y-10943591D01*
X9470409Y-10951048D01*
X9479541Y-10956321D01*
X9489727Y-10959050D01*
X9489727Y-10959050D01*
X9489727Y-10959050D01*
X9500273Y-10959050D01*
X9501785Y-10958645D01*
X9502451Y-10958466D01*
X9503718Y-10958243D01*
X9505457Y-10958090D01*
X9519899Y-10953873D01*
X9520715Y-10953610D01*
X9520731Y-10953604D01*
X9520836Y-10953567D01*
X9521310Y-10953385D01*
X9521628Y-10953263D01*
X9524551Y-10952048D01*
X9524923Y-10951905D01*
X9531599Y-10949547D01*
X9533350Y-10949159D01*
X9544495Y-10948080D01*
X9545455Y-10947816D01*
X9547420Y-10947550D01*
X9610571Y-10947550D01*
X9611448Y-10947602D01*
X9611975Y-10947665D01*
X9613553Y-10948088D01*
X9617933Y-10948376D01*
X9618129Y-10948400D01*
X9618181Y-10948429D01*
X9618921Y-10948538D01*
X9619752Y-10948731D01*
X9621540Y-10949397D01*
X9625634Y-10951560D01*
X9626608Y-10952176D01*
X9627894Y-10953138D01*
X9628235Y-10953385D01*
X9628254Y-10953399D01*
X9628284Y-10953420D01*
X9628491Y-10953563D01*
X9628604Y-10953640D01*
X9630606Y-10954981D01*
X9630830Y-10955131D01*
X9632981Y-10957346D01*
X9634411Y-10959624D01*
X9634530Y-10959820D01*
X9638207Y-10966102D01*
X9638961Y-10967897D01*
X9639286Y-10969092D01*
X9639525Y-10970479D01*
X9639912Y-10975608D01*
X9640215Y-10976777D01*
X9640450Y-10978629D01*
X9640450Y-11040514D01*
X9640450Y-11040515D01*
X9640450Y-11049486D01*
X9641471Y-11051950D01*
X9641879Y-11052936D01*
X9641879Y-11052936D01*
X9643883Y-11057773D01*
X9643883Y-11057774D01*
X9651267Y-11065158D01*
X9651267Y-11065158D01*
X9749883Y-11163774D01*
X9749883Y-11163774D01*
X9756226Y-11170117D01*
X9764515Y-11173550D01*
X9773515Y-11173550D01*
X9782515Y-11173550D01*
X10080594Y-11173550D01*
X10085827Y-11175717D01*
X10189283Y-11279173D01*
X10191450Y-11284406D01*
X10191450Y-11786594D01*
X10189283Y-11791827D01*
X10143883Y-11837226D01*
X10143883Y-11837226D01*
X10140450Y-11845514D01*
X10140450Y-11855347D01*
X10140450Y-11855347D01*
X10140450Y-13099594D01*
X10138283Y-13104827D01*
X9875905Y-13367204D01*
X9870673Y-13369371D01*
X9865440Y-13367204D01*
X9863273Y-13361971D01*
X9863273Y-13293683D01*
X9865440Y-13288450D01*
X10029233Y-13124658D01*
X10029233Y-13124657D01*
X10030274Y-13123617D01*
X10030274Y-13123617D01*
X10036617Y-13117274D01*
X10040050Y-13108985D01*
X10040050Y-11791906D01*
X10042217Y-11786673D01*
X10090889Y-11738001D01*
X10091527Y-11737434D01*
X10091946Y-11737101D01*
X10093383Y-11736269D01*
X10096854Y-11733215D01*
X10097004Y-11733096D01*
X10097058Y-11733081D01*
X10097644Y-11732642D01*
X10098587Y-11732046D01*
X10100259Y-11731263D01*
X10105135Y-11729683D01*
X10106131Y-11729436D01*
X10107292Y-11729231D01*
X10107681Y-11729158D01*
X10107740Y-11729146D01*
X10108132Y-11729061D01*
X10117384Y-11726939D01*
X10119182Y-11726411D01*
X10119446Y-11726315D01*
X10121166Y-11725576D01*
X10131706Y-11720268D01*
X10132514Y-11719831D01*
X10132634Y-11719761D01*
X10133213Y-11719220D01*
X10134566Y-11718217D01*
X10136591Y-11717048D01*
X10144048Y-11709591D01*
X10149321Y-11700459D01*
X10152050Y-11690273D01*
X10152050Y-11690273D01*
X10152050Y-11679727D01*
X10152050Y-11679727D01*
X10152027Y-11679641D01*
X10149321Y-11669541D01*
X10144048Y-11660409D01*
X10136591Y-11652952D01*
X10127459Y-11647679D01*
X10127458Y-11647679D01*
X10117273Y-11644950D01*
X10117273Y-11644950D01*
X10106727Y-11644950D01*
X10106727Y-11644950D01*
X10096542Y-11647679D01*
X10096541Y-11647679D01*
X10087409Y-11652952D01*
X10079952Y-11660409D01*
X10079025Y-11662014D01*
X10078162Y-11663214D01*
X10077151Y-11664358D01*
X10075631Y-11666969D01*
X10074134Y-11669541D01*
X10074111Y-11669580D01*
X10073606Y-11670521D01*
X10073536Y-11670662D01*
X10073098Y-11671630D01*
X10070886Y-11677005D01*
X10070446Y-11678215D01*
X10070388Y-11678397D01*
X10070049Y-11679642D01*
X10068009Y-11688561D01*
X10067954Y-11688784D01*
X10066112Y-11695826D01*
X10065376Y-11697627D01*
X10064761Y-11698703D01*
X10063950Y-11699851D01*
X10060596Y-11703753D01*
X10060596Y-11703753D01*
X10060596Y-11703754D01*
X10059983Y-11704794D01*
X10058840Y-11706269D01*
X10004851Y-11760258D01*
X10004850Y-11760259D01*
X10004727Y-11760383D01*
X10004726Y-11760383D01*
X9998383Y-11766726D01*
X9998383Y-11766726D01*
X9997890Y-11767917D01*
X9997890Y-11767918D01*
X9994950Y-11775014D01*
X9994950Y-11784847D01*
X9994950Y-11784847D01*
X9994950Y-13092094D01*
X9992783Y-13097327D01*
X9821606Y-13268503D01*
X9821606Y-13268504D01*
X9820744Y-13270584D01*
X9818173Y-13276792D01*
X9818173Y-13286624D01*
X9818173Y-13286625D01*
X9818173Y-13891705D01*
X9816005Y-13896938D01*
X9810773Y-13899105D01*
X9470673Y-13899105D01*
X9465440Y-13896938D01*
X9463273Y-13891705D01*
X9463273Y-13844183D01*
X9465440Y-13838950D01*
X9767913Y-13536477D01*
X9770249Y-13534692D01*
X9774220Y-13530182D01*
X9774269Y-13530122D01*
X9775117Y-13529274D01*
X9775117Y-13529273D01*
X9775251Y-13529072D01*
X9775737Y-13528179D01*
X9775735Y-13528177D01*
X9775759Y-13528139D01*
X9775778Y-13528104D01*
X9775814Y-13528051D01*
X9778737Y-13523416D01*
X9779674Y-13521700D01*
X9779798Y-13521434D01*
X9780509Y-13519621D01*
X9783685Y-13509756D01*
X9783780Y-13509450D01*
X9783794Y-13509403D01*
X9783887Y-13509083D01*
X9785551Y-13503056D01*
X9786019Y-13501809D01*
X9786068Y-13501707D01*
X9790086Y-13494015D01*
X9790703Y-13492108D01*
X9790923Y-13491652D01*
X9790991Y-13491591D01*
X9791179Y-13491169D01*
X9791212Y-13491112D01*
X9793321Y-13487459D01*
X9796050Y-13477273D01*
X9796050Y-13466727D01*
X9796050Y-13466727D01*
X9796050Y-13466727D01*
X9793321Y-13456542D01*
X9793321Y-13456541D01*
X9788048Y-13447409D01*
X9780591Y-13439952D01*
X9780471Y-13439882D01*
X9771459Y-13434679D01*
X9771458Y-13434679D01*
X9761273Y-13431950D01*
X9761273Y-13431950D01*
X9750727Y-13431950D01*
X9750727Y-13431950D01*
X9740542Y-13434679D01*
X9740541Y-13434679D01*
X9731409Y-13439952D01*
X9723952Y-13447409D01*
X9718680Y-13456541D01*
X9718679Y-13456542D01*
X9715950Y-13466727D01*
X9715950Y-13477273D01*
X9717095Y-13481545D01*
X9717169Y-13481822D01*
X9717571Y-13483969D01*
X9718094Y-13485274D01*
X9718208Y-13485701D01*
X9718209Y-13485702D01*
X9718679Y-13487459D01*
X9718679Y-13487459D01*
X9719366Y-13488649D01*
X9719826Y-13489594D01*
X9720434Y-13491111D01*
X9720435Y-13491112D01*
X9721523Y-13493307D01*
X9721617Y-13493465D01*
X9721711Y-13493622D01*
X9723130Y-13495618D01*
X9728743Y-13502329D01*
X9730438Y-13507733D01*
X9728300Y-13512309D01*
X9427949Y-13812660D01*
X9425905Y-13814704D01*
X9420673Y-13816871D01*
X9415440Y-13814704D01*
X9413273Y-13809471D01*
X9413273Y-13681683D01*
X9415440Y-13676450D01*
X9714877Y-13377013D01*
X9720110Y-13374846D01*
X9724796Y-13376519D01*
X9728049Y-13379181D01*
X9728050Y-13379181D01*
X9728480Y-13379502D01*
X9729179Y-13380023D01*
X9729179Y-13380023D01*
X9729180Y-13380024D01*
X9729280Y-13380091D01*
X9729354Y-13380141D01*
X9730556Y-13380878D01*
X9735026Y-13383346D01*
X9735026Y-13383346D01*
X9735026Y-13383346D01*
X9735028Y-13383347D01*
X9736409Y-13384023D01*
X9736410Y-13384023D01*
X9736410Y-13384023D01*
X9736623Y-13384115D01*
X9738073Y-13384653D01*
X9738076Y-13384654D01*
X9738076Y-13384654D01*
X9742195Y-13385955D01*
X9742198Y-13385956D01*
X9743001Y-13386186D01*
X9743123Y-13386217D01*
X9743935Y-13386240D01*
X9745636Y-13386489D01*
X9747727Y-13387050D01*
X9758273Y-13387050D01*
X9758273Y-13387050D01*
X9768459Y-13384321D01*
X9777591Y-13379048D01*
X9785048Y-13371591D01*
X9790321Y-13362459D01*
X9793050Y-13352273D01*
X9793050Y-13352273D01*
X9793050Y-13341727D01*
X9793050Y-13341727D01*
X9793030Y-13341653D01*
X9790321Y-13331541D01*
X9785048Y-13322409D01*
X9777591Y-13314952D01*
X9772467Y-13311993D01*
X9768459Y-13309679D01*
X9768458Y-13309679D01*
X9758273Y-13306950D01*
X9758273Y-13306950D01*
X9747727Y-13306950D01*
X9747727Y-13306950D01*
X9737542Y-13309679D01*
X9737541Y-13309679D01*
X9733533Y-13311993D01*
X9732009Y-13312657D01*
X9730795Y-13313031D01*
X9719316Y-13319223D01*
X9718479Y-13319609D01*
X9715799Y-13320649D01*
X9715399Y-13320810D01*
X9715342Y-13320834D01*
X9714963Y-13320999D01*
X9705921Y-13325085D01*
X9704157Y-13326023D01*
X9704011Y-13326113D01*
X9704011Y-13326113D01*
X9703901Y-13326181D01*
X9703293Y-13326613D01*
X9702654Y-13326877D01*
X9700226Y-13327883D01*
X9694298Y-13333811D01*
X9693975Y-13334073D01*
X9693964Y-13334082D01*
X9692172Y-13335538D01*
X9691549Y-13336071D01*
X9691461Y-13336150D01*
X9690633Y-13337324D01*
X9689819Y-13338290D01*
X9378116Y-13649994D01*
X9378115Y-13649994D01*
X9377949Y-13650160D01*
X9377949Y-13650160D01*
X9371606Y-13656504D01*
X9371383Y-13657042D01*
X9370913Y-13658177D01*
X9370913Y-13658177D01*
X9368173Y-13664792D01*
X9368173Y-13674624D01*
X9368173Y-13674625D01*
X9368173Y-13891705D01*
X9366005Y-13896938D01*
X9360773Y-13899105D01*
X9320673Y-13899105D01*
X9315440Y-13896938D01*
X9313273Y-13891705D01*
X9313273Y-13668570D01*
X9313273Y-13668569D01*
X9313273Y-13658737D01*
X9311044Y-13653356D01*
X9309840Y-13650449D01*
X9303075Y-13643684D01*
X9303074Y-13643684D01*
X9213717Y-13554327D01*
X9211550Y-13549094D01*
X9211550Y-13042014D01*
X9211550Y-13042014D01*
X9208117Y-13033727D01*
X9208117Y-13033726D01*
X9201352Y-13026961D01*
X9201351Y-13026961D01*
X8998717Y-12824327D01*
X8996550Y-12819094D01*
X8996550Y-12625069D01*
X9020950Y-12625069D01*
X9020950Y-12636931D01*
X9024020Y-12648388D01*
X9024020Y-12648389D01*
X9029951Y-12658661D01*
X9031057Y-12659768D01*
X9033225Y-12665000D01*
X9031057Y-12670232D01*
X9029951Y-12671339D01*
X9024020Y-12681611D01*
X9024020Y-12681612D01*
X9020950Y-12693069D01*
X9020950Y-12704931D01*
X9024020Y-12716388D01*
X9024020Y-12716389D01*
X9029951Y-12726661D01*
X9029951Y-12726661D01*
X9029951Y-12726661D01*
X9038339Y-12735049D01*
X9038339Y-12735049D01*
X9038339Y-12735049D01*
X9048257Y-12740775D01*
X9048611Y-12740980D01*
X9048612Y-12740980D01*
X9048612Y-12740980D01*
X9051027Y-12741627D01*
X9060069Y-12744050D01*
X9060069Y-12744050D01*
X9060069Y-12744050D01*
X9071931Y-12744050D01*
X9071931Y-12744050D01*
X9083389Y-12740980D01*
X9093661Y-12735049D01*
X9094267Y-12734443D01*
X9094826Y-12733953D01*
X9094937Y-12733849D01*
X9094937Y-12733849D01*
X9101258Y-12727931D01*
X9103344Y-12725662D01*
X9103561Y-12725387D01*
X9105285Y-12722830D01*
X9109299Y-12715786D01*
X9113773Y-12712313D01*
X9115728Y-12712050D01*
X9148446Y-12712050D01*
X9153679Y-12714217D01*
X9193975Y-12754514D01*
X9196142Y-12759746D01*
X9193975Y-12764978D01*
X9193733Y-12765220D01*
X9193733Y-12765221D01*
X9187275Y-12776405D01*
X9187275Y-12776406D01*
X9183931Y-12788879D01*
X9183931Y-12788879D01*
X9183931Y-12801794D01*
X9187272Y-12814268D01*
X9193728Y-12825453D01*
X9193728Y-12825453D01*
X9195269Y-12826994D01*
X9195269Y-12826994D01*
X9195590Y-12827316D01*
X9195591Y-12827317D01*
X9198285Y-12830011D01*
X9198294Y-12830020D01*
X9198294Y-12830020D01*
X9202376Y-12834102D01*
X9202379Y-12834105D01*
X9205367Y-12837093D01*
X9209933Y-12841659D01*
X9221118Y-12848116D01*
X9233593Y-12851459D01*
X9246508Y-12851459D01*
X9258983Y-12848116D01*
X9270168Y-12841659D01*
X9270411Y-12841415D01*
X9275644Y-12839248D01*
X9280876Y-12841415D01*
X9331783Y-12892321D01*
X9333950Y-12897554D01*
X9333950Y-13271262D01*
X9332937Y-13273708D01*
X9332056Y-13276205D01*
X9331867Y-13276290D01*
X9331783Y-13276494D01*
X9326948Y-13278651D01*
X9326769Y-13278661D01*
X9325841Y-13278666D01*
X9322211Y-13278887D01*
X9321744Y-13278931D01*
X9321594Y-13278939D01*
X9321573Y-13278932D01*
X9321196Y-13278950D01*
X9321069Y-13278950D01*
X9320802Y-13279021D01*
X9320677Y-13279038D01*
X9320446Y-13279069D01*
X9320020Y-13279231D01*
X9319654Y-13279329D01*
X9319654Y-13279329D01*
X9309612Y-13282020D01*
X9309611Y-13282020D01*
X9299339Y-13287951D01*
X9290951Y-13296339D01*
X9285020Y-13306611D01*
X9285020Y-13306612D01*
X9281950Y-13318069D01*
X9281950Y-13329931D01*
X9285020Y-13341388D01*
X9285020Y-13341389D01*
X9290951Y-13351661D01*
X9290951Y-13351661D01*
X9290951Y-13351661D01*
X9299339Y-13360049D01*
X9299339Y-13360049D01*
X9299339Y-13360049D01*
X9309611Y-13365980D01*
X9309611Y-13365980D01*
X9309612Y-13365980D01*
X9309612Y-13365980D01*
X9314767Y-13367361D01*
X9321069Y-13369050D01*
X9321069Y-13369050D01*
X9321069Y-13369050D01*
X9332931Y-13369050D01*
X9332931Y-13369050D01*
X9344389Y-13365980D01*
X9354661Y-13360049D01*
X9363049Y-13351661D01*
X9363049Y-13351661D01*
X9363344Y-13351277D01*
X9363355Y-13351285D01*
X9363617Y-13350913D01*
X9364012Y-13350446D01*
X9364209Y-13350287D01*
X9371222Y-13341919D01*
X9371228Y-13341916D01*
X9371889Y-13341227D01*
X9374649Y-13338713D01*
X9374658Y-13338705D01*
X9374687Y-13338678D01*
X9374743Y-13338627D01*
X9374753Y-13338617D01*
X9374840Y-13338536D01*
X9375956Y-13337495D01*
X9378400Y-13336581D01*
X9380779Y-13335509D01*
X9381019Y-13335600D01*
X9381260Y-13335510D01*
X9386075Y-13337516D01*
X9387103Y-13338483D01*
X9387104Y-13338484D01*
X9391866Y-13342966D01*
X9392573Y-13343732D01*
X9395518Y-13347414D01*
X9397495Y-13349887D01*
X9397718Y-13350121D01*
X9397695Y-13350142D01*
X9398636Y-13351292D01*
X9398656Y-13351277D01*
X9398951Y-13351661D01*
X9398951Y-13351661D01*
X9398951Y-13351661D01*
X9407339Y-13360049D01*
X9407339Y-13360049D01*
X9407339Y-13360049D01*
X9417611Y-13365980D01*
X9417611Y-13365980D01*
X9417612Y-13365980D01*
X9417612Y-13365980D01*
X9422767Y-13367361D01*
X9429069Y-13369050D01*
X9429069Y-13369050D01*
X9429069Y-13369050D01*
X9440931Y-13369050D01*
X9440931Y-13369050D01*
X9452389Y-13365980D01*
X9462661Y-13360049D01*
X9471049Y-13351661D01*
X9476980Y-13341389D01*
X9480050Y-13329931D01*
X9480050Y-13329931D01*
X9480050Y-13318069D01*
X9480050Y-13318069D01*
X9480002Y-13317891D01*
X9477891Y-13310013D01*
X9476980Y-13306612D01*
X9476980Y-13306611D01*
X9471049Y-13296339D01*
X9471049Y-13296339D01*
X9471049Y-13296339D01*
X9462661Y-13287951D01*
X9462661Y-13287951D01*
X9462661Y-13287951D01*
X9452389Y-13282020D01*
X9452388Y-13282020D01*
X9440931Y-13278950D01*
X9440931Y-13278950D01*
X9438254Y-13278950D01*
X9438232Y-13278946D01*
X9437814Y-13278950D01*
X9435450Y-13278950D01*
X9430217Y-13276783D01*
X9428050Y-13271550D01*
X9428050Y-12863719D01*
X9428050Y-12863719D01*
X9426070Y-12856331D01*
X9426070Y-12856331D01*
X9422246Y-12849707D01*
X9420655Y-12848116D01*
X9416837Y-12844298D01*
X9416837Y-12844298D01*
X9196293Y-12623754D01*
X9195534Y-12623316D01*
X9189669Y-12619930D01*
X9189668Y-12619929D01*
X9182281Y-12617950D01*
X9182281Y-12617950D01*
X9115756Y-12617950D01*
X9110523Y-12615783D01*
X9109282Y-12614134D01*
X9105973Y-12608154D01*
X9104913Y-12606444D01*
X9104784Y-12606256D01*
X9103565Y-12604660D01*
X9103565Y-12604660D01*
X9103564Y-12604659D01*
X9100338Y-12600838D01*
X9099026Y-12599425D01*
X9099025Y-12599424D01*
X9098869Y-12599271D01*
X9097437Y-12597992D01*
X9097436Y-12597991D01*
X9096495Y-12597226D01*
X9093840Y-12595070D01*
X9093116Y-12594508D01*
X9093115Y-12594507D01*
X9093114Y-12594507D01*
X9093032Y-12594446D01*
X9093032Y-12594445D01*
X9092314Y-12594126D01*
X9091623Y-12593774D01*
X9083389Y-12589020D01*
X9083388Y-12589020D01*
X9071931Y-12585950D01*
X9071931Y-12585950D01*
X9060069Y-12585950D01*
X9060069Y-12585950D01*
X9048612Y-12589020D01*
X9048611Y-12589020D01*
X9038339Y-12594951D01*
X9029951Y-12603339D01*
X9024020Y-12613611D01*
X9024020Y-12613612D01*
X9020950Y-12625069D01*
X8996550Y-12625069D01*
X8996550Y-11780406D01*
X8998717Y-11775173D01*
X9079233Y-11694658D01*
X9079233Y-11694657D01*
X9080274Y-11693617D01*
X9080274Y-11693617D01*
X9086617Y-11687274D01*
X9089417Y-11680514D01*
X9090050Y-11678985D01*
X9090050Y-11670014D01*
X9090050Y-11670014D01*
X9090050Y-11344727D01*
X9134950Y-11344727D01*
X9134950Y-11355273D01*
X9137679Y-11365458D01*
X9137679Y-11365458D01*
X9137679Y-11365459D01*
X9142952Y-11374591D01*
X9150409Y-11382048D01*
X9159541Y-11387321D01*
X9169727Y-11390050D01*
X9169727Y-11390050D01*
X9169727Y-11390050D01*
X9180273Y-11390050D01*
X9182064Y-11389570D01*
X9183522Y-11389332D01*
X9185046Y-11389238D01*
X9190887Y-11387695D01*
X9191558Y-11387493D01*
X9191901Y-11387390D01*
X9191952Y-11387373D01*
X9192053Y-11387339D01*
X9193053Y-11386962D01*
X9198420Y-11384724D01*
X9199586Y-11384180D01*
X9199757Y-11384091D01*
X9200875Y-11383453D01*
X9208626Y-11378587D01*
X9208818Y-11378471D01*
X9215103Y-11374792D01*
X9216897Y-11374039D01*
X9218092Y-11373714D01*
X9219479Y-11373475D01*
X9224608Y-11373087D01*
X9224609Y-11373087D01*
X9224609Y-11373087D01*
X9225777Y-11372785D01*
X9227629Y-11372550D01*
X9810094Y-11372550D01*
X9815327Y-11374717D01*
X9875283Y-11434673D01*
X9877450Y-11439906D01*
X9877450Y-12992594D01*
X9875283Y-12997827D01*
X9613612Y-13259497D01*
X9612973Y-13260066D01*
X9612553Y-13260399D01*
X9611117Y-13261231D01*
X9607647Y-13264284D01*
X9607496Y-13264404D01*
X9607441Y-13264419D01*
X9606855Y-13264858D01*
X9605914Y-13265453D01*
X9604241Y-13266237D01*
X9599365Y-13267816D01*
X9598368Y-13268064D01*
X9598188Y-13268096D01*
X9597206Y-13268268D01*
X9596815Y-13268343D01*
X9596813Y-13268343D01*
X9596759Y-13268354D01*
X9596758Y-13268354D01*
X9596754Y-13268355D01*
X9596374Y-13268437D01*
X9587116Y-13270561D01*
X9585322Y-13271087D01*
X9585319Y-13271088D01*
X9585056Y-13271183D01*
X9585056Y-13271183D01*
X9583333Y-13271924D01*
X9572793Y-13277232D01*
X9571977Y-13277674D01*
X9571860Y-13277742D01*
X9571860Y-13277742D01*
X9571282Y-13278282D01*
X9569928Y-13279286D01*
X9567909Y-13280452D01*
X9560452Y-13287909D01*
X9555180Y-13297041D01*
X9555179Y-13297042D01*
X9552450Y-13307227D01*
X9552450Y-13317773D01*
X9555179Y-13327958D01*
X9555180Y-13327959D01*
X9559525Y-13335485D01*
X9560452Y-13337091D01*
X9567909Y-13344548D01*
X9577041Y-13349821D01*
X9587227Y-13352550D01*
X9587227Y-13352550D01*
X9587227Y-13352550D01*
X9597773Y-13352550D01*
X9597773Y-13352550D01*
X9607959Y-13349821D01*
X9617091Y-13344548D01*
X9624548Y-13337091D01*
X9625475Y-13335485D01*
X9626338Y-13334286D01*
X9627349Y-13333142D01*
X9630388Y-13327921D01*
X9630891Y-13326985D01*
X9630962Y-13326842D01*
X9631401Y-13325871D01*
X9633614Y-13320493D01*
X9634055Y-13319280D01*
X9634114Y-13319096D01*
X9634451Y-13317858D01*
X9636492Y-13308936D01*
X9636544Y-13308723D01*
X9638388Y-13301674D01*
X9639123Y-13299874D01*
X9639740Y-13298796D01*
X9640551Y-13297648D01*
X9643904Y-13293747D01*
X9644517Y-13292706D01*
X9645659Y-13291231D01*
X9911733Y-13025158D01*
X9911733Y-13025157D01*
X9912774Y-13024117D01*
X9912774Y-13024117D01*
X9919117Y-13017774D01*
X9920539Y-13014340D01*
X9922550Y-13009485D01*
X9922550Y-13000514D01*
X9922550Y-12999919D01*
X9922550Y-12999917D01*
X9922550Y-11432847D01*
X9922550Y-11432847D01*
X9922550Y-11423015D01*
X9919614Y-11415926D01*
X9919117Y-11414726D01*
X9919117Y-11414726D01*
X9912774Y-11408383D01*
X9912773Y-11408383D01*
X9842658Y-11338267D01*
X9842658Y-11338267D01*
X9835274Y-11330883D01*
X9835274Y-11330883D01*
X9832846Y-11329877D01*
X9832846Y-11329877D01*
X9832846Y-11329877D01*
X9826986Y-11327450D01*
X9818015Y-11327450D01*
X9817153Y-11327450D01*
X9817153Y-11327450D01*
X9227407Y-11327450D01*
X9226553Y-11327401D01*
X9226021Y-11327339D01*
X9224416Y-11326912D01*
X9219803Y-11326617D01*
X9219613Y-11326595D01*
X9219564Y-11326567D01*
X9218839Y-11326463D01*
X9217752Y-11326218D01*
X9216015Y-11325589D01*
X9216009Y-11325586D01*
X9212637Y-11323864D01*
X9211452Y-11323259D01*
X9210571Y-11322729D01*
X9209605Y-11322052D01*
X9209605Y-11322052D01*
X9209603Y-11322051D01*
X9209246Y-11321808D01*
X9209201Y-11321778D01*
X9209025Y-11321665D01*
X9208892Y-11321579D01*
X9200849Y-11316537D01*
X9199205Y-11315640D01*
X9199202Y-11315639D01*
X9198950Y-11315520D01*
X9198949Y-11315520D01*
X9197212Y-11314828D01*
X9197211Y-11314827D01*
X9197210Y-11314827D01*
X9186003Y-11311127D01*
X9186003Y-11311127D01*
X9186001Y-11311127D01*
X9185123Y-11310865D01*
X9185122Y-11310865D01*
X9185121Y-11310865D01*
X9185044Y-11310844D01*
X9184987Y-11310829D01*
X9184195Y-11310802D01*
X9182529Y-11310554D01*
X9180273Y-11309950D01*
X9180273Y-11309950D01*
X9169727Y-11309950D01*
X9169727Y-11309950D01*
X9159542Y-11312679D01*
X9159541Y-11312679D01*
X9150409Y-11317952D01*
X9142952Y-11325409D01*
X9137680Y-11334541D01*
X9137679Y-11334542D01*
X9134950Y-11344727D01*
X9090050Y-11344727D01*
X9090050Y-11343906D01*
X9092217Y-11338673D01*
X9146173Y-11284717D01*
X9151406Y-11282550D01*
X10009594Y-11282550D01*
X10014827Y-11284717D01*
X10047998Y-11317888D01*
X10048566Y-11318527D01*
X10048899Y-11318947D01*
X10049731Y-11320383D01*
X10052785Y-11323853D01*
X10052904Y-11324004D01*
X10052919Y-11324058D01*
X10053358Y-11324644D01*
X10053841Y-11325409D01*
X10053953Y-11325586D01*
X10054737Y-11327259D01*
X10055911Y-11330883D01*
X10056316Y-11332134D01*
X10056564Y-11333131D01*
X10056769Y-11334294D01*
X10056840Y-11334672D01*
X10056843Y-11334687D01*
X10056854Y-11334742D01*
X10056938Y-11335128D01*
X10059061Y-11344383D01*
X10059587Y-11346177D01*
X10059588Y-11346178D01*
X10059588Y-11346179D01*
X10059683Y-11346443D01*
X10060424Y-11348166D01*
X10060425Y-11348167D01*
X10060425Y-11348167D01*
X10065732Y-11358706D01*
X10066169Y-11359513D01*
X10066237Y-11359631D01*
X10066237Y-11359631D01*
X10066779Y-11360211D01*
X10067781Y-11361564D01*
X10068952Y-11363591D01*
X10076409Y-11371048D01*
X10085541Y-11376321D01*
X10095727Y-11379050D01*
X10095727Y-11379050D01*
X10095727Y-11379050D01*
X10106273Y-11379050D01*
X10106273Y-11379050D01*
X10116459Y-11376321D01*
X10125591Y-11371048D01*
X10133048Y-11363591D01*
X10138321Y-11354459D01*
X10141050Y-11344273D01*
X10141050Y-11344273D01*
X10141050Y-11333727D01*
X10141050Y-11333727D01*
X10140754Y-11332624D01*
X10138321Y-11323541D01*
X10133048Y-11314409D01*
X10125591Y-11306952D01*
X10125591Y-11306952D01*
X10125591Y-11306952D01*
X10123985Y-11306025D01*
X10122786Y-11305162D01*
X10121642Y-11304151D01*
X10121642Y-11304151D01*
X10121642Y-11304151D01*
X10121641Y-11304151D01*
X10116422Y-11301112D01*
X10115481Y-11300607D01*
X10115338Y-11300536D01*
X10114371Y-11300099D01*
X10108993Y-11297886D01*
X10107780Y-11297445D01*
X10107595Y-11297386D01*
X10106359Y-11297049D01*
X10106359Y-11297049D01*
X10106358Y-11297049D01*
X10103405Y-11296373D01*
X10097441Y-11295009D01*
X10097218Y-11294955D01*
X10090174Y-11293112D01*
X10088373Y-11292376D01*
X10087297Y-11291761D01*
X10086148Y-11290950D01*
X10082247Y-11287596D01*
X10082247Y-11287596D01*
X10081206Y-11286982D01*
X10079730Y-11285840D01*
X10042158Y-11248267D01*
X10042158Y-11248267D01*
X10034774Y-11240883D01*
X10034774Y-11240883D01*
X10034773Y-11240883D01*
X10032346Y-11239877D01*
X10032346Y-11239877D01*
X10026486Y-11237450D01*
X10017515Y-11237450D01*
X10016653Y-11237450D01*
X10016653Y-11237450D01*
X9144348Y-11237450D01*
X9144347Y-11237450D01*
X9143486Y-11237450D01*
X9134515Y-11237450D01*
X9129659Y-11239461D01*
X9129660Y-11239461D01*
X9126227Y-11240883D01*
X9126227Y-11240883D01*
X9119883Y-11247226D01*
X9048383Y-11318726D01*
X9047377Y-11321154D01*
X9047377Y-11321154D01*
X9044993Y-11326912D01*
X9044950Y-11327015D01*
X9044950Y-11336847D01*
X9044950Y-11336847D01*
X9044950Y-11662094D01*
X9042783Y-11667327D01*
X8954883Y-11755226D01*
X8954883Y-11755226D01*
X8951450Y-11763514D01*
X8951450Y-11773347D01*
X8951450Y-11773347D01*
X8951450Y-12826417D01*
X8951450Y-12826419D01*
X8951450Y-12835985D01*
X8953029Y-12839797D01*
X8953029Y-12839797D01*
X8954883Y-12844273D01*
X8962267Y-12851658D01*
X8962267Y-12851658D01*
X9164283Y-13053673D01*
X9166450Y-13058906D01*
X9166450Y-13556417D01*
X9166450Y-13556419D01*
X9166450Y-13557014D01*
X9166450Y-13565985D01*
X9167498Y-13568516D01*
X9169883Y-13574273D01*
X9169883Y-13574274D01*
X9177267Y-13581658D01*
X9177267Y-13581658D01*
X9266005Y-13670396D01*
X9268173Y-13675628D01*
X9268173Y-13749417D01*
X9267027Y-13752184D01*
X9266006Y-13754649D01*
X9266005Y-13754649D01*
X9266005Y-13754650D01*
X9263838Y-13755547D01*
X9260773Y-13756817D01*
X9260773Y-13756817D01*
X9260773Y-13756817D01*
X9255540Y-13754650D01*
X9255540Y-13754649D01*
X9253496Y-13752606D01*
X9253496Y-13752606D01*
X8848305Y-13347414D01*
X8846138Y-13342182D01*
X8846138Y-11130818D01*
X8848305Y-11125586D01*
X9139173Y-10834717D01*
X9144406Y-10832550D01*
X9240694Y-10832550D01*
X9245927Y-10834717D01*
G37*
%TD.AperFunction*%
%TA.AperFunction,Conductor*%
G36*
X9975905Y-13546545D02*
G01*
X9976409Y-13547048D01*
X9985541Y-13552321D01*
X9995727Y-13555050D01*
X9995727Y-13555050D01*
X9995727Y-13555050D01*
X10006273Y-13555050D01*
X10006273Y-13555050D01*
X10016459Y-13552321D01*
X10017331Y-13551817D01*
X10022946Y-13551078D01*
X10027439Y-13554525D01*
X10028179Y-13560140D01*
X10028179Y-13560141D01*
X10026950Y-13564727D01*
X10026950Y-13575273D01*
X10027430Y-13577063D01*
X10027668Y-13578521D01*
X10027762Y-13580045D01*
X10029305Y-13585887D01*
X10029610Y-13586901D01*
X10029660Y-13587051D01*
X10030038Y-13588052D01*
X10032276Y-13593421D01*
X10032819Y-13594585D01*
X10032909Y-13594758D01*
X10033547Y-13595874D01*
X10038411Y-13603624D01*
X10038530Y-13603820D01*
X10042207Y-13610102D01*
X10042961Y-13611897D01*
X10043286Y-13613092D01*
X10043525Y-13614479D01*
X10043912Y-13619608D01*
X10044215Y-13620777D01*
X10044450Y-13622629D01*
X10044450Y-13664917D01*
X10044450Y-13664919D01*
X10044450Y-13674486D01*
X10046877Y-13680346D01*
X10047883Y-13682773D01*
X10047883Y-13682774D01*
X10055267Y-13690158D01*
X10055267Y-13690158D01*
X10166005Y-13800896D01*
X10168173Y-13806128D01*
X10168173Y-13891705D01*
X10166005Y-13896938D01*
X10160773Y-13899105D01*
X10141305Y-13899105D01*
X10136072Y-13896938D01*
X10134047Y-13893149D01*
X10133385Y-13889817D01*
X10133384Y-13889817D01*
X10126591Y-13873415D01*
X10116728Y-13858654D01*
X10104174Y-13846101D01*
X10089413Y-13836238D01*
X10089413Y-13836237D01*
X10089412Y-13836237D01*
X10089413Y-13836237D01*
X10073012Y-13829444D01*
X10073011Y-13829444D01*
X10058646Y-13826586D01*
X10055599Y-13825980D01*
X10037846Y-13825980D01*
X10034799Y-13826586D01*
X10020435Y-13829444D01*
X10020434Y-13829444D01*
X10004033Y-13836237D01*
X9989271Y-13846101D01*
X9989271Y-13846101D01*
X9976718Y-13858654D01*
X9976488Y-13858935D01*
X9976343Y-13858816D01*
X9972115Y-13861640D01*
X9966560Y-13860533D01*
X9963415Y-13855823D01*
X9963273Y-13854382D01*
X9963273Y-13551777D01*
X9965440Y-13546545D01*
X9970673Y-13544377D01*
X9975905Y-13546545D01*
G37*
%TD.AperFunction*%
%TA.AperFunction,Conductor*%
G36*
X9824827Y-10622717D02*
G01*
X9839998Y-10637888D01*
X9840566Y-10638527D01*
X9840899Y-10638947D01*
X9841731Y-10640383D01*
X9844785Y-10643854D01*
X9844904Y-10644004D01*
X9844919Y-10644058D01*
X9845358Y-10644645D01*
X9845845Y-10645415D01*
X9845953Y-10645586D01*
X9846737Y-10647259D01*
X9848316Y-10652135D01*
X9848564Y-10653131D01*
X9848769Y-10654294D01*
X9848840Y-10654673D01*
X9848843Y-10654687D01*
X9848854Y-10654743D01*
X9848938Y-10655128D01*
X9851061Y-10664383D01*
X9851587Y-10666178D01*
X9851588Y-10666178D01*
X9851588Y-10666179D01*
X9851683Y-10666443D01*
X9852424Y-10668166D01*
X9852425Y-10668167D01*
X9852425Y-10668168D01*
X9857732Y-10678706D01*
X9858169Y-10679514D01*
X9858237Y-10679631D01*
X9858237Y-10679631D01*
X9858779Y-10680211D01*
X9859781Y-10681564D01*
X9860952Y-10683591D01*
X9868409Y-10691048D01*
X9870814Y-10692437D01*
X9874262Y-10696930D01*
X9873523Y-10702545D01*
X9870814Y-10705254D01*
X9864409Y-10708952D01*
X9856952Y-10716409D01*
X9851680Y-10725541D01*
X9851679Y-10725542D01*
X9848950Y-10735727D01*
X9848950Y-10746273D01*
X9851679Y-10756458D01*
X9851680Y-10756459D01*
X9856878Y-10765464D01*
X9856978Y-10765642D01*
X9857070Y-10765812D01*
X9864844Y-10775186D01*
X9865383Y-10775801D01*
X9865469Y-10775894D01*
X9865956Y-10776396D01*
X9866029Y-10776471D01*
X9867893Y-10778292D01*
X9867998Y-10778397D01*
X9870387Y-10780833D01*
X9871184Y-10781796D01*
X9871245Y-10781884D01*
X9872176Y-10783736D01*
X9872187Y-10783767D01*
X9872550Y-10785515D01*
X9872914Y-10789867D01*
X9872914Y-10789867D01*
X9872915Y-10789867D01*
X9873184Y-10790883D01*
X9873203Y-10790956D01*
X9873450Y-10792851D01*
X9873450Y-10915594D01*
X9871283Y-10920827D01*
X9864604Y-10927506D01*
X9859371Y-10929673D01*
X9854139Y-10927506D01*
X9851971Y-10922273D01*
X9852223Y-10920358D01*
X9853050Y-10917273D01*
X9853050Y-10917273D01*
X9853050Y-10906727D01*
X9853050Y-10906727D01*
X9852754Y-10905624D01*
X9850321Y-10896541D01*
X9845048Y-10887409D01*
X9837591Y-10879952D01*
X9837591Y-10879952D01*
X9837591Y-10879952D01*
X9835985Y-10879025D01*
X9834786Y-10878162D01*
X9833642Y-10877151D01*
X9833642Y-10877151D01*
X9833642Y-10877151D01*
X9833641Y-10877151D01*
X9828422Y-10874112D01*
X9827481Y-10873607D01*
X9827338Y-10873536D01*
X9826371Y-10873099D01*
X9820993Y-10870886D01*
X9819780Y-10870445D01*
X9819595Y-10870386D01*
X9818359Y-10870049D01*
X9818359Y-10870049D01*
X9818358Y-10870049D01*
X9815405Y-10869373D01*
X9809441Y-10868009D01*
X9809218Y-10867955D01*
X9802174Y-10866112D01*
X9800373Y-10865376D01*
X9799297Y-10864761D01*
X9798148Y-10863950D01*
X9794247Y-10860596D01*
X9794247Y-10860596D01*
X9793206Y-10859982D01*
X9791730Y-10858840D01*
X9785908Y-10853017D01*
X9785908Y-10853017D01*
X9778524Y-10845633D01*
X9775888Y-10844541D01*
X9770748Y-10842412D01*
X9770236Y-10842200D01*
X9761265Y-10842200D01*
X9760403Y-10842200D01*
X9760403Y-10842200D01*
X9554305Y-10842200D01*
X9549072Y-10840033D01*
X9546905Y-10834800D01*
X9549072Y-10829567D01*
X9552048Y-10826591D01*
X9557321Y-10817459D01*
X9560050Y-10807273D01*
X9560050Y-10807273D01*
X9560050Y-10796727D01*
X9559570Y-10794936D01*
X9559332Y-10793478D01*
X9559238Y-10791954D01*
X9557696Y-10786113D01*
X9557389Y-10785096D01*
X9557338Y-10784944D01*
X9557338Y-10784943D01*
X9556962Y-10783949D01*
X9554724Y-10778579D01*
X9554179Y-10777412D01*
X9554090Y-10777239D01*
X9553453Y-10776124D01*
X9550860Y-10771995D01*
X9548589Y-10768376D01*
X9548474Y-10768187D01*
X9544792Y-10761897D01*
X9544039Y-10760103D01*
X9543713Y-10758907D01*
X9543475Y-10757522D01*
X9543395Y-10756458D01*
X9543088Y-10752392D01*
X9542785Y-10751222D01*
X9542550Y-10749371D01*
X9542550Y-10735515D01*
X9542550Y-10735514D01*
X9539117Y-10727227D01*
X9539117Y-10727226D01*
X9532774Y-10720883D01*
X9515158Y-10703267D01*
X9515158Y-10703267D01*
X9507774Y-10695883D01*
X9507774Y-10695883D01*
X9505346Y-10694877D01*
X9505346Y-10694877D01*
X9505346Y-10694877D01*
X9499486Y-10692450D01*
X9490515Y-10692450D01*
X9489653Y-10692450D01*
X9489653Y-10692450D01*
X9287592Y-10692450D01*
X9282359Y-10690283D01*
X9280192Y-10685050D01*
X9281197Y-10681327D01*
X9281486Y-10680830D01*
X9282888Y-10678421D01*
X9283391Y-10677485D01*
X9283462Y-10677342D01*
X9283901Y-10676371D01*
X9286114Y-10670993D01*
X9286555Y-10669780D01*
X9286614Y-10669596D01*
X9286951Y-10668359D01*
X9288992Y-10659436D01*
X9289044Y-10659223D01*
X9290888Y-10652174D01*
X9291623Y-10650374D01*
X9292240Y-10649296D01*
X9293051Y-10648148D01*
X9296404Y-10644247D01*
X9297017Y-10643206D01*
X9298159Y-10641731D01*
X9317173Y-10622717D01*
X9322406Y-10620550D01*
X9819594Y-10620550D01*
X9824827Y-10622717D01*
G37*
%TD.AperFunction*%
%TD*%
%TA.AperFunction,Conductor*%
%TO.N,Ref_CLK_SEL*%
G36*
X9657813Y-10901916D02*
G01*
X9658354Y-10902629D01*
X9658369Y-10902693D01*
X9663053Y-10925767D01*
X9663053Y-10926233D01*
X9658370Y-10949299D01*
X9657870Y-10950042D01*
X9656991Y-10950213D01*
X9656920Y-10950196D01*
X9651038Y-10948613D01*
X9650875Y-10948556D01*
X9645506Y-10946220D01*
X9645322Y-10946120D01*
X9637255Y-10940719D01*
X9637205Y-10940684D01*
X9634483Y-10938649D01*
X9626166Y-10934254D01*
X9621558Y-10933188D01*
X9620615Y-10932969D01*
X9620615Y-10932969D01*
X9620614Y-10932969D01*
X9614574Y-10932572D01*
X9613771Y-10932176D01*
X9613480Y-10931404D01*
X9613480Y-10918590D01*
X9613823Y-10917763D01*
X9614568Y-10917423D01*
X9621883Y-10916907D01*
X9628154Y-10915313D01*
X9637474Y-10910241D01*
X9645034Y-10905762D01*
X9645188Y-10905686D01*
X9650710Y-10903431D01*
X9650855Y-10903382D01*
X9656926Y-10901794D01*
X9657813Y-10901916D01*
G37*
%TD.AperFunction*%
%TD*%
%TA.AperFunction,Conductor*%
%TO.N,Ref_CLK_SEL*%
G36*
X9509823Y-10898922D02*
G01*
X9509875Y-10898960D01*
X9515860Y-10903488D01*
X9515945Y-10903559D01*
X9520981Y-10908185D01*
X9520979Y-10908188D01*
X9520988Y-10908192D01*
X9524066Y-10911066D01*
X9531218Y-10915621D01*
X9536659Y-10917015D01*
X9542961Y-10917428D01*
X9543764Y-10917824D01*
X9544055Y-10918596D01*
X9544055Y-10931438D01*
X9543712Y-10932265D01*
X9542997Y-10932602D01*
X9529062Y-10933951D01*
X9519158Y-10937450D01*
X9519157Y-10937451D01*
X9515661Y-10938903D01*
X9515540Y-10938946D01*
X9501099Y-10943163D01*
X9500208Y-10943066D01*
X9499648Y-10942368D01*
X9499624Y-10942274D01*
X9494997Y-10919480D01*
X9495169Y-10918601D01*
X9508199Y-10899239D01*
X9508945Y-10898744D01*
X9509823Y-10898922D01*
G37*
%TD.AperFunction*%
%TD*%
%TA.AperFunction,Conductor*%
%TO.N,Net-(U5-A)*%
G36*
X9177797Y-10376380D02*
G01*
X9200590Y-10380835D01*
X9201336Y-10381330D01*
X9201341Y-10381337D01*
X9214242Y-10400810D01*
X9214414Y-10401689D01*
X9213913Y-10402432D01*
X9213912Y-10402433D01*
X9207351Y-10406769D01*
X9195286Y-10415216D01*
X9182706Y-10426956D01*
X9181868Y-10427269D01*
X9181081Y-10426927D01*
X9172013Y-10417860D01*
X9171670Y-10417032D01*
X9171926Y-10416303D01*
X9176072Y-10411105D01*
X9178060Y-10405768D01*
X9178128Y-10400666D01*
X9177168Y-10395355D01*
X9175873Y-10387602D01*
X9175859Y-10387346D01*
X9176406Y-10377464D01*
X9176794Y-10376657D01*
X9177639Y-10376360D01*
X9177797Y-10376380D01*
G37*
%TD.AperFunction*%
%TD*%
%TA.AperFunction,Conductor*%
%TO.N,Net-(U5-A)*%
G36*
X9527242Y-10752823D02*
G01*
X9527582Y-10753562D01*
X9528134Y-10760877D01*
X9529835Y-10767125D01*
X9535231Y-10776345D01*
X9540282Y-10784392D01*
X9540371Y-10784564D01*
X9542610Y-10789932D01*
X9542661Y-10790083D01*
X9544203Y-10795924D01*
X9544083Y-10796811D01*
X9543371Y-10797354D01*
X9543305Y-10797369D01*
X9520233Y-10802053D01*
X9519767Y-10802053D01*
X9496772Y-10797385D01*
X9496029Y-10796884D01*
X9495858Y-10796005D01*
X9495894Y-10795871D01*
X9499593Y-10784665D01*
X9499712Y-10784411D01*
X9504758Y-10776362D01*
X9504784Y-10776322D01*
X9506380Y-10774045D01*
X9510751Y-10765486D01*
X9512031Y-10759810D01*
X9512430Y-10753576D01*
X9512825Y-10752772D01*
X9513598Y-10752480D01*
X9526415Y-10752480D01*
X9527242Y-10752823D01*
G37*
%TD.AperFunction*%
%TD*%
%TA.AperFunction,Conductor*%
%TO.N,+3.3V*%
G36*
X8576638Y-13720737D02*
G01*
X8580287Y-13727991D01*
X8584248Y-13735589D01*
X8588608Y-13741735D01*
X8595622Y-13749409D01*
X8574409Y-13770622D01*
X8562531Y-13760487D01*
X8552992Y-13755287D01*
X8551883Y-13754756D01*
X8536111Y-13745787D01*
X8549929Y-13724929D01*
X8570787Y-13711111D01*
X8576638Y-13720737D01*
G37*
%TD.AperFunction*%
%TD*%
%TA.AperFunction,Conductor*%
%TO.N,+3.3V*%
G36*
X8657071Y-13788780D02*
G01*
X8656597Y-13801993D01*
X8655723Y-13822098D01*
X8625723Y-13822098D01*
X8625165Y-13813953D01*
X8623537Y-13808209D01*
X8620906Y-13803729D01*
X8617340Y-13799377D01*
X8609213Y-13788889D01*
X8630000Y-13774900D01*
X8654520Y-13770123D01*
X8657071Y-13788780D01*
G37*
%TD.AperFunction*%
%TD*%
%TA.AperFunction,Conductor*%
%TO.N,+3.3V*%
G36*
X8710000Y-13774900D02*
G01*
X8730787Y-13788889D01*
X8727346Y-13793158D01*
X8723747Y-13796266D01*
X8716633Y-13800377D01*
X8711925Y-13802963D01*
X8707539Y-13807584D01*
X8706200Y-13811374D01*
X8705723Y-13816535D01*
X8675723Y-13816535D01*
X8676984Y-13800304D01*
X8680136Y-13789422D01*
X8680550Y-13788228D01*
X8685480Y-13770123D01*
X8710000Y-13774900D01*
G37*
%TD.AperFunction*%
%TD*%
%TA.AperFunction,Conductor*%
%TO.N,D+*%
G36*
X9407860Y-13299578D02*
G01*
X9408182Y-13300186D01*
X9408926Y-13304072D01*
X9408926Y-13304072D01*
X9411514Y-13305704D01*
X9415478Y-13305090D01*
X9415478Y-13305090D01*
X9415478Y-13305090D01*
X9420512Y-13303200D01*
X9420554Y-13303185D01*
X9431505Y-13299618D01*
X9431854Y-13299561D01*
X9438438Y-13299495D01*
X9439269Y-13299829D01*
X9439620Y-13300653D01*
X9439598Y-13300892D01*
X9435095Y-13323622D01*
X9434598Y-13324367D01*
X9434594Y-13324369D01*
X9415105Y-13337297D01*
X9414226Y-13337469D01*
X9413545Y-13337053D01*
X9407389Y-13329355D01*
X9401185Y-13323516D01*
X9401185Y-13323517D01*
X9396479Y-13319088D01*
X9396292Y-13318862D01*
X9391955Y-13312010D01*
X9391810Y-13311673D01*
X9390508Y-13306519D01*
X9390475Y-13306312D01*
X9390393Y-13305090D01*
X9390265Y-13303184D01*
X9390084Y-13300484D01*
X9390370Y-13299636D01*
X9391173Y-13299238D01*
X9391251Y-13299236D01*
X9407033Y-13299236D01*
X9407860Y-13299578D01*
G37*
%TD.AperFunction*%
%TD*%
%TA.AperFunction,Conductor*%
%TO.N,D+*%
G36*
X9080798Y-12610958D02*
G01*
X9080883Y-12611020D01*
X9084480Y-12613942D01*
X9084636Y-12614095D01*
X9087863Y-12617917D01*
X9087993Y-12618105D01*
X9092328Y-12625938D01*
X9095463Y-12631765D01*
X9095464Y-12631765D01*
X9095464Y-12631765D01*
X9100342Y-12636176D01*
X9100343Y-12636176D01*
X9104322Y-12637522D01*
X9104322Y-12637522D01*
X9104323Y-12637522D01*
X9108610Y-12637905D01*
X9109404Y-12638320D01*
X9109676Y-12639070D01*
X9109676Y-12654330D01*
X9109333Y-12655157D01*
X9108506Y-12655500D01*
X9079022Y-12655500D01*
X9078756Y-12655469D01*
X9076253Y-12654886D01*
X9076252Y-12654886D01*
X9075503Y-12654837D01*
X9075502Y-12654837D01*
X9069490Y-12655429D01*
X9069490Y-12655429D01*
X9069411Y-12655450D01*
X9069374Y-12655460D01*
X9069071Y-12655500D01*
X9064509Y-12655500D01*
X9064211Y-12655509D01*
X9063318Y-12655538D01*
X9063166Y-12655548D01*
X9062639Y-12655599D01*
X9061783Y-12655338D01*
X9061362Y-12654548D01*
X9061378Y-12654211D01*
X9065855Y-12631232D01*
X9066032Y-12630803D01*
X9079175Y-12611275D01*
X9079921Y-12610780D01*
X9080798Y-12610958D01*
G37*
%TD.AperFunction*%
%TD*%
%TA.AperFunction,Conductor*%
%TO.N,VBAT*%
G36*
X10389380Y-13790499D02*
G01*
X10389839Y-13791108D01*
X10393505Y-13802400D01*
X10393506Y-13802400D01*
X10398372Y-13810424D01*
X10398814Y-13811074D01*
X10399588Y-13812215D01*
X10399664Y-13812343D01*
X10403914Y-13820724D01*
X10404011Y-13820996D01*
X10404043Y-13821137D01*
X10404811Y-13824544D01*
X10405235Y-13826425D01*
X10405261Y-13826608D01*
X10405644Y-13832621D01*
X10405354Y-13833468D01*
X10404550Y-13833862D01*
X10404476Y-13833865D01*
X10376734Y-13833865D01*
X10375907Y-13833522D01*
X10375576Y-13832864D01*
X10374871Y-13828047D01*
X10374871Y-13828047D01*
X10373893Y-13826608D01*
X10372491Y-13824544D01*
X10372491Y-13824544D01*
X10372490Y-13824544D01*
X10368849Y-13822520D01*
X10366359Y-13821778D01*
X10364210Y-13821137D01*
X10364208Y-13821137D01*
X10360141Y-13819986D01*
X10359964Y-13819921D01*
X10352343Y-13816362D01*
X10351738Y-13815702D01*
X10351778Y-13814807D01*
X10351863Y-13814655D01*
X10364729Y-13795307D01*
X10365473Y-13794808D01*
X10365476Y-13794807D01*
X10388503Y-13790321D01*
X10389380Y-13790499D01*
G37*
%TD.AperFunction*%
%TD*%
%TA.AperFunction,Conductor*%
%TO.N,VBAT*%
G36*
X10362360Y-13794386D02*
G01*
X10364520Y-13794806D01*
X10365267Y-13795301D01*
X10365271Y-13795307D01*
X10378177Y-13814716D01*
X10378350Y-13815595D01*
X10377851Y-13816338D01*
X10377757Y-13816395D01*
X10372729Y-13819095D01*
X10372581Y-13819161D01*
X10367013Y-13821218D01*
X10361980Y-13823131D01*
X10357584Y-13826746D01*
X10357584Y-13826746D01*
X10356205Y-13830102D01*
X10355829Y-13833834D01*
X10355405Y-13834623D01*
X10354665Y-13834887D01*
X10326970Y-13834887D01*
X10326143Y-13834544D01*
X10325800Y-13833717D01*
X10325803Y-13833642D01*
X10326258Y-13826532D01*
X10326286Y-13826344D01*
X10327692Y-13820242D01*
X10327782Y-13819989D01*
X10332379Y-13810639D01*
X10332402Y-13810596D01*
X10336159Y-13803717D01*
X10336159Y-13803716D01*
X10340165Y-13791116D01*
X10340742Y-13790431D01*
X10341503Y-13790322D01*
X10362360Y-13794386D01*
G37*
%TD.AperFunction*%
%TD*%
%TA.AperFunction,Conductor*%
%TO.N,SDA*%
G36*
X10318242Y-13270823D02*
G01*
X10318582Y-13271562D01*
X10319134Y-13278877D01*
X10320835Y-13285125D01*
X10326231Y-13294345D01*
X10331282Y-13302392D01*
X10331371Y-13302563D01*
X10333610Y-13307932D01*
X10333661Y-13308083D01*
X10335203Y-13313924D01*
X10335083Y-13314811D01*
X10334371Y-13315354D01*
X10334305Y-13315369D01*
X10311233Y-13320053D01*
X10310767Y-13320053D01*
X10287772Y-13315385D01*
X10287029Y-13314884D01*
X10286858Y-13314005D01*
X10286894Y-13313871D01*
X10290593Y-13302665D01*
X10290712Y-13302411D01*
X10295758Y-13294362D01*
X10295784Y-13294322D01*
X10297380Y-13292045D01*
X10301751Y-13283486D01*
X10303031Y-13277810D01*
X10303430Y-13271576D01*
X10303825Y-13270772D01*
X10304598Y-13270480D01*
X10317415Y-13270480D01*
X10318242Y-13270823D01*
G37*
%TD.AperFunction*%
%TD*%
%TA.AperFunction,Conductor*%
%TO.N,SDA*%
G36*
X10434189Y-12595759D02*
G01*
X10434247Y-12595795D01*
X10453873Y-12608798D01*
X10454202Y-12609127D01*
X10467162Y-12628688D01*
X10467333Y-12629567D01*
X10466832Y-12630310D01*
X10466712Y-12630379D01*
X10456172Y-12635687D01*
X10455908Y-12635782D01*
X10446655Y-12637905D01*
X10446596Y-12637917D01*
X10443863Y-12638398D01*
X10434721Y-12641359D01*
X10429802Y-12644467D01*
X10429802Y-12644467D01*
X10425112Y-12648594D01*
X10424264Y-12648883D01*
X10423512Y-12648543D01*
X10414448Y-12639479D01*
X10414106Y-12638652D01*
X10414388Y-12637889D01*
X10419170Y-12632326D01*
X10422385Y-12626706D01*
X10425088Y-12616374D01*
X10427207Y-12607108D01*
X10427266Y-12606924D01*
X10429479Y-12601546D01*
X10429550Y-12601403D01*
X10432590Y-12596182D01*
X10433302Y-12595639D01*
X10434189Y-12595759D01*
G37*
%TD.AperFunction*%
%TD*%
%TA.AperFunction,Conductor*%
%TO.N,PPS_OUT1*%
G36*
X10072110Y-11299388D02*
G01*
X10077673Y-11304170D01*
X10083294Y-11307385D01*
X10083294Y-11307385D01*
X10093627Y-11310088D01*
X10102891Y-11312207D01*
X10103076Y-11312266D01*
X10108454Y-11314479D01*
X10108597Y-11314550D01*
X10113818Y-11317589D01*
X10114360Y-11318302D01*
X10114240Y-11319189D01*
X10114205Y-11319247D01*
X10101202Y-11338873D01*
X10100873Y-11339202D01*
X10081312Y-11352161D01*
X10080433Y-11352333D01*
X10079690Y-11351832D01*
X10079621Y-11351713D01*
X10074313Y-11341172D01*
X10074217Y-11340908D01*
X10073826Y-11339202D01*
X10072094Y-11331653D01*
X10072083Y-11331598D01*
X10071602Y-11328863D01*
X10068641Y-11319720D01*
X10065533Y-11314802D01*
X10061406Y-11310111D01*
X10061117Y-11309264D01*
X10061457Y-11308512D01*
X10070521Y-11299448D01*
X10071348Y-11299105D01*
X10072110Y-11299388D01*
G37*
%TD.AperFunction*%
%TD*%
%TA.AperFunction,Conductor*%
%TO.N,Net-(J2-LED#1{slash}ACTIVITY)*%
G36*
X10090228Y-13574615D02*
G01*
X10090971Y-13575115D01*
X10091142Y-13575994D01*
X10091106Y-13576128D01*
X10087407Y-13587335D01*
X10087287Y-13587589D01*
X10082246Y-13595631D01*
X10082213Y-13595681D01*
X10080619Y-13597956D01*
X10076249Y-13606514D01*
X10076249Y-13606514D01*
X10074969Y-13612189D01*
X10074969Y-13612190D01*
X10074570Y-13618424D01*
X10074175Y-13619228D01*
X10073402Y-13619520D01*
X10060585Y-13619520D01*
X10059758Y-13619177D01*
X10059418Y-13618438D01*
X10059417Y-13618424D01*
X10058866Y-13611123D01*
X10057165Y-13604875D01*
X10051770Y-13595658D01*
X10046717Y-13587607D01*
X10046628Y-13587436D01*
X10044390Y-13582068D01*
X10044339Y-13581917D01*
X10042797Y-13576076D01*
X10042917Y-13575188D01*
X10043629Y-13574646D01*
X10043693Y-13574631D01*
X10066768Y-13569947D01*
X10067233Y-13569947D01*
X10090228Y-13574615D01*
G37*
%TD.AperFunction*%
%TD*%
%TA.AperFunction,Conductor*%
%TO.N,SCL*%
G36*
X10032486Y-13476455D02*
G01*
X10041546Y-13485515D01*
X10041889Y-13486342D01*
X10041601Y-13487111D01*
X10036781Y-13492640D01*
X10036781Y-13492640D01*
X10033434Y-13498178D01*
X10033434Y-13498178D01*
X10030304Y-13508293D01*
X10028115Y-13516476D01*
X10028062Y-13516631D01*
X10025708Y-13522183D01*
X10025640Y-13522318D01*
X10022412Y-13527823D01*
X10021698Y-13528363D01*
X10020811Y-13528240D01*
X10020756Y-13528207D01*
X10001127Y-13515202D01*
X10000798Y-13514873D01*
X9987800Y-13495254D01*
X9987629Y-13494375D01*
X9988129Y-13493632D01*
X9988189Y-13493595D01*
X9993509Y-13490545D01*
X9993668Y-13490470D01*
X9999158Y-13488352D01*
X9999364Y-13488293D01*
X10008985Y-13486511D01*
X10009039Y-13486502D01*
X10012655Y-13486026D01*
X10021586Y-13483323D01*
X10026388Y-13480342D01*
X10030889Y-13476402D01*
X10031737Y-13476115D01*
X10032486Y-13476455D01*
G37*
%TD.AperFunction*%
%TD*%
%TA.AperFunction,Conductor*%
%TO.N,SCL*%
G36*
X10323110Y-13570388D02*
G01*
X10328673Y-13575170D01*
X10334294Y-13578386D01*
X10334294Y-13578386D01*
X10344627Y-13581089D01*
X10353891Y-13583208D01*
X10354076Y-13583266D01*
X10359454Y-13585479D01*
X10359597Y-13585550D01*
X10364818Y-13588590D01*
X10365360Y-13589302D01*
X10365240Y-13590189D01*
X10365205Y-13590247D01*
X10352202Y-13609873D01*
X10351873Y-13610202D01*
X10332312Y-13623162D01*
X10331433Y-13623333D01*
X10330690Y-13622832D01*
X10330621Y-13622713D01*
X10325313Y-13612172D01*
X10325217Y-13611908D01*
X10324826Y-13610202D01*
X10323094Y-13602653D01*
X10323083Y-13602598D01*
X10322602Y-13599863D01*
X10319641Y-13590721D01*
X10316533Y-13585802D01*
X10312406Y-13581112D01*
X10312117Y-13580264D01*
X10312457Y-13579512D01*
X10321521Y-13570448D01*
X10322348Y-13570106D01*
X10323110Y-13570388D01*
G37*
%TD.AperFunction*%
%TD*%
%TA.AperFunction,Conductor*%
%TO.N,SCL*%
G36*
X10359242Y-13560823D02*
G01*
X10359582Y-13561562D01*
X10360134Y-13568878D01*
X10361835Y-13575125D01*
X10367231Y-13584345D01*
X10372282Y-13592392D01*
X10372371Y-13592564D01*
X10374610Y-13597932D01*
X10374661Y-13598083D01*
X10376203Y-13603924D01*
X10376083Y-13604812D01*
X10375371Y-13605354D01*
X10375305Y-13605369D01*
X10352233Y-13610053D01*
X10351767Y-13610053D01*
X10328772Y-13605385D01*
X10328029Y-13604885D01*
X10327858Y-13604006D01*
X10327894Y-13603872D01*
X10331593Y-13592665D01*
X10331712Y-13592412D01*
X10336758Y-13584362D01*
X10336784Y-13584322D01*
X10338380Y-13582045D01*
X10342751Y-13573486D01*
X10344031Y-13567811D01*
X10344430Y-13561576D01*
X10344825Y-13560772D01*
X10345598Y-13560481D01*
X10358415Y-13560481D01*
X10359242Y-13560823D01*
G37*
%TD.AperFunction*%
%TD*%
%TA.AperFunction,Conductor*%
%TO.N,SCL*%
G36*
X10441189Y-12715759D02*
G01*
X10441247Y-12715795D01*
X10460873Y-12728798D01*
X10461202Y-12729127D01*
X10474162Y-12748688D01*
X10474333Y-12749567D01*
X10473832Y-12750310D01*
X10473712Y-12750379D01*
X10463172Y-12755687D01*
X10462908Y-12755782D01*
X10453655Y-12757905D01*
X10453596Y-12757917D01*
X10450863Y-12758398D01*
X10441721Y-12761359D01*
X10436802Y-12764467D01*
X10436802Y-12764467D01*
X10432112Y-12768594D01*
X10431264Y-12768883D01*
X10430512Y-12768543D01*
X10421448Y-12759479D01*
X10421106Y-12758652D01*
X10421388Y-12757889D01*
X10426170Y-12752326D01*
X10429385Y-12746706D01*
X10432088Y-12736374D01*
X10434207Y-12727108D01*
X10434266Y-12726924D01*
X10436479Y-12721546D01*
X10436550Y-12721403D01*
X10439590Y-12716182D01*
X10440302Y-12715639D01*
X10441189Y-12715759D01*
G37*
%TD.AperFunction*%
%TD*%
%TA.AperFunction,Conductor*%
%TO.N,LED1*%
G36*
X9181129Y-11325893D02*
G01*
X9192335Y-11329593D01*
X9192590Y-11329713D01*
X9200634Y-11334755D01*
X9200680Y-11334786D01*
X9202955Y-11336380D01*
X9202956Y-11336380D01*
X9202956Y-11336380D01*
X9205684Y-11337774D01*
X9211514Y-11340751D01*
X9217190Y-11342031D01*
X9223424Y-11342430D01*
X9224228Y-11342825D01*
X9224520Y-11343597D01*
X9224520Y-11356415D01*
X9224177Y-11357242D01*
X9223438Y-11357582D01*
X9216123Y-11358134D01*
X9209875Y-11359835D01*
X9200658Y-11365230D01*
X9192608Y-11370282D01*
X9192436Y-11370371D01*
X9187068Y-11372609D01*
X9186917Y-11372661D01*
X9181076Y-11374203D01*
X9180189Y-11374083D01*
X9179646Y-11373370D01*
X9179631Y-11373307D01*
X9174947Y-11350232D01*
X9174947Y-11349767D01*
X9179615Y-11326771D01*
X9180116Y-11326029D01*
X9180995Y-11325858D01*
X9181129Y-11325893D01*
G37*
%TD.AperFunction*%
%TD*%
%TA.AperFunction,Conductor*%
%TO.N,LED1*%
G36*
X9622988Y-13272957D02*
G01*
X9632052Y-13282020D01*
X9632394Y-13282848D01*
X9632112Y-13283610D01*
X9627330Y-13289173D01*
X9627330Y-13289173D01*
X9624114Y-13294794D01*
X9621411Y-13305127D01*
X9619292Y-13314391D01*
X9619234Y-13314576D01*
X9617021Y-13319954D01*
X9616950Y-13320097D01*
X9613911Y-13325318D01*
X9613198Y-13325860D01*
X9612311Y-13325740D01*
X9612253Y-13325704D01*
X9592627Y-13312702D01*
X9592298Y-13312373D01*
X9579338Y-13292812D01*
X9579167Y-13291933D01*
X9579668Y-13291190D01*
X9579786Y-13291121D01*
X9590328Y-13285812D01*
X9590592Y-13285717D01*
X9599848Y-13283594D01*
X9599901Y-13283583D01*
X9602637Y-13283102D01*
X9611780Y-13280141D01*
X9616698Y-13277033D01*
X9621389Y-13272906D01*
X9622236Y-13272617D01*
X9622988Y-13272957D01*
G37*
%TD.AperFunction*%
%TD*%
%TA.AperFunction,Conductor*%
%TO.N,D-*%
G36*
X9075041Y-12673396D02*
G01*
X9076619Y-12674050D01*
X9076620Y-12674050D01*
X9108506Y-12674050D01*
X9109333Y-12674393D01*
X9109676Y-12675220D01*
X9109676Y-12690974D01*
X9109333Y-12691801D01*
X9108659Y-12692134D01*
X9102513Y-12692942D01*
X9102512Y-12692942D01*
X9097840Y-12695517D01*
X9094749Y-12699349D01*
X9094748Y-12699349D01*
X9092339Y-12704039D01*
X9092315Y-12704084D01*
X9087430Y-12712655D01*
X9087213Y-12712930D01*
X9080892Y-12718848D01*
X9080054Y-12719163D01*
X9079239Y-12718793D01*
X9079123Y-12718647D01*
X9066032Y-12699196D01*
X9065855Y-12698767D01*
X9061361Y-12675703D01*
X9061369Y-12675665D01*
X9061349Y-12675631D01*
X9061457Y-12675231D01*
X9061539Y-12674826D01*
X9061572Y-12674804D01*
X9061582Y-12674766D01*
X9061941Y-12674560D01*
X9062286Y-12674331D01*
X9062358Y-12674320D01*
X9064358Y-12674060D01*
X9064509Y-12674050D01*
X9071668Y-12674050D01*
X9072148Y-12673921D01*
X9074291Y-12673347D01*
X9075041Y-12673396D01*
G37*
%TD.AperFunction*%
%TD*%
%TA.AperFunction,Conductor*%
%TO.N,D-*%
G36*
X9327345Y-13299191D02*
G01*
X9332126Y-13299960D01*
X9332323Y-13300009D01*
X9341467Y-13303192D01*
X9348428Y-13305577D01*
X9352140Y-13305116D01*
X9353518Y-13303069D01*
X9353871Y-13300259D01*
X9354314Y-13299481D01*
X9355032Y-13299236D01*
X9370567Y-13299236D01*
X9371395Y-13299578D01*
X9371737Y-13300406D01*
X9371728Y-13300557D01*
X9371575Y-13301725D01*
X9371654Y-13302891D01*
X9371651Y-13303075D01*
X9371192Y-13308135D01*
X9371126Y-13308430D01*
X9368936Y-13314432D01*
X9368771Y-13314735D01*
X9365401Y-13319212D01*
X9365265Y-13319364D01*
X9360820Y-13323512D01*
X9360810Y-13323521D01*
X9356660Y-13327302D01*
X9356659Y-13327302D01*
X9348459Y-13337087D01*
X9347665Y-13337501D01*
X9346915Y-13337311D01*
X9327406Y-13324369D01*
X9326906Y-13323627D01*
X9322383Y-13300794D01*
X9322558Y-13299916D01*
X9323303Y-13299419D01*
X9323459Y-13299399D01*
X9327089Y-13299178D01*
X9327345Y-13299191D01*
G37*
%TD.AperFunction*%
%TD*%
%TA.AperFunction,Conductor*%
%TO.N,UART_RX*%
G36*
X8580194Y-12166535D02*
G01*
X8580688Y-12167282D01*
X8580697Y-12167336D01*
X8583068Y-12183522D01*
X8583080Y-12183703D01*
X8582951Y-12196232D01*
X8582950Y-12196252D01*
X8582531Y-12211512D01*
X8582166Y-12212329D01*
X8581362Y-12212650D01*
X8568520Y-12212650D01*
X8567692Y-12212307D01*
X8567361Y-12211640D01*
X8567343Y-12211512D01*
X8566598Y-12206120D01*
X8564066Y-12202072D01*
X8564065Y-12202072D01*
X8564065Y-12202072D01*
X8560161Y-12199582D01*
X8560161Y-12199582D01*
X8555141Y-12197728D01*
X8552017Y-12196649D01*
X8551882Y-12196593D01*
X8543306Y-12192375D01*
X8542715Y-12191702D01*
X8542773Y-12190809D01*
X8542848Y-12190678D01*
X8555729Y-12171307D01*
X8556473Y-12170808D01*
X8556476Y-12170807D01*
X8579316Y-12166357D01*
X8580194Y-12166535D01*
G37*
%TD.AperFunction*%
%TD*%
%TA.AperFunction,Conductor*%
%TO.N,UART_TX*%
G36*
X8551674Y-12356539D02*
G01*
X8552169Y-12357286D01*
X8552180Y-12357358D01*
X8552440Y-12359354D01*
X8552450Y-12359505D01*
X8552450Y-12402006D01*
X8552107Y-12402833D01*
X8551280Y-12403176D01*
X8538527Y-12403176D01*
X8537699Y-12402833D01*
X8537366Y-12402158D01*
X8537346Y-12402006D01*
X8536633Y-12396571D01*
X8534183Y-12392394D01*
X8530374Y-12389717D01*
X8530374Y-12389717D01*
X8530374Y-12389717D01*
X8527581Y-12388527D01*
X8525433Y-12387612D01*
X8524728Y-12387334D01*
X8523868Y-12386995D01*
X8523767Y-12386950D01*
X8514783Y-12382383D01*
X8514201Y-12381702D01*
X8514270Y-12380809D01*
X8514338Y-12380692D01*
X8527229Y-12361307D01*
X8527973Y-12360808D01*
X8527976Y-12360807D01*
X8550796Y-12356361D01*
X8551674Y-12356539D01*
G37*
%TD.AperFunction*%
%TD*%
%TA.AperFunction,Conductor*%
%TO.N,Net-(J2-SMB_DATA)*%
G36*
X9739703Y-13327093D02*
G01*
X9752798Y-13346524D01*
X9752976Y-13347401D01*
X9752974Y-13347408D01*
X9748380Y-13370242D01*
X9747881Y-13370986D01*
X9747002Y-13371159D01*
X9746880Y-13371127D01*
X9742755Y-13369825D01*
X9742542Y-13369733D01*
X9738072Y-13367265D01*
X9737897Y-13367147D01*
X9730414Y-13361024D01*
X9723541Y-13355663D01*
X9723540Y-13355663D01*
X9718450Y-13354782D01*
X9718450Y-13354782D01*
X9715209Y-13356080D01*
X9715208Y-13356080D01*
X9712391Y-13358369D01*
X9711533Y-13358625D01*
X9710826Y-13358288D01*
X9701883Y-13349346D01*
X9701540Y-13348518D01*
X9701883Y-13347691D01*
X9701972Y-13347611D01*
X9712069Y-13339413D01*
X9712324Y-13339256D01*
X9721364Y-13335171D01*
X9721420Y-13335147D01*
X9725437Y-13333589D01*
X9738178Y-13326717D01*
X9739068Y-13326625D01*
X9739703Y-13327093D01*
G37*
%TD.AperFunction*%
%TD*%
%TA.AperFunction,Conductor*%
%TO.N,PPS_OUT2*%
G36*
X10383228Y-11096615D02*
G01*
X10383971Y-11097116D01*
X10384142Y-11097995D01*
X10384106Y-11098129D01*
X10380407Y-11109335D01*
X10380287Y-11109589D01*
X10375246Y-11117632D01*
X10375213Y-11117682D01*
X10373619Y-11119956D01*
X10369249Y-11128514D01*
X10369249Y-11128514D01*
X10367969Y-11134190D01*
X10367969Y-11134190D01*
X10367570Y-11140424D01*
X10367175Y-11141228D01*
X10366402Y-11141520D01*
X10353585Y-11141520D01*
X10352758Y-11141177D01*
X10352418Y-11140438D01*
X10352417Y-11140424D01*
X10351866Y-11133123D01*
X10350165Y-11126875D01*
X10344770Y-11117658D01*
X10339717Y-11109607D01*
X10339628Y-11109436D01*
X10337390Y-11104068D01*
X10337339Y-11103917D01*
X10335797Y-11098076D01*
X10335917Y-11097189D01*
X10336629Y-11096646D01*
X10336693Y-11096631D01*
X10359768Y-11091947D01*
X10360233Y-11091947D01*
X10383228Y-11096615D01*
G37*
%TD.AperFunction*%
%TD*%
%TA.AperFunction,Conductor*%
%TO.N,PPS_IN*%
G36*
X10092189Y-11671760D02*
G01*
X10092247Y-11671795D01*
X10111873Y-11684798D01*
X10112202Y-11685127D01*
X10125162Y-11704688D01*
X10125333Y-11705567D01*
X10124832Y-11706310D01*
X10124712Y-11706379D01*
X10114172Y-11711687D01*
X10113908Y-11711783D01*
X10104655Y-11713905D01*
X10104596Y-11713917D01*
X10101863Y-11714398D01*
X10092721Y-11717359D01*
X10087802Y-11720467D01*
X10087802Y-11720467D01*
X10083112Y-11724594D01*
X10082264Y-11724883D01*
X10081512Y-11724543D01*
X10072448Y-11715479D01*
X10072106Y-11714652D01*
X10072388Y-11713890D01*
X10077170Y-11708327D01*
X10080385Y-11702706D01*
X10083088Y-11692374D01*
X10085207Y-11683108D01*
X10085266Y-11682924D01*
X10087479Y-11677546D01*
X10087550Y-11677403D01*
X10090590Y-11672182D01*
X10091302Y-11671640D01*
X10092189Y-11671760D01*
G37*
%TD.AperFunction*%
%TD*%
%TA.AperFunction,Conductor*%
%TO.N,~{NRST_IN}*%
G36*
X8735228Y-12015615D02*
G01*
X8735971Y-12016115D01*
X8736142Y-12016994D01*
X8736106Y-12017128D01*
X8732407Y-12028335D01*
X8732287Y-12028589D01*
X8727246Y-12036631D01*
X8727213Y-12036681D01*
X8725619Y-12038956D01*
X8721249Y-12047514D01*
X8721249Y-12047514D01*
X8719969Y-12053189D01*
X8719969Y-12053190D01*
X8719570Y-12059424D01*
X8719175Y-12060228D01*
X8718402Y-12060520D01*
X8705585Y-12060520D01*
X8704758Y-12060177D01*
X8704418Y-12059438D01*
X8704417Y-12059424D01*
X8703866Y-12052123D01*
X8702165Y-12045875D01*
X8696770Y-12036658D01*
X8691717Y-12028607D01*
X8691628Y-12028436D01*
X8689390Y-12023068D01*
X8689339Y-12022917D01*
X8687797Y-12017076D01*
X8687917Y-12016188D01*
X8688629Y-12015646D01*
X8688693Y-12015631D01*
X8711768Y-12010947D01*
X8712233Y-12010947D01*
X8735228Y-12015615D01*
G37*
%TD.AperFunction*%
%TD*%
%TA.AperFunction,Conductor*%
%TO.N,~{NRST_IN}*%
G36*
X9062242Y-13718323D02*
G01*
X9062582Y-13719062D01*
X9063134Y-13726377D01*
X9064835Y-13732625D01*
X9070231Y-13741845D01*
X9075282Y-13749892D01*
X9075371Y-13750063D01*
X9077610Y-13755432D01*
X9077661Y-13755583D01*
X9079203Y-13761424D01*
X9079083Y-13762311D01*
X9078371Y-13762854D01*
X9078305Y-13762869D01*
X9055233Y-13767553D01*
X9054767Y-13767553D01*
X9031772Y-13762885D01*
X9031029Y-13762384D01*
X9030858Y-13761505D01*
X9030894Y-13761371D01*
X9034593Y-13750165D01*
X9034712Y-13749911D01*
X9039758Y-13741862D01*
X9039784Y-13741822D01*
X9041380Y-13739545D01*
X9045751Y-13730986D01*
X9047031Y-13725310D01*
X9047430Y-13719076D01*
X9047825Y-13718272D01*
X9048598Y-13717980D01*
X9061415Y-13717980D01*
X9062242Y-13718323D01*
G37*
%TD.AperFunction*%
%TD*%
%TA.AperFunction,Conductor*%
%TO.N,Ref_CLK_SEL*%
G36*
X9686228Y-10930615D02*
G01*
X9686971Y-10931116D01*
X9687142Y-10931995D01*
X9687106Y-10932129D01*
X9683407Y-10943335D01*
X9683287Y-10943589D01*
X9678246Y-10951632D01*
X9678213Y-10951682D01*
X9676619Y-10953956D01*
X9672249Y-10962514D01*
X9672249Y-10962514D01*
X9670969Y-10968190D01*
X9670969Y-10968190D01*
X9670570Y-10974424D01*
X9670175Y-10975228D01*
X9669402Y-10975520D01*
X9656585Y-10975520D01*
X9655758Y-10975177D01*
X9655418Y-10974438D01*
X9655417Y-10974424D01*
X9654866Y-10967123D01*
X9653165Y-10960875D01*
X9647770Y-10951658D01*
X9642717Y-10943607D01*
X9642628Y-10943436D01*
X9640390Y-10938068D01*
X9640339Y-10937917D01*
X9638797Y-10932076D01*
X9638917Y-10931189D01*
X9639629Y-10930646D01*
X9639693Y-10930631D01*
X9662768Y-10925947D01*
X9663233Y-10925947D01*
X9686228Y-10930615D01*
G37*
%TD.AperFunction*%
%TD*%
%TA.AperFunction,Conductor*%
%TO.N,REF_O*%
G36*
X9889480Y-10740997D02*
G01*
X9891392Y-10741386D01*
X9912318Y-10745633D01*
X9913061Y-10746134D01*
X9913232Y-10747013D01*
X9913220Y-10747066D01*
X9910760Y-10756833D01*
X9910727Y-10756940D01*
X9908010Y-10764565D01*
X9905220Y-10772832D01*
X9903965Y-10779883D01*
X9903553Y-10788526D01*
X9903171Y-10789336D01*
X9902384Y-10789640D01*
X9889576Y-10789640D01*
X9888749Y-10789298D01*
X9888410Y-10788568D01*
X9887812Y-10781433D01*
X9887812Y-10781433D01*
X9885868Y-10775679D01*
X9883891Y-10772832D01*
X9882847Y-10771329D01*
X9878931Y-10767337D01*
X9876897Y-10765350D01*
X9876815Y-10765260D01*
X9869039Y-10755885D01*
X9868775Y-10755029D01*
X9869193Y-10754237D01*
X9869285Y-10754168D01*
X9888594Y-10741173D01*
X9889471Y-10740996D01*
X9889480Y-10740997D01*
G37*
%TD.AperFunction*%
%TD*%
%TA.AperFunction,Conductor*%
%TO.N,REF_O*%
G36*
X9781128Y-10947894D02*
G01*
X9792335Y-10951593D01*
X9792589Y-10951713D01*
X9800634Y-10956756D01*
X9800679Y-10956786D01*
X9802955Y-10958381D01*
X9802956Y-10958381D01*
X9802956Y-10958381D01*
X9805683Y-10959774D01*
X9811514Y-10962752D01*
X9817189Y-10964032D01*
X9823424Y-10964430D01*
X9824228Y-10964825D01*
X9824519Y-10965598D01*
X9824519Y-10978415D01*
X9824177Y-10979242D01*
X9823438Y-10979582D01*
X9816122Y-10980134D01*
X9809875Y-10981835D01*
X9800657Y-10987230D01*
X9792607Y-10992283D01*
X9792436Y-10992372D01*
X9787068Y-10994610D01*
X9786917Y-10994661D01*
X9781076Y-10996203D01*
X9780188Y-10996083D01*
X9779646Y-10995371D01*
X9779631Y-10995307D01*
X9774947Y-10972233D01*
X9774947Y-10971768D01*
X9779615Y-10948772D01*
X9780115Y-10948029D01*
X9780994Y-10947858D01*
X9781128Y-10947894D01*
G37*
%TD.AperFunction*%
%TD*%
%TA.AperFunction,Conductor*%
%TO.N,Net-(U5-B2)*%
G36*
X9087242Y-13318323D02*
G01*
X9087582Y-13319062D01*
X9088134Y-13326377D01*
X9089835Y-13332625D01*
X9095231Y-13341845D01*
X9100282Y-13349892D01*
X9100371Y-13350063D01*
X9102610Y-13355432D01*
X9102661Y-13355583D01*
X9104203Y-13361424D01*
X9104083Y-13362311D01*
X9103371Y-13362854D01*
X9103305Y-13362869D01*
X9080233Y-13367553D01*
X9079767Y-13367553D01*
X9056772Y-13362885D01*
X9056029Y-13362384D01*
X9055858Y-13361505D01*
X9055894Y-13361371D01*
X9059593Y-13350165D01*
X9059712Y-13349911D01*
X9064758Y-13341862D01*
X9064784Y-13341822D01*
X9066380Y-13339545D01*
X9070751Y-13330986D01*
X9072031Y-13325310D01*
X9072430Y-13319076D01*
X9072825Y-13318272D01*
X9073598Y-13317980D01*
X9086415Y-13317980D01*
X9087242Y-13318323D01*
G37*
%TD.AperFunction*%
%TD*%
%TA.AperFunction,Conductor*%
%TO.N,Net-(U5-B2)*%
G36*
X9784110Y-10872388D02*
G01*
X9789673Y-10877170D01*
X9795294Y-10880385D01*
X9795294Y-10880386D01*
X9805627Y-10883088D01*
X9814891Y-10885207D01*
X9815076Y-10885266D01*
X9820454Y-10887479D01*
X9820597Y-10887550D01*
X9825818Y-10890589D01*
X9826360Y-10891302D01*
X9826240Y-10892189D01*
X9826205Y-10892247D01*
X9813202Y-10911873D01*
X9812873Y-10912202D01*
X9793312Y-10925162D01*
X9792433Y-10925333D01*
X9791690Y-10924832D01*
X9791621Y-10924713D01*
X9786313Y-10914172D01*
X9786217Y-10913908D01*
X9785826Y-10912202D01*
X9784094Y-10904653D01*
X9784083Y-10904598D01*
X9783602Y-10901863D01*
X9780641Y-10892721D01*
X9777533Y-10887802D01*
X9773406Y-10883111D01*
X9773117Y-10882264D01*
X9773457Y-10881512D01*
X9782521Y-10872448D01*
X9783348Y-10872106D01*
X9784110Y-10872388D01*
G37*
%TD.AperFunction*%
%TD*%
%TA.AperFunction,Conductor*%
%TO.N,Net-(J2-SMB_CLK)*%
G36*
X9756470Y-13472198D02*
G01*
X9775919Y-13485305D01*
X9776414Y-13486051D01*
X9776302Y-13486816D01*
X9771212Y-13496564D01*
X9771211Y-13496565D01*
X9768898Y-13504944D01*
X9768883Y-13504991D01*
X9765707Y-13514856D01*
X9765583Y-13515122D01*
X9762660Y-13519757D01*
X9762549Y-13519906D01*
X9758578Y-13524417D01*
X9757774Y-13524811D01*
X9756927Y-13524522D01*
X9756872Y-13524471D01*
X9747841Y-13515439D01*
X9747498Y-13514612D01*
X9747709Y-13513942D01*
X9751041Y-13509172D01*
X9751096Y-13504473D01*
X9748392Y-13500166D01*
X9744008Y-13495771D01*
X9741664Y-13493528D01*
X9741576Y-13493434D01*
X9735056Y-13485640D01*
X9734868Y-13485325D01*
X9734585Y-13484620D01*
X9732004Y-13478182D01*
X9732014Y-13477287D01*
X9732654Y-13476661D01*
X9732858Y-13476600D01*
X9755592Y-13472026D01*
X9756470Y-13472198D01*
G37*
%TD.AperFunction*%
%TD*%
%TA.AperFunction,Conductor*%
%TO.N,VREF_O*%
G36*
X9275488Y-10623457D02*
G01*
X9284552Y-10632521D01*
X9284894Y-10633348D01*
X9284612Y-10634111D01*
X9279830Y-10639673D01*
X9279830Y-10639673D01*
X9276614Y-10645294D01*
X9273911Y-10655627D01*
X9271792Y-10664891D01*
X9271734Y-10665076D01*
X9269521Y-10670454D01*
X9269450Y-10670597D01*
X9266411Y-10675818D01*
X9265698Y-10676360D01*
X9264811Y-10676240D01*
X9264753Y-10676205D01*
X9245127Y-10663202D01*
X9244798Y-10662873D01*
X9231838Y-10643312D01*
X9231667Y-10642433D01*
X9232168Y-10641690D01*
X9232286Y-10641621D01*
X9242828Y-10636312D01*
X9243092Y-10636217D01*
X9252348Y-10634094D01*
X9252401Y-10634083D01*
X9255137Y-10633602D01*
X9264280Y-10630641D01*
X9269198Y-10627533D01*
X9273889Y-10623406D01*
X9274736Y-10623117D01*
X9275488Y-10623457D01*
G37*
%TD.AperFunction*%
%TD*%
%TA.AperFunction,Conductor*%
%TO.N,VREF_O*%
G36*
X9864110Y-10619388D02*
G01*
X9869673Y-10624170D01*
X9875294Y-10627385D01*
X9875294Y-10627386D01*
X9885627Y-10630088D01*
X9894891Y-10632207D01*
X9895076Y-10632266D01*
X9900454Y-10634479D01*
X9900597Y-10634550D01*
X9905818Y-10637589D01*
X9906360Y-10638302D01*
X9906240Y-10639189D01*
X9906205Y-10639247D01*
X9893202Y-10658873D01*
X9892873Y-10659202D01*
X9873312Y-10672162D01*
X9872433Y-10672333D01*
X9871690Y-10671832D01*
X9871621Y-10671713D01*
X9866313Y-10661172D01*
X9866217Y-10660908D01*
X9865826Y-10659202D01*
X9864094Y-10651653D01*
X9864083Y-10651598D01*
X9863602Y-10648863D01*
X9860641Y-10639721D01*
X9857533Y-10634802D01*
X9853406Y-10630111D01*
X9853117Y-10629264D01*
X9853457Y-10628512D01*
X9862521Y-10619448D01*
X9863348Y-10619106D01*
X9864110Y-10619388D01*
G37*
%TD.AperFunction*%
%TD*%
%TA.AperFunction,Conductor*%
%TO.N,CLK_10M_OUT*%
G36*
X9405718Y-10819000D02*
G01*
X9413571Y-10818535D01*
X9419478Y-10817278D01*
X9428592Y-10813102D01*
X9436242Y-10809281D01*
X9447647Y-10805920D01*
X9442870Y-10781400D01*
X9421983Y-10767511D01*
X9418284Y-10776097D01*
X9417224Y-10786556D01*
X9417212Y-10788754D01*
X9417017Y-10794810D01*
X9415752Y-10799643D01*
X9412343Y-10802843D01*
X9405718Y-10804000D01*
X9405718Y-10819000D01*
G37*
%TD.AperFunction*%
%TD*%
D21*
X10566723Y-13802105D02*
X10536723Y-13802105D01*
X8487729Y-14202105D02*
X8486873Y-13861954D01*
X10536723Y-10002105D02*
X9661723Y-10002105D01*
X10486723Y-13852105D02*
G75*
G02*
X10536723Y-13802113I49997J-5D01*
G01*
X8386723Y-13802105D02*
X8426874Y-13802105D01*
X9986723Y-13916105D02*
X9986723Y-14202105D01*
X8436723Y-10002105D02*
X9311723Y-10002105D01*
X10536723Y-10002105D02*
G75*
G02*
X10586725Y-10052105I-3J-50005D01*
G01*
X8426874Y-13802105D02*
G75*
G02*
X8486874Y-13861954I-4J-60005D01*
G01*
X10106723Y-14202105D02*
X10106798Y-13916105D01*
X8386723Y-13802105D02*
X8386723Y-10052105D01*
X10586723Y-10052105D02*
X10586723Y-13782105D01*
X10586723Y-13782105D02*
G75*
G02*
X10566723Y-13802113I-20003J-5D01*
G01*
X9986723Y-14202105D02*
X8487729Y-14202105D01*
X9661723Y-10002105D02*
G75*
G02*
X9311723Y-10002105I-175000J0D01*
G01*
X8386723Y-10052105D02*
G75*
G02*
X8436723Y-10002113I49997J-5D01*
G01*
X10486723Y-13852105D02*
X10486723Y-14202105D01*
X9986648Y-13916105D02*
G75*
G02*
X10106798Y-13916105I60075J0D01*
G01*
X10106723Y-14202105D02*
X10486723Y-14202105D01*
M02*
