M48
; DRILL file {KiCad 9.0.4} date 2025-11-25T18:28:03+0100
; FORMAT={-:-/ absolute / metric / decimal}
; #@! TF.CreationDate,2025-11-25T18:28:03+01:00
; #@! TF.GenerationSoftware,Kicad,Pcbnew,9.0.4
; #@! TF.FileFunction,MixedPlating,1,4
FMAT,2
METRIC
; #@! TA.AperFunction,Plated,PTH,ViaDrill
T1C0.250
%
G90
G05
T1
X84.47Y-104.92
X84.475Y-102.565
X84.475Y-120.51
X84.475Y-123.05
X84.475Y-125.59
X84.475Y-128.13
X84.475Y-130.67
X84.475Y-133.21
X84.475Y-135.75
X85.275Y-123.61
X85.41Y-103.45
X85.41Y-106.4
X85.5Y-136.3
X85.5Y-137.25
X85.56Y-121.71
X85.79Y-107.225
X86.225Y-108.425
X86.225Y-109.925
X86.225Y-111.425
X86.225Y-112.925
X86.3Y-137.75
X86.475Y-114.35
X86.5Y-116.01
X86.5Y-117.28
X86.5Y-118.55
X86.88Y-103.06
X87.1Y-137.75
X87.12Y-120.11
X87.175Y-128.5
X87.2Y-100.89
X87.475Y-115.1
X87.5Y-108.425
X87.5Y-109.925
X87.5Y-111.425
X87.5Y-112.925
X87.9Y-107.225
X88.33Y-103.45
X88.33Y-106.39
X88.89Y-109.2
X89.26Y-104.92
X89.39Y-136.29
X89.425Y-132.825
X89.575Y-138.575
X89.74Y-100.89
X90.025Y-112.85
X90.025Y-114.062
X90.025Y-115.275
X90.03Y-116.46
X90.23Y-125.55
X90.27Y-127.83
X90.375Y-134.725
X90.55Y-137.675
X90.65Y-118.47
X90.65Y-119.74
X90.65Y-121.01
X90.65Y-122.28
X90.65Y-123.55
X90.66Y-126.31
X90.66Y-126.99
X90.675Y-138.575
X90.7Y-104.16
X90.8Y-133.675
X91.45Y-107.625
X91.45Y-108.925
X91.5Y-136.125
X91.71Y-114.56
X91.75Y-113.5
X91.75Y-138.575
X91.933Y-100.89
X92.01Y-103.81
X92.35Y-112.1
X92.42Y-133.37
X92.45Y-106.63
X92.71Y-114.56
X92.95Y-134.375
X93.025Y-135.675
X93.068Y-102.517
X93.27Y-133.24
X93.3Y-106.54
X93.4Y-107.64
X93.4Y-137.075
X93.425Y-138.575
X93.71Y-114.56
X94.35Y-133.24
X94.428Y-107.814
X94.7Y-134.3
X94.7Y-135.15
X94.88Y-103.08
X94.9Y-117.55
X94.9Y-118.82
X94.9Y-120.09
X94.9Y-121.36
X94.9Y-122.63
X94.9Y-123.9
X94.9Y-125.17
X94.95Y-109.19
X95.11Y-133.37
X95.175Y-138.575
X95.2Y-108.02
X95.325Y-112.1
X95.35Y-129.77
X95.35Y-136.15
X95.72Y-107.37
X95.9Y-117.55
X95.9Y-118.82
X95.9Y-120.09
X95.9Y-121.36
X95.9Y-122.63
X95.9Y-123.9
X95.9Y-125.17
X95.925Y-133.125
X96.137Y-138.575
X96.35Y-129.77
X96.63Y-109.26
X96.677Y-102.47
X96.72Y-107.37
X96.9Y-117.55
X96.9Y-118.82
X96.9Y-120.09
X96.9Y-121.36
X96.9Y-122.63
X96.9Y-123.9
X96.9Y-125.17
X97.1Y-138.575
X97.35Y-129.77
X97.53Y-133.47
X97.55Y-136.175
X97.56Y-134.72
X97.75Y-109.72
X97.77Y-100.93
X98.13Y-109.12
X98.18Y-127.85
X98.18Y-129.12
X98.225Y-114.6
X98.89Y-107.41
X98.93Y-106.59
X98.95Y-112.1
X99.56Y-128.4
X99.56Y-129.67
X99.94Y-108.25
X100.01Y-135.15
X100.1Y-136.2
X100.15Y-137.975
X100.31Y-100.93
X100.36Y-105.54
X100.67Y-135.7
X100.925Y-112.325
X100.95Y-118.23
X100.95Y-119.5
X100.95Y-120.77
X100.95Y-122.04
X100.95Y-123.31
X100.95Y-124.58
X100.95Y-125.85
X100.95Y-127.12
X100.95Y-128.39
X100.95Y-129.66
X101.01Y-113.39
X101.025Y-115.05
X101.12Y-116.85
X101.26Y-136.2
X101.48Y-104.59
X101.8Y-108.6
X101.8Y-109.35
X102.503Y-100.93
X102.55Y-137.975
X102.65Y-105.54
X102.65Y-108.6
X103.11Y-133.2
X103.52Y-136.1
X103.6Y-110.92
X103.65Y-137.95
X104.54Y-126.09
X104.61Y-127.29
X104.68Y-123.39
X104.74Y-130.13
X105.1Y-102.565
X105.1Y-105.105
X105.1Y-107.645
X105.1Y-110.185
X105.1Y-112.725
X105.1Y-115.265
X105.1Y-117.805
X105.1Y-120.345
X105.15Y-126.65
X105.15Y-130.75
M30
