%TF.GenerationSoftware,KiCad,Pcbnew,9.0.4*%
%TF.CreationDate,2025-11-25T18:28:02+01:00*%
%TF.ProjectId,M2_mosaicG5,4d325f6d-6f73-4616-9963-47352e6b6963,01*%
%TF.SameCoordinates,Original*%
%TF.FileFunction,Paste,Bot*%
%TF.FilePolarity,Positive*%
%FSLAX45Y45*%
G04 Gerber Fmt 4.5, Leading zero omitted, Abs format (unit mm)*
G04 Created by KiCad (PCBNEW 9.0.4) date 2025-11-25 18:28:02*
%MOMM*%
%LPD*%
G01*
G04 APERTURE LIST*
%ADD10C,0.100000*%
%ADD11C,0.150000*%
%ADD12C,0.300000*%
%ADD13C,0.400000*%
%TA.AperFunction,Profile*%
%ADD14C,0.100000*%
%TD*%
G04 APERTURE END LIST*
D10*
D11*
X29998900Y-25300220D02*
X40798900Y-25300220D01*
X40798900Y-28500220D01*
X29998900Y-28500220D01*
X29998900Y-25300220D01*
D10*
D11*
X1000000Y-1000000D02*
X40998900Y-1000000D01*
X40998900Y-28700220D01*
X1000000Y-28700220D01*
X1000000Y-1000000D01*
D10*
D11*
X1200000Y-1200000D02*
X40798900Y-1200000D01*
X40798900Y-28500220D01*
X1200000Y-28500220D01*
X1200000Y-1200000D01*
D10*
D11*
X6000000Y-1200000D02*
X6000000Y-1000000D01*
D10*
D11*
X11000000Y-1200000D02*
X11000000Y-1000000D01*
D10*
D11*
X16000000Y-1200000D02*
X16000000Y-1000000D01*
D10*
D11*
X21000000Y-1200000D02*
X21000000Y-1000000D01*
D10*
D11*
X26000000Y-1200000D02*
X26000000Y-1000000D01*
D10*
D11*
X31000000Y-1200000D02*
X31000000Y-1000000D01*
D10*
D11*
X36000000Y-1200000D02*
X36000000Y-1000000D01*
D10*
D11*
X3608916Y-1159360D02*
X3534630Y-1159360D01*
X3571773Y-1159360D02*
X3571773Y-1029360D01*
X3571773Y-1029360D02*
X3559392Y-1047932D01*
X3559392Y-1047932D02*
X3547011Y-1060313D01*
X3547011Y-1060313D02*
X3534630Y-1066503D01*
D10*
D11*
X8534630Y-1041741D02*
X8540821Y-1035551D01*
X8540821Y-1035551D02*
X8553202Y-1029360D01*
X8553202Y-1029360D02*
X8584154Y-1029360D01*
X8584154Y-1029360D02*
X8596535Y-1035551D01*
X8596535Y-1035551D02*
X8602726Y-1041741D01*
X8602726Y-1041741D02*
X8608916Y-1054122D01*
X8608916Y-1054122D02*
X8608916Y-1066503D01*
X8608916Y-1066503D02*
X8602726Y-1085075D01*
X8602726Y-1085075D02*
X8528440Y-1159360D01*
X8528440Y-1159360D02*
X8608916Y-1159360D01*
D10*
D11*
X13528440Y-1029360D02*
X13608916Y-1029360D01*
X13608916Y-1029360D02*
X13565583Y-1078884D01*
X13565583Y-1078884D02*
X13584154Y-1078884D01*
X13584154Y-1078884D02*
X13596535Y-1085075D01*
X13596535Y-1085075D02*
X13602725Y-1091265D01*
X13602725Y-1091265D02*
X13608916Y-1103646D01*
X13608916Y-1103646D02*
X13608916Y-1134599D01*
X13608916Y-1134599D02*
X13602725Y-1146980D01*
X13602725Y-1146980D02*
X13596535Y-1153170D01*
X13596535Y-1153170D02*
X13584154Y-1159360D01*
X13584154Y-1159360D02*
X13547011Y-1159360D01*
X13547011Y-1159360D02*
X13534630Y-1153170D01*
X13534630Y-1153170D02*
X13528440Y-1146980D01*
D10*
D11*
X18596535Y-1072694D02*
X18596535Y-1159360D01*
X18565583Y-1023170D02*
X18534630Y-1116027D01*
X18534630Y-1116027D02*
X18615106Y-1116027D01*
D10*
D11*
X23602725Y-1029360D02*
X23540821Y-1029360D01*
X23540821Y-1029360D02*
X23534630Y-1091265D01*
X23534630Y-1091265D02*
X23540821Y-1085075D01*
X23540821Y-1085075D02*
X23553202Y-1078884D01*
X23553202Y-1078884D02*
X23584154Y-1078884D01*
X23584154Y-1078884D02*
X23596535Y-1085075D01*
X23596535Y-1085075D02*
X23602725Y-1091265D01*
X23602725Y-1091265D02*
X23608916Y-1103646D01*
X23608916Y-1103646D02*
X23608916Y-1134599D01*
X23608916Y-1134599D02*
X23602725Y-1146980D01*
X23602725Y-1146980D02*
X23596535Y-1153170D01*
X23596535Y-1153170D02*
X23584154Y-1159360D01*
X23584154Y-1159360D02*
X23553202Y-1159360D01*
X23553202Y-1159360D02*
X23540821Y-1153170D01*
X23540821Y-1153170D02*
X23534630Y-1146980D01*
D10*
D11*
X28596535Y-1029360D02*
X28571773Y-1029360D01*
X28571773Y-1029360D02*
X28559392Y-1035551D01*
X28559392Y-1035551D02*
X28553202Y-1041741D01*
X28553202Y-1041741D02*
X28540821Y-1060313D01*
X28540821Y-1060313D02*
X28534630Y-1085075D01*
X28534630Y-1085075D02*
X28534630Y-1134599D01*
X28534630Y-1134599D02*
X28540821Y-1146980D01*
X28540821Y-1146980D02*
X28547011Y-1153170D01*
X28547011Y-1153170D02*
X28559392Y-1159360D01*
X28559392Y-1159360D02*
X28584154Y-1159360D01*
X28584154Y-1159360D02*
X28596535Y-1153170D01*
X28596535Y-1153170D02*
X28602725Y-1146980D01*
X28602725Y-1146980D02*
X28608916Y-1134599D01*
X28608916Y-1134599D02*
X28608916Y-1103646D01*
X28608916Y-1103646D02*
X28602725Y-1091265D01*
X28602725Y-1091265D02*
X28596535Y-1085075D01*
X28596535Y-1085075D02*
X28584154Y-1078884D01*
X28584154Y-1078884D02*
X28559392Y-1078884D01*
X28559392Y-1078884D02*
X28547011Y-1085075D01*
X28547011Y-1085075D02*
X28540821Y-1091265D01*
X28540821Y-1091265D02*
X28534630Y-1103646D01*
D10*
D11*
X33528440Y-1029360D02*
X33615106Y-1029360D01*
X33615106Y-1029360D02*
X33559392Y-1159360D01*
D10*
D11*
X38559392Y-1085075D02*
X38547011Y-1078884D01*
X38547011Y-1078884D02*
X38540821Y-1072694D01*
X38540821Y-1072694D02*
X38534630Y-1060313D01*
X38534630Y-1060313D02*
X38534630Y-1054122D01*
X38534630Y-1054122D02*
X38540821Y-1041741D01*
X38540821Y-1041741D02*
X38547011Y-1035551D01*
X38547011Y-1035551D02*
X38559392Y-1029360D01*
X38559392Y-1029360D02*
X38584154Y-1029360D01*
X38584154Y-1029360D02*
X38596535Y-1035551D01*
X38596535Y-1035551D02*
X38602726Y-1041741D01*
X38602726Y-1041741D02*
X38608916Y-1054122D01*
X38608916Y-1054122D02*
X38608916Y-1060313D01*
X38608916Y-1060313D02*
X38602726Y-1072694D01*
X38602726Y-1072694D02*
X38596535Y-1078884D01*
X38596535Y-1078884D02*
X38584154Y-1085075D01*
X38584154Y-1085075D02*
X38559392Y-1085075D01*
X38559392Y-1085075D02*
X38547011Y-1091265D01*
X38547011Y-1091265D02*
X38540821Y-1097456D01*
X38540821Y-1097456D02*
X38534630Y-1109837D01*
X38534630Y-1109837D02*
X38534630Y-1134599D01*
X38534630Y-1134599D02*
X38540821Y-1146980D01*
X38540821Y-1146980D02*
X38547011Y-1153170D01*
X38547011Y-1153170D02*
X38559392Y-1159360D01*
X38559392Y-1159360D02*
X38584154Y-1159360D01*
X38584154Y-1159360D02*
X38596535Y-1153170D01*
X38596535Y-1153170D02*
X38602726Y-1146980D01*
X38602726Y-1146980D02*
X38608916Y-1134599D01*
X38608916Y-1134599D02*
X38608916Y-1109837D01*
X38608916Y-1109837D02*
X38602726Y-1097456D01*
X38602726Y-1097456D02*
X38596535Y-1091265D01*
X38596535Y-1091265D02*
X38584154Y-1085075D01*
D10*
D11*
X6000000Y-28500220D02*
X6000000Y-28700220D01*
D10*
D11*
X11000000Y-28500220D02*
X11000000Y-28700220D01*
D10*
D11*
X16000000Y-28500220D02*
X16000000Y-28700220D01*
D10*
D11*
X21000000Y-28500220D02*
X21000000Y-28700220D01*
D10*
D11*
X26000000Y-28500220D02*
X26000000Y-28700220D01*
D10*
D11*
X31000000Y-28500220D02*
X31000000Y-28700220D01*
D10*
D11*
X36000000Y-28500220D02*
X36000000Y-28700220D01*
D10*
D11*
X3608916Y-28659580D02*
X3534630Y-28659580D01*
X3571773Y-28659580D02*
X3571773Y-28529580D01*
X3571773Y-28529580D02*
X3559392Y-28548152D01*
X3559392Y-28548152D02*
X3547011Y-28560533D01*
X3547011Y-28560533D02*
X3534630Y-28566723D01*
D10*
D11*
X8534630Y-28541961D02*
X8540821Y-28535771D01*
X8540821Y-28535771D02*
X8553202Y-28529580D01*
X8553202Y-28529580D02*
X8584154Y-28529580D01*
X8584154Y-28529580D02*
X8596535Y-28535771D01*
X8596535Y-28535771D02*
X8602726Y-28541961D01*
X8602726Y-28541961D02*
X8608916Y-28554342D01*
X8608916Y-28554342D02*
X8608916Y-28566723D01*
X8608916Y-28566723D02*
X8602726Y-28585295D01*
X8602726Y-28585295D02*
X8528440Y-28659580D01*
X8528440Y-28659580D02*
X8608916Y-28659580D01*
D10*
D11*
X13528440Y-28529580D02*
X13608916Y-28529580D01*
X13608916Y-28529580D02*
X13565583Y-28579104D01*
X13565583Y-28579104D02*
X13584154Y-28579104D01*
X13584154Y-28579104D02*
X13596535Y-28585295D01*
X13596535Y-28585295D02*
X13602725Y-28591485D01*
X13602725Y-28591485D02*
X13608916Y-28603866D01*
X13608916Y-28603866D02*
X13608916Y-28634818D01*
X13608916Y-28634818D02*
X13602725Y-28647199D01*
X13602725Y-28647199D02*
X13596535Y-28653390D01*
X13596535Y-28653390D02*
X13584154Y-28659580D01*
X13584154Y-28659580D02*
X13547011Y-28659580D01*
X13547011Y-28659580D02*
X13534630Y-28653390D01*
X13534630Y-28653390D02*
X13528440Y-28647199D01*
D10*
D11*
X18596535Y-28572914D02*
X18596535Y-28659580D01*
X18565583Y-28523390D02*
X18534630Y-28616247D01*
X18534630Y-28616247D02*
X18615106Y-28616247D01*
D10*
D11*
X23602725Y-28529580D02*
X23540821Y-28529580D01*
X23540821Y-28529580D02*
X23534630Y-28591485D01*
X23534630Y-28591485D02*
X23540821Y-28585295D01*
X23540821Y-28585295D02*
X23553202Y-28579104D01*
X23553202Y-28579104D02*
X23584154Y-28579104D01*
X23584154Y-28579104D02*
X23596535Y-28585295D01*
X23596535Y-28585295D02*
X23602725Y-28591485D01*
X23602725Y-28591485D02*
X23608916Y-28603866D01*
X23608916Y-28603866D02*
X23608916Y-28634818D01*
X23608916Y-28634818D02*
X23602725Y-28647199D01*
X23602725Y-28647199D02*
X23596535Y-28653390D01*
X23596535Y-28653390D02*
X23584154Y-28659580D01*
X23584154Y-28659580D02*
X23553202Y-28659580D01*
X23553202Y-28659580D02*
X23540821Y-28653390D01*
X23540821Y-28653390D02*
X23534630Y-28647199D01*
D10*
D11*
X28596535Y-28529580D02*
X28571773Y-28529580D01*
X28571773Y-28529580D02*
X28559392Y-28535771D01*
X28559392Y-28535771D02*
X28553202Y-28541961D01*
X28553202Y-28541961D02*
X28540821Y-28560533D01*
X28540821Y-28560533D02*
X28534630Y-28585295D01*
X28534630Y-28585295D02*
X28534630Y-28634818D01*
X28534630Y-28634818D02*
X28540821Y-28647199D01*
X28540821Y-28647199D02*
X28547011Y-28653390D01*
X28547011Y-28653390D02*
X28559392Y-28659580D01*
X28559392Y-28659580D02*
X28584154Y-28659580D01*
X28584154Y-28659580D02*
X28596535Y-28653390D01*
X28596535Y-28653390D02*
X28602725Y-28647199D01*
X28602725Y-28647199D02*
X28608916Y-28634818D01*
X28608916Y-28634818D02*
X28608916Y-28603866D01*
X28608916Y-28603866D02*
X28602725Y-28591485D01*
X28602725Y-28591485D02*
X28596535Y-28585295D01*
X28596535Y-28585295D02*
X28584154Y-28579104D01*
X28584154Y-28579104D02*
X28559392Y-28579104D01*
X28559392Y-28579104D02*
X28547011Y-28585295D01*
X28547011Y-28585295D02*
X28540821Y-28591485D01*
X28540821Y-28591485D02*
X28534630Y-28603866D01*
D10*
D11*
X33528440Y-28529580D02*
X33615106Y-28529580D01*
X33615106Y-28529580D02*
X33559392Y-28659580D01*
D10*
D11*
X38559392Y-28585295D02*
X38547011Y-28579104D01*
X38547011Y-28579104D02*
X38540821Y-28572914D01*
X38540821Y-28572914D02*
X38534630Y-28560533D01*
X38534630Y-28560533D02*
X38534630Y-28554342D01*
X38534630Y-28554342D02*
X38540821Y-28541961D01*
X38540821Y-28541961D02*
X38547011Y-28535771D01*
X38547011Y-28535771D02*
X38559392Y-28529580D01*
X38559392Y-28529580D02*
X38584154Y-28529580D01*
X38584154Y-28529580D02*
X38596535Y-28535771D01*
X38596535Y-28535771D02*
X38602726Y-28541961D01*
X38602726Y-28541961D02*
X38608916Y-28554342D01*
X38608916Y-28554342D02*
X38608916Y-28560533D01*
X38608916Y-28560533D02*
X38602726Y-28572914D01*
X38602726Y-28572914D02*
X38596535Y-28579104D01*
X38596535Y-28579104D02*
X38584154Y-28585295D01*
X38584154Y-28585295D02*
X38559392Y-28585295D01*
X38559392Y-28585295D02*
X38547011Y-28591485D01*
X38547011Y-28591485D02*
X38540821Y-28597676D01*
X38540821Y-28597676D02*
X38534630Y-28610057D01*
X38534630Y-28610057D02*
X38534630Y-28634818D01*
X38534630Y-28634818D02*
X38540821Y-28647199D01*
X38540821Y-28647199D02*
X38547011Y-28653390D01*
X38547011Y-28653390D02*
X38559392Y-28659580D01*
X38559392Y-28659580D02*
X38584154Y-28659580D01*
X38584154Y-28659580D02*
X38596535Y-28653390D01*
X38596535Y-28653390D02*
X38602726Y-28647199D01*
X38602726Y-28647199D02*
X38608916Y-28634818D01*
X38608916Y-28634818D02*
X38608916Y-28610057D01*
X38608916Y-28610057D02*
X38602726Y-28597676D01*
X38602726Y-28597676D02*
X38596535Y-28591485D01*
X38596535Y-28591485D02*
X38584154Y-28585295D01*
D10*
D11*
X1000000Y-6000000D02*
X1200000Y-6000000D01*
D10*
D11*
X1000000Y-11000000D02*
X1200000Y-11000000D01*
D10*
D11*
X1000000Y-16000000D02*
X1200000Y-16000000D01*
D10*
D11*
X1000000Y-21000000D02*
X1200000Y-21000000D01*
D10*
D11*
X1000000Y-26000000D02*
X1200000Y-26000000D01*
D10*
D11*
X1069048Y-3522218D02*
X1130952Y-3522218D01*
X1056667Y-3559360D02*
X1100000Y-3429360D01*
X1100000Y-3429360D02*
X1143333Y-3559360D01*
D10*
D11*
X1109286Y-8491265D02*
X1127857Y-8497456D01*
X1127857Y-8497456D02*
X1134048Y-8503646D01*
X1134048Y-8503646D02*
X1140238Y-8516027D01*
X1140238Y-8516027D02*
X1140238Y-8534599D01*
X1140238Y-8534599D02*
X1134048Y-8546980D01*
X1134048Y-8546980D02*
X1127857Y-8553170D01*
X1127857Y-8553170D02*
X1115476Y-8559360D01*
X1115476Y-8559360D02*
X1065952Y-8559360D01*
X1065952Y-8559360D02*
X1065952Y-8429360D01*
X1065952Y-8429360D02*
X1109286Y-8429360D01*
X1109286Y-8429360D02*
X1121667Y-8435551D01*
X1121667Y-8435551D02*
X1127857Y-8441741D01*
X1127857Y-8441741D02*
X1134048Y-8454122D01*
X1134048Y-8454122D02*
X1134048Y-8466503D01*
X1134048Y-8466503D02*
X1127857Y-8478884D01*
X1127857Y-8478884D02*
X1121667Y-8485075D01*
X1121667Y-8485075D02*
X1109286Y-8491265D01*
X1109286Y-8491265D02*
X1065952Y-8491265D01*
D10*
D11*
X1140238Y-13546979D02*
X1134048Y-13553170D01*
X1134048Y-13553170D02*
X1115476Y-13559360D01*
X1115476Y-13559360D02*
X1103095Y-13559360D01*
X1103095Y-13559360D02*
X1084524Y-13553170D01*
X1084524Y-13553170D02*
X1072143Y-13540789D01*
X1072143Y-13540789D02*
X1065952Y-13528408D01*
X1065952Y-13528408D02*
X1059762Y-13503646D01*
X1059762Y-13503646D02*
X1059762Y-13485075D01*
X1059762Y-13485075D02*
X1065952Y-13460313D01*
X1065952Y-13460313D02*
X1072143Y-13447932D01*
X1072143Y-13447932D02*
X1084524Y-13435551D01*
X1084524Y-13435551D02*
X1103095Y-13429360D01*
X1103095Y-13429360D02*
X1115476Y-13429360D01*
X1115476Y-13429360D02*
X1134048Y-13435551D01*
X1134048Y-13435551D02*
X1140238Y-13441741D01*
D10*
D11*
X1065952Y-18559360D02*
X1065952Y-18429360D01*
X1065952Y-18429360D02*
X1096905Y-18429360D01*
X1096905Y-18429360D02*
X1115476Y-18435551D01*
X1115476Y-18435551D02*
X1127857Y-18447932D01*
X1127857Y-18447932D02*
X1134048Y-18460313D01*
X1134048Y-18460313D02*
X1140238Y-18485075D01*
X1140238Y-18485075D02*
X1140238Y-18503646D01*
X1140238Y-18503646D02*
X1134048Y-18528408D01*
X1134048Y-18528408D02*
X1127857Y-18540789D01*
X1127857Y-18540789D02*
X1115476Y-18553170D01*
X1115476Y-18553170D02*
X1096905Y-18559360D01*
X1096905Y-18559360D02*
X1065952Y-18559360D01*
D10*
D11*
X1072143Y-23491265D02*
X1115476Y-23491265D01*
X1134048Y-23559360D02*
X1072143Y-23559360D01*
X1072143Y-23559360D02*
X1072143Y-23429360D01*
X1072143Y-23429360D02*
X1134048Y-23429360D01*
D10*
D11*
X1118571Y-28491265D02*
X1075238Y-28491265D01*
X1075238Y-28559360D02*
X1075238Y-28429360D01*
X1075238Y-28429360D02*
X1137143Y-28429360D01*
D10*
D11*
X40998900Y-6000000D02*
X40798900Y-6000000D01*
D10*
D11*
X40998900Y-11000000D02*
X40798900Y-11000000D01*
D10*
D11*
X40998900Y-16000000D02*
X40798900Y-16000000D01*
D10*
D11*
X40998900Y-21000000D02*
X40798900Y-21000000D01*
D10*
D11*
X40998900Y-26000000D02*
X40798900Y-26000000D01*
D10*
D11*
X40867948Y-3522218D02*
X40929852Y-3522218D01*
X40855567Y-3559360D02*
X40898900Y-3429360D01*
X40898900Y-3429360D02*
X40942233Y-3559360D01*
D10*
D11*
X40908186Y-8491265D02*
X40926757Y-8497456D01*
X40926757Y-8497456D02*
X40932948Y-8503646D01*
X40932948Y-8503646D02*
X40939138Y-8516027D01*
X40939138Y-8516027D02*
X40939138Y-8534599D01*
X40939138Y-8534599D02*
X40932948Y-8546980D01*
X40932948Y-8546980D02*
X40926757Y-8553170D01*
X40926757Y-8553170D02*
X40914376Y-8559360D01*
X40914376Y-8559360D02*
X40864852Y-8559360D01*
X40864852Y-8559360D02*
X40864852Y-8429360D01*
X40864852Y-8429360D02*
X40908186Y-8429360D01*
X40908186Y-8429360D02*
X40920567Y-8435551D01*
X40920567Y-8435551D02*
X40926757Y-8441741D01*
X40926757Y-8441741D02*
X40932948Y-8454122D01*
X40932948Y-8454122D02*
X40932948Y-8466503D01*
X40932948Y-8466503D02*
X40926757Y-8478884D01*
X40926757Y-8478884D02*
X40920567Y-8485075D01*
X40920567Y-8485075D02*
X40908186Y-8491265D01*
X40908186Y-8491265D02*
X40864852Y-8491265D01*
D10*
D11*
X40939138Y-13546979D02*
X40932948Y-13553170D01*
X40932948Y-13553170D02*
X40914376Y-13559360D01*
X40914376Y-13559360D02*
X40901995Y-13559360D01*
X40901995Y-13559360D02*
X40883424Y-13553170D01*
X40883424Y-13553170D02*
X40871043Y-13540789D01*
X40871043Y-13540789D02*
X40864852Y-13528408D01*
X40864852Y-13528408D02*
X40858662Y-13503646D01*
X40858662Y-13503646D02*
X40858662Y-13485075D01*
X40858662Y-13485075D02*
X40864852Y-13460313D01*
X40864852Y-13460313D02*
X40871043Y-13447932D01*
X40871043Y-13447932D02*
X40883424Y-13435551D01*
X40883424Y-13435551D02*
X40901995Y-13429360D01*
X40901995Y-13429360D02*
X40914376Y-13429360D01*
X40914376Y-13429360D02*
X40932948Y-13435551D01*
X40932948Y-13435551D02*
X40939138Y-13441741D01*
D10*
D11*
X40864852Y-18559360D02*
X40864852Y-18429360D01*
X40864852Y-18429360D02*
X40895805Y-18429360D01*
X40895805Y-18429360D02*
X40914376Y-18435551D01*
X40914376Y-18435551D02*
X40926757Y-18447932D01*
X40926757Y-18447932D02*
X40932948Y-18460313D01*
X40932948Y-18460313D02*
X40939138Y-18485075D01*
X40939138Y-18485075D02*
X40939138Y-18503646D01*
X40939138Y-18503646D02*
X40932948Y-18528408D01*
X40932948Y-18528408D02*
X40926757Y-18540789D01*
X40926757Y-18540789D02*
X40914376Y-18553170D01*
X40914376Y-18553170D02*
X40895805Y-18559360D01*
X40895805Y-18559360D02*
X40864852Y-18559360D01*
D10*
D11*
X40871043Y-23491265D02*
X40914376Y-23491265D01*
X40932948Y-23559360D02*
X40871043Y-23559360D01*
X40871043Y-23559360D02*
X40871043Y-23429360D01*
X40871043Y-23429360D02*
X40932948Y-23429360D01*
D10*
D11*
X40917471Y-28491265D02*
X40874138Y-28491265D01*
X40874138Y-28559360D02*
X40874138Y-28429360D01*
X40874138Y-28429360D02*
X40936043Y-28429360D01*
D10*
D11*
X32344483Y-28078833D02*
X32344483Y-27928833D01*
X32344483Y-27928833D02*
X32380197Y-27928833D01*
X32380197Y-27928833D02*
X32401625Y-27935976D01*
X32401625Y-27935976D02*
X32415911Y-27950261D01*
X32415911Y-27950261D02*
X32423054Y-27964547D01*
X32423054Y-27964547D02*
X32430197Y-27993118D01*
X32430197Y-27993118D02*
X32430197Y-28014547D01*
X32430197Y-28014547D02*
X32423054Y-28043118D01*
X32423054Y-28043118D02*
X32415911Y-28057404D01*
X32415911Y-28057404D02*
X32401625Y-28071690D01*
X32401625Y-28071690D02*
X32380197Y-28078833D01*
X32380197Y-28078833D02*
X32344483Y-28078833D01*
X32558768Y-28078833D02*
X32558768Y-28000261D01*
X32558768Y-28000261D02*
X32551625Y-27985976D01*
X32551625Y-27985976D02*
X32537340Y-27978833D01*
X32537340Y-27978833D02*
X32508768Y-27978833D01*
X32508768Y-27978833D02*
X32494483Y-27985976D01*
X32558768Y-28071690D02*
X32544483Y-28078833D01*
X32544483Y-28078833D02*
X32508768Y-28078833D01*
X32508768Y-28078833D02*
X32494483Y-28071690D01*
X32494483Y-28071690D02*
X32487340Y-28057404D01*
X32487340Y-28057404D02*
X32487340Y-28043118D01*
X32487340Y-28043118D02*
X32494483Y-28028833D01*
X32494483Y-28028833D02*
X32508768Y-28021690D01*
X32508768Y-28021690D02*
X32544483Y-28021690D01*
X32544483Y-28021690D02*
X32558768Y-28014547D01*
X32608768Y-27978833D02*
X32665911Y-27978833D01*
X32630197Y-27928833D02*
X32630197Y-28057404D01*
X32630197Y-28057404D02*
X32637340Y-28071690D01*
X32637340Y-28071690D02*
X32651625Y-28078833D01*
X32651625Y-28078833D02*
X32665911Y-28078833D01*
X32773054Y-28071690D02*
X32758768Y-28078833D01*
X32758768Y-28078833D02*
X32730197Y-28078833D01*
X32730197Y-28078833D02*
X32715911Y-28071690D01*
X32715911Y-28071690D02*
X32708768Y-28057404D01*
X32708768Y-28057404D02*
X32708768Y-28000261D01*
X32708768Y-28000261D02*
X32715911Y-27985976D01*
X32715911Y-27985976D02*
X32730197Y-27978833D01*
X32730197Y-27978833D02*
X32758768Y-27978833D01*
X32758768Y-27978833D02*
X32773054Y-27985976D01*
X32773054Y-27985976D02*
X32780197Y-28000261D01*
X32780197Y-28000261D02*
X32780197Y-28014547D01*
X32780197Y-28014547D02*
X32708768Y-28028833D01*
X32844483Y-28064547D02*
X32851625Y-28071690D01*
X32851625Y-28071690D02*
X32844483Y-28078833D01*
X32844483Y-28078833D02*
X32837340Y-28071690D01*
X32837340Y-28071690D02*
X32844483Y-28064547D01*
X32844483Y-28064547D02*
X32844483Y-28078833D01*
X32844483Y-27985976D02*
X32851625Y-27993118D01*
X32851625Y-27993118D02*
X32844483Y-28000261D01*
X32844483Y-28000261D02*
X32837340Y-27993118D01*
X32837340Y-27993118D02*
X32844483Y-27985976D01*
X32844483Y-27985976D02*
X32844483Y-28000261D01*
D10*
D11*
X29998900Y-28150220D02*
X40798900Y-28150220D01*
D10*
D11*
X30144483Y-28358833D02*
X30144483Y-28208833D01*
X30230197Y-28358833D02*
X30165911Y-28273118D01*
X30230197Y-28208833D02*
X30144483Y-28294547D01*
X30294483Y-28358833D02*
X30294483Y-28258833D01*
X30294483Y-28208833D02*
X30287340Y-28215976D01*
X30287340Y-28215976D02*
X30294483Y-28223118D01*
X30294483Y-28223118D02*
X30301625Y-28215976D01*
X30301625Y-28215976D02*
X30294483Y-28208833D01*
X30294483Y-28208833D02*
X30294483Y-28223118D01*
X30451625Y-28344547D02*
X30444483Y-28351690D01*
X30444483Y-28351690D02*
X30423054Y-28358833D01*
X30423054Y-28358833D02*
X30408768Y-28358833D01*
X30408768Y-28358833D02*
X30387340Y-28351690D01*
X30387340Y-28351690D02*
X30373054Y-28337404D01*
X30373054Y-28337404D02*
X30365911Y-28323118D01*
X30365911Y-28323118D02*
X30358768Y-28294547D01*
X30358768Y-28294547D02*
X30358768Y-28273118D01*
X30358768Y-28273118D02*
X30365911Y-28244547D01*
X30365911Y-28244547D02*
X30373054Y-28230261D01*
X30373054Y-28230261D02*
X30387340Y-28215976D01*
X30387340Y-28215976D02*
X30408768Y-28208833D01*
X30408768Y-28208833D02*
X30423054Y-28208833D01*
X30423054Y-28208833D02*
X30444483Y-28215976D01*
X30444483Y-28215976D02*
X30451625Y-28223118D01*
X30580197Y-28358833D02*
X30580197Y-28280261D01*
X30580197Y-28280261D02*
X30573054Y-28265976D01*
X30573054Y-28265976D02*
X30558768Y-28258833D01*
X30558768Y-28258833D02*
X30530197Y-28258833D01*
X30530197Y-28258833D02*
X30515911Y-28265976D01*
X30580197Y-28351690D02*
X30565911Y-28358833D01*
X30565911Y-28358833D02*
X30530197Y-28358833D01*
X30530197Y-28358833D02*
X30515911Y-28351690D01*
X30515911Y-28351690D02*
X30508768Y-28337404D01*
X30508768Y-28337404D02*
X30508768Y-28323118D01*
X30508768Y-28323118D02*
X30515911Y-28308833D01*
X30515911Y-28308833D02*
X30530197Y-28301690D01*
X30530197Y-28301690D02*
X30565911Y-28301690D01*
X30565911Y-28301690D02*
X30580197Y-28294547D01*
X30715911Y-28358833D02*
X30715911Y-28208833D01*
X30715911Y-28351690D02*
X30701625Y-28358833D01*
X30701625Y-28358833D02*
X30673054Y-28358833D01*
X30673054Y-28358833D02*
X30658768Y-28351690D01*
X30658768Y-28351690D02*
X30651625Y-28344547D01*
X30651625Y-28344547D02*
X30644483Y-28330261D01*
X30644483Y-28330261D02*
X30644483Y-28287404D01*
X30644483Y-28287404D02*
X30651625Y-28273118D01*
X30651625Y-28273118D02*
X30658768Y-28265976D01*
X30658768Y-28265976D02*
X30673054Y-28258833D01*
X30673054Y-28258833D02*
X30701625Y-28258833D01*
X30701625Y-28258833D02*
X30715911Y-28265976D01*
X30901625Y-28280261D02*
X30951625Y-28280261D01*
X30973054Y-28358833D02*
X30901625Y-28358833D01*
X30901625Y-28358833D02*
X30901625Y-28208833D01*
X30901625Y-28208833D02*
X30973054Y-28208833D01*
X31037340Y-28344547D02*
X31044483Y-28351690D01*
X31044483Y-28351690D02*
X31037340Y-28358833D01*
X31037340Y-28358833D02*
X31030197Y-28351690D01*
X31030197Y-28351690D02*
X31037340Y-28344547D01*
X31037340Y-28344547D02*
X31037340Y-28358833D01*
X31108768Y-28358833D02*
X31108768Y-28208833D01*
X31108768Y-28208833D02*
X31144483Y-28208833D01*
X31144483Y-28208833D02*
X31165911Y-28215976D01*
X31165911Y-28215976D02*
X31180197Y-28230261D01*
X31180197Y-28230261D02*
X31187340Y-28244547D01*
X31187340Y-28244547D02*
X31194483Y-28273118D01*
X31194483Y-28273118D02*
X31194483Y-28294547D01*
X31194483Y-28294547D02*
X31187340Y-28323118D01*
X31187340Y-28323118D02*
X31180197Y-28337404D01*
X31180197Y-28337404D02*
X31165911Y-28351690D01*
X31165911Y-28351690D02*
X31144483Y-28358833D01*
X31144483Y-28358833D02*
X31108768Y-28358833D01*
X31258768Y-28344547D02*
X31265911Y-28351690D01*
X31265911Y-28351690D02*
X31258768Y-28358833D01*
X31258768Y-28358833D02*
X31251626Y-28351690D01*
X31251626Y-28351690D02*
X31258768Y-28344547D01*
X31258768Y-28344547D02*
X31258768Y-28358833D01*
X31323054Y-28315976D02*
X31394483Y-28315976D01*
X31308768Y-28358833D02*
X31358768Y-28208833D01*
X31358768Y-28208833D02*
X31408768Y-28358833D01*
X31458768Y-28344547D02*
X31465911Y-28351690D01*
X31465911Y-28351690D02*
X31458768Y-28358833D01*
X31458768Y-28358833D02*
X31451626Y-28351690D01*
X31451626Y-28351690D02*
X31458768Y-28344547D01*
X31458768Y-28344547D02*
X31458768Y-28358833D01*
X31651626Y-28358833D02*
X31680197Y-28358833D01*
X31680197Y-28358833D02*
X31694483Y-28351690D01*
X31694483Y-28351690D02*
X31701626Y-28344547D01*
X31701626Y-28344547D02*
X31715911Y-28323118D01*
X31715911Y-28323118D02*
X31723054Y-28294547D01*
X31723054Y-28294547D02*
X31723054Y-28237404D01*
X31723054Y-28237404D02*
X31715911Y-28223118D01*
X31715911Y-28223118D02*
X31708768Y-28215976D01*
X31708768Y-28215976D02*
X31694483Y-28208833D01*
X31694483Y-28208833D02*
X31665911Y-28208833D01*
X31665911Y-28208833D02*
X31651626Y-28215976D01*
X31651626Y-28215976D02*
X31644483Y-28223118D01*
X31644483Y-28223118D02*
X31637340Y-28237404D01*
X31637340Y-28237404D02*
X31637340Y-28273118D01*
X31637340Y-28273118D02*
X31644483Y-28287404D01*
X31644483Y-28287404D02*
X31651626Y-28294547D01*
X31651626Y-28294547D02*
X31665911Y-28301690D01*
X31665911Y-28301690D02*
X31694483Y-28301690D01*
X31694483Y-28301690D02*
X31708768Y-28294547D01*
X31708768Y-28294547D02*
X31715911Y-28287404D01*
X31715911Y-28287404D02*
X31723054Y-28273118D01*
X31787340Y-28344547D02*
X31794483Y-28351690D01*
X31794483Y-28351690D02*
X31787340Y-28358833D01*
X31787340Y-28358833D02*
X31780197Y-28351690D01*
X31780197Y-28351690D02*
X31787340Y-28344547D01*
X31787340Y-28344547D02*
X31787340Y-28358833D01*
X31887340Y-28208833D02*
X31901626Y-28208833D01*
X31901626Y-28208833D02*
X31915911Y-28215976D01*
X31915911Y-28215976D02*
X31923054Y-28223118D01*
X31923054Y-28223118D02*
X31930197Y-28237404D01*
X31930197Y-28237404D02*
X31937340Y-28265976D01*
X31937340Y-28265976D02*
X31937340Y-28301690D01*
X31937340Y-28301690D02*
X31930197Y-28330261D01*
X31930197Y-28330261D02*
X31923054Y-28344547D01*
X31923054Y-28344547D02*
X31915911Y-28351690D01*
X31915911Y-28351690D02*
X31901626Y-28358833D01*
X31901626Y-28358833D02*
X31887340Y-28358833D01*
X31887340Y-28358833D02*
X31873054Y-28351690D01*
X31873054Y-28351690D02*
X31865911Y-28344547D01*
X31865911Y-28344547D02*
X31858768Y-28330261D01*
X31858768Y-28330261D02*
X31851626Y-28301690D01*
X31851626Y-28301690D02*
X31851626Y-28265976D01*
X31851626Y-28265976D02*
X31858768Y-28237404D01*
X31858768Y-28237404D02*
X31865911Y-28223118D01*
X31865911Y-28223118D02*
X31873054Y-28215976D01*
X31873054Y-28215976D02*
X31887340Y-28208833D01*
X32001625Y-28344547D02*
X32008768Y-28351690D01*
X32008768Y-28351690D02*
X32001625Y-28358833D01*
X32001625Y-28358833D02*
X31994483Y-28351690D01*
X31994483Y-28351690D02*
X32001625Y-28344547D01*
X32001625Y-28344547D02*
X32001625Y-28358833D01*
X32137340Y-28258833D02*
X32137340Y-28358833D01*
X32101626Y-28201690D02*
X32065911Y-28308833D01*
X32065911Y-28308833D02*
X32158768Y-28308833D01*
D10*
D11*
X29998900Y-27850220D02*
X40798900Y-27850220D01*
D10*
D12*
X38740065Y-28078053D02*
X38690065Y-28006624D01*
X38654351Y-28078053D02*
X38654351Y-27928053D01*
X38654351Y-27928053D02*
X38711494Y-27928053D01*
X38711494Y-27928053D02*
X38725780Y-27935196D01*
X38725780Y-27935196D02*
X38732923Y-27942338D01*
X38732923Y-27942338D02*
X38740065Y-27956624D01*
X38740065Y-27956624D02*
X38740065Y-27978053D01*
X38740065Y-27978053D02*
X38732923Y-27992338D01*
X38732923Y-27992338D02*
X38725780Y-27999481D01*
X38725780Y-27999481D02*
X38711494Y-28006624D01*
X38711494Y-28006624D02*
X38654351Y-28006624D01*
X38861494Y-28070910D02*
X38847208Y-28078053D01*
X38847208Y-28078053D02*
X38818637Y-28078053D01*
X38818637Y-28078053D02*
X38804351Y-28070910D01*
X38804351Y-28070910D02*
X38797208Y-28056624D01*
X38797208Y-28056624D02*
X38797208Y-27999481D01*
X38797208Y-27999481D02*
X38804351Y-27985196D01*
X38804351Y-27985196D02*
X38818637Y-27978053D01*
X38818637Y-27978053D02*
X38847208Y-27978053D01*
X38847208Y-27978053D02*
X38861494Y-27985196D01*
X38861494Y-27985196D02*
X38868637Y-27999481D01*
X38868637Y-27999481D02*
X38868637Y-28013767D01*
X38868637Y-28013767D02*
X38797208Y-28028053D01*
X38918637Y-27978053D02*
X38954351Y-28078053D01*
X38954351Y-28078053D02*
X38990065Y-27978053D01*
X39047208Y-28063767D02*
X39054351Y-28070910D01*
X39054351Y-28070910D02*
X39047208Y-28078053D01*
X39047208Y-28078053D02*
X39040065Y-28070910D01*
X39040065Y-28070910D02*
X39047208Y-28063767D01*
X39047208Y-28063767D02*
X39047208Y-28078053D01*
X39047208Y-27985196D02*
X39054351Y-27992338D01*
X39054351Y-27992338D02*
X39047208Y-27999481D01*
X39047208Y-27999481D02*
X39040065Y-27992338D01*
X39040065Y-27992338D02*
X39047208Y-27985196D01*
X39047208Y-27985196D02*
X39047208Y-27999481D01*
X39261494Y-27928053D02*
X39275780Y-27928053D01*
X39275780Y-27928053D02*
X39290065Y-27935196D01*
X39290065Y-27935196D02*
X39297208Y-27942338D01*
X39297208Y-27942338D02*
X39304351Y-27956624D01*
X39304351Y-27956624D02*
X39311494Y-27985196D01*
X39311494Y-27985196D02*
X39311494Y-28020910D01*
X39311494Y-28020910D02*
X39304351Y-28049481D01*
X39304351Y-28049481D02*
X39297208Y-28063767D01*
X39297208Y-28063767D02*
X39290065Y-28070910D01*
X39290065Y-28070910D02*
X39275780Y-28078053D01*
X39275780Y-28078053D02*
X39261494Y-28078053D01*
X39261494Y-28078053D02*
X39247208Y-28070910D01*
X39247208Y-28070910D02*
X39240065Y-28063767D01*
X39240065Y-28063767D02*
X39232922Y-28049481D01*
X39232922Y-28049481D02*
X39225780Y-28020910D01*
X39225780Y-28020910D02*
X39225780Y-27985196D01*
X39225780Y-27985196D02*
X39232922Y-27956624D01*
X39232922Y-27956624D02*
X39240065Y-27942338D01*
X39240065Y-27942338D02*
X39247208Y-27935196D01*
X39247208Y-27935196D02*
X39261494Y-27928053D01*
X39454351Y-28078053D02*
X39368637Y-28078053D01*
X39411494Y-28078053D02*
X39411494Y-27928053D01*
X39411494Y-27928053D02*
X39397208Y-27949481D01*
X39397208Y-27949481D02*
X39382922Y-27963767D01*
X39382922Y-27963767D02*
X39368637Y-27970910D01*
D10*
D11*
X30137340Y-28071690D02*
X30158768Y-28078833D01*
X30158768Y-28078833D02*
X30194483Y-28078833D01*
X30194483Y-28078833D02*
X30208768Y-28071690D01*
X30208768Y-28071690D02*
X30215911Y-28064547D01*
X30215911Y-28064547D02*
X30223054Y-28050261D01*
X30223054Y-28050261D02*
X30223054Y-28035976D01*
X30223054Y-28035976D02*
X30215911Y-28021690D01*
X30215911Y-28021690D02*
X30208768Y-28014547D01*
X30208768Y-28014547D02*
X30194483Y-28007404D01*
X30194483Y-28007404D02*
X30165911Y-28000261D01*
X30165911Y-28000261D02*
X30151625Y-27993118D01*
X30151625Y-27993118D02*
X30144483Y-27985976D01*
X30144483Y-27985976D02*
X30137340Y-27971690D01*
X30137340Y-27971690D02*
X30137340Y-27957404D01*
X30137340Y-27957404D02*
X30144483Y-27943118D01*
X30144483Y-27943118D02*
X30151625Y-27935976D01*
X30151625Y-27935976D02*
X30165911Y-27928833D01*
X30165911Y-27928833D02*
X30201625Y-27928833D01*
X30201625Y-27928833D02*
X30223054Y-27935976D01*
X30287340Y-28078833D02*
X30287340Y-27978833D01*
X30287340Y-27928833D02*
X30280197Y-27935976D01*
X30280197Y-27935976D02*
X30287340Y-27943118D01*
X30287340Y-27943118D02*
X30294483Y-27935976D01*
X30294483Y-27935976D02*
X30287340Y-27928833D01*
X30287340Y-27928833D02*
X30287340Y-27943118D01*
X30344483Y-27978833D02*
X30423054Y-27978833D01*
X30423054Y-27978833D02*
X30344483Y-28078833D01*
X30344483Y-28078833D02*
X30423054Y-28078833D01*
X30537340Y-28071690D02*
X30523054Y-28078833D01*
X30523054Y-28078833D02*
X30494483Y-28078833D01*
X30494483Y-28078833D02*
X30480197Y-28071690D01*
X30480197Y-28071690D02*
X30473054Y-28057404D01*
X30473054Y-28057404D02*
X30473054Y-28000261D01*
X30473054Y-28000261D02*
X30480197Y-27985976D01*
X30480197Y-27985976D02*
X30494483Y-27978833D01*
X30494483Y-27978833D02*
X30523054Y-27978833D01*
X30523054Y-27978833D02*
X30537340Y-27985976D01*
X30537340Y-27985976D02*
X30544483Y-28000261D01*
X30544483Y-28000261D02*
X30544483Y-28014547D01*
X30544483Y-28014547D02*
X30473054Y-28028833D01*
X30608768Y-28064547D02*
X30615911Y-28071690D01*
X30615911Y-28071690D02*
X30608768Y-28078833D01*
X30608768Y-28078833D02*
X30601625Y-28071690D01*
X30601625Y-28071690D02*
X30608768Y-28064547D01*
X30608768Y-28064547D02*
X30608768Y-28078833D01*
X30608768Y-27985976D02*
X30615911Y-27993118D01*
X30615911Y-27993118D02*
X30608768Y-28000261D01*
X30608768Y-28000261D02*
X30601625Y-27993118D01*
X30601625Y-27993118D02*
X30608768Y-27985976D01*
X30608768Y-27985976D02*
X30608768Y-28000261D01*
X30787340Y-28035976D02*
X30858768Y-28035976D01*
X30773054Y-28078833D02*
X30823054Y-27928833D01*
X30823054Y-27928833D02*
X30873054Y-28078833D01*
X30908768Y-27928833D02*
X31001625Y-27928833D01*
X31001625Y-27928833D02*
X30951625Y-27985976D01*
X30951625Y-27985976D02*
X30973054Y-27985976D01*
X30973054Y-27985976D02*
X30987340Y-27993118D01*
X30987340Y-27993118D02*
X30994483Y-28000261D01*
X30994483Y-28000261D02*
X31001625Y-28014547D01*
X31001625Y-28014547D02*
X31001625Y-28050261D01*
X31001625Y-28050261D02*
X30994483Y-28064547D01*
X30994483Y-28064547D02*
X30987340Y-28071690D01*
X30987340Y-28071690D02*
X30973054Y-28078833D01*
X30973054Y-28078833D02*
X30930197Y-28078833D01*
X30930197Y-28078833D02*
X30915911Y-28071690D01*
X30915911Y-28071690D02*
X30908768Y-28064547D01*
D10*
D11*
X38644483Y-28358833D02*
X38644483Y-28208833D01*
X38780197Y-28358833D02*
X38780197Y-28208833D01*
X38780197Y-28351690D02*
X38765911Y-28358833D01*
X38765911Y-28358833D02*
X38737340Y-28358833D01*
X38737340Y-28358833D02*
X38723054Y-28351690D01*
X38723054Y-28351690D02*
X38715911Y-28344547D01*
X38715911Y-28344547D02*
X38708768Y-28330261D01*
X38708768Y-28330261D02*
X38708768Y-28287404D01*
X38708768Y-28287404D02*
X38715911Y-28273118D01*
X38715911Y-28273118D02*
X38723054Y-28265976D01*
X38723054Y-28265976D02*
X38737340Y-28258833D01*
X38737340Y-28258833D02*
X38765911Y-28258833D01*
X38765911Y-28258833D02*
X38780197Y-28265976D01*
X38851626Y-28344547D02*
X38858768Y-28351690D01*
X38858768Y-28351690D02*
X38851626Y-28358833D01*
X38851626Y-28358833D02*
X38844483Y-28351690D01*
X38844483Y-28351690D02*
X38851626Y-28344547D01*
X38851626Y-28344547D02*
X38851626Y-28358833D01*
X38851626Y-28265976D02*
X38858768Y-28273118D01*
X38858768Y-28273118D02*
X38851626Y-28280261D01*
X38851626Y-28280261D02*
X38844483Y-28273118D01*
X38844483Y-28273118D02*
X38851626Y-28265976D01*
X38851626Y-28265976D02*
X38851626Y-28280261D01*
X39144483Y-28201690D02*
X39015911Y-28394547D01*
X39273054Y-28358833D02*
X39187340Y-28358833D01*
X39230197Y-28358833D02*
X39230197Y-28208833D01*
X39230197Y-28208833D02*
X39215911Y-28230261D01*
X39215911Y-28230261D02*
X39201626Y-28244547D01*
X39201626Y-28244547D02*
X39187340Y-28251690D01*
D10*
D11*
X29998900Y-27450220D02*
X40798900Y-27450220D01*
D10*
D13*
X30168073Y-27520664D02*
X30282358Y-27520664D01*
X30200216Y-27720664D02*
X30225216Y-27520664D01*
X30324025Y-27720664D02*
X30340692Y-27587330D01*
X30349025Y-27520664D02*
X30338311Y-27530188D01*
X30338311Y-27530188D02*
X30346644Y-27539711D01*
X30346644Y-27539711D02*
X30357359Y-27530188D01*
X30357359Y-27530188D02*
X30349025Y-27520664D01*
X30349025Y-27520664D02*
X30346644Y-27539711D01*
X30407359Y-27587330D02*
X30483549Y-27587330D01*
X30444263Y-27520664D02*
X30422835Y-27692092D01*
X30422835Y-27692092D02*
X30429978Y-27711140D01*
X30429978Y-27711140D02*
X30447835Y-27720664D01*
X30447835Y-27720664D02*
X30466882Y-27720664D01*
X30562120Y-27720664D02*
X30544263Y-27711140D01*
X30544263Y-27711140D02*
X30537120Y-27692092D01*
X30537120Y-27692092D02*
X30558549Y-27520664D01*
X30715692Y-27711140D02*
X30695454Y-27720664D01*
X30695454Y-27720664D02*
X30657358Y-27720664D01*
X30657358Y-27720664D02*
X30639501Y-27711140D01*
X30639501Y-27711140D02*
X30632358Y-27692092D01*
X30632358Y-27692092D02*
X30641882Y-27615902D01*
X30641882Y-27615902D02*
X30653787Y-27596854D01*
X30653787Y-27596854D02*
X30674025Y-27587330D01*
X30674025Y-27587330D02*
X30712120Y-27587330D01*
X30712120Y-27587330D02*
X30729978Y-27596854D01*
X30729978Y-27596854D02*
X30737120Y-27615902D01*
X30737120Y-27615902D02*
X30734739Y-27634949D01*
X30734739Y-27634949D02*
X30637120Y-27653997D01*
X30812120Y-27701616D02*
X30820454Y-27711140D01*
X30820454Y-27711140D02*
X30809739Y-27720664D01*
X30809739Y-27720664D02*
X30801406Y-27711140D01*
X30801406Y-27711140D02*
X30812120Y-27701616D01*
X30812120Y-27701616D02*
X30809739Y-27720664D01*
X30825216Y-27596854D02*
X30833549Y-27606378D01*
X30833549Y-27606378D02*
X30822835Y-27615902D01*
X30822835Y-27615902D02*
X30814501Y-27606378D01*
X30814501Y-27606378D02*
X30825216Y-27596854D01*
X30825216Y-27596854D02*
X30822835Y-27615902D01*
X31057359Y-27720664D02*
X31082359Y-27520664D01*
X31082359Y-27520664D02*
X31131168Y-27663521D01*
X31131168Y-27663521D02*
X31215692Y-27520664D01*
X31215692Y-27520664D02*
X31190692Y-27720664D01*
X31288311Y-27701616D02*
X31296644Y-27711140D01*
X31296644Y-27711140D02*
X31285930Y-27720664D01*
X31285930Y-27720664D02*
X31277597Y-27711140D01*
X31277597Y-27711140D02*
X31288311Y-27701616D01*
X31288311Y-27701616D02*
X31285930Y-27720664D01*
X31394263Y-27539711D02*
X31404978Y-27530188D01*
X31404978Y-27530188D02*
X31425216Y-27520664D01*
X31425216Y-27520664D02*
X31472835Y-27520664D01*
X31472835Y-27520664D02*
X31490692Y-27530188D01*
X31490692Y-27530188D02*
X31499025Y-27539711D01*
X31499025Y-27539711D02*
X31506168Y-27558759D01*
X31506168Y-27558759D02*
X31503787Y-27577807D01*
X31503787Y-27577807D02*
X31490692Y-27606378D01*
X31490692Y-27606378D02*
X31362120Y-27720664D01*
X31362120Y-27720664D02*
X31485930Y-27720664D01*
X31521644Y-27739711D02*
X31674025Y-27739711D01*
X31724025Y-27720664D02*
X31740692Y-27587330D01*
X31738311Y-27606378D02*
X31749025Y-27596854D01*
X31749025Y-27596854D02*
X31769263Y-27587330D01*
X31769263Y-27587330D02*
X31797835Y-27587330D01*
X31797835Y-27587330D02*
X31815692Y-27596854D01*
X31815692Y-27596854D02*
X31822835Y-27615902D01*
X31822835Y-27615902D02*
X31809740Y-27720664D01*
X31822835Y-27615902D02*
X31834740Y-27596854D01*
X31834740Y-27596854D02*
X31854978Y-27587330D01*
X31854978Y-27587330D02*
X31883549Y-27587330D01*
X31883549Y-27587330D02*
X31901406Y-27596854D01*
X31901406Y-27596854D02*
X31908549Y-27615902D01*
X31908549Y-27615902D02*
X31895454Y-27720664D01*
X32019263Y-27720664D02*
X32001406Y-27711140D01*
X32001406Y-27711140D02*
X31993073Y-27701616D01*
X31993073Y-27701616D02*
X31985930Y-27682568D01*
X31985930Y-27682568D02*
X31993073Y-27625426D01*
X31993073Y-27625426D02*
X32004978Y-27606378D01*
X32004978Y-27606378D02*
X32015692Y-27596854D01*
X32015692Y-27596854D02*
X32035930Y-27587330D01*
X32035930Y-27587330D02*
X32064501Y-27587330D01*
X32064501Y-27587330D02*
X32082359Y-27596854D01*
X32082359Y-27596854D02*
X32090692Y-27606378D01*
X32090692Y-27606378D02*
X32097835Y-27625426D01*
X32097835Y-27625426D02*
X32090692Y-27682568D01*
X32090692Y-27682568D02*
X32078787Y-27701616D01*
X32078787Y-27701616D02*
X32068073Y-27711140D01*
X32068073Y-27711140D02*
X32047835Y-27720664D01*
X32047835Y-27720664D02*
X32019263Y-27720664D01*
X32163311Y-27711140D02*
X32181168Y-27720664D01*
X32181168Y-27720664D02*
X32219263Y-27720664D01*
X32219263Y-27720664D02*
X32239502Y-27711140D01*
X32239502Y-27711140D02*
X32251406Y-27692092D01*
X32251406Y-27692092D02*
X32252597Y-27682568D01*
X32252597Y-27682568D02*
X32245454Y-27663521D01*
X32245454Y-27663521D02*
X32227597Y-27653997D01*
X32227597Y-27653997D02*
X32199025Y-27653997D01*
X32199025Y-27653997D02*
X32181168Y-27644473D01*
X32181168Y-27644473D02*
X32174025Y-27625426D01*
X32174025Y-27625426D02*
X32175216Y-27615902D01*
X32175216Y-27615902D02*
X32187121Y-27596854D01*
X32187121Y-27596854D02*
X32207359Y-27587330D01*
X32207359Y-27587330D02*
X32235930Y-27587330D01*
X32235930Y-27587330D02*
X32253787Y-27596854D01*
X32419263Y-27720664D02*
X32432359Y-27615902D01*
X32432359Y-27615902D02*
X32425216Y-27596854D01*
X32425216Y-27596854D02*
X32407359Y-27587330D01*
X32407359Y-27587330D02*
X32369263Y-27587330D01*
X32369263Y-27587330D02*
X32349025Y-27596854D01*
X32420454Y-27711140D02*
X32400216Y-27720664D01*
X32400216Y-27720664D02*
X32352597Y-27720664D01*
X32352597Y-27720664D02*
X32334740Y-27711140D01*
X32334740Y-27711140D02*
X32327597Y-27692092D01*
X32327597Y-27692092D02*
X32329978Y-27673045D01*
X32329978Y-27673045D02*
X32341883Y-27653997D01*
X32341883Y-27653997D02*
X32362121Y-27644473D01*
X32362121Y-27644473D02*
X32409740Y-27644473D01*
X32409740Y-27644473D02*
X32429978Y-27634949D01*
X32514502Y-27720664D02*
X32531168Y-27587330D01*
X32539502Y-27520664D02*
X32528787Y-27530188D01*
X32528787Y-27530188D02*
X32537121Y-27539711D01*
X32537121Y-27539711D02*
X32547835Y-27530188D01*
X32547835Y-27530188D02*
X32539502Y-27520664D01*
X32539502Y-27520664D02*
X32537121Y-27539711D01*
X32696644Y-27711140D02*
X32676406Y-27720664D01*
X32676406Y-27720664D02*
X32638311Y-27720664D01*
X32638311Y-27720664D02*
X32620454Y-27711140D01*
X32620454Y-27711140D02*
X32612121Y-27701616D01*
X32612121Y-27701616D02*
X32604978Y-27682568D01*
X32604978Y-27682568D02*
X32612121Y-27625426D01*
X32612121Y-27625426D02*
X32624025Y-27606378D01*
X32624025Y-27606378D02*
X32634740Y-27596854D01*
X32634740Y-27596854D02*
X32654978Y-27587330D01*
X32654978Y-27587330D02*
X32693073Y-27587330D01*
X32693073Y-27587330D02*
X32710930Y-27596854D01*
X33062121Y-27530188D02*
X33044264Y-27520664D01*
X33044264Y-27520664D02*
X33015692Y-27520664D01*
X33015692Y-27520664D02*
X32985930Y-27530188D01*
X32985930Y-27530188D02*
X32964502Y-27549235D01*
X32964502Y-27549235D02*
X32952597Y-27568283D01*
X32952597Y-27568283D02*
X32938311Y-27606378D01*
X32938311Y-27606378D02*
X32934740Y-27634949D01*
X32934740Y-27634949D02*
X32939502Y-27673045D01*
X32939502Y-27673045D02*
X32946645Y-27692092D01*
X32946645Y-27692092D02*
X32963311Y-27711140D01*
X32963311Y-27711140D02*
X32990692Y-27720664D01*
X32990692Y-27720664D02*
X33009740Y-27720664D01*
X33009740Y-27720664D02*
X33039502Y-27711140D01*
X33039502Y-27711140D02*
X33050216Y-27701616D01*
X33050216Y-27701616D02*
X33058549Y-27634949D01*
X33058549Y-27634949D02*
X33020454Y-27634949D01*
X33253787Y-27520664D02*
X33158549Y-27520664D01*
X33158549Y-27520664D02*
X33137121Y-27615902D01*
X33137121Y-27615902D02*
X33147835Y-27606378D01*
X33147835Y-27606378D02*
X33168073Y-27596854D01*
X33168073Y-27596854D02*
X33215692Y-27596854D01*
X33215692Y-27596854D02*
X33233549Y-27606378D01*
X33233549Y-27606378D02*
X33241883Y-27615902D01*
X33241883Y-27615902D02*
X33249025Y-27634949D01*
X33249025Y-27634949D02*
X33243073Y-27682568D01*
X33243073Y-27682568D02*
X33231168Y-27701616D01*
X33231168Y-27701616D02*
X33220454Y-27711140D01*
X33220454Y-27711140D02*
X33200216Y-27720664D01*
X33200216Y-27720664D02*
X33152597Y-27720664D01*
X33152597Y-27720664D02*
X33134740Y-27711140D01*
X33134740Y-27711140D02*
X33126406Y-27701616D01*
X33333549Y-27644473D02*
X33485930Y-27644473D01*
X33568073Y-27520664D02*
X33682359Y-27520664D01*
X33600216Y-27720664D02*
X33625216Y-27520664D01*
D10*
D11*
X30194483Y-27260261D02*
X30144483Y-27260261D01*
X30144483Y-27338833D02*
X30144483Y-27188833D01*
X30144483Y-27188833D02*
X30215911Y-27188833D01*
X30273054Y-27338833D02*
X30273054Y-27238833D01*
X30273054Y-27188833D02*
X30265911Y-27195976D01*
X30265911Y-27195976D02*
X30273054Y-27203118D01*
X30273054Y-27203118D02*
X30280197Y-27195976D01*
X30280197Y-27195976D02*
X30273054Y-27188833D01*
X30273054Y-27188833D02*
X30273054Y-27203118D01*
X30365911Y-27338833D02*
X30351625Y-27331690D01*
X30351625Y-27331690D02*
X30344483Y-27317404D01*
X30344483Y-27317404D02*
X30344483Y-27188833D01*
X30480197Y-27331690D02*
X30465911Y-27338833D01*
X30465911Y-27338833D02*
X30437340Y-27338833D01*
X30437340Y-27338833D02*
X30423054Y-27331690D01*
X30423054Y-27331690D02*
X30415911Y-27317404D01*
X30415911Y-27317404D02*
X30415911Y-27260261D01*
X30415911Y-27260261D02*
X30423054Y-27245976D01*
X30423054Y-27245976D02*
X30437340Y-27238833D01*
X30437340Y-27238833D02*
X30465911Y-27238833D01*
X30465911Y-27238833D02*
X30480197Y-27245976D01*
X30480197Y-27245976D02*
X30487340Y-27260261D01*
X30487340Y-27260261D02*
X30487340Y-27274547D01*
X30487340Y-27274547D02*
X30415911Y-27288833D01*
X30551625Y-27324547D02*
X30558768Y-27331690D01*
X30558768Y-27331690D02*
X30551625Y-27338833D01*
X30551625Y-27338833D02*
X30544483Y-27331690D01*
X30544483Y-27331690D02*
X30551625Y-27324547D01*
X30551625Y-27324547D02*
X30551625Y-27338833D01*
X30551625Y-27245976D02*
X30558768Y-27253118D01*
X30558768Y-27253118D02*
X30551625Y-27260261D01*
X30551625Y-27260261D02*
X30544483Y-27253118D01*
X30544483Y-27253118D02*
X30551625Y-27245976D01*
X30551625Y-27245976D02*
X30551625Y-27260261D01*
X30737340Y-27338833D02*
X30737340Y-27188833D01*
X30737340Y-27188833D02*
X30787340Y-27295976D01*
X30787340Y-27295976D02*
X30837340Y-27188833D01*
X30837340Y-27188833D02*
X30837340Y-27338833D01*
X30901625Y-27203118D02*
X30908768Y-27195976D01*
X30908768Y-27195976D02*
X30923054Y-27188833D01*
X30923054Y-27188833D02*
X30958768Y-27188833D01*
X30958768Y-27188833D02*
X30973054Y-27195976D01*
X30973054Y-27195976D02*
X30980197Y-27203118D01*
X30980197Y-27203118D02*
X30987340Y-27217404D01*
X30987340Y-27217404D02*
X30987340Y-27231690D01*
X30987340Y-27231690D02*
X30980197Y-27253118D01*
X30980197Y-27253118D02*
X30894483Y-27338833D01*
X30894483Y-27338833D02*
X30987340Y-27338833D01*
X31015911Y-27353118D02*
X31130197Y-27353118D01*
X31165911Y-27338833D02*
X31165911Y-27238833D01*
X31165911Y-27253118D02*
X31173054Y-27245976D01*
X31173054Y-27245976D02*
X31187340Y-27238833D01*
X31187340Y-27238833D02*
X31208768Y-27238833D01*
X31208768Y-27238833D02*
X31223054Y-27245976D01*
X31223054Y-27245976D02*
X31230197Y-27260261D01*
X31230197Y-27260261D02*
X31230197Y-27338833D01*
X31230197Y-27260261D02*
X31237340Y-27245976D01*
X31237340Y-27245976D02*
X31251625Y-27238833D01*
X31251625Y-27238833D02*
X31273054Y-27238833D01*
X31273054Y-27238833D02*
X31287340Y-27245976D01*
X31287340Y-27245976D02*
X31294483Y-27260261D01*
X31294483Y-27260261D02*
X31294483Y-27338833D01*
X31387340Y-27338833D02*
X31373054Y-27331690D01*
X31373054Y-27331690D02*
X31365911Y-27324547D01*
X31365911Y-27324547D02*
X31358768Y-27310261D01*
X31358768Y-27310261D02*
X31358768Y-27267404D01*
X31358768Y-27267404D02*
X31365911Y-27253118D01*
X31365911Y-27253118D02*
X31373054Y-27245976D01*
X31373054Y-27245976D02*
X31387340Y-27238833D01*
X31387340Y-27238833D02*
X31408768Y-27238833D01*
X31408768Y-27238833D02*
X31423054Y-27245976D01*
X31423054Y-27245976D02*
X31430197Y-27253118D01*
X31430197Y-27253118D02*
X31437340Y-27267404D01*
X31437340Y-27267404D02*
X31437340Y-27310261D01*
X31437340Y-27310261D02*
X31430197Y-27324547D01*
X31430197Y-27324547D02*
X31423054Y-27331690D01*
X31423054Y-27331690D02*
X31408768Y-27338833D01*
X31408768Y-27338833D02*
X31387340Y-27338833D01*
X31494483Y-27331690D02*
X31508768Y-27338833D01*
X31508768Y-27338833D02*
X31537340Y-27338833D01*
X31537340Y-27338833D02*
X31551625Y-27331690D01*
X31551625Y-27331690D02*
X31558768Y-27317404D01*
X31558768Y-27317404D02*
X31558768Y-27310261D01*
X31558768Y-27310261D02*
X31551625Y-27295976D01*
X31551625Y-27295976D02*
X31537340Y-27288833D01*
X31537340Y-27288833D02*
X31515911Y-27288833D01*
X31515911Y-27288833D02*
X31501625Y-27281690D01*
X31501625Y-27281690D02*
X31494483Y-27267404D01*
X31494483Y-27267404D02*
X31494483Y-27260261D01*
X31494483Y-27260261D02*
X31501625Y-27245976D01*
X31501625Y-27245976D02*
X31515911Y-27238833D01*
X31515911Y-27238833D02*
X31537340Y-27238833D01*
X31537340Y-27238833D02*
X31551625Y-27245976D01*
X31687340Y-27338833D02*
X31687340Y-27260261D01*
X31687340Y-27260261D02*
X31680197Y-27245976D01*
X31680197Y-27245976D02*
X31665911Y-27238833D01*
X31665911Y-27238833D02*
X31637340Y-27238833D01*
X31637340Y-27238833D02*
X31623054Y-27245976D01*
X31687340Y-27331690D02*
X31673054Y-27338833D01*
X31673054Y-27338833D02*
X31637340Y-27338833D01*
X31637340Y-27338833D02*
X31623054Y-27331690D01*
X31623054Y-27331690D02*
X31615911Y-27317404D01*
X31615911Y-27317404D02*
X31615911Y-27303118D01*
X31615911Y-27303118D02*
X31623054Y-27288833D01*
X31623054Y-27288833D02*
X31637340Y-27281690D01*
X31637340Y-27281690D02*
X31673054Y-27281690D01*
X31673054Y-27281690D02*
X31687340Y-27274547D01*
X31758768Y-27338833D02*
X31758768Y-27238833D01*
X31758768Y-27188833D02*
X31751625Y-27195976D01*
X31751625Y-27195976D02*
X31758768Y-27203118D01*
X31758768Y-27203118D02*
X31765911Y-27195976D01*
X31765911Y-27195976D02*
X31758768Y-27188833D01*
X31758768Y-27188833D02*
X31758768Y-27203118D01*
X31894483Y-27331690D02*
X31880197Y-27338833D01*
X31880197Y-27338833D02*
X31851625Y-27338833D01*
X31851625Y-27338833D02*
X31837340Y-27331690D01*
X31837340Y-27331690D02*
X31830197Y-27324547D01*
X31830197Y-27324547D02*
X31823054Y-27310261D01*
X31823054Y-27310261D02*
X31823054Y-27267404D01*
X31823054Y-27267404D02*
X31830197Y-27253118D01*
X31830197Y-27253118D02*
X31837340Y-27245976D01*
X31837340Y-27245976D02*
X31851625Y-27238833D01*
X31851625Y-27238833D02*
X31880197Y-27238833D01*
X31880197Y-27238833D02*
X31894483Y-27245976D01*
X32037340Y-27195976D02*
X32023054Y-27188833D01*
X32023054Y-27188833D02*
X32001625Y-27188833D01*
X32001625Y-27188833D02*
X31980197Y-27195976D01*
X31980197Y-27195976D02*
X31965911Y-27210261D01*
X31965911Y-27210261D02*
X31958768Y-27224547D01*
X31958768Y-27224547D02*
X31951625Y-27253118D01*
X31951625Y-27253118D02*
X31951625Y-27274547D01*
X31951625Y-27274547D02*
X31958768Y-27303118D01*
X31958768Y-27303118D02*
X31965911Y-27317404D01*
X31965911Y-27317404D02*
X31980197Y-27331690D01*
X31980197Y-27331690D02*
X32001625Y-27338833D01*
X32001625Y-27338833D02*
X32015911Y-27338833D01*
X32015911Y-27338833D02*
X32037340Y-27331690D01*
X32037340Y-27331690D02*
X32044483Y-27324547D01*
X32044483Y-27324547D02*
X32044483Y-27274547D01*
X32044483Y-27274547D02*
X32015911Y-27274547D01*
X32180197Y-27188833D02*
X32108768Y-27188833D01*
X32108768Y-27188833D02*
X32101625Y-27260261D01*
X32101625Y-27260261D02*
X32108768Y-27253118D01*
X32108768Y-27253118D02*
X32123054Y-27245976D01*
X32123054Y-27245976D02*
X32158768Y-27245976D01*
X32158768Y-27245976D02*
X32173054Y-27253118D01*
X32173054Y-27253118D02*
X32180197Y-27260261D01*
X32180197Y-27260261D02*
X32187340Y-27274547D01*
X32187340Y-27274547D02*
X32187340Y-27310261D01*
X32187340Y-27310261D02*
X32180197Y-27324547D01*
X32180197Y-27324547D02*
X32173054Y-27331690D01*
X32173054Y-27331690D02*
X32158768Y-27338833D01*
X32158768Y-27338833D02*
X32123054Y-27338833D01*
X32123054Y-27338833D02*
X32108768Y-27331690D01*
X32108768Y-27331690D02*
X32101625Y-27324547D01*
X32251625Y-27324547D02*
X32258768Y-27331690D01*
X32258768Y-27331690D02*
X32251625Y-27338833D01*
X32251625Y-27338833D02*
X32244483Y-27331690D01*
X32244483Y-27331690D02*
X32251625Y-27324547D01*
X32251625Y-27324547D02*
X32251625Y-27338833D01*
X32323054Y-27338833D02*
X32323054Y-27188833D01*
X32337340Y-27281690D02*
X32380197Y-27338833D01*
X32380197Y-27238833D02*
X32323054Y-27295976D01*
X32444483Y-27338833D02*
X32444483Y-27238833D01*
X32444483Y-27188833D02*
X32437340Y-27195976D01*
X32437340Y-27195976D02*
X32444483Y-27203118D01*
X32444483Y-27203118D02*
X32451625Y-27195976D01*
X32451625Y-27195976D02*
X32444483Y-27188833D01*
X32444483Y-27188833D02*
X32444483Y-27203118D01*
X32580197Y-27331690D02*
X32565911Y-27338833D01*
X32565911Y-27338833D02*
X32537340Y-27338833D01*
X32537340Y-27338833D02*
X32523054Y-27331690D01*
X32523054Y-27331690D02*
X32515911Y-27324547D01*
X32515911Y-27324547D02*
X32508768Y-27310261D01*
X32508768Y-27310261D02*
X32508768Y-27267404D01*
X32508768Y-27267404D02*
X32515911Y-27253118D01*
X32515911Y-27253118D02*
X32523054Y-27245976D01*
X32523054Y-27245976D02*
X32537340Y-27238833D01*
X32537340Y-27238833D02*
X32565911Y-27238833D01*
X32565911Y-27238833D02*
X32580197Y-27245976D01*
X32708768Y-27338833D02*
X32708768Y-27260261D01*
X32708768Y-27260261D02*
X32701625Y-27245976D01*
X32701625Y-27245976D02*
X32687340Y-27238833D01*
X32687340Y-27238833D02*
X32658768Y-27238833D01*
X32658768Y-27238833D02*
X32644483Y-27245976D01*
X32708768Y-27331690D02*
X32694483Y-27338833D01*
X32694483Y-27338833D02*
X32658768Y-27338833D01*
X32658768Y-27338833D02*
X32644483Y-27331690D01*
X32644483Y-27331690D02*
X32637340Y-27317404D01*
X32637340Y-27317404D02*
X32637340Y-27303118D01*
X32637340Y-27303118D02*
X32644483Y-27288833D01*
X32644483Y-27288833D02*
X32658768Y-27281690D01*
X32658768Y-27281690D02*
X32694483Y-27281690D01*
X32694483Y-27281690D02*
X32708768Y-27274547D01*
X32844483Y-27338833D02*
X32844483Y-27188833D01*
X32844483Y-27331690D02*
X32830197Y-27338833D01*
X32830197Y-27338833D02*
X32801625Y-27338833D01*
X32801625Y-27338833D02*
X32787340Y-27331690D01*
X32787340Y-27331690D02*
X32780197Y-27324547D01*
X32780197Y-27324547D02*
X32773054Y-27310261D01*
X32773054Y-27310261D02*
X32773054Y-27267404D01*
X32773054Y-27267404D02*
X32780197Y-27253118D01*
X32780197Y-27253118D02*
X32787340Y-27245976D01*
X32787340Y-27245976D02*
X32801625Y-27238833D01*
X32801625Y-27238833D02*
X32830197Y-27238833D01*
X32830197Y-27238833D02*
X32844483Y-27245976D01*
X32880197Y-27353118D02*
X32994483Y-27353118D01*
X33030197Y-27238833D02*
X33030197Y-27388833D01*
X33030197Y-27245976D02*
X33044483Y-27238833D01*
X33044483Y-27238833D02*
X33073054Y-27238833D01*
X33073054Y-27238833D02*
X33087340Y-27245976D01*
X33087340Y-27245976D02*
X33094483Y-27253118D01*
X33094483Y-27253118D02*
X33101625Y-27267404D01*
X33101625Y-27267404D02*
X33101625Y-27310261D01*
X33101625Y-27310261D02*
X33094483Y-27324547D01*
X33094483Y-27324547D02*
X33087340Y-27331690D01*
X33087340Y-27331690D02*
X33073054Y-27338833D01*
X33073054Y-27338833D02*
X33044483Y-27338833D01*
X33044483Y-27338833D02*
X33030197Y-27331690D01*
X33230197Y-27331690D02*
X33215911Y-27338833D01*
X33215911Y-27338833D02*
X33187340Y-27338833D01*
X33187340Y-27338833D02*
X33173054Y-27331690D01*
X33173054Y-27331690D02*
X33165911Y-27324547D01*
X33165911Y-27324547D02*
X33158768Y-27310261D01*
X33158768Y-27310261D02*
X33158768Y-27267404D01*
X33158768Y-27267404D02*
X33165911Y-27253118D01*
X33165911Y-27253118D02*
X33173054Y-27245976D01*
X33173054Y-27245976D02*
X33187340Y-27238833D01*
X33187340Y-27238833D02*
X33215911Y-27238833D01*
X33215911Y-27238833D02*
X33230197Y-27245976D01*
X33294483Y-27338833D02*
X33294483Y-27188833D01*
X33294483Y-27245976D02*
X33308768Y-27238833D01*
X33308768Y-27238833D02*
X33337340Y-27238833D01*
X33337340Y-27238833D02*
X33351625Y-27245976D01*
X33351625Y-27245976D02*
X33358768Y-27253118D01*
X33358768Y-27253118D02*
X33365911Y-27267404D01*
X33365911Y-27267404D02*
X33365911Y-27310261D01*
X33365911Y-27310261D02*
X33358768Y-27324547D01*
X33358768Y-27324547D02*
X33351625Y-27331690D01*
X33351625Y-27331690D02*
X33337340Y-27338833D01*
X33337340Y-27338833D02*
X33308768Y-27338833D01*
X33308768Y-27338833D02*
X33294483Y-27331690D01*
D10*
D11*
X29998900Y-26850220D02*
X40798900Y-26850220D01*
D10*
D11*
X30137340Y-27061690D02*
X30158768Y-27068833D01*
X30158768Y-27068833D02*
X30194483Y-27068833D01*
X30194483Y-27068833D02*
X30208768Y-27061690D01*
X30208768Y-27061690D02*
X30215911Y-27054547D01*
X30215911Y-27054547D02*
X30223054Y-27040261D01*
X30223054Y-27040261D02*
X30223054Y-27025976D01*
X30223054Y-27025976D02*
X30215911Y-27011690D01*
X30215911Y-27011690D02*
X30208768Y-27004547D01*
X30208768Y-27004547D02*
X30194483Y-26997404D01*
X30194483Y-26997404D02*
X30165911Y-26990261D01*
X30165911Y-26990261D02*
X30151625Y-26983118D01*
X30151625Y-26983118D02*
X30144483Y-26975976D01*
X30144483Y-26975976D02*
X30137340Y-26961690D01*
X30137340Y-26961690D02*
X30137340Y-26947404D01*
X30137340Y-26947404D02*
X30144483Y-26933118D01*
X30144483Y-26933118D02*
X30151625Y-26925976D01*
X30151625Y-26925976D02*
X30165911Y-26918833D01*
X30165911Y-26918833D02*
X30201625Y-26918833D01*
X30201625Y-26918833D02*
X30223054Y-26925976D01*
X30287340Y-27068833D02*
X30287340Y-26918833D01*
X30351625Y-27068833D02*
X30351625Y-26990261D01*
X30351625Y-26990261D02*
X30344483Y-26975976D01*
X30344483Y-26975976D02*
X30330197Y-26968833D01*
X30330197Y-26968833D02*
X30308768Y-26968833D01*
X30308768Y-26968833D02*
X30294483Y-26975976D01*
X30294483Y-26975976D02*
X30287340Y-26983118D01*
X30480197Y-27061690D02*
X30465911Y-27068833D01*
X30465911Y-27068833D02*
X30437340Y-27068833D01*
X30437340Y-27068833D02*
X30423054Y-27061690D01*
X30423054Y-27061690D02*
X30415911Y-27047404D01*
X30415911Y-27047404D02*
X30415911Y-26990261D01*
X30415911Y-26990261D02*
X30423054Y-26975976D01*
X30423054Y-26975976D02*
X30437340Y-26968833D01*
X30437340Y-26968833D02*
X30465911Y-26968833D01*
X30465911Y-26968833D02*
X30480197Y-26975976D01*
X30480197Y-26975976D02*
X30487340Y-26990261D01*
X30487340Y-26990261D02*
X30487340Y-27004547D01*
X30487340Y-27004547D02*
X30415911Y-27018833D01*
X30608768Y-27061690D02*
X30594483Y-27068833D01*
X30594483Y-27068833D02*
X30565911Y-27068833D01*
X30565911Y-27068833D02*
X30551625Y-27061690D01*
X30551625Y-27061690D02*
X30544483Y-27047404D01*
X30544483Y-27047404D02*
X30544483Y-26990261D01*
X30544483Y-26990261D02*
X30551625Y-26975976D01*
X30551625Y-26975976D02*
X30565911Y-26968833D01*
X30565911Y-26968833D02*
X30594483Y-26968833D01*
X30594483Y-26968833D02*
X30608768Y-26975976D01*
X30608768Y-26975976D02*
X30615911Y-26990261D01*
X30615911Y-26990261D02*
X30615911Y-27004547D01*
X30615911Y-27004547D02*
X30544483Y-27018833D01*
X30658768Y-26968833D02*
X30715911Y-26968833D01*
X30680197Y-26918833D02*
X30680197Y-27047404D01*
X30680197Y-27047404D02*
X30687340Y-27061690D01*
X30687340Y-27061690D02*
X30701625Y-27068833D01*
X30701625Y-27068833D02*
X30715911Y-27068833D01*
X30765911Y-27054547D02*
X30773054Y-27061690D01*
X30773054Y-27061690D02*
X30765911Y-27068833D01*
X30765911Y-27068833D02*
X30758768Y-27061690D01*
X30758768Y-27061690D02*
X30765911Y-27054547D01*
X30765911Y-27054547D02*
X30765911Y-27068833D01*
X30765911Y-26975976D02*
X30773054Y-26983118D01*
X30773054Y-26983118D02*
X30765911Y-26990261D01*
X30765911Y-26990261D02*
X30758768Y-26983118D01*
X30758768Y-26983118D02*
X30765911Y-26975976D01*
X30765911Y-26975976D02*
X30765911Y-26990261D01*
D10*
D12*
X30147208Y-26760910D02*
X30168637Y-26768053D01*
X30168637Y-26768053D02*
X30204351Y-26768053D01*
X30204351Y-26768053D02*
X30218637Y-26760910D01*
X30218637Y-26760910D02*
X30225780Y-26753767D01*
X30225780Y-26753767D02*
X30232922Y-26739481D01*
X30232922Y-26739481D02*
X30232922Y-26725196D01*
X30232922Y-26725196D02*
X30225780Y-26710910D01*
X30225780Y-26710910D02*
X30218637Y-26703767D01*
X30218637Y-26703767D02*
X30204351Y-26696624D01*
X30204351Y-26696624D02*
X30175780Y-26689481D01*
X30175780Y-26689481D02*
X30161494Y-26682338D01*
X30161494Y-26682338D02*
X30154351Y-26675196D01*
X30154351Y-26675196D02*
X30147208Y-26660910D01*
X30147208Y-26660910D02*
X30147208Y-26646624D01*
X30147208Y-26646624D02*
X30154351Y-26632338D01*
X30154351Y-26632338D02*
X30161494Y-26625196D01*
X30161494Y-26625196D02*
X30175780Y-26618053D01*
X30175780Y-26618053D02*
X30211494Y-26618053D01*
X30211494Y-26618053D02*
X30232922Y-26625196D01*
X30354351Y-26760910D02*
X30340065Y-26768053D01*
X30340065Y-26768053D02*
X30311494Y-26768053D01*
X30311494Y-26768053D02*
X30297208Y-26760910D01*
X30297208Y-26760910D02*
X30290065Y-26746624D01*
X30290065Y-26746624D02*
X30290065Y-26689481D01*
X30290065Y-26689481D02*
X30297208Y-26675196D01*
X30297208Y-26675196D02*
X30311494Y-26668053D01*
X30311494Y-26668053D02*
X30340065Y-26668053D01*
X30340065Y-26668053D02*
X30354351Y-26675196D01*
X30354351Y-26675196D02*
X30361494Y-26689481D01*
X30361494Y-26689481D02*
X30361494Y-26703767D01*
X30361494Y-26703767D02*
X30290065Y-26718053D01*
X30425779Y-26668053D02*
X30425779Y-26818053D01*
X30425779Y-26675196D02*
X30440065Y-26668053D01*
X30440065Y-26668053D02*
X30468637Y-26668053D01*
X30468637Y-26668053D02*
X30482922Y-26675196D01*
X30482922Y-26675196D02*
X30490065Y-26682338D01*
X30490065Y-26682338D02*
X30497208Y-26696624D01*
X30497208Y-26696624D02*
X30497208Y-26739481D01*
X30497208Y-26739481D02*
X30490065Y-26753767D01*
X30490065Y-26753767D02*
X30482922Y-26760910D01*
X30482922Y-26760910D02*
X30468637Y-26768053D01*
X30468637Y-26768053D02*
X30440065Y-26768053D01*
X30440065Y-26768053D02*
X30425779Y-26760910D01*
X30540065Y-26668053D02*
X30597208Y-26668053D01*
X30561494Y-26618053D02*
X30561494Y-26746624D01*
X30561494Y-26746624D02*
X30568637Y-26760910D01*
X30568637Y-26760910D02*
X30582922Y-26768053D01*
X30582922Y-26768053D02*
X30597208Y-26768053D01*
X30704351Y-26760910D02*
X30690065Y-26768053D01*
X30690065Y-26768053D02*
X30661494Y-26768053D01*
X30661494Y-26768053D02*
X30647208Y-26760910D01*
X30647208Y-26760910D02*
X30640065Y-26746624D01*
X30640065Y-26746624D02*
X30640065Y-26689481D01*
X30640065Y-26689481D02*
X30647208Y-26675196D01*
X30647208Y-26675196D02*
X30661494Y-26668053D01*
X30661494Y-26668053D02*
X30690065Y-26668053D01*
X30690065Y-26668053D02*
X30704351Y-26675196D01*
X30704351Y-26675196D02*
X30711494Y-26689481D01*
X30711494Y-26689481D02*
X30711494Y-26703767D01*
X30711494Y-26703767D02*
X30640065Y-26718053D01*
X30775779Y-26668053D02*
X30775779Y-26768053D01*
X30775779Y-26682338D02*
X30782922Y-26675196D01*
X30782922Y-26675196D02*
X30797208Y-26668053D01*
X30797208Y-26668053D02*
X30818637Y-26668053D01*
X30818637Y-26668053D02*
X30832922Y-26675196D01*
X30832922Y-26675196D02*
X30840065Y-26689481D01*
X30840065Y-26689481D02*
X30840065Y-26768053D01*
X30890065Y-26668053D02*
X30947208Y-26668053D01*
X30911494Y-26618053D02*
X30911494Y-26746624D01*
X30911494Y-26746624D02*
X30918637Y-26760910D01*
X30918637Y-26760910D02*
X30932922Y-26768053D01*
X30932922Y-26768053D02*
X30947208Y-26768053D01*
X30997208Y-26768053D02*
X30997208Y-26668053D01*
X30997208Y-26696624D02*
X31004351Y-26682338D01*
X31004351Y-26682338D02*
X31011494Y-26675196D01*
X31011494Y-26675196D02*
X31025780Y-26668053D01*
X31025780Y-26668053D02*
X31040065Y-26668053D01*
X31090065Y-26768053D02*
X31090065Y-26668053D01*
X31090065Y-26618053D02*
X31082922Y-26625196D01*
X31082922Y-26625196D02*
X31090065Y-26632338D01*
X31090065Y-26632338D02*
X31097208Y-26625196D01*
X31097208Y-26625196D02*
X31090065Y-26618053D01*
X31090065Y-26618053D02*
X31090065Y-26632338D01*
X31182922Y-26768053D02*
X31168637Y-26760910D01*
X31168637Y-26760910D02*
X31161494Y-26753767D01*
X31161494Y-26753767D02*
X31154351Y-26739481D01*
X31154351Y-26739481D02*
X31154351Y-26696624D01*
X31154351Y-26696624D02*
X31161494Y-26682338D01*
X31161494Y-26682338D02*
X31168637Y-26675196D01*
X31168637Y-26675196D02*
X31182922Y-26668053D01*
X31182922Y-26668053D02*
X31204351Y-26668053D01*
X31204351Y-26668053D02*
X31218637Y-26675196D01*
X31218637Y-26675196D02*
X31225780Y-26682338D01*
X31225780Y-26682338D02*
X31232922Y-26696624D01*
X31232922Y-26696624D02*
X31232922Y-26739481D01*
X31232922Y-26739481D02*
X31225780Y-26753767D01*
X31225780Y-26753767D02*
X31218637Y-26760910D01*
X31218637Y-26760910D02*
X31204351Y-26768053D01*
X31204351Y-26768053D02*
X31182922Y-26768053D01*
D10*
D11*
X31998900Y-27850220D02*
X31998900Y-28150220D01*
D10*
D11*
X38398900Y-27850220D02*
X38398900Y-28500220D01*
D14*
X10566723Y-13802105D02*
X10536723Y-13802105D01*
X8487729Y-14202105D02*
X8486873Y-13861954D01*
X10536723Y-10002105D02*
X9661723Y-10002105D01*
X10486723Y-13852105D02*
G75*
G02*
X10536723Y-13802113I49997J-5D01*
G01*
X8386723Y-13802105D02*
X8426874Y-13802105D01*
X9986723Y-13916105D02*
X9986723Y-14202105D01*
X8436723Y-10002105D02*
X9311723Y-10002105D01*
X10536723Y-10002105D02*
G75*
G02*
X10586725Y-10052105I-3J-50005D01*
G01*
X8426874Y-13802105D02*
G75*
G02*
X8486874Y-13861954I-4J-60005D01*
G01*
X10106723Y-14202105D02*
X10106798Y-13916105D01*
X8386723Y-13802105D02*
X8386723Y-10052105D01*
X10586723Y-10052105D02*
X10586723Y-13782105D01*
X10586723Y-13782105D02*
G75*
G02*
X10566723Y-13802113I-20003J-5D01*
G01*
X9986723Y-14202105D02*
X8487729Y-14202105D01*
X9661723Y-10002105D02*
G75*
G02*
X9311723Y-10002105I-175000J0D01*
G01*
X8386723Y-10052105D02*
G75*
G02*
X8436723Y-10002113I49997J-5D01*
G01*
X10486723Y-13852105D02*
X10486723Y-14202105D01*
X9986648Y-13916105D02*
G75*
G02*
X10106798Y-13916105I60075J0D01*
G01*
X10106723Y-14202105D02*
X10486723Y-14202105D01*
M02*
